<svg width="131" height="131" viewBox="0 0 131 131" fill="none" xmlns="http://www.w3.org/2000/svg">
<g clip-path="url(#clip0)">
<path d="M5.93746 127.721L19.96 85.952C21.6153 81.0216 25.4233 77.1119 30.3087 75.3278L57.6321 65.3487L59.0415 64.8341C62.5963 63.5357 66.0436 65.3438 67.3751 68.8864C68.699 72.4081 66.9567 76.0962 63.459 77.482L55.8296 80.4541C52.9278 81.6039 51.0126 85.374 52.1523 88.2797C52.434 88.9978 53.3361 89.6266 53.8414 90.1488C54.0746 90.3898 54.3276 90.6083 54.5968 90.8026C56.077 91.8707 58.0439 92.2039 59.8804 91.5251L96.8285 77.871L107.03 59.091C107.399 58.4116 107.878 57.8249 108.434 57.3429C110.103 55.8973 112.47 55.8865 114.654 56.6666L114.409 56.4217C117.72 57.604 119.413 61.2751 118.164 64.561L108.452 89.2163C107.683 91.2376 106.177 92.8924 104.236 93.8464L98.3464 96.9834L50.3011 120.607C48.9346 121.279 48.069 122.669 48.069 124.191V128.356C48.069 129.459 47.1747 130.353 46.0717 130.353H7.83084C6.46579 130.354 5.50294 129.015 5.93746 127.721Z" fill="#FED2A4"/>
<path d="M114.654 56.1767C112.675 55.4701 110.549 55.8171 108.925 56.9627C111.205 58.5727 112.209 61.5776 111.168 64.3163L99.7914 94.2849C99.378 95.3724 98.7492 96.3521 97.9559 97.1756L98.3463 96.9836L104.726 93.8467C106.667 92.8924 108.173 91.2378 108.942 89.2166L118.409 64.3163C119.658 61.0302 117.965 57.3593 114.654 56.1767Z" fill="#FFBD86"/>
<path d="M60.6238 68.8863C61.9477 72.4081 60.2054 76.3411 56.7077 77.7269L48.5884 80.944C45.6866 82.0937 44.2613 85.3739 45.401 88.2797C46.5275 91.1518 49.7453 92.5948 52.6392 91.5251L54.5973 90.8015C53.7451 90.1865 53.0534 89.329 52.6419 88.2797C51.5022 85.3739 52.9275 82.0937 55.8293 80.944L63.9486 77.7269C67.4463 76.3411 69.1886 72.4081 67.8647 68.8863C66.5329 65.3438 62.596 63.5356 59.0412 64.8341L57.6318 65.3487C58.9609 66.1198 60.0415 67.3371 60.6238 68.8863Z" fill="#FFBD86"/>
<path fill-rule="evenodd" clip-rule="evenodd" d="M90.9179 32.7227H99.2695V18.8342C99.2695 9.74117 91.3186 2.50781 81.75 2.50781C72.1814 2.50781 64.2305 9.74117 64.2305 18.8342V32.7227H72.5821V18.8342C72.5821 14.2922 76.6031 10.4327 81.75 10.4327C86.8969 10.4327 90.9179 14.2922 90.9179 18.8342V32.7227Z" fill="#C7C7C7"/>
<path d="M87.165 65.9844H77.5741C67.6806 65.9844 59.6602 57.9642 59.6602 48.0704V29.9507C59.6602 29.3984 60.1079 28.9507 60.6602 28.9507H104.079C104.631 28.9507 105.079 29.3984 105.079 29.9507V48.0704C105.079 57.9639 97.0588 65.9844 87.165 65.9844Z" fill="url(#paint0_linear)"/>
<path d="M104.079 28.9509C104.631 28.9509 105.079 29.3986 105.079 29.9509V48.07C105.079 57.9647 97.0601 65.9834 87.1654 65.9834H83.3688C82.8166 65.9834 82.3688 65.5357 82.3688 64.9834V29.9509C82.3688 29.3986 82.8166 28.9509 83.3688 28.9509H104.079Z" fill="#2CCCD4"/>
<path d="M89.3259 43.8605C89.3259 40.0185 86.2114 36.9041 82.3695 36.9041C78.5275 36.9041 75.4131 40.0185 75.4131 43.8605C75.4131 46.1897 76.562 48.2465 78.32 49.509V53.9822C78.32 56.2187 80.133 58.032 82.3695 58.032C84.6059 58.032 86.4192 56.219 86.4192 53.9822V49.509C88.1769 48.2465 89.3259 46.1897 89.3259 43.8605Z" fill="#231F20"/>
<path fill-rule="evenodd" clip-rule="evenodd" d="M80.6052 48.3367V53.9822C80.6052 54.9568 81.3953 55.7468 82.3695 55.7468C83.344 55.7468 84.1341 54.9568 84.1341 53.9822V48.3368L85.0861 47.653C86.2757 46.7985 87.0407 45.4181 87.0407 43.8605C87.0407 41.2805 84.9494 39.1892 82.3695 39.1892C79.7896 39.1892 77.6982 41.2805 77.6982 43.8605C77.6982 45.4181 78.4632 46.7984 79.653 47.6529L80.6052 48.3367ZM82.3695 36.9041C86.2114 36.9041 89.3259 40.0185 89.3259 43.8605C89.3259 46.1897 88.1769 48.2465 86.4192 49.509V53.9822C86.4192 56.219 84.6059 58.032 82.3695 58.032C80.133 58.032 78.32 56.2187 78.32 53.9822V49.509C76.562 48.2465 75.4131 46.1897 75.4131 43.8605C75.4131 40.0185 78.5275 36.9041 82.3695 36.9041Z" fill="url(#paint1_linear)"/>
</g>
<defs>
<linearGradient id="paint0_linear" x1="105.079" y1="47.4675" x2="59.6602" y2="47.4675" gradientUnits="userSpaceOnUse">
<stop stop-color="#204BB9"/>
<stop offset="1" stop-color="#2CCCD4"/>
</linearGradient>
<linearGradient id="paint1_linear" x1="82.3695" y1="36.9041" x2="82.3695" y2="58.032" gradientUnits="userSpaceOnUse">
<stop stop-color="white"/>
<stop offset="1" stop-color="#C7C7C7"/>
</linearGradient>
<clipPath id="clip0">
<rect width="130" height="130" fill="white" transform="translate(0.5 0.476562)"/>
</clipPath>
</defs>
</svg>
