<svg width="131" height="131" viewBox="0 0 131 131" fill="none" xmlns="http://www.w3.org/2000/svg">
<path d="M78.4395 82.7422H50.1289C42.925 82.7422 37.0625 76.8564 37.0625 69.6237C37.0625 63.2481 41.6096 57.9264 47.6202 56.7457C49.885 48.9752 57.1064 43.3867 65.373 43.3867C71.9019 43.3867 77.9386 46.8719 81.24 52.4035C88.3525 53.711 93.6836 59.9772 93.6836 67.4373C93.6836 75.8768 86.8455 82.7422 78.4395 82.7422Z" fill="url(#paint0_linear)"/>
<path d="M65.2879 20.5683C73.9715 20.5683 81.838 22.8368 88.8797 27.2968L85.0583 31.2957C82.6396 33.7214 84.3473 37.8711 87.7626 37.9041L103.478 39.9439H103.517C105.658 39.9439 107.395 38.208 107.395 36.0688V36.042L105.966 19.7247C105.944 16.2906 101.768 14.5855 99.3475 17.0147L94.8452 21.5144C86.2511 15.6661 76.0526 12.4102 65.2879 12.4102C36.1426 12.4102 12.4336 36.1056 12.4336 65.2341C12.4336 70.3932 13.1911 75.5257 14.6884 80.4905C15.2026 82.2108 16.9811 83.25 18.6047 83.25H18.6417L19.8801 83.0999L19.931 83.0845C21.9775 82.4647 23.1404 80.3058 22.5254 78.255L22.525 78.2539C21.2449 74.0165 20.5964 69.6337 20.5964 65.2341C20.5964 40.3797 40.4192 20.5683 65.2879 20.5683Z" fill="#C7C7C7"/>
<path d="M65.2161 109.989C56.5334 109.948 48.6785 107.641 41.6585 103.146L45.4984 99.1634C47.9282 96.7481 46.2403 92.5884 42.8255 92.5392L27.1219 90.4245L27.0823 90.4243C24.942 90.4142 23.1972 92.1427 23.1871 94.283L23.187 94.3097L24.5385 110.641C24.5447 114.077 28.712 115.803 31.1434 113.384L35.6664 108.903C44.232 114.795 54.4142 118.1 65.1776 118.151C94.3198 118.288 118.138 94.6934 118.275 65.5513C118.3 60.3897 117.566 55.2513 116.093 50.2771C115.587 48.5536 113.813 47.5055 112.19 47.4979L112.153 47.4977L110.914 47.642L110.863 47.6572C108.814 48.2677 107.641 50.4221 108.246 52.4767L108.246 52.4779C109.506 56.7232 110.134 61.1111 110.113 65.5128C109.996 90.3788 90.0821 110.106 65.2161 109.989Z" fill="#9AA3A7"/>
<defs>
<linearGradient id="paint0_linear" x1="93.6836" y1="63.0644" x2="37.0625" y2="63.0644" gradientUnits="userSpaceOnUse">
<stop stop-color="#204BB9"/>
<stop offset="1" stop-color="#2CCCD4"/>
</linearGradient>
</defs>
</svg>
