<svg width="131" height="131" viewBox="0 0 131 131" fill="none" xmlns="http://www.w3.org/2000/svg">
<path d="M83.522 29.1544V48.1302C83.522 50.8201 85.7228 53.0209 88.4127 53.0209H100.639V59.3543C100.639 61.2617 102.18 62.8022 104.087 62.8022C105.017 62.8022 105.897 62.4354 106.533 61.7997L115.311 53.0209H122.647C125.337 53.0209 127.538 50.8201 127.538 48.1302V28.5675C127.538 25.8777 125.337 23.6769 122.647 23.6769H85.9674C85.9674 25.7065 85.136 27.5405 83.8155 28.861C83.7177 28.9588 83.6199 29.0566 83.4976 29.13L83.522 29.1544Z" fill="#F0F0F4"/>
<path d="M91.5787 93.8714V118.123C91.5787 119.525 90.442 120.662 89.0397 120.662H6.08575C4.68346 120.662 3.54668 119.525 3.54668 118.123V93.8714C3.54668 86.6088 6.43218 79.6396 11.5674 74.5044C15.8712 70.2006 21.4954 67.4373 27.5354 66.6793L37.7814 65.4077H57.344L67.59 66.6793C73.63 67.4373 79.2542 70.2006 83.558 74.5044C86.1256 77.072 88.1308 80.1042 89.5002 83.3809C90.8451 86.6821 91.5787 90.2523 91.5787 93.8714Z" fill="url(#paint0_linear)"/>
<path d="M79.9634 84.9444V103.628V116.084V122.312C79.9634 125.758 74.5107 128.54 67.7558 128.54H27.0639C20.3091 128.54 14.8563 125.758 14.8563 122.312V116.084V103.628V84.9444C14.8563 81.4983 20.3091 78.7164 27.0639 78.7164H67.7558C74.5107 78.7164 79.9634 81.4983 79.9634 84.9444Z" fill="url(#paint1_linear)"/>
<path d="M46.9515 108.366C44.2505 108.366 42.0608 106.177 42.0608 103.476C42.0608 100.774 44.2505 98.5848 46.9515 98.5848C49.6525 98.5848 51.8422 100.774 51.8422 103.476C51.8422 106.177 49.6525 108.366 46.9515 108.366Z" fill="white"/>
<path d="M17.9254 53.8534C19.2458 55.1739 21.0798 56.0053 23.1095 56.0053H26.5329L27.291 55.6385C26.1417 53.0709 25.5548 50.2587 25.5548 47.3732V41.3333H23.1095C19.0502 41.3333 15.7735 44.61 15.7735 48.6693C15.7735 50.6989 16.6049 52.5329 17.9254 53.8534Z" fill="#FED2A4"/>
<path d="M69.571 38.888V41.3333V47.3733C69.571 50.2588 68.9841 53.0709 67.8348 55.6385C66.8077 58.0349 65.3405 60.2357 63.4576 62.1186H63.4332C61.2324 64.3439 58.5425 66.0067 55.6325 67.0338C53.4317 67.8163 51.1087 68.232 48.7367 68.232H46.4381C44.0417 68.232 41.6941 67.8407 39.4933 67.0338C39.1265 66.9115 38.7842 66.7892 38.4418 66.6425C35.9231 65.591 33.6245 64.0749 31.6683 62.1186C29.7854 60.2357 28.3182 58.0349 27.2911 55.6385C26.1418 53.0709 25.5549 50.2588 25.5549 47.3733V41.3333V33.9973V24.2159H35.2385H35.2629H54.8989C62.993 24.2159 69.571 30.7939 69.571 38.888Z" fill="#FED2A4"/>
<path d="M69.571 47.3732C69.571 50.2587 68.9841 53.0709 67.8348 55.6385L68.5929 56.0053H72.0164C73.8993 56.0053 75.5865 55.2961 76.8826 54.1224C77.0048 54.049 77.1026 53.9512 77.2005 53.8534C78.5209 52.5329 79.3524 50.6989 79.3524 48.6693C79.3524 46.2973 78.252 44.2187 76.5158 42.8738C75.2686 41.9201 73.7036 41.3333 72.0164 41.3333H69.571V47.3732Z" fill="#FED2A4"/>
<path d="M55.816 49.2806H39.31C39.31 53.8404 43.0032 57.5336 47.563 57.5336C49.8326 57.5336 51.8958 56.6052 53.402 55.1196C54.8875 53.6135 55.816 51.5502 55.816 49.2806Z" fill="#FFBD86"/>
<path d="M58.414 37.8691C58.0935 37.8691 57.7935 37.9567 57.5382 38.1086C56.7402 38.5832 55.9802 39.4993 55.0517 39.4993C54.1232 39.4993 53.3426 38.7236 53.6647 37.8528C54.3634 35.9638 56.2288 34.6086 58.414 34.6086C60.5992 34.6086 62.4646 35.9638 63.1634 37.8528C63.4855 38.7236 62.7048 39.4993 61.7764 39.4993C60.8479 39.4993 60.0879 38.5832 59.2899 38.1086C59.0346 37.9567 58.7346 37.8691 58.414 37.8691Z" fill="#90633C"/>
<path d="M36.7117 34.6086C38.8969 34.6086 40.7624 35.9638 41.4611 37.8528C41.7832 38.7236 41.0026 39.4993 40.0741 39.4993C39.1456 39.4993 38.3856 38.5832 37.5876 38.1086C37.3323 37.9567 37.0323 37.8691 36.7117 37.8691C36.3912 37.8691 36.0912 37.9567 35.8359 38.1086C35.0379 38.5832 34.2779 39.4993 33.3494 39.4993C32.4209 39.4993 31.6403 38.7236 31.9624 37.8528C32.6611 35.9638 34.5265 34.6086 36.7117 34.6086Z" fill="#90633C"/>
<path d="M35.263 24.216H35.2385C29.8261 25.7402 27.1601 27.6445 22.3359 27.6445C17.5117 27.6445 3.54684 5.26462 23.8738 5.26462C28.5536 5.26462 46.7336 4.19479 55.4125 4.65329C62.0149 4.65329 68.006 7.34316 72.3342 11.6714C76.6625 15.9996 79.3524 21.9907 79.3524 28.5931C79.3524 30.5738 79.1078 32.5057 78.6432 34.413L76.5158 42.8739C75.2686 41.9202 73.7036 41.3333 72.0164 41.3333H69.571V38.888C69.571 30.7939 62.9931 24.216 54.899 24.216H35.263Z" fill="#754C29"/>
<path d="M120.202 33.4583C120.202 32.1078 119.107 31.0129 117.757 31.0129H93.3034C91.9529 31.0129 90.8581 32.1078 90.8581 33.4583C90.8581 34.8088 91.9529 35.9036 93.3034 35.9036H117.757C119.107 35.9036 120.202 34.8088 120.202 33.4583Z" fill="white"/>
<path d="M95.7486 43.2396C95.7486 41.8891 94.6538 40.7943 93.3033 40.7943C91.9527 40.7943 90.8579 41.8891 90.8579 43.2396C90.8579 44.5902 91.9527 45.685 93.3033 45.685C94.6538 45.685 95.7486 44.5902 95.7486 43.2396Z" fill="white"/>
<path d="M120.202 43.2396C120.202 41.8891 119.107 40.7943 117.757 40.7943H103.085C101.734 40.7943 100.639 41.8891 100.639 43.2396C100.639 44.5902 101.734 45.685 103.085 45.685H117.757C119.107 45.685 120.202 44.5902 120.202 43.2396Z" fill="white"/>
<defs>
<linearGradient id="paint0_linear" x1="3.54668" y1="93.0349" x2="91.5787" y2="93.0349" gradientUnits="userSpaceOnUse">
<stop stop-color="#204BB9"/>
<stop offset="1" stop-color="#2CCCD4"/>
</linearGradient>
<linearGradient id="paint1_linear" x1="47.4099" y1="78.7164" x2="47.4099" y2="128.54" gradientUnits="userSpaceOnUse">
<stop stop-color="white"/>
<stop offset="1" stop-color="#C7C7C7"/>
</linearGradient>
</defs>
</svg>
