<svg width="131" height="131" viewBox="0 0 131 131" fill="none" xmlns="http://www.w3.org/2000/svg">
<g clip-path="url(#clip0)">
<path d="M106.125 28.9141V81.7266H16.75V28.9141C16.7532 27.8376 17.1823 26.8062 17.9434 26.045C18.7046 25.2838 19.736 24.8548 20.8125 24.8516H102.062C102.748 24.8515 103.422 25.0246 104.022 25.3549C104.622 25.6852 105.129 26.1619 105.495 26.7406C105.91 27.3894 106.129 28.1441 106.125 28.9141Z" fill="url(#paint0_linear)"/>
<path d="M106.125 81.7266H16.75L6.59375 106.102H45.1875H77.6875H116.281L106.125 81.7266Z" fill="#204BB9"/>
<path d="M87.8438 50.3133C86.5595 49.765 85.1777 49.4818 83.7812 49.4805H77.0984C77.8838 46.8291 77.8838 44.0069 77.0984 41.3555C76.2276 38.4219 74.4321 35.8483 71.9797 34.0182C69.5273 32.188 66.5491 31.1992 63.4891 31.1992C60.429 31.1992 57.4508 32.188 54.9984 34.0182C52.546 35.8483 50.7505 38.4219 49.8797 41.3555C49.8162 41.5354 49.762 41.7184 49.7172 41.9039C48.6309 41.4041 47.4211 41.2369 46.2399 41.4233C45.0588 41.6097 43.9593 42.1414 43.0797 42.9515C42.2002 43.7615 41.58 44.8137 41.2972 45.9755C41.0144 47.1373 41.0817 48.3568 41.4906 49.4805H39.0938C36.4001 49.4805 33.8169 50.5505 31.9122 52.4552C30.0075 54.3598 28.9375 56.9431 28.9375 59.6367C28.9375 62.3303 30.0075 64.9136 31.9122 66.8183C33.8169 68.7229 36.4001 69.793 39.0938 69.793H83.7812C85.1777 69.7917 86.5595 69.5084 87.8438 68.9602C89.6558 68.1665 91.1973 66.8619 92.2797 65.2061C93.3621 63.5503 93.9386 61.6149 93.9386 59.6367C93.9386 57.6585 93.3621 55.7231 92.2797 54.0673C91.1973 52.4115 89.6558 51.107 87.8438 50.3133Z" fill="#F0F0F4"/>
<path d="M130.5 39.0703V91.8828C130.497 92.9593 130.068 93.9907 129.307 94.7519C128.545 95.5131 127.514 95.9421 126.438 95.9453H93.9375C92.8624 95.9379 91.8334 95.5075 91.0731 94.7472C90.3129 93.9869 89.8824 92.958 89.875 91.8828V39.0703C89.8782 37.9939 90.3073 36.9624 91.0684 36.2012C91.8296 35.4401 92.861 35.011 93.9375 35.0078H126.438C127.297 35.0076 128.135 35.2812 128.829 35.7888C129.522 36.2964 130.037 37.0118 130.297 37.8312C130.437 38.2292 130.505 38.6486 130.5 39.0703Z" fill="url(#paint1_linear)"/>
<path fill-rule="evenodd" clip-rule="evenodd" d="M126.438 35.0078H93.9375C92.861 35.011 91.8296 35.4401 91.0684 36.2012C90.3073 36.9624 89.8782 37.9939 89.875 39.0703V91.8828C89.8824 92.958 90.3129 93.9869 91.0731 94.7472C91.8334 95.5075 92.8624 95.9379 93.9375 95.9453H126.438C127.514 95.9421 128.545 95.5131 129.307 94.7519C130.068 93.9907 130.497 92.9593 130.5 91.8828V39.0703C130.505 38.6486 130.437 38.2292 130.297 37.8312C130.037 37.0118 129.522 36.2964 128.829 35.7888C128.135 35.2812 127.297 35.0076 126.438 35.0078ZM128.469 91.8789C128.467 92.418 128.251 92.9344 127.87 93.3156C127.489 93.6968 126.973 93.9119 126.434 93.9141H93.9456C93.4064 93.9088 92.8908 93.6922 92.5094 93.3109C92.128 92.9295 91.9115 92.4138 91.9063 91.8746V39.0739C91.9085 38.5349 92.1236 38.0187 92.5047 37.6376C92.8859 37.2564 93.4021 37.0413 93.9411 37.0391H126.438C126.866 37.039 127.284 37.1753 127.629 37.4282C127.975 37.6811 128.231 38.0375 128.361 38.4458L128.37 38.475L128.38 38.5039C128.441 38.6776 128.471 38.8607 128.469 39.0449L130.5 39.0703H128.469V91.8789Z" fill="#C7C7C7"/>
<path d="M77.6875 67.7617V71.8242L73.1984 72.9414C72.9194 73.9711 72.5099 74.9609 71.9797 75.8867L74.3563 79.8477L71.4922 82.7117L67.5312 80.3352C66.6055 80.8653 65.6157 81.2749 64.5859 81.5539L63.4688 86.043H59.4062L58.2891 81.5539C57.2593 81.2749 56.2695 80.8653 55.3438 80.3352L51.3828 82.7117L48.5187 79.8477L50.8953 75.8867C50.3651 74.9609 49.9556 73.9711 49.6766 72.9414L45.1875 71.8242V67.7617L49.6766 66.6445C49.9556 65.6148 50.3651 64.625 50.8953 63.6992L48.5187 59.7383L51.3828 56.8742L55.3438 59.2508C56.2695 58.7206 57.2593 58.311 58.2891 58.032L59.4062 53.543H63.4688L64.5859 58.032C65.6157 58.311 66.6055 58.7206 67.5312 59.2508L71.4922 56.8742L74.3563 59.7383L71.9797 63.6992C72.5099 64.625 72.9194 65.6148 73.1984 66.6445L77.6875 67.7617Z" fill="#CC3630"/>
<path d="M75.6562 97.9766L77.6875 106.102H45.1875L47.2188 97.9766H75.6562Z" fill="#2CCCD4"/>
<path d="M116.281 106.102V111.688C116.278 112.428 115.849 113.137 115.088 113.66C114.327 114.183 113.295 114.478 112.219 114.48H10.6562C9.5798 114.478 8.54835 114.183 7.78718 113.66C7.02601 113.137 6.59696 112.428 6.59375 111.688V106.102H116.281Z" fill="#2CCCD4"/>
<path d="M118.312 35.0078V41.1016C118.312 41.6403 118.098 42.1569 117.718 42.5379C117.337 42.9188 116.82 43.1328 116.281 43.1328H104.094C103.555 43.1328 103.038 42.9188 102.657 42.5379C102.277 42.1569 102.062 41.6403 102.062 41.1016V35.0078H118.312Z" fill="#C7C7C7"/>
<path d="M61.4375 77.918C59.8305 77.918 58.2596 77.4415 56.9235 76.5487C55.5873 75.6559 54.5459 74.3869 53.931 72.9023C53.316 71.4176 53.1551 69.784 53.4686 68.2079C53.7821 66.6318 54.556 65.184 55.6923 64.0477C56.8286 62.9114 58.2763 62.1376 59.8524 61.8241C61.4285 61.5106 63.0622 61.6715 64.5468 62.2865C66.0315 62.9014 67.3004 63.9428 68.1932 65.279C69.086 66.6151 69.5625 68.186 69.5625 69.793C69.5625 71.9479 68.7065 74.0145 67.1828 75.5382C65.659 77.0619 63.5924 77.918 61.4375 77.918ZM61.4375 65.7305C60.634 65.7305 59.8486 65.9687 59.1805 66.4151C58.5124 66.8615 57.9917 67.496 57.6842 68.2383C57.3768 68.9806 57.2963 69.7975 57.4531 70.5855C57.6098 71.3736 57.9967 72.0974 58.5649 72.6656C59.133 73.2337 59.8569 73.6207 60.645 73.7774C61.433 73.9342 62.2498 73.8537 62.9922 73.5462C63.7345 73.2388 64.369 72.7181 64.8154 72.05C65.2618 71.3819 65.5 70.5965 65.5 69.793C65.5 68.7155 65.072 67.6822 64.3101 66.9204C63.5483 66.1585 62.515 65.7305 61.4375 65.7305Z" fill="#FFBD86"/>
<path d="M102.792 57.4636C103.182 57.073 103.182 56.4399 102.792 56.0494L101.334 54.5914C100.943 54.2009 100.31 54.2009 99.9194 54.5914L94.5327 59.978C94.1519 60.3589 93.938 60.8755 93.938 61.4141C93.938 61.9527 94.1519 62.4693 94.5327 62.8502L99.9194 68.2369C100.31 68.6274 100.943 68.6274 101.334 68.2369L102.792 66.7789C103.182 66.3884 103.182 65.7552 102.792 65.3647L102.579 65.1525C101.949 64.5225 102.396 63.4454 103.286 63.4454H125.691C126.244 63.4454 126.691 62.9977 126.691 62.4454V60.3829C126.691 59.8306 126.244 59.3829 125.691 59.3829H103.286C102.396 59.3829 101.949 58.3057 102.579 57.6758L102.792 57.4636Z" fill="white"/>
<path d="M125.842 74.1968L120.456 68.8101C120.065 68.4196 119.432 68.4196 119.041 68.8101L117.584 70.2681C117.193 70.6586 117.193 71.2918 117.584 71.6823L117.796 71.8945C118.426 72.5245 117.98 73.6016 117.089 73.6016H94.9375C94.3852 73.6016 93.9375 74.0493 93.9375 74.6016V76.6641C93.9375 77.2164 94.3852 77.6641 94.9375 77.6641H117.089C117.979 77.6641 118.426 78.7413 117.796 79.3712L117.584 79.5834C117.193 79.9739 117.193 80.6071 117.584 80.9976L119.041 82.4556C119.432 82.8461 120.065 82.8461 120.456 82.4556L125.842 77.069C126.223 76.6881 126.437 76.1715 126.437 75.6329C126.437 75.0943 126.223 74.5777 125.842 74.1968Z" fill="#F0F0F4"/>
</g>
<defs>
<linearGradient id="paint0_linear" x1="106.125" y1="53.289" x2="16.75" y2="53.289" gradientUnits="userSpaceOnUse">
<stop stop-color="#204BB9"/>
<stop offset="1" stop-color="#2CCCD4"/>
</linearGradient>
<linearGradient id="paint1_linear" x1="110.188" y1="35.0078" x2="110.188" y2="95.9453" gradientUnits="userSpaceOnUse">
<stop stop-color="white"/>
<stop offset="1" stop-color="#C7C7C7"/>
</linearGradient>
<clipPath id="clip0">
<rect width="130" height="130" fill="white" transform="translate(0.5 0.476562)"/>
</clipPath>
</defs>
</svg>
