<svg width="131" height="131" viewBox="0 0 131 131" fill="none" xmlns="http://www.w3.org/2000/svg">
<g clip-path="url(#clip0)">
<path d="M29.2085 50.5806L65.5001 14.2891L101.792 50.5806H109.375L69.8335 11.0391H61.1666L21.625 50.5806H29.2085Z" fill="#C7C7C7"/>
<path d="M65.5 25.3934C72.3806 25.3934 77.9584 19.8156 77.9584 12.935C77.9584 6.05439 72.3806 0.476562 65.5 0.476562C58.6194 0.476562 53.0416 6.05439 53.0416 12.935C53.0416 19.8156 58.6194 25.3934 65.5 25.3934Z" fill="#2CCCD4"/>
<path d="M65.5 18.6226C68.6411 18.6226 71.1875 16.0762 71.1875 12.9351C71.1875 9.79394 68.6411 7.24756 65.5 7.24756C62.3589 7.24756 59.8125 9.79394 59.8125 12.9351C59.8125 16.0762 62.3589 18.6226 65.5 18.6226Z" fill="url(#paint0_linear)"/>
<path d="M122.375 46.7891H8.625C4.02092 46.7891 0.5 50.31 0.5 54.9141V122.352C0.5 126.956 4.02092 130.477 8.625 130.477H122.375C126.979 130.477 130.5 126.956 130.5 122.352V54.9141C130.5 50.5806 126.979 46.7891 122.375 46.7891Z" fill="url(#paint1_linear)"/>
<path d="M119.667 57.6226H11.3334V119.643H119.667V57.6226Z" fill="#F0F0F4"/>
<path d="M29.479 109.352L28.3956 106.914H23.7915L22.7081 109.352H20L24.8749 97.9766H27.3124L32.1875 109.352H29.479ZM25.9584 101.497L24.6043 104.747H27.5834L25.9584 101.497Z" fill="#2CCCD4"/>
<path d="M37.0626 105.289L40.0417 97.9766H42.7501L38.146 109.352H35.9794L31.3751 97.9766H34.0835L37.0626 105.289Z" fill="#2CCCD4"/>
<path d="M51.4165 109.352L50.3331 106.914H45.4581L44.3747 109.352H41.6663L46.5413 97.9766H49.2499L54.1249 109.352H51.4165ZM47.8958 101.497L46.5418 104.747H49.5208L47.8958 101.497Z" fill="#2CCCD4"/>
<path d="M55.4791 97.9766H57.9166V109.352H55.4791V97.9766Z" fill="#2CCCD4"/>
<path d="M60.896 109.352V97.9766H63.3334V107.185H68.2084V109.352H60.896Z" fill="#2CCCD4"/>
<path d="M78.2289 109.352L77.1455 106.914H72.2705L71.1871 109.352H68.4787L73.6248 97.9766H76.0624L80.9373 109.352H78.2289ZM74.7083 101.497L73.3542 104.747H76.3333L74.7083 101.497Z" fill="#2CCCD4"/>
<path d="M87.1665 109.352H82.2915V97.9766H86.6249C87.4374 97.9766 87.979 97.9766 88.5209 98.2475C89.0624 98.5184 89.6043 98.7891 89.8749 99.06C90.4165 99.6016 90.6874 100.414 90.6874 100.956C90.6874 101.768 90.4165 102.581 89.8749 102.852C89.604 103.123 89.604 103.123 89.3334 103.123C89.3334 103.123 89.0624 103.123 88.7918 103.394C89.6043 103.665 90.1459 103.935 90.4168 104.477C90.9584 105.019 90.9584 105.56 90.9584 106.373C90.9584 107.185 90.6874 107.998 90.1459 108.54C89.8749 109.081 88.7915 109.352 87.1665 109.352ZM84.729 102.581H85.8124C86.6249 102.581 87.1665 102.581 87.4374 102.31C87.7084 102.039 87.979 101.768 87.979 101.226C87.979 100.684 87.7081 100.414 87.4374 100.143C87.1665 99.872 86.6249 99.872 85.8124 99.872H84.4584V102.58H84.729V102.581ZM84.729 107.456H86.354C87.1665 107.456 87.7081 107.456 87.979 107.185C88.2499 106.914 88.5206 106.643 88.5206 106.101C88.5206 105.56 88.2497 105.289 87.979 105.018C87.7081 104.747 86.8956 104.747 86.0831 104.747H84.4581V107.455H84.729V107.456Z" fill="#2CCCD4"/>
<path d="M93.396 109.352V97.9766H95.8335V107.185H100.708V109.352H93.396Z" fill="#2CCCD4"/>
<path d="M111 97.9766V100.143H105.313V102.581H110.458V104.747H105.313V107.185H111.271V109.351H102.875V97.9766H111Z" fill="#2CCCD4"/>
<path d="M46.4693 73.5483C46.4693 69.108 43.2369 65.9844 38.4651 65.9844C33.7242 65.9844 30.4609 69.108 30.4609 73.5483C30.4609 77.7131 33.3548 80.7448 37.6339 81.0817L32.9546 87.8495H38.6191L45.2071 77.8969C46.0076 76.7025 46.4693 75.202 46.4693 73.5483ZM35.3866 73.5483C35.3866 71.6803 36.8335 70.5779 38.4651 70.5779C40.1276 70.5779 41.5437 71.6497 41.5437 73.5483C41.5437 75.447 40.1276 76.5188 38.4651 76.5188C36.8335 76.5188 35.3866 75.4164 35.3866 73.5483Z" fill="#CC3630"/>
<path d="M64.9274 73.5483C64.9274 69.108 61.6949 65.9844 56.9232 65.9844C52.1822 65.9844 48.919 69.108 48.919 73.5483C48.919 77.7131 51.8128 80.7448 56.092 81.0817L51.4126 87.8495H57.0771L63.6652 77.8969C64.4656 76.7025 64.9274 75.202 64.9274 73.5483ZM53.8446 73.5483C53.8446 71.6803 55.2915 70.5779 56.9232 70.5779C58.5856 70.5779 60.0017 71.6497 60.0017 73.5483C60.0017 75.447 58.5856 76.5188 56.9232 76.5188C55.2915 76.5188 53.8446 75.4164 53.8446 73.5483Z" fill="#CC3630"/>
<path d="M70.0046 83.1028H65.0789L63.8475 92.1367H67.5417L70.0046 83.1028Z" fill="#CC3630"/>
<path d="M87.082 73.5483C87.082 69.108 83.8496 65.9844 79.0778 65.9844C74.3369 65.9844 71.0736 69.108 71.0736 73.5483C71.0736 77.7131 73.9674 80.7448 78.2466 81.0817L73.5672 87.8495H79.2318L85.8198 77.8969C86.6203 76.7025 87.082 75.202 87.082 73.5483ZM75.9993 73.5483C75.9993 71.6803 77.4462 70.5779 79.0778 70.5779C80.7402 70.5779 82.1564 71.6497 82.1564 73.5483C82.1564 75.447 80.7402 76.5188 79.0778 76.5188C77.4462 76.5188 75.9993 75.4164 75.9993 73.5483Z" fill="#CC3630"/>
<path d="M96.4874 79.9807C99.0939 79.9807 101.042 77.9872 101.042 75.5216C101.042 72.9773 99.0939 71.0625 96.4874 71.0625C93.8545 71.0625 91.9062 73.056 91.9062 75.5216C91.9062 77.9872 93.8545 79.9807 96.4874 79.9807ZM94.0915 86.9054L95.8292 87.9284L107.73 74.7872L105.992 73.7904L94.0915 86.9054ZM96.4611 76.9642C95.6449 76.9642 95.0657 76.3347 95.0657 75.5216C95.0657 74.7085 95.6449 74.0789 96.4611 74.0789C97.3036 74.0789 97.8828 74.7085 97.8828 75.5216C97.8828 76.2823 97.3036 76.9642 96.4611 76.9642ZM105.887 90.1055C108.493 90.1055 110.441 88.112 110.441 85.6464C110.441 83.1808 108.493 81.1873 105.887 81.1873C103.254 81.1873 101.305 83.1808 101.305 85.6464C101.305 88.112 103.254 90.1055 105.887 90.1055ZM105.86 87.089C105.044 87.089 104.465 86.4595 104.465 85.6464C104.465 84.8332 105.044 84.2037 105.86 84.2037C106.703 84.2037 107.282 84.8332 107.282 85.6464C107.282 86.407 106.703 87.089 105.86 87.089Z" fill="#CC3630"/>
</g>
<defs>
<linearGradient id="paint0_linear" x1="71.1875" y1="12.9351" x2="59.8125" y2="12.9351" gradientUnits="userSpaceOnUse">
<stop stop-color="#204BB9"/>
<stop offset="1" stop-color="#2CCCD4"/>
</linearGradient>
<linearGradient id="paint1_linear" x1="130.5" y1="88.6328" x2="0.500001" y2="88.6328" gradientUnits="userSpaceOnUse">
<stop stop-color="#204BB9"/>
<stop offset="1" stop-color="#2CCCD4"/>
</linearGradient>
<clipPath id="clip0">
<rect width="130" height="130" fill="white" transform="translate(0.5 0.476562)"/>
</clipPath>
</defs>
</svg>
