<svg width="131" height="131" viewBox="0 0 131 131" fill="none" xmlns="http://www.w3.org/2000/svg">
<circle cx="65.5" cy="65.4766" r="53.3203" fill="#CC3630"/>
<path d="M69.1651 46.98C67.9867 47.4016 67.1599 48.4814 67.0234 49.7344H85.5586V46.4395C85.5586 44.1771 83.3893 42.5849 81.3061 43.3098L69.2052 46.9668C69.1922 46.9706 69.178 46.9759 69.1651 46.98Z" fill="white"/>
<path d="M85.5586 53.6636H55.0549L68.7149 39.9905C69.4694 39.2352 69.4694 38.0106 68.7149 37.2552L65.2535 33.7905C63.4928 32.0282 60.6382 32.0282 58.8773 33.7905L55.3184 37.3531L53.4965 35.5294C51.4876 33.5185 48.2185 33.5186 46.2095 35.5294L39.1046 42.6411C37.0956 44.6521 37.0956 47.9242 39.1046 49.9352L40.9264 51.7588L37.3674 55.3212C35.6067 57.0836 35.6067 59.941 37.3674 61.7035L40.8288 65.1682C41.5832 65.9235 42.8067 65.9236 43.5613 65.1682L48.4588 60.2661V90.1031C48.4588 94.7319 52.2076 98.4844 56.832 98.4844H77.1854C81.8097 98.4844 85.5586 94.7319 85.5586 90.1031V53.6636ZM43.6591 49.0234L41.8373 47.1999C41.3351 46.6972 41.3351 45.8791 41.8373 45.3763L48.9422 38.2646C49.4445 37.7618 50.2618 37.7619 50.7639 38.2646L52.5857 40.0882L43.6591 49.0234ZM60.3441 87.6531C60.3441 88.7213 59.479 89.5872 58.4118 89.5872C57.3446 89.5872 56.4796 88.7213 56.4796 87.6531V64.4948C56.4796 63.4266 57.3446 62.5607 58.4118 62.5607C59.479 62.5607 60.3441 63.4266 60.3441 64.4948V87.6531ZM68.9409 87.6531C68.9409 88.7213 68.0759 89.5872 67.0087 89.5872C65.9415 89.5872 65.0764 88.7213 65.0764 87.6531V64.4948C65.0764 63.4266 65.9415 62.5607 67.0087 62.5607C68.0759 62.5607 68.9409 63.4266 68.9409 64.4948V87.6531ZM77.5378 87.6531C77.5378 88.7213 76.6727 89.5872 75.6055 89.5872C74.5383 89.5872 73.6733 88.7213 73.6733 87.6531V64.4948C73.6733 63.4266 74.5383 62.5607 75.6055 62.5607C76.6727 62.5607 77.5378 63.4266 77.5378 64.4948V87.6531Z" fill="white"/>
</svg>
