<svg width="131" height="131" viewBox="0 0 131 131" fill="none" xmlns="http://www.w3.org/2000/svg">
<path d="M106.589 70.4696V75.0258V86.2795C106.589 91.6558 105.495 96.8954 103.354 101.679C101.44 106.144 98.7067 110.245 95.1984 113.753H95.1528C91.0523 117.899 86.0405 120.998 80.6187 122.911C76.5181 124.369 72.1898 125.144 67.7703 125.144H63.4875C59.0224 125.144 54.6485 124.415 50.5479 122.911C49.8645 122.683 49.2267 122.455 48.5888 122.182C43.8959 120.223 39.6131 117.398 35.9682 113.753C32.4599 110.245 29.7262 106.144 27.8126 101.679C25.6712 96.8954 24.5778 91.6558 24.5778 86.2795V75.0258V61.3573V43.1326H42.6202H42.6658H79.2518C94.3327 43.1326 106.589 55.3887 106.589 70.4696Z" fill="#FED2A4"/>
<path d="M77.6437 100.769H55.0463C55.0463 106.801 60.1024 111.687 66.345 111.687C69.4521 111.687 72.2768 110.458 74.3389 108.493C76.3726 106.501 77.6437 103.771 77.6437 100.769Z" fill="#FFBD86"/>
<path d="M87.546 73.6856C86.9126 73.6856 86.3201 73.8608 85.8168 74.1639C84.2551 75.1044 82.7675 76.9018 80.9445 76.9018C79.1215 76.9018 77.5891 75.3795 78.2161 73.6677C79.5838 69.9337 83.2502 67.2534 87.546 67.2534C91.8418 67.2534 95.5082 69.9337 96.876 73.6677C97.5029 75.3795 95.9705 76.9018 94.1475 76.9018C92.3246 76.9018 90.8369 75.1044 89.2753 74.1639C88.7719 73.8608 88.1794 73.6856 87.546 73.6856Z" fill="#754C29"/>
<path d="M44.6362 67.2534C48.932 67.2534 52.5984 69.9337 53.9661 73.6677C54.5931 75.3795 53.0607 76.9018 51.2377 76.9018C49.4147 76.9018 47.9271 75.1044 46.3654 74.1639C45.8621 73.8608 45.2696 73.6856 44.6362 73.6856C44.0028 73.6856 43.4103 73.8608 42.9069 74.1639C41.3453 75.1044 39.8576 76.9018 38.0347 76.9018C36.2117 76.9018 34.6792 75.3795 35.3062 73.6677C36.674 69.9337 40.3404 67.2534 44.6362 67.2534Z" fill="#754C29"/>
<path d="M112.928 61.1608L114.206 63.6988L110.017 68.0152C110.017 68.0152 108.543 67.9583 106.462 66.2379C103.805 64.0456 100.852 52.5482 88.5616 44.9099C76.2717 37.2716 50.6632 67.4824 21.0591 62.2061C8.81862 63.4914 23.558 39.588 23.558 39.588L36.3866 25.6088C46.5019 14.5865 61.6585 9.72606 76.2717 12.8172C92.0773 16.1605 104.61 28.2281 108.576 43.9319L112.928 61.1608Z" fill="#754C29"/>
<path d="M119.03 65.2222H109.455V58.8888C109.455 34.9658 90.2294 15.5024 66.5989 15.5024C42.9685 15.5024 23.743 34.9658 23.743 58.8888V65.2222H14.1677V58.8888C14.1677 29.6178 37.69 5.80859 66.5989 5.80859C95.5079 5.80859 119.03 29.6178 119.03 58.8888V65.2222Z" fill="url(#paint0_linear)"/>
<path d="M93.043 125.257H71.9467C69.367 125.257 67.2708 123.165 67.2708 120.581C67.2708 117.998 69.3629 115.906 71.9467 115.906H93.043C101.379 115.906 108.155 109.125 108.155 100.789V80.7855C108.155 78.2018 110.248 76.1096 112.831 76.1096C115.415 76.1096 117.507 78.2018 117.507 80.7855V100.789C117.507 114.281 106.535 125.257 93.043 125.257Z" fill="#231F20"/>
<path d="M114.514 60.3979H106.87C106.318 60.3979 105.87 60.8457 105.87 61.3979V94.6906C105.87 95.2429 106.318 95.6906 106.87 95.6906H114.514C120.396 95.6906 125.167 90.9145 125.167 85.0161V71.0725C125.162 65.1741 120.396 60.3979 114.514 60.3979Z" fill="#CC3630"/>
<path d="M5.832 71.0725V85.0161C5.832 90.9098 10.603 95.6906 16.4845 95.6906H24.1287C24.681 95.6906 25.1287 95.2429 25.1287 94.6906V61.3979C25.1287 60.8457 24.681 60.3979 24.1287 60.3979H16.4845C10.5983 60.3979 5.832 65.1741 5.832 71.0725Z" fill="#CC3630"/>
<path d="M110.934 69.7843V82.4429C110.934 84.6448 112.718 86.4323 114.924 86.4323C117.129 86.4323 118.913 84.6448 118.913 82.4429V69.7843C118.913 67.5824 117.129 65.7949 114.924 65.7949C112.722 65.7949 110.934 67.5824 110.934 69.7843Z" fill="#EF6262"/>
<path d="M11.9846 69.7843V82.4429C11.9846 84.6448 13.768 86.4323 15.9739 86.4323C18.1799 86.4323 19.9633 84.6448 19.9633 82.4429V69.7843C19.9633 67.5824 18.1799 65.7949 15.9739 65.7949C13.768 65.7949 11.9846 67.5824 11.9846 69.7843Z" fill="#EF6262"/>
<defs>
<linearGradient id="paint0_linear" x1="119.03" y1="35.5154" x2="14.1677" y2="35.5154" gradientUnits="userSpaceOnUse">
<stop stop-color="#204BB9"/>
<stop offset="1" stop-color="#2CCCD4"/>
</linearGradient>
</defs>
</svg>
