<svg width="131" height="131" viewBox="0 0 131 131" fill="none" xmlns="http://www.w3.org/2000/svg">
<g clip-path="url(#clip0)">
<path d="M108.591 114.057V128.152C108.591 129.134 107.795 129.93 106.813 129.93H22.336C21.3544 129.93 20.5586 129.134 20.5586 128.152V114.057C20.5586 106.794 23.4441 99.8251 28.5793 94.6899C32.8831 90.3861 38.5074 87.6229 44.5473 86.8648L54.7933 85.5933H74.356L84.6019 86.8648C90.6419 87.6229 96.2662 90.3861 100.57 94.6899C103.138 97.2575 105.143 100.29 106.512 103.566C107.857 106.868 108.591 110.438 108.591 114.057Z" fill="url(#paint0_linear)"/>
<path d="M34.9373 74.039C36.2578 75.3595 38.0918 76.1909 40.1214 76.1909H43.5449L44.3029 75.8241C43.1536 73.2565 42.5667 70.4444 42.5667 67.5589V61.5189H40.1214C36.0621 61.5189 32.7854 64.7957 32.7854 68.8549C32.7854 70.8846 33.6168 72.7186 34.9373 74.039Z" fill="#FED2A4"/>
<ellipse cx="64.4844" cy="90.6133" rx="5.83984" ry="6.72852" fill="#F0F0F4"/>
<path d="M86.5826 59.0735V61.5188V67.5588C86.5826 70.4443 85.9958 73.2564 84.8465 75.824C83.8194 78.2205 82.3522 80.4213 80.4693 82.3042H80.4449C78.2441 84.5294 75.5542 86.1923 72.6442 87.2193C70.4434 88.0018 68.1204 88.4175 65.7484 88.4175H63.4498C61.0534 88.4175 58.7058 88.0263 56.505 87.2193C56.1382 87.097 55.7959 86.9748 55.4535 86.8281C52.9348 85.7766 50.6362 84.2605 48.68 82.3042C46.797 80.4213 45.3298 78.2205 44.3028 75.824C43.1535 73.2564 42.5666 70.4443 42.5666 67.5588V61.5188V54.1828V44.4015H52.2501H52.2746H71.9106C80.0047 44.4015 86.5826 50.9794 86.5826 59.0735Z" fill="#FED2A4"/>
<path d="M86.5829 67.5589C86.5829 70.4444 85.9961 73.2565 84.8468 75.8241L85.6048 76.1909H89.0283C90.9112 76.1909 92.5985 75.4818 93.8945 74.308C94.0168 74.2347 94.1146 74.1368 94.2124 74.039C95.5329 72.7186 96.3643 70.8846 96.3643 68.8549C96.3643 66.4829 95.2639 64.4044 93.5277 63.0595C92.2806 62.1058 90.7156 61.5189 89.0283 61.5189H86.5829V67.5589Z" fill="#FED2A4"/>
<path d="M70.832 73.3477H59.4062C59.4062 76.4339 61.9628 78.9336 65.1191 78.9336C66.6902 78.9336 68.1184 78.3052 69.161 77.2997C70.1893 76.2803 70.832 74.8838 70.832 73.3477Z" fill="#FFBD86"/>
<path d="M54.0396 58.22C54.3601 58.22 54.6601 58.1324 54.9154 57.9805C55.7134 57.5059 56.4735 56.5898 57.4019 56.5898C58.3304 56.5898 59.111 57.3655 58.7889 58.2363C58.0902 60.1253 56.2248 61.4805 54.0396 61.4805C51.8544 61.4805 49.989 60.1253 49.2903 58.2363C48.9682 57.3655 49.7488 56.5898 50.6773 56.5898C51.6057 56.5898 52.3658 57.5059 53.1637 57.9805C53.4191 58.1324 53.7191 58.22 54.0396 58.22Z" fill="#90633C"/>
<path d="M75.742 61.4805C73.5568 61.4805 71.6914 60.1253 70.9927 58.2363C70.6706 57.3655 71.4512 56.5898 72.3797 56.5898C73.3082 56.5898 74.0682 57.5059 74.8662 57.9805C75.1215 58.1324 75.4215 58.22 75.742 58.22C76.0626 58.22 76.3626 58.1324 76.6179 57.9805C77.4159 57.5059 78.1759 56.5898 79.1043 56.5898C80.0328 56.5898 80.8135 57.3655 80.4914 58.2363C79.7926 60.1253 77.9272 61.4805 75.742 61.4805Z" fill="#90633C"/>
<path d="M52.2749 44.4015H52.2505C46.8381 45.9258 44.1721 47.8301 39.3478 47.8301C34.5236 47.8301 20.5588 25.4502 40.8858 25.4502C45.5656 25.4502 63.7456 24.3803 72.4245 24.8388C79.0269 24.8388 85.0179 27.5287 89.3462 31.8569C93.6744 36.1852 96.3643 42.1763 96.3643 48.7787C96.3643 50.7594 96.1198 52.6912 95.6551 54.5986L93.5277 63.0594C92.2806 62.1057 90.7156 61.5189 89.0283 61.5189H86.583V59.0735C86.583 50.9795 80.005 44.4015 71.9109 44.4015H52.2749Z" fill="#754C29"/>
<path d="M81.3278 27.2001L35.7156 45.2243C35.2268 45.4174 34.6695 45.2894 34.314 44.9023L19.5468 28.8225C18.8277 28.0394 19.332 26.7722 20.3925 26.6974L38.3509 25.4297C38.9357 25.3884 39.4161 24.9522 39.5134 24.3741L43.2347 2.27185C43.3814 1.40086 44.3505 0.942074 45.1172 1.38075L65.6243 13.1154C66.0839 13.3784 66.6586 13.3284 67.066 12.99L80.05 2.20488C80.8773 1.51773 82.1308 2.10604 82.1308 3.18145V26.0194C82.1308 26.5405 81.8124 27.0086 81.3278 27.2001Z" fill="#F7931E"/>
<circle cx="52.9316" cy="19.7734" r="5.71289" fill="white"/>
<path d="M57.375 119.178L62.9397 96.3262H66.4639L72.8633 119.178L69.0547 132.254H61.3105L57.375 119.178Z" fill="#F0F0F4"/>
</g>
<defs>
<linearGradient id="paint0_linear" x1="20.5586" y1="107.761" x2="108.591" y2="107.761" gradientUnits="userSpaceOnUse">
<stop stop-color="#204BB9"/>
<stop offset="1" stop-color="#2CCCD4"/>
</linearGradient>
<clipPath id="clip0">
<rect width="130" height="130" fill="white" transform="translate(0.5 0.476562)"/>
</clipPath>
</defs>
</svg>
