<svg width="131" height="131" viewBox="0 0 131 131" fill="none" xmlns="http://www.w3.org/2000/svg">
<g clip-path="url(#clip0)">
<path d="M60.4511 16.3436C60.4511 15.4354 62.216 14.6953 64.3992 14.6953C66.5978 14.6953 68.3627 15.4354 68.3627 16.3436V121.442C68.3627 122.35 66.5978 123.875 64.3992 123.875C62.2154 123.875 60.4511 122.35 60.4511 121.442V16.3436Z" fill="#477B9E"/>
<path fill-rule="evenodd" clip-rule="evenodd" d="M60.4511 14.6953H88.7262H114.128C115.718 14.6953 116.281 15.8176 115.451 17.1066L107.207 29.9426C106.023 31.8028 106.053 32.9741 107.207 34.7756L115.451 47.6119C116.271 48.9016 115.649 50.0337 114.128 50.0337H63.3338C61.2706 50.0337 60.4511 49.0787 60.4511 47.1594V14.6953Z" fill="#CC3630"/>
<path fill-rule="evenodd" clip-rule="evenodd" d="M98.2614 29.9426C97.0602 31.8028 97.0902 32.9741 98.2614 34.7757L106.619 47.6119C107.45 48.9016 106.819 50.0337 105.277 50.0337H114.105C115.646 50.0337 116.277 48.9016 115.446 47.6119L107.089 34.7757C105.918 32.9741 105.888 31.8028 107.089 29.9426L115.446 17.1066C116.287 15.8173 115.716 14.6953 114.105 14.6953H105.277C106.889 14.6953 107.459 15.8176 106.619 17.1066L98.2614 29.9426Z" fill="#BD3341"/>
<path fill-rule="evenodd" clip-rule="evenodd" d="M71.4554 89.1448L63.3144 88.0907L57.2217 89.1448C55.338 89.1448 53.7905 90.6846 53.7905 92.5684V109.426C53.7905 111.31 55.338 112.85 57.2217 112.85H72.5169C75.993 112.85 79.2074 111.982 81.8014 110.517C83.1471 109.754 82.7658 109.859 84.3655 109.859H91.1086L94.2705 100.089L91.1086 92.1422H81.9733C79.1774 92.1422 79.9999 92.0974 77.6375 90.9608C75.2379 89.8099 74.5053 89.1448 71.4554 89.1448Z" fill="#FED2A4"/>
<path d="M36.686 65.8282H0.287254V88.7483H36.686C38.1212 88.7483 39.295 87.5745 39.295 86.1467V77.1967V68.4296C39.295 66.9947 38.1212 65.8282 36.686 65.8282Z" fill="url(#paint0_linear)"/>
<path fill-rule="evenodd" clip-rule="evenodd" d="M73.1819 65.4322C75.0659 65.4322 76.6058 66.972 76.6058 68.8558V85.7133C76.6058 87.5973 75.0659 89.1448 73.1819 89.1448H57.887C55.1509 89.1448 52.5868 88.6065 50.3518 87.6645C46.3672 85.9828 47.5933 86.1471 42.9286 86.1471H39.2953V68.4296H50.5237C51.9069 63.6903 57.9171 59.4067 65.4075 58.7865C65.572 58.7641 65.7363 58.749 65.9009 58.749C67.7472 58.749 69.2425 60.244 69.2425 62.0906C69.2425 63.9372 67.7474 65.4322 65.9009 65.4322H73.1819Z" fill="#FED2A4"/>
<path d="M93.7102 89.5332H130.109V112.461H93.7102C92.2825 112.461 91.1089 111.287 91.1089 109.86V92.1424C91.1089 90.7068 92.2751 89.5332 93.7102 89.5332Z" fill="url(#paint1_linear)"/>
<path fill-rule="evenodd" clip-rule="evenodd" d="M84.3655 103.266C81.6743 103.266 80.8971 103.445 78.5495 104.776C76.7404 105.8 74.58 106.264 72.5169 106.264C66.2747 106.264 60.0327 106.264 53.7905 106.264V109.426C53.7905 111.31 55.338 112.85 57.2217 112.85H58.9412C63.5763 112.85 68.2634 112.932 72.8982 112.85C76.2324 112.79 79.3048 111.93 81.8017 110.517C83.1474 109.754 82.7661 109.859 84.3658 109.859H91.1088V105.867V103.266C88.8582 103.266 86.6156 103.266 84.3655 103.266Z" fill="#FFBD86"/>
<path fill-rule="evenodd" clip-rule="evenodd" d="M70.0123 79.1199C70.0123 81.9082 68.6742 82.5512 66.0726 82.5512H57.887C56.1976 82.5512 54.4782 82.2521 52.9156 81.587C49.3797 80.0994 48.4153 79.6956 45.8886 79.5912H40.0277H39.2951V86.147H42.9283C47.593 86.147 46.367 85.9827 50.3515 87.6644C52.7287 88.6663 55.3152 89.1447 57.8867 89.1447H71.4551H73.1819C75.0659 89.1447 76.6058 87.5972 76.6058 85.7132V68.8557C76.6058 66.9717 75.0659 65.4321 73.1819 65.4321H70.0123V79.1199Z" fill="#FFBD86"/>
</g>
<defs>
<linearGradient id="paint0_linear" x1="39.295" y1="77.2883" x2="0.287255" y2="77.2883" gradientUnits="userSpaceOnUse">
<stop stop-color="#204BB9"/>
<stop offset="1" stop-color="#2CCCD4"/>
</linearGradient>
<linearGradient id="paint1_linear" x1="130.109" y1="100.997" x2="91.1089" y2="100.997" gradientUnits="userSpaceOnUse">
<stop stop-color="#204BB9"/>
<stop offset="1" stop-color="#2CCCD4"/>
</linearGradient>
<clipPath id="clip0">
<rect width="130" height="130" fill="white" transform="translate(0.5 0.476562)"/>
</clipPath>
</defs>
</svg>
