<svg width="431" height="275" viewBox="0 0 431 275" fill="none" xmlns="http://www.w3.org/2000/svg">
<path fill-rule="evenodd" clip-rule="evenodd" d="M0 163.356C0 154.843 3.94427 147.237 10.0976 142.259C2.25732 135.927 -1.17633 126.126 0.368347 116.638C2.46588 103.744 14.4561 94.0206 28.2592 94.0206H85.6916L83.9046 88.6564C73.6864 58.0091 83.1757 25.2612 105.666 6.10238C118.228 -4.73441 139.659 -1.12114 146.242 16.8077C146.701 18.057 146.733 19.4232 146.334 20.6935C141.326 36.6237 141.255 47.3351 146.089 57.6648C151.102 68.378 161.886 79.6266 182.149 95.2776C187.01 99.0321 191.26 101.328 195.37 103.547L195.376 103.55C201.852 107.048 208.001 110.369 214.358 118.137H532V130.195H211.406C209.489 130.195 207.687 129.284 206.551 127.741C201.112 120.354 196.302 117.756 189.644 114.161C185.32 111.825 180.418 109.178 174.776 104.822C133.497 72.9366 124.051 53.4016 134.165 19.2556C130.167 11.569 120.195 9.49558 113.113 15.6115C93.8967 32.4099 86.9215 59.5851 95.343 84.8448L98.4005 94.0218H106.113C109.442 94.0218 112.142 96.721 112.142 100.051C112.142 103.381 109.442 106.08 106.113 106.08H28.2586C20.3026 106.08 13.4288 111.452 12.2693 118.577C10.6982 128.223 18.1109 136.226 27.1305 136.226H85.0103C88.3396 136.226 91.0395 138.925 91.0395 142.255C91.0395 145.585 88.3396 148.284 85.0103 148.284H27.1305C18.8193 148.284 12.0577 155.046 12.0577 163.357C12.0583 171.687 18.797 178.429 27.1311 178.429H85.0109C88.3402 178.429 91.0401 181.128 91.0401 184.458C91.0401 187.788 88.3402 190.487 85.0109 190.487H39.1895C30.8783 190.487 24.1166 197.249 24.1166 205.56C24.1166 213.891 30.8554 220.633 39.1895 220.633H85.0109C88.3402 220.633 91.0401 223.332 91.0401 226.662C91.0401 229.992 88.3402 232.691 85.0109 232.691H63.306C54.9948 232.691 48.2332 239.453 48.2332 247.764C48.2332 256.095 54.972 262.837 63.306 262.837H138.899C160.24 262.837 180.546 254.848 196.076 240.343C197.193 239.3 198.664 238.72 200.192 238.72H532V250.778H202.526C184.997 266.348 162.499 274.894 138.899 274.894H63.306C48.3091 274.894 36.1749 262.762 36.1749 247.763C36.1749 242.19 37.866 237.004 40.7594 232.69H39.1895C24.1926 232.69 12.0583 220.558 12.0583 205.559C12.0583 199.262 14.2203 193.465 17.833 188.855C7.5304 185.107 0 175.188 0 163.356Z" fill="#C7C7C7"/>
</svg>
