<?xml version="1.0" encoding="utf-8"?>
<!-- Generator: Adobe Illustrator 23.0.1, SVG Export Plug-In . SVG Version: 6.00 Build 0)  -->
<svg version="1.1" id="Слой_1" xmlns="http://www.w3.org/2000/svg" xmlns:xlink="http://www.w3.org/1999/xlink" x="0px" y="0px"
	 width="72px" height="72px" viewBox="0 0 72 72" enable-background="new 0 0 72 72" xml:space="preserve">
<path fill="#F7931E" d="M35,72C35,72,35,72,35,72l-0.2,0c-1.1,0-1.9-0.9-1.9-2c0-1.1,0.9-1.9,2-1.9l0.1,0c1.1,0,1.9,0.9,1.9,2
	C36.9,71.2,36.1,72,35,72z M45.6,70.6c-0.9,0-1.6-0.6-1.9-1.4c-0.3-1,0.3-2.1,1.3-2.4c1-0.3,2.1,0.3,2.4,1.3c0.3,1-0.2,2.1-1.3,2.4
	c0,0-0.1,0-0.1,0C45.9,70.6,45.8,70.6,45.6,70.6z M24.5,70c-0.2,0-0.5,0-0.7-0.1l0.7-1.8l-0.7,1.8c-1-0.4-1.6-1.5-1.2-2.5
	c0.3-1,1.4-1.6,2.5-1.2l0.2,0.1c1,0.4,1.5,1.5,1.1,2.5C26,69.5,25.2,70,24.5,70z M55.3,66c-0.6,0-1.2-0.3-1.6-0.8
	c-0.6-0.9-0.4-2.1,0.5-2.7c0,0,0.1-0.1,0.1-0.1c0.9-0.6,2.1-0.4,2.7,0.5c0.6,0.9,0.4,2.1-0.5,2.7L55.4,64l1.1,1.6
	C56.1,65.9,55.7,66,55.3,66z M15,64.8c-0.4,0-0.8-0.1-1.2-0.4c0,0-0.1-0.1-0.1-0.1c-0.8-0.7-1-1.9-0.3-2.7c0.7-0.8,1.9-1,2.7-0.3
	c0.8,0.7,1,1.9,0.4,2.8C16.1,64.5,15.6,64.8,15,64.8z M63.1,58.6c-0.4,0-0.8-0.1-1.1-0.4c-0.9-0.6-1.1-1.8-0.4-2.7l0.1-0.1
	c0.7-0.8,1.9-1,2.7-0.3c0.8,0.7,1,1.9,0.3,2.7l-1.5-1.2l1.5,1.2C64.3,58.3,63.7,58.6,63.1,58.6z M7.7,56.9c-0.6,0-1.2-0.3-1.6-0.8
	C6.1,56.1,6,56,6,56c-0.6-0.9-0.3-2.1,0.6-2.7c0.9-0.6,2.1-0.3,2.7,0.6c0.6,0.9,0.4,2.1-0.5,2.7C8.4,56.8,8,56.9,7.7,56.9z
	 M68.2,49.1c-0.2,0-0.4,0-0.6-0.1c-1-0.3-1.6-1.4-1.2-2.5l0-0.1c0.3-1,1.5-1.6,2.5-1.2c1,0.3,1.6,1.5,1.2,2.5l0,0.1
	C69.8,48.6,69,49.1,68.2,49.1z M3.2,47.2c-0.9,0-1.6-0.6-1.9-1.4l0-0.1c-0.3-1,0.3-2.1,1.3-2.4c1-0.3,2.1,0.3,2.4,1.3l0,0.1
	c0.3,1-0.3,2.1-1.4,2.4C3.5,47.1,3.4,47.2,3.2,47.2z M70.1,38.5C70.1,38.5,70,38.5,70.1,38.5c-1.1,0-1.9-0.9-1.9-1.9
	c0,0,0-0.1,0-0.1c0-1.1,0.9-1.9,1.9-1.9c0,0,0,0,0,0c1.1,0,1.9,0.9,1.9,1.9c0,0,0,0.1,0,0.1C72,37.6,71.1,38.5,70.1,38.5z M2,36.5
	C1.9,36.5,1.9,36.5,2,36.5c-1.2,0-2-1-1.9-2l0-0.1c0-1.1,1-1.9,2-1.9c1.1,0,1.9,1,1.9,2l0,0.1C3.9,35.7,3,36.5,2,36.5z M68.5,27.9
	c-0.8,0-1.6-0.5-1.9-1.4c-0.3-1,0.2-2.2,1.3-2.5c1-0.3,2.1,0.2,2.4,1.2l0,0.1c0.3,1-0.3,2.1-1.3,2.4C68.9,27.9,68.7,27.9,68.5,27.9z
	 M4.1,25.9c-0.2,0-0.5,0-0.7-0.1c-1-0.4-1.5-1.5-1.1-2.5l0-0.1c0.4-1,1.5-1.5,2.5-1.1c1,0.4,1.5,1.5,1.1,2.5l0,0.1
	C5.6,25.5,4.9,25.9,4.1,25.9z M63.8,18.2c-0.6,0-1.2-0.3-1.6-0.9c-0.6-0.9-0.4-2.1,0.5-2.7c0.9-0.6,2-0.5,2.7,0.4
	c0,0,0.1,0.1,0.1,0.1c0.6,0.9,0.4,2.1-0.5,2.7C64.5,18.1,64.2,18.2,63.8,18.2z M9.5,16.6c-0.4,0-0.9-0.1-1.2-0.4
	c-0.8-0.7-1-1.9-0.3-2.7l0,0c0.7-0.8,1.9-1,2.7-0.3c0.8,0.7,1,1.9,0.3,2.7L11,15.9C10.6,16.4,10,16.6,9.5,16.6z M56.2,10.6
	c-0.4,0-0.8-0.1-1.1-0.4c0,0-0.1-0.1-0.1-0.1c-0.9-0.6-1.1-1.9-0.4-2.7c0.6-0.9,1.9-1.1,2.7-0.4c0,0,0,0,0,0
	c0.9,0.6,1.1,1.9,0.4,2.7C57.4,10.3,56.8,10.6,56.2,10.6z M17.4,9.4c-0.6,0-1.3-0.3-1.6-0.9c-0.6-0.9-0.3-2.1,0.6-2.7l1.1,1.6
	l-1-1.7c0.9-0.6,2.1-0.4,2.7,0.5c0.6,0.9,0.4,2.1-0.5,2.7c0,0-0.1,0.1-0.1,0.1C18.2,9.3,17.8,9.4,17.4,9.4z M46.7,5.6
	c-0.2,0-0.4,0-0.6-0.1c-1-0.3-1.6-1.4-1.3-2.5c0.3-1,1.4-1.6,2.4-1.3l0.1,0c1,0.3,1.6,1.5,1.2,2.5C48.3,5.1,47.5,5.6,46.7,5.6z
	 M27.3,5c-0.9,0-1.7-0.6-1.9-1.5c-0.3-1,0.4-2.1,1.4-2.4l0.5,1.9l-0.4-1.9c1-0.3,2.1,0.3,2.4,1.4c0.3,1-0.3,2.1-1.4,2.4
	c0,0-0.1,0-0.1,0C27.6,5,27.4,5,27.3,5z M36.1,3.9L36.1,3.9c-1.2,0-2-0.9-2-1.9S34.9,0,36,0h0.1C37.2,0,38,0.9,38,1.9
	S37.2,3.9,36.1,3.9z"/>
</svg>
