<svg width="263" height="473" viewBox="0 0 263 473" fill="none" xmlns="http://www.w3.org/2000/svg">
<g opacity="0.2">
<mask id="mask0" mask-type="alpha" maskUnits="userSpaceOnUse" x="0" y="0" width="496" height="473">
<path d="M0 48.9228C0 47.748 0.952023 46.7957 2.1264 46.7957C3.30078 46.7957 4.25281 47.748 4.25281 48.9228C4.25281 50.0975 3.30078 51.0498 2.1264 51.0498C0.952023 51.0498 0 50.0975 0 48.9228Z" fill="black"/>
<path d="M0 2.12708C0 0.952325 0.952023 0 2.1264 0C3.30078 0 4.25281 0.952325 4.25281 2.12708C4.25281 3.30183 3.30078 4.25415 2.1264 4.25415C0.952023 4.25415 0 3.30183 0 2.12708Z" fill="black"/>
<path d="M23.3904 25.5249C23.3904 24.3502 24.3425 23.3978 25.5168 23.3978C26.6912 23.3978 27.6432 24.3502 27.6432 25.5249C27.6432 26.6997 26.6912 27.652 25.5168 27.652C24.3425 27.652 23.3904 26.6997 23.3904 25.5249Z" fill="black"/>
<path d="M46.7809 48.9228C46.7809 47.748 47.7329 46.7957 48.9073 46.7957C50.0816 46.7957 51.0337 47.748 51.0337 48.9228C51.0337 50.0975 50.0816 51.0498 48.9073 51.0498C47.7329 51.0498 46.7809 50.0975 46.7809 48.9228Z" fill="black"/>
<path d="M70.1713 25.5249C70.1713 24.3502 71.1233 23.3978 72.2977 23.3978C73.4721 23.3978 74.4241 24.3502 74.4241 25.5249C74.4241 26.6997 73.4721 27.652 72.2977 27.652C71.1233 27.652 70.1713 26.6997 70.1713 25.5249Z" fill="black"/>
<path d="M46.7809 2.12708C46.7809 0.952325 47.7329 0 48.9073 0C50.0816 0 51.0337 0.952325 51.0337 2.12708C51.0337 3.30183 50.0816 4.25415 48.9073 4.25415C47.7329 4.25415 46.7809 3.30183 46.7809 2.12708Z" fill="black"/>
<path d="M93.5617 48.9228C93.5617 47.748 94.5138 46.7957 95.6881 46.7957C96.8625 46.7957 97.8145 47.748 97.8145 48.9228C97.8145 50.0975 96.8625 51.0498 95.6881 51.0498C94.5138 51.0498 93.5617 50.0975 93.5617 48.9228Z" fill="black"/>
<path d="M116.952 25.5249C116.952 24.3502 117.904 23.3978 119.079 23.3978C120.253 23.3978 121.205 24.3502 121.205 25.5249C121.205 26.6997 120.253 27.652 119.079 27.652C117.904 27.652 116.952 26.6997 116.952 25.5249Z" fill="black"/>
<path d="M93.5617 2.12708C93.5617 0.952325 94.5138 0 95.6881 0C96.8625 0 97.8145 0.952325 97.8145 2.12708C97.8145 3.30183 96.8625 4.25415 95.6881 4.25415C94.5138 4.25415 93.5617 3.30183 93.5617 2.12708Z" fill="black"/>
<path d="M140.343 48.9228C140.343 47.748 141.295 46.7957 142.469 46.7957C143.643 46.7957 144.595 47.748 144.595 48.9228C144.595 50.0975 143.643 51.0498 142.469 51.0498C141.295 51.0498 140.343 50.0975 140.343 48.9228Z" fill="black"/>
<path d="M163.733 25.5249C163.733 24.3502 164.685 23.3978 165.859 23.3978C167.034 23.3978 167.986 24.3502 167.986 25.5249C167.986 26.6997 167.034 27.652 165.859 27.652C164.685 27.652 163.733 26.6997 163.733 25.5249Z" fill="black"/>
<path d="M140.343 2.12708C140.343 0.952325 141.295 0 142.469 0C143.643 0 144.595 0.952325 144.595 2.12708C144.595 3.30183 143.643 4.25415 142.469 4.25415C141.295 4.25415 140.343 3.30183 140.343 2.12708Z" fill="black"/>
<path d="M187.123 48.9228C187.123 47.748 188.076 46.7957 189.25 46.7957C190.424 46.7957 191.376 47.748 191.376 48.9228C191.376 50.0975 190.424 51.0498 189.25 51.0498C188.076 51.0498 187.123 50.0975 187.123 48.9228Z" fill="black"/>
<path d="M210.514 25.5249C210.514 24.3502 211.466 23.3978 212.64 23.3978C213.815 23.3978 214.767 24.3502 214.767 25.5249C214.767 26.6997 213.815 27.652 212.64 27.652C211.466 27.652 210.514 26.6997 210.514 25.5249Z" fill="black"/>
<path d="M187.123 2.12708C187.123 0.952325 188.076 0 189.25 0C190.424 0 191.376 0.952325 191.376 2.12708C191.376 3.30183 190.424 4.25415 189.25 4.25415C188.076 4.25415 187.123 3.30183 187.123 2.12708Z" fill="black"/>
<path d="M233.904 48.9228C233.904 47.748 234.856 46.7957 236.031 46.7957C237.205 46.7957 238.157 47.748 238.157 48.9228C238.157 50.0975 237.205 51.0498 236.031 51.0498C234.856 51.0498 233.904 50.0975 233.904 48.9228Z" fill="black"/>
<path d="M257.295 25.5249C257.295 24.3502 258.247 23.3978 259.421 23.3978C260.596 23.3978 261.548 24.3502 261.548 25.5249C261.548 26.6997 260.596 27.652 259.421 27.652C258.247 27.652 257.295 26.6997 257.295 25.5249Z" fill="black"/>
<path d="M233.904 2.12708C233.904 0.952325 234.856 0 236.031 0C237.205 0 238.157 0.952325 238.157 2.12708C238.157 3.30183 237.205 4.25415 236.031 4.25415C234.856 4.25415 233.904 3.30183 233.904 2.12708Z" fill="black"/>
<path d="M280.685 48.9228C280.685 47.748 281.637 46.7957 282.812 46.7957C283.986 46.7957 284.938 47.748 284.938 48.9228C284.938 50.0975 283.986 51.0498 282.812 51.0498C281.637 51.0498 280.685 50.0975 280.685 48.9228Z" fill="black"/>
<path d="M304.076 25.5249C304.076 24.3502 305.028 23.3978 306.202 23.3978C307.376 23.3978 308.328 24.3502 308.328 25.5249C308.328 26.6997 307.376 27.652 306.202 27.652C305.028 27.652 304.076 26.6997 304.076 25.5249Z" fill="black"/>
<path d="M280.685 2.12708C280.685 0.952325 281.637 0 282.812 0C283.986 0 284.938 0.952325 284.938 2.12708C284.938 3.30183 283.986 4.25415 282.812 4.25415C281.637 4.25415 280.685 3.30183 280.685 2.12708Z" fill="black"/>
<path d="M327.466 48.9228C327.466 47.748 328.418 46.7957 329.592 46.7957C330.767 46.7957 331.719 47.748 331.719 48.9228C331.719 50.0975 330.767 51.0498 329.592 51.0498C328.418 51.0498 327.466 50.0975 327.466 48.9228Z" fill="black"/>
<path d="M350.857 25.5249C350.857 24.3502 351.809 23.3978 352.983 23.3978C354.157 23.3978 355.109 24.3502 355.109 25.5249C355.109 26.6997 354.157 27.652 352.983 27.652C351.809 27.652 350.857 26.6997 350.857 25.5249Z" fill="black"/>
<path d="M327.466 2.12708C327.466 0.952325 328.418 0 329.592 0C330.767 0 331.719 0.952325 331.719 2.12708C331.719 3.30183 330.767 4.25415 329.592 4.25415C328.418 4.25415 327.466 3.30183 327.466 2.12708Z" fill="black"/>
<path d="M374.247 48.9228C374.247 47.748 375.199 46.7957 376.373 46.7957C377.548 46.7957 378.5 47.748 378.5 48.9228C378.5 50.0975 377.548 51.0498 376.373 51.0498C375.199 51.0498 374.247 50.0975 374.247 48.9228Z" fill="black"/>
<path d="M397.637 25.5249C397.637 24.3502 398.589 23.3978 399.764 23.3978C400.938 23.3978 401.89 24.3502 401.89 25.5249C401.89 26.6997 400.938 27.652 399.764 27.652C398.589 27.652 397.637 26.6997 397.637 25.5249Z" fill="black"/>
<path d="M374.247 2.12708C374.247 0.952325 375.199 0 376.373 0C377.548 0 378.5 0.952325 378.5 2.12708C378.5 3.30183 377.548 4.25415 376.373 4.25415C375.199 4.25415 374.247 3.30183 374.247 2.12708Z" fill="black"/>
<path d="M421.028 48.9228C421.028 47.748 421.98 46.7957 423.154 46.7957C424.329 46.7957 425.281 47.748 425.281 48.9228C425.281 50.0975 424.329 51.0498 423.154 51.0498C421.98 51.0498 421.028 50.0975 421.028 48.9228Z" fill="black"/>
<path d="M444.418 25.5249C444.418 24.3502 445.37 23.3978 446.545 23.3978C447.719 23.3978 448.671 24.3502 448.671 25.5249C448.671 26.6997 447.719 27.652 446.545 27.652C445.37 27.652 444.418 26.6997 444.418 25.5249Z" fill="black"/>
<path d="M421.028 2.12708C421.028 0.952325 421.98 0 423.154 0C424.329 0 425.281 0.952325 425.281 2.12708C425.281 3.30183 424.329 4.25415 423.154 4.25415C421.98 4.25415 421.028 3.30183 421.028 2.12708Z" fill="black"/>
<path d="M467.809 48.9228C467.809 47.748 468.761 46.7957 469.935 46.7957C471.109 46.7957 472.061 47.748 472.061 48.9228C472.061 50.0975 471.109 51.0498 469.935 51.0498C468.761 51.0498 467.809 50.0975 467.809 48.9228Z" fill="black"/>
<path d="M491.199 25.5249C491.199 24.3502 492.151 23.3978 493.326 23.3978C494.5 23.3978 495.452 24.3502 495.452 25.5249C495.452 26.6997 494.5 27.652 493.326 27.652C492.151 27.652 491.199 26.6997 491.199 25.5249Z" fill="black"/>
<path d="M467.809 2.12708C467.809 0.952325 468.761 0 469.935 0C471.109 0 472.061 0.952325 472.061 2.12708C472.061 3.30183 471.109 4.25415 469.935 4.25415C468.761 4.25415 467.809 3.30183 467.809 2.12708Z" fill="black"/>
<path d="M23.3904 72.3206C23.3904 71.1459 24.3425 70.1935 25.5168 70.1935C26.6912 70.1935 27.6432 71.1459 27.6432 72.3206C27.6432 73.4954 26.6912 74.4477 25.5168 74.4477C24.3425 74.4477 23.3904 73.4954 23.3904 72.3206Z" fill="black"/>
<path d="M0 95.7185C0 94.5437 0.952023 93.5914 2.1264 93.5914C3.30078 93.5914 4.25281 94.5437 4.25281 95.7185C4.25281 96.8932 3.30078 97.8455 2.1264 97.8455C0.952023 97.8455 0 96.8932 0 95.7185Z" fill="black"/>
<path d="M70.1713 72.3206C70.1713 71.1459 71.1233 70.1935 72.2977 70.1935C73.4721 70.1935 74.4241 71.1459 74.4241 72.3206C74.4241 73.4954 73.4721 74.4477 72.2977 74.4477C71.1233 74.4477 70.1713 73.4954 70.1713 72.3206Z" fill="black"/>
<path d="M46.7809 95.7185C46.7809 94.5437 47.7329 93.5914 48.9073 93.5914C50.0816 93.5914 51.0337 94.5437 51.0337 95.7185C51.0337 96.8932 50.0816 97.8455 48.9073 97.8455C47.7329 97.8455 46.7809 96.8932 46.7809 95.7185Z" fill="black"/>
<path d="M116.952 72.3206C116.952 71.1459 117.904 70.1935 119.079 70.1935C120.253 70.1935 121.205 71.1459 121.205 72.3206C121.205 73.4954 120.253 74.4477 119.079 74.4477C117.904 74.4477 116.952 73.4954 116.952 72.3206Z" fill="black"/>
<path d="M93.5617 95.7185C93.5617 94.5437 94.5138 93.5914 95.6881 93.5914C96.8625 93.5914 97.8145 94.5437 97.8145 95.7185C97.8145 96.8932 96.8625 97.8455 95.6881 97.8455C94.5138 97.8455 93.5617 96.8932 93.5617 95.7185Z" fill="black"/>
<path d="M163.733 72.3206C163.733 71.1459 164.685 70.1935 165.859 70.1935C167.034 70.1935 167.986 71.1459 167.986 72.3206C167.986 73.4954 167.034 74.4477 165.859 74.4477C164.685 74.4477 163.733 73.4954 163.733 72.3206Z" fill="black"/>
<path d="M140.343 95.7185C140.343 94.5437 141.295 93.5914 142.469 93.5914C143.643 93.5914 144.595 94.5437 144.595 95.7185C144.595 96.8932 143.643 97.8455 142.469 97.8455C141.295 97.8455 140.343 96.8932 140.343 95.7185Z" fill="black"/>
<path d="M210.514 72.3206C210.514 71.1459 211.466 70.1935 212.64 70.1935C213.815 70.1935 214.767 71.1459 214.767 72.3206C214.767 73.4954 213.815 74.4477 212.64 74.4477C211.466 74.4477 210.514 73.4954 210.514 72.3206Z" fill="black"/>
<path d="M187.123 95.7185C187.123 94.5437 188.076 93.5914 189.25 93.5914C190.424 93.5914 191.376 94.5437 191.376 95.7185C191.376 96.8932 190.424 97.8455 189.25 97.8455C188.076 97.8455 187.123 96.8932 187.123 95.7185Z" fill="black"/>
<path d="M257.295 72.3206C257.295 71.1459 258.247 70.1935 259.421 70.1935C260.596 70.1935 261.548 71.1459 261.548 72.3206C261.548 73.4954 260.596 74.4477 259.421 74.4477C258.247 74.4477 257.295 73.4954 257.295 72.3206Z" fill="black"/>
<path d="M233.904 95.7185C233.904 94.5437 234.856 93.5914 236.031 93.5914C237.205 93.5914 238.157 94.5437 238.157 95.7185C238.157 96.8932 237.205 97.8455 236.031 97.8455C234.856 97.8455 233.904 96.8932 233.904 95.7185Z" fill="black"/>
<path d="M304.076 72.3206C304.076 71.1459 305.028 70.1935 306.202 70.1935C307.376 70.1935 308.328 71.1459 308.328 72.3206C308.328 73.4954 307.376 74.4477 306.202 74.4477C305.028 74.4477 304.076 73.4954 304.076 72.3206Z" fill="black"/>
<path d="M280.685 95.7185C280.685 94.5437 281.637 93.5914 282.812 93.5914C283.986 93.5914 284.938 94.5437 284.938 95.7185C284.938 96.8932 283.986 97.8455 282.812 97.8455C281.637 97.8455 280.685 96.8932 280.685 95.7185Z" fill="black"/>
<path d="M350.857 72.3206C350.857 71.1459 351.809 70.1935 352.983 70.1935C354.157 70.1935 355.109 71.1459 355.109 72.3206C355.109 73.4954 354.157 74.4477 352.983 74.4477C351.809 74.4477 350.857 73.4954 350.857 72.3206Z" fill="black"/>
<path d="M327.466 95.7185C327.466 94.5437 328.418 93.5914 329.592 93.5914C330.767 93.5914 331.719 94.5437 331.719 95.7185C331.719 96.8932 330.767 97.8455 329.592 97.8455C328.418 97.8455 327.466 96.8932 327.466 95.7185Z" fill="black"/>
<path d="M397.637 72.3206C397.637 71.1459 398.589 70.1935 399.764 70.1935C400.938 70.1935 401.89 71.1459 401.89 72.3206C401.89 73.4954 400.938 74.4477 399.764 74.4477C398.589 74.4477 397.637 73.4954 397.637 72.3206Z" fill="black"/>
<path d="M374.247 95.7185C374.247 94.5437 375.199 93.5914 376.373 93.5914C377.548 93.5914 378.5 94.5437 378.5 95.7185C378.5 96.8932 377.548 97.8455 376.373 97.8455C375.199 97.8455 374.247 96.8932 374.247 95.7185Z" fill="black"/>
<path d="M444.418 72.3206C444.418 71.1459 445.37 70.1935 446.545 70.1935C447.719 70.1935 448.671 71.1459 448.671 72.3206C448.671 73.4954 447.719 74.4477 446.545 74.4477C445.37 74.4477 444.418 73.4954 444.418 72.3206Z" fill="black"/>
<path d="M421.028 95.7185C421.028 94.5437 421.98 93.5914 423.154 93.5914C424.329 93.5914 425.281 94.5437 425.281 95.7185C425.281 96.8932 424.329 97.8455 423.154 97.8455C421.98 97.8455 421.028 96.8932 421.028 95.7185Z" fill="black"/>
<path d="M491.199 72.3206C491.199 71.1459 492.151 70.1935 493.326 70.1935C494.5 70.1935 495.452 71.1459 495.452 72.3206C495.452 73.4954 494.5 74.4477 493.326 74.4477C492.151 74.4477 491.199 73.4954 491.199 72.3206Z" fill="black"/>
<path d="M467.809 95.7185C467.809 94.5437 468.761 93.5914 469.935 93.5914C471.109 93.5914 472.061 94.5437 472.061 95.7185C472.061 96.8932 471.109 97.8455 469.935 97.8455C468.761 97.8455 467.809 96.8932 467.809 95.7185Z" fill="black"/>
<path d="M23.3904 119.116C23.3904 117.942 24.3425 116.989 25.5168 116.989C26.6912 116.989 27.6432 117.942 27.6432 119.116C27.6432 120.291 26.6912 121.243 25.5168 121.243C24.3425 121.243 23.3904 120.291 23.3904 119.116Z" fill="black"/>
<path d="M0 142.514C0 141.339 0.952023 140.387 2.1264 140.387C3.30078 140.387 4.25281 141.339 4.25281 142.514C4.25281 143.689 3.30078 144.641 2.1264 144.641C0.952023 144.641 0 143.689 0 142.514Z" fill="black"/>
<path d="M70.1713 119.116C70.1713 117.942 71.1233 116.989 72.2977 116.989C73.4721 116.989 74.4241 117.942 74.4241 119.116C74.4241 120.291 73.4721 121.243 72.2977 121.243C71.1233 121.243 70.1713 120.291 70.1713 119.116Z" fill="black"/>
<path d="M46.7809 142.514C46.7809 141.339 47.7329 140.387 48.9073 140.387C50.0816 140.387 51.0337 141.339 51.0337 142.514C51.0337 143.689 50.0816 144.641 48.9073 144.641C47.7329 144.641 46.7809 143.689 46.7809 142.514Z" fill="black"/>
<path d="M116.952 119.116C116.952 117.942 117.904 116.989 119.079 116.989C120.253 116.989 121.205 117.942 121.205 119.116C121.205 120.291 120.253 121.243 119.079 121.243C117.904 121.243 116.952 120.291 116.952 119.116Z" fill="black"/>
<path d="M93.5617 142.514C93.5617 141.339 94.5138 140.387 95.6881 140.387C96.8625 140.387 97.8145 141.339 97.8145 142.514C97.8145 143.689 96.8625 144.641 95.6881 144.641C94.5138 144.641 93.5617 143.689 93.5617 142.514Z" fill="black"/>
<path d="M163.733 119.116C163.733 117.942 164.685 116.989 165.859 116.989C167.034 116.989 167.986 117.942 167.986 119.116C167.986 120.291 167.034 121.243 165.859 121.243C164.685 121.243 163.733 120.291 163.733 119.116Z" fill="black"/>
<path d="M140.343 142.514C140.343 141.339 141.295 140.387 142.469 140.387C143.643 140.387 144.595 141.339 144.595 142.514C144.595 143.689 143.643 144.641 142.469 144.641C141.295 144.641 140.343 143.689 140.343 142.514Z" fill="black"/>
<path d="M210.514 119.116C210.514 117.942 211.466 116.989 212.64 116.989C213.815 116.989 214.767 117.942 214.767 119.116C214.767 120.291 213.815 121.243 212.64 121.243C211.466 121.243 210.514 120.291 210.514 119.116Z" fill="black"/>
<path d="M187.123 142.514C187.123 141.339 188.076 140.387 189.25 140.387C190.424 140.387 191.376 141.339 191.376 142.514C191.376 143.689 190.424 144.641 189.25 144.641C188.076 144.641 187.123 143.689 187.123 142.514Z" fill="black"/>
<path d="M257.295 119.116C257.295 117.942 258.247 116.989 259.421 116.989C260.596 116.989 261.548 117.942 261.548 119.116C261.548 120.291 260.596 121.243 259.421 121.243C258.247 121.243 257.295 120.291 257.295 119.116Z" fill="black"/>
<path d="M233.904 142.514C233.904 141.339 234.856 140.387 236.031 140.387C237.205 140.387 238.157 141.339 238.157 142.514C238.157 143.689 237.205 144.641 236.031 144.641C234.856 144.641 233.904 143.689 233.904 142.514Z" fill="black"/>
<path d="M304.076 119.116C304.076 117.942 305.028 116.989 306.202 116.989C307.376 116.989 308.328 117.942 308.328 119.116C308.328 120.291 307.376 121.243 306.202 121.243C305.028 121.243 304.076 120.291 304.076 119.116Z" fill="black"/>
<path d="M280.685 142.514C280.685 141.339 281.637 140.387 282.812 140.387C283.986 140.387 284.938 141.339 284.938 142.514C284.938 143.689 283.986 144.641 282.812 144.641C281.637 144.641 280.685 143.689 280.685 142.514Z" fill="black"/>
<path d="M350.857 119.116C350.857 117.942 351.809 116.989 352.983 116.989C354.157 116.989 355.109 117.942 355.109 119.116C355.109 120.291 354.157 121.243 352.983 121.243C351.809 121.243 350.857 120.291 350.857 119.116Z" fill="black"/>
<path d="M327.466 142.514C327.466 141.339 328.418 140.387 329.592 140.387C330.767 140.387 331.719 141.339 331.719 142.514C331.719 143.689 330.767 144.641 329.592 144.641C328.418 144.641 327.466 143.689 327.466 142.514Z" fill="black"/>
<path d="M397.637 119.116C397.637 117.942 398.589 116.989 399.764 116.989C400.938 116.989 401.89 117.942 401.89 119.116C401.89 120.291 400.938 121.243 399.764 121.243C398.589 121.243 397.637 120.291 397.637 119.116Z" fill="black"/>
<path d="M374.247 142.514C374.247 141.339 375.199 140.387 376.373 140.387C377.548 140.387 378.5 141.339 378.5 142.514C378.5 143.689 377.548 144.641 376.373 144.641C375.199 144.641 374.247 143.689 374.247 142.514Z" fill="black"/>
<path d="M444.418 119.116C444.418 117.942 445.37 116.989 446.545 116.989C447.719 116.989 448.671 117.942 448.671 119.116C448.671 120.291 447.719 121.243 446.545 121.243C445.37 121.243 444.418 120.291 444.418 119.116Z" fill="black"/>
<path d="M421.028 142.514C421.028 141.339 421.98 140.387 423.154 140.387C424.329 140.387 425.281 141.339 425.281 142.514C425.281 143.689 424.329 144.641 423.154 144.641C421.98 144.641 421.028 143.689 421.028 142.514Z" fill="black"/>
<path d="M491.199 119.116C491.199 117.942 492.151 116.989 493.326 116.989C494.5 116.989 495.452 117.942 495.452 119.116C495.452 120.291 494.5 121.243 493.326 121.243C492.151 121.243 491.199 120.291 491.199 119.116Z" fill="black"/>
<path d="M467.809 142.514C467.809 141.339 468.761 140.387 469.935 140.387C471.109 140.387 472.061 141.339 472.061 142.514C472.061 143.689 471.109 144.641 469.935 144.641C468.761 144.641 467.809 143.689 467.809 142.514Z" fill="black"/>
<path d="M23.3904 165.912C23.3904 164.737 24.3425 163.785 25.5168 163.785C26.6912 163.785 27.6432 164.737 27.6432 165.912C27.6432 167.087 26.6912 168.039 25.5168 168.039C24.3425 168.039 23.3904 167.087 23.3904 165.912Z" fill="black"/>
<path d="M0 189.31C0 188.135 0.952023 187.183 2.1264 187.183C3.30078 187.183 4.25281 188.135 4.25281 189.31C4.25281 190.485 3.30078 191.437 2.1264 191.437C0.952023 191.437 0 190.485 0 189.31Z" fill="black"/>
<path d="M70.1713 165.912C70.1713 164.737 71.1233 163.785 72.2977 163.785C73.4721 163.785 74.4241 164.737 74.4241 165.912C74.4241 167.087 73.4721 168.039 72.2977 168.039C71.1233 168.039 70.1713 167.087 70.1713 165.912Z" fill="black"/>
<path d="M46.7809 189.31C46.7809 188.135 47.7329 187.183 48.9073 187.183C50.0816 187.183 51.0337 188.135 51.0337 189.31C51.0337 190.485 50.0816 191.437 48.9073 191.437C47.7329 191.437 46.7809 190.485 46.7809 189.31Z" fill="black"/>
<path d="M116.952 165.912C116.952 164.737 117.904 163.785 119.079 163.785C120.253 163.785 121.205 164.737 121.205 165.912C121.205 167.087 120.253 168.039 119.079 168.039C117.904 168.039 116.952 167.087 116.952 165.912Z" fill="black"/>
<path d="M93.5617 189.31C93.5617 188.135 94.5138 187.183 95.6881 187.183C96.8625 187.183 97.8145 188.135 97.8145 189.31C97.8145 190.485 96.8625 191.437 95.6881 191.437C94.5138 191.437 93.5617 190.485 93.5617 189.31Z" fill="black"/>
<path d="M163.733 165.912C163.733 164.737 164.685 163.785 165.859 163.785C167.034 163.785 167.986 164.737 167.986 165.912C167.986 167.087 167.034 168.039 165.859 168.039C164.685 168.039 163.733 167.087 163.733 165.912Z" fill="black"/>
<path d="M140.343 189.31C140.343 188.135 141.295 187.183 142.469 187.183C143.643 187.183 144.595 188.135 144.595 189.31C144.595 190.485 143.643 191.437 142.469 191.437C141.295 191.437 140.343 190.485 140.343 189.31Z" fill="black"/>
<path d="M210.514 165.912C210.514 164.737 211.466 163.785 212.64 163.785C213.815 163.785 214.767 164.737 214.767 165.912C214.767 167.087 213.815 168.039 212.64 168.039C211.466 168.039 210.514 167.087 210.514 165.912Z" fill="black"/>
<path d="M187.123 189.31C187.123 188.135 188.076 187.183 189.25 187.183C190.424 187.183 191.376 188.135 191.376 189.31C191.376 190.485 190.424 191.437 189.25 191.437C188.076 191.437 187.123 190.485 187.123 189.31Z" fill="black"/>
<path d="M257.295 165.912C257.295 164.737 258.247 163.785 259.421 163.785C260.596 163.785 261.548 164.737 261.548 165.912C261.548 167.087 260.596 168.039 259.421 168.039C258.247 168.039 257.295 167.087 257.295 165.912Z" fill="black"/>
<path d="M233.904 189.31C233.904 188.135 234.856 187.183 236.031 187.183C237.205 187.183 238.157 188.135 238.157 189.31C238.157 190.485 237.205 191.437 236.031 191.437C234.856 191.437 233.904 190.485 233.904 189.31Z" fill="black"/>
<path d="M304.076 165.912C304.076 164.737 305.028 163.785 306.202 163.785C307.376 163.785 308.328 164.737 308.328 165.912C308.328 167.087 307.376 168.039 306.202 168.039C305.028 168.039 304.076 167.087 304.076 165.912Z" fill="black"/>
<path d="M280.685 189.31C280.685 188.135 281.637 187.183 282.812 187.183C283.986 187.183 284.938 188.135 284.938 189.31C284.938 190.485 283.986 191.437 282.812 191.437C281.637 191.437 280.685 190.485 280.685 189.31Z" fill="black"/>
<path d="M350.857 165.912C350.857 164.737 351.809 163.785 352.983 163.785C354.157 163.785 355.109 164.737 355.109 165.912C355.109 167.087 354.157 168.039 352.983 168.039C351.809 168.039 350.857 167.087 350.857 165.912Z" fill="black"/>
<path d="M327.466 189.31C327.466 188.135 328.418 187.183 329.592 187.183C330.767 187.183 331.719 188.135 331.719 189.31C331.719 190.485 330.767 191.437 329.592 191.437C328.418 191.437 327.466 190.485 327.466 189.31Z" fill="black"/>
<path d="M397.637 165.912C397.637 164.737 398.589 163.785 399.764 163.785C400.938 163.785 401.89 164.737 401.89 165.912C401.89 167.087 400.938 168.039 399.764 168.039C398.589 168.039 397.637 167.087 397.637 165.912Z" fill="black"/>
<path d="M374.247 189.31C374.247 188.135 375.199 187.183 376.373 187.183C377.548 187.183 378.5 188.135 378.5 189.31C378.5 190.485 377.548 191.437 376.373 191.437C375.199 191.437 374.247 190.485 374.247 189.31Z" fill="black"/>
<path d="M444.418 165.912C444.418 164.737 445.37 163.785 446.545 163.785C447.719 163.785 448.671 164.737 448.671 165.912C448.671 167.087 447.719 168.039 446.545 168.039C445.37 168.039 444.418 167.087 444.418 165.912Z" fill="black"/>
<path d="M421.028 189.31C421.028 188.135 421.98 187.183 423.154 187.183C424.329 187.183 425.281 188.135 425.281 189.31C425.281 190.485 424.329 191.437 423.154 191.437C421.98 191.437 421.028 190.485 421.028 189.31Z" fill="black"/>
<path d="M491.199 165.912C491.199 164.737 492.151 163.785 493.326 163.785C494.5 163.785 495.452 164.737 495.452 165.912C495.452 167.087 494.5 168.039 493.326 168.039C492.151 168.039 491.199 167.087 491.199 165.912Z" fill="black"/>
<path d="M467.809 189.31C467.809 188.135 468.761 187.183 469.935 187.183C471.109 187.183 472.061 188.135 472.061 189.31C472.061 190.485 471.109 191.437 469.935 191.437C468.761 191.437 467.809 190.485 467.809 189.31Z" fill="black"/>
<path d="M23.3904 212.708C23.3904 211.533 24.3425 210.581 25.5168 210.581C26.6912 210.581 27.6432 211.533 27.6432 212.708C27.6432 213.882 26.6912 214.835 25.5168 214.835C24.3425 214.835 23.3904 213.882 23.3904 212.708Z" fill="black"/>
<path d="M0 236.106C0 234.931 0.952023 233.978 2.1264 233.978C3.30078 233.978 4.25281 234.931 4.25281 236.106C4.25281 237.28 3.30078 238.233 2.1264 238.233C0.952023 238.233 0 237.28 0 236.106Z" fill="black"/>
<path d="M70.1713 212.708C70.1713 211.533 71.1233 210.581 72.2977 210.581C73.4721 210.581 74.4241 211.533 74.4241 212.708C74.4241 213.882 73.4721 214.835 72.2977 214.835C71.1233 214.835 70.1713 213.882 70.1713 212.708Z" fill="black"/>
<path d="M46.7809 236.106C46.7809 234.931 47.7329 233.978 48.9073 233.978C50.0816 233.978 51.0337 234.931 51.0337 236.106C51.0337 237.28 50.0816 238.233 48.9073 238.233C47.7329 238.233 46.7809 237.28 46.7809 236.106Z" fill="black"/>
<path d="M116.952 212.708C116.952 211.533 117.904 210.581 119.079 210.581C120.253 210.581 121.205 211.533 121.205 212.708C121.205 213.882 120.253 214.835 119.079 214.835C117.904 214.835 116.952 213.882 116.952 212.708Z" fill="black"/>
<path d="M93.5617 236.106C93.5617 234.931 94.5138 233.978 95.6881 233.978C96.8625 233.978 97.8145 234.931 97.8145 236.106C97.8145 237.28 96.8625 238.233 95.6881 238.233C94.5138 238.233 93.5617 237.28 93.5617 236.106Z" fill="black"/>
<path d="M163.733 212.708C163.733 211.533 164.685 210.581 165.859 210.581C167.034 210.581 167.986 211.533 167.986 212.708C167.986 213.882 167.034 214.835 165.859 214.835C164.685 214.835 163.733 213.882 163.733 212.708Z" fill="black"/>
<path d="M140.343 236.106C140.343 234.931 141.295 233.978 142.469 233.978C143.643 233.978 144.595 234.931 144.595 236.106C144.595 237.28 143.643 238.233 142.469 238.233C141.295 238.233 140.343 237.28 140.343 236.106Z" fill="black"/>
<path d="M210.514 212.708C210.514 211.533 211.466 210.581 212.64 210.581C213.815 210.581 214.767 211.533 214.767 212.708C214.767 213.882 213.815 214.835 212.64 214.835C211.466 214.835 210.514 213.882 210.514 212.708Z" fill="black"/>
<path d="M187.123 236.106C187.123 234.931 188.076 233.978 189.25 233.978C190.424 233.978 191.376 234.931 191.376 236.106C191.376 237.28 190.424 238.233 189.25 238.233C188.076 238.233 187.123 237.28 187.123 236.106Z" fill="black"/>
<path d="M257.295 212.708C257.295 211.533 258.247 210.581 259.421 210.581C260.596 210.581 261.548 211.533 261.548 212.708C261.548 213.882 260.596 214.835 259.421 214.835C258.247 214.835 257.295 213.882 257.295 212.708Z" fill="black"/>
<path d="M233.904 236.106C233.904 234.931 234.856 233.978 236.031 233.978C237.205 233.978 238.157 234.931 238.157 236.106C238.157 237.28 237.205 238.233 236.031 238.233C234.856 238.233 233.904 237.28 233.904 236.106Z" fill="black"/>
<path d="M304.076 212.708C304.076 211.533 305.028 210.581 306.202 210.581C307.376 210.581 308.328 211.533 308.328 212.708C308.328 213.882 307.376 214.835 306.202 214.835C305.028 214.835 304.076 213.882 304.076 212.708Z" fill="black"/>
<path d="M280.685 236.106C280.685 234.931 281.637 233.978 282.812 233.978C283.986 233.978 284.938 234.931 284.938 236.106C284.938 237.28 283.986 238.233 282.812 238.233C281.637 238.233 280.685 237.28 280.685 236.106Z" fill="black"/>
<path d="M350.857 212.708C350.857 211.533 351.809 210.581 352.983 210.581C354.157 210.581 355.109 211.533 355.109 212.708C355.109 213.882 354.157 214.835 352.983 214.835C351.809 214.835 350.857 213.882 350.857 212.708Z" fill="black"/>
<path d="M327.466 236.106C327.466 234.931 328.418 233.978 329.592 233.978C330.767 233.978 331.719 234.931 331.719 236.106C331.719 237.28 330.767 238.233 329.592 238.233C328.418 238.233 327.466 237.28 327.466 236.106Z" fill="black"/>
<path d="M397.637 212.708C397.637 211.533 398.589 210.581 399.764 210.581C400.938 210.581 401.89 211.533 401.89 212.708C401.89 213.882 400.938 214.835 399.764 214.835C398.589 214.835 397.637 213.882 397.637 212.708Z" fill="black"/>
<path d="M374.247 236.106C374.247 234.931 375.199 233.978 376.373 233.978C377.548 233.978 378.5 234.931 378.5 236.106C378.5 237.28 377.548 238.233 376.373 238.233C375.199 238.233 374.247 237.28 374.247 236.106Z" fill="black"/>
<path d="M444.418 212.708C444.418 211.533 445.37 210.581 446.545 210.581C447.719 210.581 448.671 211.533 448.671 212.708C448.671 213.882 447.719 214.835 446.545 214.835C445.37 214.835 444.418 213.882 444.418 212.708Z" fill="black"/>
<path d="M421.028 236.106C421.028 234.931 421.98 233.978 423.154 233.978C424.329 233.978 425.281 234.931 425.281 236.106C425.281 237.28 424.329 238.233 423.154 238.233C421.98 238.233 421.028 237.28 421.028 236.106Z" fill="black"/>
<path d="M491.199 212.708C491.199 211.533 492.151 210.581 493.326 210.581C494.5 210.581 495.452 211.533 495.452 212.708C495.452 213.882 494.5 214.835 493.326 214.835C492.151 214.835 491.199 213.882 491.199 212.708Z" fill="black"/>
<path d="M467.809 236.106C467.809 234.931 468.761 233.978 469.935 233.978C471.109 233.978 472.061 234.931 472.061 236.106C472.061 237.28 471.109 238.233 469.935 238.233C468.761 238.233 467.809 237.28 467.809 236.106Z" fill="black"/>
<path d="M23.3904 259.503C23.3904 258.329 24.3425 257.376 25.5168 257.376C26.6912 257.376 27.6432 258.329 27.6432 259.503C27.6432 260.678 26.6912 261.63 25.5168 261.63C24.3425 261.63 23.3904 260.678 23.3904 259.503Z" fill="black"/>
<path d="M0 282.901C0 281.726 0.952023 280.774 2.1264 280.774C3.30078 280.774 4.25281 281.726 4.25281 282.901C4.25281 284.076 3.30078 285.028 2.1264 285.028C0.952023 285.028 0 284.076 0 282.901Z" fill="black"/>
<path d="M70.1713 259.503C70.1713 258.329 71.1233 257.376 72.2977 257.376C73.4721 257.376 74.4241 258.329 74.4241 259.503C74.4241 260.678 73.4721 261.63 72.2977 261.63C71.1233 261.63 70.1713 260.678 70.1713 259.503Z" fill="black"/>
<path d="M46.7809 282.901C46.7809 281.726 47.7329 280.774 48.9073 280.774C50.0816 280.774 51.0337 281.726 51.0337 282.901C51.0337 284.076 50.0816 285.028 48.9073 285.028C47.7329 285.028 46.7809 284.076 46.7809 282.901Z" fill="black"/>
<path d="M116.952 259.503C116.952 258.329 117.904 257.376 119.079 257.376C120.253 257.376 121.205 258.329 121.205 259.503C121.205 260.678 120.253 261.63 119.079 261.63C117.904 261.63 116.952 260.678 116.952 259.503Z" fill="black"/>
<path d="M93.5617 282.901C93.5617 281.726 94.5138 280.774 95.6881 280.774C96.8625 280.774 97.8145 281.726 97.8145 282.901C97.8145 284.076 96.8625 285.028 95.6881 285.028C94.5138 285.028 93.5617 284.076 93.5617 282.901Z" fill="black"/>
<path d="M163.733 259.503C163.733 258.329 164.685 257.376 165.859 257.376C167.034 257.376 167.986 258.329 167.986 259.503C167.986 260.678 167.034 261.63 165.859 261.63C164.685 261.63 163.733 260.678 163.733 259.503Z" fill="black"/>
<path d="M140.343 282.901C140.343 281.726 141.295 280.774 142.469 280.774C143.643 280.774 144.595 281.726 144.595 282.901C144.595 284.076 143.643 285.028 142.469 285.028C141.295 285.028 140.343 284.076 140.343 282.901Z" fill="black"/>
<path d="M210.514 259.503C210.514 258.329 211.466 257.376 212.64 257.376C213.815 257.376 214.767 258.329 214.767 259.503C214.767 260.678 213.815 261.63 212.64 261.63C211.466 261.63 210.514 260.678 210.514 259.503Z" fill="black"/>
<path d="M187.123 282.901C187.123 281.726 188.076 280.774 189.25 280.774C190.424 280.774 191.376 281.726 191.376 282.901C191.376 284.076 190.424 285.028 189.25 285.028C188.076 285.028 187.123 284.076 187.123 282.901Z" fill="black"/>
<path d="M257.295 259.503C257.295 258.329 258.247 257.376 259.421 257.376C260.596 257.376 261.548 258.329 261.548 259.503C261.548 260.678 260.596 261.63 259.421 261.63C258.247 261.63 257.295 260.678 257.295 259.503Z" fill="black"/>
<path d="M233.904 282.901C233.904 281.726 234.856 280.774 236.031 280.774C237.205 280.774 238.157 281.726 238.157 282.901C238.157 284.076 237.205 285.028 236.031 285.028C234.856 285.028 233.904 284.076 233.904 282.901Z" fill="black"/>
<path d="M304.076 259.503C304.076 258.329 305.028 257.376 306.202 257.376C307.376 257.376 308.328 258.329 308.328 259.503C308.328 260.678 307.376 261.63 306.202 261.63C305.028 261.63 304.076 260.678 304.076 259.503Z" fill="black"/>
<path d="M280.685 282.901C280.685 281.726 281.637 280.774 282.812 280.774C283.986 280.774 284.938 281.726 284.938 282.901C284.938 284.076 283.986 285.028 282.812 285.028C281.637 285.028 280.685 284.076 280.685 282.901Z" fill="black"/>
<path d="M350.857 259.503C350.857 258.329 351.809 257.376 352.983 257.376C354.157 257.376 355.109 258.329 355.109 259.503C355.109 260.678 354.157 261.63 352.983 261.63C351.809 261.63 350.857 260.678 350.857 259.503Z" fill="black"/>
<path d="M327.466 282.901C327.466 281.726 328.418 280.774 329.592 280.774C330.767 280.774 331.719 281.726 331.719 282.901C331.719 284.076 330.767 285.028 329.592 285.028C328.418 285.028 327.466 284.076 327.466 282.901Z" fill="black"/>
<path d="M397.637 259.503C397.637 258.329 398.589 257.376 399.764 257.376C400.938 257.376 401.89 258.329 401.89 259.503C401.89 260.678 400.938 261.63 399.764 261.63C398.589 261.63 397.637 260.678 397.637 259.503Z" fill="black"/>
<path d="M374.247 282.901C374.247 281.726 375.199 280.774 376.373 280.774C377.548 280.774 378.5 281.726 378.5 282.901C378.5 284.076 377.548 285.028 376.373 285.028C375.199 285.028 374.247 284.076 374.247 282.901Z" fill="black"/>
<path d="M444.418 259.503C444.418 258.329 445.37 257.376 446.545 257.376C447.719 257.376 448.671 258.329 448.671 259.503C448.671 260.678 447.719 261.63 446.545 261.63C445.37 261.63 444.418 260.678 444.418 259.503Z" fill="black"/>
<path d="M421.028 282.901C421.028 281.726 421.98 280.774 423.154 280.774C424.329 280.774 425.281 281.726 425.281 282.901C425.281 284.076 424.329 285.028 423.154 285.028C421.98 285.028 421.028 284.076 421.028 282.901Z" fill="black"/>
<path d="M491.199 259.503C491.199 258.329 492.151 257.376 493.326 257.376C494.5 257.376 495.452 258.329 495.452 259.503C495.452 260.678 494.5 261.63 493.326 261.63C492.151 261.63 491.199 260.678 491.199 259.503Z" fill="black"/>
<path d="M467.809 282.901C467.809 281.726 468.761 280.774 469.935 280.774C471.109 280.774 472.061 281.726 472.061 282.901C472.061 284.076 471.109 285.028 469.935 285.028C468.761 285.028 467.809 284.076 467.809 282.901Z" fill="black"/>
<path d="M23.3904 306.299C23.3904 305.124 24.3425 304.172 25.5168 304.172C26.6912 304.172 27.6432 305.124 27.6432 306.299C27.6432 307.474 26.6912 308.426 25.5168 308.426C24.3425 308.426 23.3904 307.474 23.3904 306.299Z" fill="black"/>
<path d="M0 329.697C0 328.522 0.952023 327.57 2.1264 327.57C3.30078 327.57 4.25281 328.522 4.25281 329.697C4.25281 330.872 3.30078 331.824 2.1264 331.824C0.952023 331.824 0 330.872 0 329.697Z" fill="black"/>
<path d="M70.1713 306.299C70.1713 305.124 71.1233 304.172 72.2977 304.172C73.4721 304.172 74.4241 305.124 74.4241 306.299C74.4241 307.474 73.4721 308.426 72.2977 308.426C71.1233 308.426 70.1713 307.474 70.1713 306.299Z" fill="black"/>
<path d="M46.7809 329.697C46.7809 328.522 47.7329 327.57 48.9073 327.57C50.0816 327.57 51.0337 328.522 51.0337 329.697C51.0337 330.872 50.0816 331.824 48.9073 331.824C47.7329 331.824 46.7809 330.872 46.7809 329.697Z" fill="black"/>
<path d="M116.952 306.299C116.952 305.124 117.904 304.172 119.079 304.172C120.253 304.172 121.205 305.124 121.205 306.299C121.205 307.474 120.253 308.426 119.079 308.426C117.904 308.426 116.952 307.474 116.952 306.299Z" fill="black"/>
<path d="M93.5617 329.697C93.5617 328.522 94.5138 327.57 95.6881 327.57C96.8625 327.57 97.8145 328.522 97.8145 329.697C97.8145 330.872 96.8625 331.824 95.6881 331.824C94.5138 331.824 93.5617 330.872 93.5617 329.697Z" fill="black"/>
<path d="M163.733 306.299C163.733 305.124 164.685 304.172 165.859 304.172C167.034 304.172 167.986 305.124 167.986 306.299C167.986 307.474 167.034 308.426 165.859 308.426C164.685 308.426 163.733 307.474 163.733 306.299Z" fill="black"/>
<path d="M140.343 329.697C140.343 328.522 141.295 327.57 142.469 327.57C143.643 327.57 144.595 328.522 144.595 329.697C144.595 330.872 143.643 331.824 142.469 331.824C141.295 331.824 140.343 330.872 140.343 329.697Z" fill="black"/>
<path d="M210.514 306.299C210.514 305.124 211.466 304.172 212.64 304.172C213.815 304.172 214.767 305.124 214.767 306.299C214.767 307.474 213.815 308.426 212.64 308.426C211.466 308.426 210.514 307.474 210.514 306.299Z" fill="black"/>
<path d="M187.123 329.697C187.123 328.522 188.076 327.57 189.25 327.57C190.424 327.57 191.376 328.522 191.376 329.697C191.376 330.872 190.424 331.824 189.25 331.824C188.076 331.824 187.123 330.872 187.123 329.697Z" fill="black"/>
<path d="M257.295 306.299C257.295 305.124 258.247 304.172 259.421 304.172C260.596 304.172 261.548 305.124 261.548 306.299C261.548 307.474 260.596 308.426 259.421 308.426C258.247 308.426 257.295 307.474 257.295 306.299Z" fill="black"/>
<path d="M233.904 329.697C233.904 328.522 234.856 327.57 236.031 327.57C237.205 327.57 238.157 328.522 238.157 329.697C238.157 330.872 237.205 331.824 236.031 331.824C234.856 331.824 233.904 330.872 233.904 329.697Z" fill="black"/>
<path d="M304.076 306.299C304.076 305.124 305.028 304.172 306.202 304.172C307.376 304.172 308.328 305.124 308.328 306.299C308.328 307.474 307.376 308.426 306.202 308.426C305.028 308.426 304.076 307.474 304.076 306.299Z" fill="black"/>
<path d="M280.685 329.697C280.685 328.522 281.637 327.57 282.812 327.57C283.986 327.57 284.938 328.522 284.938 329.697C284.938 330.872 283.986 331.824 282.812 331.824C281.637 331.824 280.685 330.872 280.685 329.697Z" fill="black"/>
<path d="M350.857 306.299C350.857 305.124 351.809 304.172 352.983 304.172C354.157 304.172 355.109 305.124 355.109 306.299C355.109 307.474 354.157 308.426 352.983 308.426C351.809 308.426 350.857 307.474 350.857 306.299Z" fill="black"/>
<path d="M327.466 329.697C327.466 328.522 328.418 327.57 329.592 327.57C330.767 327.57 331.719 328.522 331.719 329.697C331.719 330.872 330.767 331.824 329.592 331.824C328.418 331.824 327.466 330.872 327.466 329.697Z" fill="black"/>
<path d="M397.637 306.299C397.637 305.124 398.589 304.172 399.764 304.172C400.938 304.172 401.89 305.124 401.89 306.299C401.89 307.474 400.938 308.426 399.764 308.426C398.589 308.426 397.637 307.474 397.637 306.299Z" fill="black"/>
<path d="M374.247 329.697C374.247 328.522 375.199 327.57 376.373 327.57C377.548 327.57 378.5 328.522 378.5 329.697C378.5 330.872 377.548 331.824 376.373 331.824C375.199 331.824 374.247 330.872 374.247 329.697Z" fill="black"/>
<path d="M444.418 306.299C444.418 305.124 445.37 304.172 446.545 304.172C447.719 304.172 448.671 305.124 448.671 306.299C448.671 307.474 447.719 308.426 446.545 308.426C445.37 308.426 444.418 307.474 444.418 306.299Z" fill="black"/>
<path d="M421.028 329.697C421.028 328.522 421.98 327.57 423.154 327.57C424.329 327.57 425.281 328.522 425.281 329.697C425.281 330.872 424.329 331.824 423.154 331.824C421.98 331.824 421.028 330.872 421.028 329.697Z" fill="black"/>
<path d="M491.199 306.299C491.199 305.124 492.151 304.172 493.326 304.172C494.5 304.172 495.452 305.124 495.452 306.299C495.452 307.474 494.5 308.426 493.326 308.426C492.151 308.426 491.199 307.474 491.199 306.299Z" fill="black"/>
<path d="M467.809 329.697C467.809 328.522 468.761 327.57 469.935 327.57C471.109 327.57 472.061 328.522 472.061 329.697C472.061 330.872 471.109 331.824 469.935 331.824C468.761 331.824 467.809 330.872 467.809 329.697Z" fill="black"/>
<path d="M23.3904 353.095C23.3904 351.92 24.3425 350.968 25.5168 350.968C26.6912 350.968 27.6432 351.92 27.6432 353.095C27.6432 354.27 26.6912 355.222 25.5168 355.222C24.3425 355.222 23.3904 354.27 23.3904 353.095Z" fill="black"/>
<path d="M0 376.493C0 375.318 0.952023 374.366 2.1264 374.366C3.30078 374.366 4.25281 375.318 4.25281 376.493C4.25281 377.667 3.30078 378.62 2.1264 378.62C0.952023 378.62 0 377.667 0 376.493Z" fill="black"/>
<path d="M70.1713 353.095C70.1713 351.92 71.1233 350.968 72.2977 350.968C73.4721 350.968 74.4241 351.92 74.4241 353.095C74.4241 354.27 73.4721 355.222 72.2977 355.222C71.1233 355.222 70.1713 354.27 70.1713 353.095Z" fill="black"/>
<path d="M46.7809 376.493C46.7809 375.318 47.7329 374.366 48.9073 374.366C50.0816 374.366 51.0337 375.318 51.0337 376.493C51.0337 377.667 50.0816 378.62 48.9073 378.62C47.7329 378.62 46.7809 377.667 46.7809 376.493Z" fill="black"/>
<path d="M116.952 353.095C116.952 351.92 117.904 350.968 119.079 350.968C120.253 350.968 121.205 351.92 121.205 353.095C121.205 354.27 120.253 355.222 119.079 355.222C117.904 355.222 116.952 354.27 116.952 353.095Z" fill="black"/>
<path d="M93.5617 376.493C93.5617 375.318 94.5138 374.366 95.6881 374.366C96.8625 374.366 97.8145 375.318 97.8145 376.493C97.8145 377.667 96.8625 378.62 95.6881 378.62C94.5138 378.62 93.5617 377.667 93.5617 376.493Z" fill="black"/>
<path d="M163.733 353.095C163.733 351.92 164.685 350.968 165.859 350.968C167.034 350.968 167.986 351.92 167.986 353.095C167.986 354.27 167.034 355.222 165.859 355.222C164.685 355.222 163.733 354.27 163.733 353.095Z" fill="black"/>
<path d="M140.343 376.493C140.343 375.318 141.295 374.366 142.469 374.366C143.643 374.366 144.595 375.318 144.595 376.493C144.595 377.667 143.643 378.62 142.469 378.62C141.295 378.62 140.343 377.667 140.343 376.493Z" fill="black"/>
<path d="M210.514 353.095C210.514 351.92 211.466 350.968 212.64 350.968C213.815 350.968 214.767 351.92 214.767 353.095C214.767 354.27 213.815 355.222 212.64 355.222C211.466 355.222 210.514 354.27 210.514 353.095Z" fill="black"/>
<path d="M187.123 376.493C187.123 375.318 188.076 374.366 189.25 374.366C190.424 374.366 191.376 375.318 191.376 376.493C191.376 377.667 190.424 378.62 189.25 378.62C188.076 378.62 187.123 377.667 187.123 376.493Z" fill="black"/>
<path d="M257.295 353.095C257.295 351.92 258.247 350.968 259.421 350.968C260.596 350.968 261.548 351.92 261.548 353.095C261.548 354.27 260.596 355.222 259.421 355.222C258.247 355.222 257.295 354.27 257.295 353.095Z" fill="black"/>
<path d="M233.904 376.493C233.904 375.318 234.856 374.366 236.031 374.366C237.205 374.366 238.157 375.318 238.157 376.493C238.157 377.667 237.205 378.62 236.031 378.62C234.856 378.62 233.904 377.667 233.904 376.493Z" fill="black"/>
<path d="M304.076 353.095C304.076 351.92 305.028 350.968 306.202 350.968C307.376 350.968 308.328 351.92 308.328 353.095C308.328 354.27 307.376 355.222 306.202 355.222C305.028 355.222 304.076 354.27 304.076 353.095Z" fill="black"/>
<path d="M280.685 376.493C280.685 375.318 281.637 374.366 282.812 374.366C283.986 374.366 284.938 375.318 284.938 376.493C284.938 377.667 283.986 378.62 282.812 378.62C281.637 378.62 280.685 377.667 280.685 376.493Z" fill="black"/>
<path d="M350.857 353.095C350.857 351.92 351.809 350.968 352.983 350.968C354.157 350.968 355.109 351.92 355.109 353.095C355.109 354.27 354.157 355.222 352.983 355.222C351.809 355.222 350.857 354.27 350.857 353.095Z" fill="black"/>
<path d="M327.466 376.493C327.466 375.318 328.418 374.366 329.592 374.366C330.767 374.366 331.719 375.318 331.719 376.493C331.719 377.667 330.767 378.62 329.592 378.62C328.418 378.62 327.466 377.667 327.466 376.493Z" fill="black"/>
<path d="M397.637 353.095C397.637 351.92 398.589 350.968 399.764 350.968C400.938 350.968 401.89 351.92 401.89 353.095C401.89 354.27 400.938 355.222 399.764 355.222C398.589 355.222 397.637 354.27 397.637 353.095Z" fill="black"/>
<path d="M374.247 376.493C374.247 375.318 375.199 374.366 376.373 374.366C377.548 374.366 378.5 375.318 378.5 376.493C378.5 377.667 377.548 378.62 376.373 378.62C375.199 378.62 374.247 377.667 374.247 376.493Z" fill="black"/>
<path d="M444.418 353.095C444.418 351.92 445.37 350.968 446.545 350.968C447.719 350.968 448.671 351.92 448.671 353.095C448.671 354.27 447.719 355.222 446.545 355.222C445.37 355.222 444.418 354.27 444.418 353.095Z" fill="black"/>
<path d="M421.028 376.493C421.028 375.318 421.98 374.366 423.154 374.366C424.329 374.366 425.281 375.318 425.281 376.493C425.281 377.667 424.329 378.62 423.154 378.62C421.98 378.62 421.028 377.667 421.028 376.493Z" fill="black"/>
<path d="M491.199 353.095C491.199 351.92 492.151 350.968 493.326 350.968C494.5 350.968 495.452 351.92 495.452 353.095C495.452 354.27 494.5 355.222 493.326 355.222C492.151 355.222 491.199 354.27 491.199 353.095Z" fill="black"/>
<path d="M467.809 376.493C467.809 375.318 468.761 374.366 469.935 374.366C471.109 374.366 472.061 375.318 472.061 376.493C472.061 377.667 471.109 378.62 469.935 378.62C468.761 378.62 467.809 377.667 467.809 376.493Z" fill="black"/>
<path d="M23.3904 399.89C23.3904 398.716 24.3425 397.763 25.5168 397.763C26.6912 397.763 27.6432 398.716 27.6432 399.89C27.6432 401.065 26.6912 402.018 25.5168 402.018C24.3425 402.018 23.3904 401.065 23.3904 399.89Z" fill="black"/>
<path d="M0 423.288C0 422.114 0.952023 421.161 2.1264 421.161C3.30078 421.161 4.25281 422.114 4.25281 423.288C4.25281 424.463 3.30078 425.415 2.1264 425.415C0.952023 425.415 0 424.463 0 423.288Z" fill="black"/>
<path d="M70.1713 399.89C70.1713 398.716 71.1233 397.763 72.2977 397.763C73.4721 397.763 74.4241 398.716 74.4241 399.89C74.4241 401.065 73.4721 402.018 72.2977 402.018C71.1233 402.018 70.1713 401.065 70.1713 399.89Z" fill="black"/>
<path d="M46.7809 423.288C46.7809 422.114 47.7329 421.161 48.9073 421.161C50.0816 421.161 51.0337 422.114 51.0337 423.288C51.0337 424.463 50.0816 425.415 48.9073 425.415C47.7329 425.415 46.7809 424.463 46.7809 423.288Z" fill="black"/>
<path d="M116.952 399.89C116.952 398.716 117.904 397.763 119.079 397.763C120.253 397.763 121.205 398.716 121.205 399.89C121.205 401.065 120.253 402.018 119.079 402.018C117.904 402.018 116.952 401.065 116.952 399.89Z" fill="black"/>
<path d="M93.5617 423.288C93.5617 422.114 94.5138 421.161 95.6881 421.161C96.8625 421.161 97.8145 422.114 97.8145 423.288C97.8145 424.463 96.8625 425.415 95.6881 425.415C94.5138 425.415 93.5617 424.463 93.5617 423.288Z" fill="black"/>
<path d="M163.733 399.89C163.733 398.716 164.685 397.763 165.859 397.763C167.034 397.763 167.986 398.716 167.986 399.89C167.986 401.065 167.034 402.018 165.859 402.018C164.685 402.018 163.733 401.065 163.733 399.89Z" fill="black"/>
<path d="M140.343 423.288C140.343 422.114 141.295 421.161 142.469 421.161C143.643 421.161 144.595 422.114 144.595 423.288C144.595 424.463 143.643 425.415 142.469 425.415C141.295 425.415 140.343 424.463 140.343 423.288Z" fill="black"/>
<path d="M210.514 399.89C210.514 398.716 211.466 397.763 212.64 397.763C213.815 397.763 214.767 398.716 214.767 399.89C214.767 401.065 213.815 402.018 212.64 402.018C211.466 402.018 210.514 401.065 210.514 399.89Z" fill="black"/>
<path d="M187.123 423.288C187.123 422.114 188.076 421.161 189.25 421.161C190.424 421.161 191.376 422.114 191.376 423.288C191.376 424.463 190.424 425.415 189.25 425.415C188.076 425.415 187.123 424.463 187.123 423.288Z" fill="black"/>
<path d="M257.295 399.89C257.295 398.716 258.247 397.763 259.421 397.763C260.596 397.763 261.548 398.716 261.548 399.89C261.548 401.065 260.596 402.018 259.421 402.018C258.247 402.018 257.295 401.065 257.295 399.89Z" fill="black"/>
<path d="M233.904 423.288C233.904 422.114 234.856 421.161 236.031 421.161C237.205 421.161 238.157 422.114 238.157 423.288C238.157 424.463 237.205 425.415 236.031 425.415C234.856 425.415 233.904 424.463 233.904 423.288Z" fill="black"/>
<path d="M304.076 399.89C304.076 398.716 305.028 397.763 306.202 397.763C307.376 397.763 308.328 398.716 308.328 399.89C308.328 401.065 307.376 402.018 306.202 402.018C305.028 402.018 304.076 401.065 304.076 399.89Z" fill="black"/>
<path d="M280.685 423.288C280.685 422.114 281.637 421.161 282.812 421.161C283.986 421.161 284.938 422.114 284.938 423.288C284.938 424.463 283.986 425.415 282.812 425.415C281.637 425.415 280.685 424.463 280.685 423.288Z" fill="black"/>
<path d="M350.857 399.89C350.857 398.716 351.809 397.763 352.983 397.763C354.157 397.763 355.109 398.716 355.109 399.89C355.109 401.065 354.157 402.018 352.983 402.018C351.809 402.018 350.857 401.065 350.857 399.89Z" fill="black"/>
<path d="M327.466 423.288C327.466 422.114 328.418 421.161 329.592 421.161C330.767 421.161 331.719 422.114 331.719 423.288C331.719 424.463 330.767 425.415 329.592 425.415C328.418 425.415 327.466 424.463 327.466 423.288Z" fill="black"/>
<path d="M397.637 399.89C397.637 398.716 398.589 397.763 399.764 397.763C400.938 397.763 401.89 398.716 401.89 399.89C401.89 401.065 400.938 402.018 399.764 402.018C398.589 402.018 397.637 401.065 397.637 399.89Z" fill="black"/>
<path d="M374.247 423.288C374.247 422.114 375.199 421.161 376.373 421.161C377.548 421.161 378.5 422.114 378.5 423.288C378.5 424.463 377.548 425.415 376.373 425.415C375.199 425.415 374.247 424.463 374.247 423.288Z" fill="black"/>
<path d="M444.418 399.89C444.418 398.716 445.37 397.763 446.545 397.763C447.719 397.763 448.671 398.716 448.671 399.89C448.671 401.065 447.719 402.018 446.545 402.018C445.37 402.018 444.418 401.065 444.418 399.89Z" fill="black"/>
<path d="M421.028 423.288C421.028 422.114 421.98 421.161 423.154 421.161C424.329 421.161 425.281 422.114 425.281 423.288C425.281 424.463 424.329 425.415 423.154 425.415C421.98 425.415 421.028 424.463 421.028 423.288Z" fill="black"/>
<path d="M491.199 399.89C491.199 398.716 492.151 397.763 493.326 397.763C494.5 397.763 495.452 398.716 495.452 399.89C495.452 401.065 494.5 402.018 493.326 402.018C492.151 402.018 491.199 401.065 491.199 399.89Z" fill="black"/>
<path d="M467.809 423.288C467.809 422.114 468.761 421.161 469.935 421.161C471.109 421.161 472.061 422.114 472.061 423.288C472.061 424.463 471.109 425.415 469.935 425.415C468.761 425.415 467.809 424.463 467.809 423.288Z" fill="black"/>
<path d="M23.3904 446.686C23.3904 445.511 24.3425 444.559 25.5168 444.559C26.6912 444.559 27.6432 445.511 27.6432 446.686C27.6432 447.861 26.6912 448.813 25.5168 448.813C24.3425 448.813 23.3904 447.861 23.3904 446.686Z" fill="black"/>
<path d="M0 470.084C0 468.909 0.952023 467.957 2.1264 467.957C3.30078 467.957 4.25281 468.909 4.25281 470.084C4.25281 471.259 3.30078 472.211 2.1264 472.211C0.952023 472.211 0 471.259 0 470.084Z" fill="black"/>
<path d="M70.1713 446.686C70.1713 445.511 71.1233 444.559 72.2977 444.559C73.4721 444.559 74.4241 445.511 74.4241 446.686C74.4241 447.861 73.4721 448.813 72.2977 448.813C71.1233 448.813 70.1713 447.861 70.1713 446.686Z" fill="black"/>
<path d="M46.7809 470.084C46.7809 468.909 47.7329 467.957 48.9073 467.957C50.0816 467.957 51.0337 468.909 51.0337 470.084C51.0337 471.259 50.0816 472.211 48.9073 472.211C47.7329 472.211 46.7809 471.259 46.7809 470.084Z" fill="black"/>
<path d="M116.952 446.686C116.952 445.511 117.904 444.559 119.079 444.559C120.253 444.559 121.205 445.511 121.205 446.686C121.205 447.861 120.253 448.813 119.079 448.813C117.904 448.813 116.952 447.861 116.952 446.686Z" fill="black"/>
<path d="M93.5617 470.084C93.5617 468.909 94.5138 467.957 95.6881 467.957C96.8625 467.957 97.8145 468.909 97.8145 470.084C97.8145 471.259 96.8625 472.211 95.6881 472.211C94.5138 472.211 93.5617 471.259 93.5617 470.084Z" fill="black"/>
<path d="M163.733 446.686C163.733 445.511 164.685 444.559 165.859 444.559C167.034 444.559 167.986 445.511 167.986 446.686C167.986 447.861 167.034 448.813 165.859 448.813C164.685 448.813 163.733 447.861 163.733 446.686Z" fill="black"/>
<path d="M140.343 470.084C140.343 468.909 141.295 467.957 142.469 467.957C143.643 467.957 144.595 468.909 144.595 470.084C144.595 471.259 143.643 472.211 142.469 472.211C141.295 472.211 140.343 471.259 140.343 470.084Z" fill="black"/>
<path d="M210.514 446.686C210.514 445.511 211.466 444.559 212.64 444.559C213.815 444.559 214.767 445.511 214.767 446.686C214.767 447.861 213.815 448.813 212.64 448.813C211.466 448.813 210.514 447.861 210.514 446.686Z" fill="black"/>
<path d="M187.123 470.084C187.123 468.909 188.076 467.957 189.25 467.957C190.424 467.957 191.376 468.909 191.376 470.084C191.376 471.259 190.424 472.211 189.25 472.211C188.076 472.211 187.123 471.259 187.123 470.084Z" fill="black"/>
<path d="M257.295 446.686C257.295 445.511 258.247 444.559 259.421 444.559C260.596 444.559 261.548 445.511 261.548 446.686C261.548 447.861 260.596 448.813 259.421 448.813C258.247 448.813 257.295 447.861 257.295 446.686Z" fill="black"/>
<path d="M233.904 470.084C233.904 468.909 234.856 467.957 236.031 467.957C237.205 467.957 238.157 468.909 238.157 470.084C238.157 471.259 237.205 472.211 236.031 472.211C234.856 472.211 233.904 471.259 233.904 470.084Z" fill="black"/>
<path d="M304.076 446.686C304.076 445.511 305.028 444.559 306.202 444.559C307.376 444.559 308.328 445.511 308.328 446.686C308.328 447.861 307.376 448.813 306.202 448.813C305.028 448.813 304.076 447.861 304.076 446.686Z" fill="black"/>
<path d="M280.685 470.084C280.685 468.909 281.637 467.957 282.812 467.957C283.986 467.957 284.938 468.909 284.938 470.084C284.938 471.259 283.986 472.211 282.812 472.211C281.637 472.211 280.685 471.259 280.685 470.084Z" fill="black"/>
<path d="M350.857 446.686C350.857 445.511 351.809 444.559 352.983 444.559C354.157 444.559 355.109 445.511 355.109 446.686C355.109 447.861 354.157 448.813 352.983 448.813C351.809 448.813 350.857 447.861 350.857 446.686Z" fill="black"/>
<path d="M327.466 470.084C327.466 468.909 328.418 467.957 329.592 467.957C330.767 467.957 331.719 468.909 331.719 470.084C331.719 471.259 330.767 472.211 329.592 472.211C328.418 472.211 327.466 471.259 327.466 470.084Z" fill="black"/>
<path d="M397.637 446.686C397.637 445.511 398.589 444.559 399.764 444.559C400.938 444.559 401.89 445.511 401.89 446.686C401.89 447.861 400.938 448.813 399.764 448.813C398.589 448.813 397.637 447.861 397.637 446.686Z" fill="black"/>
<path d="M374.247 470.084C374.247 468.909 375.199 467.957 376.373 467.957C377.548 467.957 378.5 468.909 378.5 470.084C378.5 471.259 377.548 472.211 376.373 472.211C375.199 472.211 374.247 471.259 374.247 470.084Z" fill="black"/>
<path d="M444.418 446.686C444.418 445.511 445.37 444.559 446.545 444.559C447.719 444.559 448.671 445.511 448.671 446.686C448.671 447.861 447.719 448.813 446.545 448.813C445.37 448.813 444.418 447.861 444.418 446.686Z" fill="black"/>
<path d="M421.028 470.084C421.028 468.909 421.98 467.957 423.154 467.957C424.329 467.957 425.281 468.909 425.281 470.084C425.281 471.259 424.329 472.211 423.154 472.211C421.98 472.211 421.028 471.259 421.028 470.084Z" fill="black"/>
<path d="M491.199 446.686C491.199 445.511 492.151 444.559 493.326 444.559C494.5 444.559 495.452 445.511 495.452 446.686C495.452 447.861 494.5 448.813 493.326 448.813C492.151 448.813 491.199 447.861 491.199 446.686Z" fill="black"/>
<path d="M467.809 470.084C467.809 468.909 468.761 467.957 469.935 467.957C471.109 467.957 472.061 468.909 472.061 470.084C472.061 471.259 471.109 472.211 469.935 472.211C468.761 472.211 467.809 471.259 467.809 470.084Z" fill="black"/>
</mask>
<g mask="url(#mask0)">
<circle cx="281.003" cy="215.506" r="215.506" fill="#C7C7C7"/>
</g>
</g>
</svg>
