<svg width="292" height="291" viewBox="0 0 292 291" fill="none" xmlns="http://www.w3.org/2000/svg">
<path opacity="0.3" d="M234.554 145.977C234.554 194.636 195.239 233.945 146.573 233.945C97.9059 233.945 58.5908 194.636 58.5908 145.977C58.5908 97.3179 97.9059 58.009 146.573 58.009C195.239 58.009 234.554 97.3179 234.554 145.977Z" fill="url(#paint0_radial)"/>
<path d="M205.927 96.3638C206.875 96.3638 207.644 95.5949 207.644 94.6465C207.644 93.698 206.875 92.9291 205.927 92.9291C204.978 92.9291 204.209 93.698 204.209 94.6465C204.209 95.5949 204.978 96.3638 205.927 96.3638Z" fill="#754C29"/>
<path d="M212.606 105.332C213.555 105.332 214.324 104.563 214.324 103.615C214.324 102.666 213.555 101.898 212.606 101.898C211.658 101.898 210.889 102.666 210.889 103.615C210.889 104.563 211.658 105.332 212.606 105.332Z" fill="#754C29"/>
<path d="M198.102 88.5401C199.051 88.5401 199.82 87.7712 199.82 86.8227C199.82 85.8742 199.051 85.1053 198.102 85.1053C197.153 85.1053 196.384 85.8742 196.384 86.8227C196.384 87.7712 197.153 88.5401 198.102 88.5401Z" fill="#754C29"/>
<path d="M189.132 81.8615C190.081 81.8615 190.85 81.0926 190.85 80.1441C190.85 79.1957 190.081 78.4268 189.132 78.4268C188.183 78.4268 187.414 79.1957 187.414 80.1441C187.414 81.0926 188.183 81.8615 189.132 81.8615Z" fill="#754C29"/>
<path d="M179.208 76.5185C180.157 76.5185 180.926 75.7496 180.926 74.8011C180.926 73.8526 180.157 73.0837 179.208 73.0837C178.259 73.0837 177.49 73.8526 177.49 74.8011C177.49 75.7496 178.259 76.5185 179.208 76.5185Z" fill="#754C29"/>
<path d="M168.902 72.7021C169.85 72.7021 170.619 71.9332 170.619 70.9847C170.619 70.0362 169.85 69.2673 168.902 69.2673C167.953 69.2673 167.184 70.0362 167.184 70.9847C167.184 71.9332 167.953 72.7021 168.902 72.7021Z" fill="#754C29"/>
<path d="M158.024 70.2214C158.972 70.2214 159.741 69.4525 159.741 68.504C159.741 67.5555 158.972 66.7866 158.024 66.7866C157.075 66.7866 156.306 67.5555 156.306 68.504C156.306 69.4525 157.075 70.2214 158.024 70.2214Z" fill="#754C29"/>
<path d="M146.763 69.4582C147.712 69.4582 148.481 68.6893 148.481 67.7408C148.481 66.7923 147.712 66.0234 146.763 66.0234C145.815 66.0234 145.046 66.7923 145.046 67.7408C145.046 68.6893 145.815 69.4582 146.763 69.4582Z" fill="#754C29"/>
<path d="M217.95 115.064C218.899 115.064 219.668 114.295 219.668 113.347C219.668 112.398 218.899 111.629 217.95 111.629C217.002 111.629 216.233 112.398 216.233 113.347C216.233 114.295 217.002 115.064 217.95 115.064Z" fill="#754C29"/>
<path d="M221.958 125.559C222.907 125.559 223.676 124.79 223.676 123.842C223.676 122.893 222.907 122.124 221.958 122.124C221.01 122.124 220.24 122.893 220.24 123.842C220.24 124.79 221.01 125.559 221.958 125.559Z" fill="#754C29"/>
<path d="M224.248 136.436C225.197 136.436 225.966 135.667 225.966 134.719C225.966 133.77 225.197 133.001 224.248 133.001C223.3 133.001 222.531 133.77 222.531 134.719C222.531 135.667 223.3 136.436 224.248 136.436Z" fill="#754C29"/>
<path d="M225.203 147.503C226.151 147.503 226.92 146.734 226.92 145.786C226.92 144.838 226.151 144.069 225.203 144.069C224.254 144.069 223.485 144.838 223.485 145.786C223.485 146.734 224.254 147.503 225.203 147.503Z" fill="#754C29"/>
<path d="M288.565 147.694C289.513 147.694 290.282 146.925 290.282 145.977C290.282 145.028 289.513 144.26 288.565 144.26C287.616 144.26 286.847 145.028 286.847 145.977C286.847 146.925 287.616 147.694 288.565 147.694Z" fill="#754C29"/>
<path d="M287.992 136.436C288.941 136.436 289.71 135.667 289.71 134.719C289.71 133.77 288.941 133.001 287.992 133.001C287.043 133.001 286.274 133.77 286.274 134.719C286.274 135.667 287.043 136.436 287.992 136.436Z" fill="#754C29"/>
<path d="M286.847 125.559C287.796 125.559 288.565 124.79 288.565 123.842C288.565 122.894 287.796 122.125 286.847 122.125C285.898 122.125 285.129 122.894 285.129 123.842C285.129 124.79 285.898 125.559 286.847 125.559Z" fill="#754C29"/>
<path d="M284.557 114.682C285.505 114.682 286.274 113.914 286.274 112.965C286.274 112.017 285.505 111.248 284.557 111.248C283.608 111.248 282.839 112.017 282.839 112.965C282.839 113.914 283.608 114.682 284.557 114.682Z" fill="#754C29"/>
<path d="M281.694 103.997C282.643 103.997 283.412 103.228 283.412 102.279C283.412 101.331 282.643 100.562 281.694 100.562C280.746 100.562 279.977 101.331 279.977 102.279C279.977 103.228 280.746 103.997 281.694 103.997Z" fill="#754C29"/>
<path d="M277.686 93.5016C278.635 93.5016 279.404 92.7327 279.404 91.7843C279.404 90.8358 278.635 90.0669 277.686 90.0669C276.738 90.0669 275.969 90.8358 275.969 91.7843C275.969 92.7327 276.738 93.5016 277.686 93.5016Z" fill="#754C29"/>
<path d="M273.106 83.3881C274.054 83.3881 274.823 82.6192 274.823 81.6707C274.823 80.7223 274.054 79.9534 273.106 79.9534C272.157 79.9534 271.388 80.7223 271.388 81.6707C271.388 82.6192 272.157 83.3881 273.106 83.3881Z" fill="#754C29"/>
<path d="M267.571 73.6562C268.52 73.6562 269.289 72.8873 269.289 71.9388C269.289 70.9903 268.52 70.2214 267.571 70.2214C266.623 70.2214 265.854 70.9903 265.854 71.9388C265.854 72.8873 266.623 73.6562 267.571 73.6562Z" fill="#754C29"/>
<path d="M261.464 64.497C262.413 64.497 263.182 63.7281 263.182 62.7796C263.182 61.8312 262.413 61.0623 261.464 61.0623C260.515 61.0623 259.746 61.8312 259.746 62.7796C259.746 63.7281 260.515 64.497 261.464 64.497Z" fill="#754C29"/>
<path d="M254.593 55.7193C255.542 55.7193 256.311 54.9504 256.311 54.0019C256.311 53.0534 255.542 52.2845 254.593 52.2845C253.645 52.2845 252.876 53.0534 252.876 54.0019C252.876 54.9504 253.645 55.7193 254.593 55.7193Z" fill="#754C29"/>
<path d="M246.959 47.514C247.908 47.514 248.677 46.7451 248.677 45.7966C248.677 44.8481 247.908 44.0792 246.959 44.0792C246.011 44.0792 245.242 44.8481 245.242 45.7966C245.242 46.7451 246.011 47.514 246.959 47.514Z" fill="#754C29"/>
<path d="M238.753 40.0721C239.701 40.0721 240.47 39.3032 240.47 38.3547C240.47 37.4062 239.701 36.6373 238.753 36.6373C237.804 36.6373 237.035 37.4062 237.035 38.3547C237.035 39.3032 237.804 40.0721 238.753 40.0721Z" fill="#754C29"/>
<path d="M230.165 33.2025C231.113 33.2025 231.882 32.4336 231.882 31.4851C231.882 30.5366 231.113 29.7677 230.165 29.7677C229.216 29.7677 228.447 30.5366 228.447 31.4851C228.447 32.4336 229.216 33.2025 230.165 33.2025Z" fill="#754C29"/>
<path d="M220.813 26.9055C221.762 26.9055 222.531 26.1366 222.531 25.1881C222.531 24.2396 221.762 23.4707 220.813 23.4707C219.864 23.4707 219.095 24.2396 219.095 25.1881C219.095 26.1366 219.864 26.9055 220.813 26.9055Z" fill="#754C29"/>
<path d="M211.08 21.5627C212.028 21.5627 212.797 20.7938 212.797 19.8453C212.797 18.8968 212.028 18.1279 211.08 18.1279C210.131 18.1279 209.362 18.8968 209.362 19.8453C209.362 20.7938 210.131 21.5627 211.08 21.5627Z" fill="#754C29"/>
<path d="M200.965 16.7922C201.913 16.7922 202.682 16.0233 202.682 15.0748C202.682 14.1263 201.913 13.3574 200.965 13.3574C200.016 13.3574 199.247 14.1263 199.247 15.0748C199.247 16.0233 200.016 16.7922 200.965 16.7922Z" fill="#754C29"/>
<path d="M190.659 12.9758C191.607 12.9758 192.376 12.2069 192.376 11.2584C192.376 10.3099 191.607 9.54102 190.659 9.54102C189.71 9.54102 188.941 10.3099 188.941 11.2584C188.941 12.2069 189.71 12.9758 190.659 12.9758Z" fill="#754C29"/>
<path d="M179.78 9.92255C180.729 9.92255 181.498 9.15365 181.498 8.20517C181.498 7.25669 180.729 6.48779 179.78 6.48779C178.832 6.48779 178.063 7.25669 178.063 8.20517C178.063 9.15365 178.832 9.92255 179.78 9.92255Z" fill="#754C29"/>
<path d="M168.902 7.82343C169.851 7.82343 170.62 7.05453 170.62 6.10605C170.62 5.15757 169.851 4.38867 168.902 4.38867C167.953 4.38867 167.184 5.15757 167.184 6.10605C167.184 7.05453 167.953 7.82343 168.902 7.82343Z" fill="#754C29"/>
<path d="M157.833 6.48773C158.781 6.48773 159.55 5.71884 159.55 4.77036C159.55 3.82187 158.781 3.05298 157.833 3.05298C156.884 3.05298 156.115 3.82187 156.115 4.77036C156.115 5.71884 156.884 6.48773 157.833 6.48773Z" fill="#754C29"/>
<path d="M146.763 6.10614C147.712 6.10614 148.481 5.33724 148.481 4.38876C148.481 3.44028 147.712 2.67139 146.763 2.67139C145.815 2.67139 145.046 3.44028 145.046 4.38876C145.046 5.33724 145.815 6.10614 146.763 6.10614Z" fill="#754C29"/>
<path d="M257.075 147.503C258.023 147.503 258.792 146.734 258.792 145.786C258.792 144.838 258.023 144.069 257.075 144.069C256.126 144.069 255.357 144.838 255.357 145.786C255.357 146.734 256.126 147.503 257.075 147.503Z" fill="#754C29"/>
<path d="M146.763 37.4005C147.712 37.4005 148.481 36.6316 148.481 35.6831C148.481 34.7346 147.712 33.9657 146.763 33.9657C145.815 33.9657 145.046 34.7346 145.046 35.6831C145.046 36.6316 145.815 37.4005 146.763 37.4005Z" fill="#754C29"/>
<path d="M158.214 37.973C159.163 37.973 159.932 37.2041 159.932 36.2556C159.932 35.3071 159.163 34.5382 158.214 34.5382C157.266 34.5382 156.497 35.3071 156.497 36.2556C156.497 37.2041 157.266 37.973 158.214 37.973Z" fill="#754C29"/>
<path d="M169.665 39.8812C170.614 39.8812 171.383 39.1123 171.383 38.1638C171.383 37.2153 170.614 36.4464 169.665 36.4464C168.717 36.4464 167.948 37.2153 167.948 38.1638C167.948 39.1123 168.717 39.8812 169.665 39.8812Z" fill="#754C29"/>
<path d="M180.734 42.7435C181.683 42.7435 182.452 41.9746 182.452 41.0261C182.452 40.0776 181.683 39.3087 180.734 39.3087C179.786 39.3087 179.017 40.0776 179.017 41.0261C179.017 41.9746 179.786 42.7435 180.734 42.7435Z" fill="#754C29"/>
<path d="M191.422 46.9415C192.371 46.9415 193.14 46.1726 193.14 45.2241C193.14 44.2756 192.371 43.5067 191.422 43.5067C190.474 43.5067 189.705 44.2756 189.705 45.2241C189.705 46.1726 190.474 46.9415 191.422 46.9415Z" fill="#754C29"/>
<path d="M201.728 52.0936C202.677 52.0936 203.446 51.3247 203.446 50.3762C203.446 49.4277 202.677 48.6588 201.728 48.6588C200.78 48.6588 200.01 49.4277 200.01 50.3762C200.01 51.3247 200.78 52.0936 201.728 52.0936Z" fill="#754C29"/>
<path d="M211.461 58.3906C212.41 58.3906 213.179 57.6217 213.179 56.6732C213.179 55.7247 212.41 54.9558 211.461 54.9558C210.513 54.9558 209.744 55.7247 209.744 56.6732C209.744 57.6217 210.513 58.3906 211.461 58.3906Z" fill="#754C29"/>
<path d="M220.431 65.6418C221.38 65.6418 222.149 64.8729 222.149 63.9244C222.149 62.9759 221.38 62.207 220.431 62.207C219.483 62.207 218.714 62.9759 218.714 63.9244C218.714 64.8729 219.483 65.6418 220.431 65.6418Z" fill="#754C29"/>
<path d="M228.447 73.6562C229.396 73.6562 230.165 72.8873 230.165 71.9388C230.165 70.9903 229.396 70.2214 228.447 70.2214C227.498 70.2214 226.729 70.9903 226.729 71.9388C226.729 72.8873 227.498 73.6562 228.447 73.6562Z" fill="#754C29"/>
<path d="M235.89 82.6247C236.839 82.6247 237.608 81.8558 237.608 80.9073C237.608 79.9588 236.839 79.1899 235.89 79.1899C234.941 79.1899 234.172 79.9588 234.172 80.9073C234.172 81.8558 234.941 82.6247 235.89 82.6247Z" fill="#754C29"/>
<path d="M242.188 92.1657C243.137 92.1657 243.906 91.3968 243.906 90.4483C243.906 89.4999 243.137 88.731 242.188 88.731C241.239 88.731 240.47 89.4999 240.47 90.4483C240.47 91.3968 241.239 92.1657 242.188 92.1657Z" fill="#754C29"/>
<path d="M247.341 102.47C248.29 102.47 249.059 101.701 249.059 100.753C249.059 99.8042 248.29 99.0353 247.341 99.0353C246.392 99.0353 245.623 99.8042 245.623 100.753C245.623 101.701 246.392 102.47 247.341 102.47Z" fill="#754C29"/>
<path d="M251.54 113.156C252.489 113.156 253.258 112.387 253.258 111.438C253.258 110.49 252.489 109.721 251.54 109.721C250.591 109.721 249.822 110.49 249.822 111.438C249.822 112.387 250.591 113.156 251.54 113.156Z" fill="#754C29"/>
<path d="M254.784 124.223C255.733 124.223 256.502 123.455 256.502 122.506C256.502 121.558 255.733 120.789 254.784 120.789C253.836 120.789 253.067 121.558 253.067 122.506C253.067 123.455 253.836 124.223 254.784 124.223Z" fill="#754C29"/>
<path d="M256.502 135.863C257.45 135.863 258.219 135.095 258.219 134.146C258.219 133.198 257.45 132.429 256.502 132.429C255.553 132.429 254.784 133.198 254.784 134.146C254.784 135.095 255.553 135.863 256.502 135.863Z" fill="#754C29"/>
<path d="M87.4091 198.834C88.3577 198.834 89.1267 198.065 89.1267 197.117C89.1267 196.168 88.3577 195.4 87.4091 195.4C86.4604 195.4 85.6914 196.168 85.6914 197.117C85.6914 198.065 86.4604 198.834 87.4091 198.834Z" fill="#754C29"/>
<path d="M80.7291 189.866C81.6777 189.866 82.4468 189.097 82.4468 188.148C82.4468 187.2 81.6777 186.431 80.7291 186.431C79.7805 186.431 79.0115 187.2 79.0115 188.148C79.0115 189.097 79.7805 189.866 80.7291 189.866Z" fill="#754C29"/>
<path d="M95.2338 206.658C96.1824 206.658 96.9514 205.889 96.9514 204.94C96.9514 203.992 96.1824 203.223 95.2338 203.223C94.2851 203.223 93.5161 203.992 93.5161 204.94C93.5161 205.889 94.2851 206.658 95.2338 206.658Z" fill="#754C29"/>
<path d="M104.204 213.336C105.152 213.336 105.921 212.567 105.921 211.619C105.921 210.671 105.152 209.902 104.204 209.902C103.255 209.902 102.486 210.671 102.486 211.619C102.486 212.567 103.255 213.336 104.204 213.336Z" fill="#754C29"/>
<path d="M113.937 218.679C114.886 218.679 115.655 217.91 115.655 216.962C115.655 216.014 114.886 215.245 113.937 215.245C112.989 215.245 112.219 216.014 112.219 216.962C112.219 217.91 112.989 218.679 113.937 218.679Z" fill="#754C29"/>
<path d="M124.434 222.496C125.382 222.496 126.151 221.727 126.151 220.778C126.151 219.83 125.382 219.061 124.434 219.061C123.485 219.061 122.716 219.83 122.716 220.778C122.716 221.727 123.485 222.496 124.434 222.496Z" fill="#754C29"/>
<path d="M135.312 224.977C136.261 224.977 137.03 224.208 137.03 223.259C137.03 222.311 136.261 221.542 135.312 221.542C134.364 221.542 133.594 222.311 133.594 223.259C133.594 224.208 134.364 224.977 135.312 224.977Z" fill="#754C29"/>
<path d="M146.572 225.74C147.521 225.74 148.29 224.971 148.29 224.022C148.29 223.074 147.521 222.305 146.572 222.305C145.624 222.305 144.855 223.074 144.855 224.022C144.855 224.971 145.624 225.74 146.572 225.74Z" fill="#754C29"/>
<path d="M75.3856 180.134C76.3343 180.134 77.1033 179.365 77.1033 178.416C77.1033 177.468 76.3343 176.699 75.3856 176.699C74.437 176.699 73.668 177.468 73.668 178.416C73.668 179.365 74.437 180.134 75.3856 180.134Z" fill="#754C29"/>
<path d="M71.3776 169.639C72.3262 169.639 73.0952 168.87 73.0952 167.921C73.0952 166.973 72.3262 166.204 71.3776 166.204C70.4289 166.204 69.6599 166.973 69.6599 167.921C69.6599 168.87 70.4289 169.639 71.3776 169.639Z" fill="#754C29"/>
<path d="M69.0875 158.762C70.0362 158.762 70.8052 157.993 70.8052 157.045C70.8052 156.096 70.0362 155.327 69.0875 155.327C68.1389 155.327 67.3699 156.096 67.3699 157.045C67.3699 157.993 68.1389 158.762 69.0875 158.762Z" fill="#754C29"/>
<path d="M68.1332 147.695C69.0818 147.695 69.8508 146.926 69.8508 145.977C69.8508 145.029 69.0818 144.26 68.1332 144.26C67.1845 144.26 66.4155 145.029 66.4155 145.977C66.4155 146.926 67.1845 147.695 68.1332 147.695Z" fill="#754C29"/>
<path d="M4.77111 147.504C5.71974 147.504 6.48876 146.735 6.48876 145.786C6.48876 144.838 5.71974 144.069 4.77111 144.069C3.82248 144.069 3.05347 144.838 3.05347 145.786C3.05347 146.735 3.82248 147.504 4.77111 147.504Z" fill="#754C29"/>
<path d="M5.15271 158.762C6.10134 158.762 6.87035 157.993 6.87035 157.045C6.87035 156.096 6.10134 155.327 5.15271 155.327C4.20408 155.327 3.43506 156.096 3.43506 157.045C3.43506 157.993 4.20408 158.762 5.15271 158.762Z" fill="#754C29"/>
<path d="M6.48889 169.639C7.43752 169.639 8.20653 168.87 8.20653 167.921C8.20653 166.973 7.43752 166.204 6.48889 166.204C5.54026 166.204 4.77124 166.973 4.77124 167.921C4.77124 168.87 5.54026 169.639 6.48889 169.639Z" fill="#754C29"/>
<path d="M8.77893 180.515C9.72756 180.515 10.4966 179.747 10.4966 178.798C10.4966 177.85 9.72756 177.081 8.77893 177.081C7.8303 177.081 7.06128 177.85 7.06128 178.798C7.06128 179.747 7.8303 180.515 8.77893 180.515Z" fill="#754C29"/>
<path d="M11.6417 191.392C12.5903 191.392 13.3594 190.623 13.3594 189.675C13.3594 188.726 12.5903 187.957 11.6417 187.957C10.6931 187.957 9.92407 188.726 9.92407 189.675C9.92407 190.623 10.6931 191.392 11.6417 191.392Z" fill="#754C29"/>
<path d="M15.6495 201.696C16.5982 201.696 17.3672 200.927 17.3672 199.979C17.3672 199.03 16.5982 198.262 15.6495 198.262C14.7009 198.262 13.9319 199.03 13.9319 199.979C13.9319 200.927 14.7009 201.696 15.6495 201.696Z" fill="#754C29"/>
<path d="M20.2299 211.81C21.1785 211.81 21.9475 211.041 21.9475 210.092C21.9475 209.144 21.1785 208.375 20.2299 208.375C19.2812 208.375 18.5122 209.144 18.5122 210.092C18.5122 211.041 19.2812 211.81 20.2299 211.81Z" fill="#754C29"/>
<path d="M25.7645 221.542C26.7132 221.542 27.4822 220.773 27.4822 219.824C27.4822 218.876 26.7132 218.107 25.7645 218.107C24.8159 218.107 24.0469 218.876 24.0469 219.824C24.0469 220.773 24.8159 221.542 25.7645 221.542Z" fill="#754C29"/>
<path d="M31.8717 230.701C32.8203 230.701 33.5893 229.932 33.5893 228.984C33.5893 228.035 32.8203 227.266 31.8717 227.266C30.9231 227.266 30.1541 228.035 30.1541 228.984C30.1541 229.932 30.9231 230.701 31.8717 230.701Z" fill="#754C29"/>
<path d="M38.7423 239.479C39.6909 239.479 40.46 238.71 40.46 237.761C40.46 236.813 39.6909 236.044 38.7423 236.044C37.7937 236.044 37.0247 236.813 37.0247 237.761C37.0247 238.71 37.7937 239.479 38.7423 239.479Z" fill="#754C29"/>
<path d="M46.3763 247.684C47.325 247.684 48.094 246.915 48.094 245.967C48.094 245.018 47.325 244.249 46.3763 244.249C45.4277 244.249 44.6587 245.018 44.6587 245.967C44.6587 246.915 45.4277 247.684 46.3763 247.684Z" fill="#754C29"/>
<path d="M54.5829 255.126C55.5315 255.126 56.3005 254.357 56.3005 253.408C56.3005 252.46 55.5315 251.691 54.5829 251.691C53.6343 251.691 52.8652 252.46 52.8652 253.408C52.8652 254.357 53.6343 255.126 54.5829 255.126Z" fill="#754C29"/>
<path d="M63.171 261.995C64.1196 261.995 64.8887 261.227 64.8887 260.278C64.8887 259.33 64.1196 258.561 63.171 258.561C62.2224 258.561 61.4534 259.33 61.4534 260.278C61.4534 261.227 62.2224 261.995 63.171 261.995Z" fill="#754C29"/>
<path d="M72.5228 268.292C73.4715 268.292 74.2405 267.524 74.2405 266.575C74.2405 265.627 73.4715 264.858 72.5228 264.858C71.5742 264.858 70.8052 265.627 70.8052 266.575C70.8052 267.524 71.5742 268.292 72.5228 268.292Z" fill="#754C29"/>
<path d="M82.256 273.635C83.2046 273.635 83.9736 272.867 83.9736 271.918C83.9736 270.97 83.2046 270.201 82.256 270.201C81.3073 270.201 80.5383 270.97 80.5383 271.918C80.5383 272.867 81.3073 273.635 82.256 273.635Z" fill="#754C29"/>
<path d="M92.3712 278.406C93.3198 278.406 94.0889 277.637 94.0889 276.689C94.0889 275.74 93.3198 274.971 92.3712 274.971C91.4226 274.971 90.6536 275.74 90.6536 276.689C90.6536 277.637 91.4226 278.406 92.3712 278.406Z" fill="#754C29"/>
<path d="M102.677 282.222C103.626 282.222 104.395 281.453 104.395 280.505C104.395 279.556 103.626 278.788 102.677 278.788C101.728 278.788 100.959 279.556 100.959 280.505C100.959 281.453 101.728 282.222 102.677 282.222Z" fill="#754C29"/>
<path d="M113.365 285.275C114.313 285.275 115.082 284.506 115.082 283.558C115.082 282.609 114.313 281.841 113.365 281.841C112.416 281.841 111.647 282.609 111.647 283.558C111.647 284.506 112.416 285.275 113.365 285.275Z" fill="#754C29"/>
<path d="M124.434 287.374C125.382 287.374 126.151 286.606 126.151 285.657C126.151 284.709 125.382 283.94 124.434 283.94C123.485 283.94 122.716 284.709 122.716 285.657C122.716 286.606 123.485 287.374 124.434 287.374Z" fill="#754C29"/>
<path d="M135.312 288.71C136.261 288.71 137.03 287.941 137.03 286.993C137.03 286.044 136.261 285.275 135.312 285.275C134.364 285.275 133.595 286.044 133.595 286.993C133.595 287.941 134.364 288.71 135.312 288.71Z" fill="#754C29"/>
<path d="M146.572 289.092C147.521 289.092 148.29 288.323 148.29 287.374C148.29 286.426 147.521 285.657 146.572 285.657C145.624 285.657 144.855 286.426 144.855 287.374C144.855 288.323 145.624 289.092 146.572 289.092Z" fill="#754C29"/>
<path d="M36.0704 147.695C37.0191 147.695 37.7881 146.926 37.7881 145.977C37.7881 145.029 37.0191 144.26 36.0704 144.26C35.1218 144.26 34.3528 145.029 34.3528 145.977C34.3528 146.926 35.1218 147.695 36.0704 147.695Z" fill="#754C29"/>
<path d="M146.572 257.797C147.521 257.797 148.29 257.029 148.29 256.08C148.29 255.132 147.521 254.363 146.572 254.363C145.624 254.363 144.855 255.132 144.855 256.08C144.855 257.029 145.624 257.797 146.572 257.797Z" fill="#754C29"/>
<path d="M134.931 257.225C135.879 257.225 136.648 256.456 136.648 255.508C136.648 254.559 135.879 253.79 134.931 253.79C133.982 253.79 133.213 254.559 133.213 255.508C133.213 256.456 133.982 257.225 134.931 257.225Z" fill="#754C29"/>
<path d="M123.671 255.317C124.619 255.317 125.388 254.548 125.388 253.599C125.388 252.651 124.619 251.882 123.671 251.882C122.722 251.882 121.953 252.651 121.953 253.599C121.953 254.548 122.722 255.317 123.671 255.317Z" fill="#754C29"/>
<path d="M112.601 252.454C113.55 252.454 114.319 251.686 114.319 250.737C114.319 249.789 113.55 249.02 112.601 249.02C111.653 249.02 110.884 249.789 110.884 250.737C110.884 251.686 111.653 252.454 112.601 252.454Z" fill="#754C29"/>
<path d="M101.723 248.256C102.671 248.256 103.44 247.487 103.44 246.539C103.44 245.591 102.671 244.822 101.723 244.822C100.774 244.822 100.005 245.591 100.005 246.539C100.005 247.487 100.774 248.256 101.723 248.256Z" fill="#754C29"/>
<path d="M91.6075 243.104C92.5562 243.104 93.3252 242.335 93.3252 241.387C93.3252 240.438 92.5562 239.67 91.6075 239.67C90.6589 239.67 89.8899 240.438 89.8899 241.387C89.8899 242.335 90.6589 243.104 91.6075 243.104Z" fill="#754C29"/>
<path d="M81.8744 236.807C82.823 236.807 83.592 236.038 83.592 235.09C83.592 234.141 82.823 233.373 81.8744 233.373C80.9258 233.373 80.1567 234.141 80.1567 235.09C80.1567 236.038 80.9258 236.807 81.8744 236.807Z" fill="#754C29"/>
<path d="M72.9044 229.556C73.853 229.556 74.6221 228.787 74.6221 227.839C74.6221 226.89 73.853 226.121 72.9044 226.121C71.9558 226.121 71.1868 226.89 71.1868 227.839C71.1868 228.787 71.9558 229.556 72.9044 229.556Z" fill="#754C29"/>
<path d="M64.6979 221.542C65.6465 221.542 66.4155 220.773 66.4155 219.824C66.4155 218.876 65.6465 218.107 64.6979 218.107C63.7492 218.107 62.9802 218.876 62.9802 219.824C62.9802 220.773 63.7492 221.542 64.6979 221.542Z" fill="#754C29"/>
<path d="M57.4454 212.573C58.3941 212.573 59.1631 211.804 59.1631 210.856C59.1631 209.907 58.3941 209.138 57.4454 209.138C56.4968 209.138 55.7278 209.907 55.7278 210.856C55.7278 211.804 56.4968 212.573 57.4454 212.573Z" fill="#754C29"/>
<path d="M51.1476 203.032C52.0962 203.032 52.8652 202.263 52.8652 201.315C52.8652 200.366 52.0962 199.597 51.1476 199.597C50.1989 199.597 49.4299 200.366 49.4299 201.315C49.4299 202.263 50.1989 203.032 51.1476 203.032Z" fill="#754C29"/>
<path d="M45.9945 192.728C46.9431 192.728 47.7121 191.959 47.7121 191.011C47.7121 190.062 46.9431 189.293 45.9945 189.293C45.0459 189.293 44.2769 190.062 44.2769 191.011C44.2769 191.959 45.0459 192.728 45.9945 192.728Z" fill="#754C29"/>
<path d="M41.796 182.042C42.7446 182.042 43.5137 181.273 43.5137 180.325C43.5137 179.376 42.7446 178.607 41.796 178.607C40.8474 178.607 40.0784 179.376 40.0784 180.325C40.0784 181.273 40.8474 182.042 41.796 182.042Z" fill="#754C29"/>
<path d="M38.5516 170.975C39.5003 170.975 40.2693 170.206 40.2693 169.257C40.2693 168.309 39.5003 167.54 38.5516 167.54C37.603 167.54 36.834 168.309 36.834 169.257C36.834 170.206 37.603 170.975 38.5516 170.975Z" fill="#754C29"/>
<path d="M36.6429 159.335C37.5916 159.335 38.3606 158.566 38.3606 157.617C38.3606 156.669 37.5916 155.9 36.6429 155.9C35.6943 155.9 34.9253 156.669 34.9253 157.617C34.9253 158.566 35.6943 159.335 36.6429 159.335Z" fill="#754C29"/>
<path d="M129.968 102.088H165.467C167.375 102.088 168.902 100.562 168.902 98.6537C168.902 96.7455 167.375 95.219 165.467 95.219H129.968C128.06 95.219 126.533 96.7455 126.533 98.6537C126.533 100.562 128.06 102.088 129.968 102.088Z" fill="#F7931E"/>
<path d="M122.525 114.492H170.619C172.528 114.492 174.055 112.965 174.055 111.057C174.055 109.149 172.528 107.622 170.619 107.622H122.525C120.617 107.622 119.09 109.149 119.09 111.057C119.09 112.965 120.617 114.492 122.525 114.492ZM115.655 127.086H177.49C179.399 127.086 180.925 125.559 180.925 123.651C180.925 121.743 179.399 120.216 177.49 120.216H115.655C113.746 120.216 112.219 121.743 112.219 123.651C112.219 125.559 113.746 127.086 115.655 127.086Z" fill="#F7931E"/>
<path d="M181.116 133.955H112.41C108.593 133.955 105.54 137.009 105.54 140.825V149.03L142.374 166.013C145.046 167.349 148.29 167.349 150.962 166.013L187.796 149.03V140.825C187.987 137.009 184.742 133.955 181.116 133.955Z" fill="#F7931E"/>
<path d="M146.572 173.837C144.091 173.837 141.61 173.264 139.32 172.31L105.349 156.472V182.042C105.349 185.858 108.402 188.912 112.219 188.912H180.925C184.742 188.912 187.796 185.858 187.796 182.042V156.472L153.825 172.119C151.534 173.264 149.053 173.837 146.572 173.837Z" fill="#EF4223"/>
<defs>
<radialGradient id="paint0_radial" cx="0" cy="0" r="1" gradientUnits="userSpaceOnUse" gradientTransform="translate(146.654 145.887) scale(87.9664 87.9526)">
<stop offset="0.00477217" stop-color="#F7931E"/>
<stop offset="1" stop-color="white"/>
</radialGradient>
</defs>
</svg>
