<svg width="281" height="277" viewBox="0 0 281 277" fill="none" xmlns="http://www.w3.org/2000/svg">
<path opacity="0.3" d="M230.774 130.42C230.774 178.9 191.582 218.064 143.069 218.064C94.5546 218.064 55.363 178.9 55.363 130.42C55.363 81.9403 94.5546 42.7762 143.069 42.7762C191.582 42.7762 230.774 82.1304 230.774 130.42Z" fill="url(#paint0_radial)"/>
<path d="M169.704 103.994C177.059 103.994 183.021 98.0355 183.021 90.6856C183.021 83.3357 177.059 77.3774 169.704 77.3774C162.349 77.3774 156.386 83.3357 156.386 90.6856C156.386 98.0355 162.349 103.994 169.704 103.994Z" fill="#F37021"/>
<path d="M191.773 121.675C191.012 114.26 181.309 108.366 169.704 108.366C158.099 108.366 148.586 114.26 147.635 121.675H191.773Z" fill="#F37021"/>
<path d="M169.704 161.409C157.528 161.409 147.635 167.873 147.635 175.668V183.463H191.773V175.668C191.773 167.873 181.88 161.409 169.704 161.409Z" fill="#FFFDE4"/>
<path d="M162.855 154.945C164.948 156.086 167.231 156.846 169.704 156.846C172.177 156.846 174.46 156.086 176.553 154.945H184.543L182.831 142.968C181.69 135.363 176.743 130.23 169.514 130.23C162.474 130.23 157.528 135.933 156.196 142.968L154.484 154.945H162.855Z" fill="#FFFDE4"/>
<path d="M103.306 143.728C103.306 150.953 109.204 157.036 116.624 157.036C123.853 157.036 129.941 151.143 129.941 143.728C129.941 136.504 124.044 130.42 116.624 130.42C109.204 130.42 103.306 136.314 103.306 143.728ZM116.624 161.409C104.448 161.409 94.5547 167.873 94.5547 175.668V183.462H138.693V175.668C138.693 167.873 128.8 161.409 116.624 161.409Z" fill="#F37021"/>
<path d="M116.434 103.994C118.907 103.994 121.19 103.233 123.283 102.093H131.463L129.751 90.1153C128.61 82.5106 123.663 77.3774 116.434 77.3774C109.394 77.3774 104.448 83.0809 103.116 90.1153L101.404 102.093H109.585C111.677 103.233 113.96 103.994 116.434 103.994Z" fill="#FFFDE4"/>
<path d="M116.434 108.366C104.828 108.366 95.3158 114.26 94.3645 121.675H138.503C137.742 114.26 128.229 108.366 116.434 108.366Z" fill="#FFFDE4"/>
<path d="M254.365 247.342C253.794 246.771 252.653 246.771 252.082 247.342C251.511 247.912 251.511 249.053 252.082 249.813C252.463 250.193 252.843 250.384 253.224 250.384C253.604 250.384 253.985 250.193 254.365 249.813C255.126 249.053 255.126 248.102 254.365 247.342Z" fill="#EF4223"/>
<path d="M237.623 232.893C238.194 232.323 238.194 231.182 237.623 230.612C237.052 230.041 235.911 230.041 235.34 230.612C234.769 231.182 234.769 232.323 235.34 233.083C235.72 233.463 236.101 233.654 236.481 233.654C236.862 233.463 237.242 233.273 237.623 232.893Z" fill="#EF4223"/>
<path d="M220.881 216.163C221.452 215.592 221.452 214.452 220.881 213.881C220.31 213.311 219.169 213.311 218.598 213.881C218.027 214.452 218.027 215.592 218.598 216.353C218.978 216.733 219.359 216.923 219.739 216.923C220.12 216.923 220.5 216.353 220.881 216.163Z" fill="#EF4223"/>
<path d="M229.252 224.528C229.823 223.957 229.823 222.817 229.252 222.246C228.681 221.676 227.54 221.676 226.969 222.246C226.398 222.817 226.398 223.957 226.969 224.718C227.349 225.098 227.73 225.098 228.11 225.098C228.491 225.098 228.871 224.908 229.252 224.528Z" fill="#EF4223"/>
<path d="M245.994 241.258C246.565 240.688 246.565 239.547 245.994 238.977C245.423 238.406 244.282 238.406 243.711 238.977C243.14 239.547 243.14 240.688 243.711 241.448C244.092 241.828 244.472 242.019 244.853 242.019C245.233 241.828 245.804 241.638 245.994 241.258Z" fill="#EF4223"/>
<path d="M262.736 255.707C262.165 255.137 261.024 255.137 260.453 255.707C259.882 256.277 259.882 257.418 260.453 258.179C260.833 258.559 261.214 258.749 261.594 258.749C261.975 258.749 262.355 258.559 262.736 258.179C263.497 257.418 263.497 256.467 262.736 255.707Z" fill="#EF4223"/>
<path d="M252.462 213.691C251.701 212.931 250.75 212.931 249.989 213.691C249.418 214.262 249.418 215.402 249.989 216.163C250.37 216.543 250.75 216.733 251.131 216.733C251.511 216.733 251.892 216.543 252.272 216.163C253.223 215.402 253.223 214.452 252.462 213.691Z" fill="#EF4223"/>
<path d="M261.214 224.908C261.785 224.338 261.785 223.197 261.214 222.627C260.643 222.056 259.502 222.056 258.931 222.627C258.36 223.197 258.36 224.338 258.931 225.098C259.311 225.478 259.692 225.668 260.072 225.668C260.453 225.668 261.024 225.098 261.214 224.908Z" fill="#EF4223"/>
<path d="M269.965 231.182C269.395 230.611 268.253 230.611 267.682 231.182C267.112 231.752 267.112 232.893 267.682 233.653C268.063 234.034 268.443 234.224 268.824 234.224C269.204 234.224 269.585 234.034 269.965 233.653C270.726 232.893 270.726 231.942 269.965 231.182Z" fill="#EF4223"/>
<path d="M278.717 239.927C278.146 239.357 277.005 239.357 276.434 239.927C275.863 240.498 275.863 241.638 276.434 242.399C276.815 242.779 277.195 242.969 277.576 242.969C277.956 242.969 278.337 242.779 278.717 242.399C279.478 241.638 279.478 240.688 278.717 239.927Z" fill="#EF4223"/>
<path d="M222.213 246.962C221.642 246.391 220.5 246.391 219.93 246.962C219.359 247.532 219.359 248.673 219.93 249.433C220.31 249.813 220.691 250.003 221.071 250.003C221.452 250.003 221.832 249.813 222.213 249.433C222.974 248.673 222.974 247.722 222.213 246.962Z" fill="#EF4223"/>
<path d="M213.842 238.597C213.271 238.026 212.129 238.026 211.559 238.597C210.988 239.167 210.988 240.308 211.559 241.068C211.939 241.448 212.32 241.638 212.7 241.638C213.081 241.638 213.461 241.448 213.842 241.068C214.603 240.308 214.603 239.357 213.842 238.597Z" fill="#EF4223"/>
<path d="M230.584 255.137C230.013 254.566 228.871 254.566 228.301 255.137C227.73 255.707 227.73 256.848 228.301 257.608C228.681 257.988 229.062 258.178 229.442 258.178C229.823 258.178 230.203 257.988 230.584 257.608C231.154 257.038 231.154 255.897 230.584 255.137Z" fill="#EF4223"/>
<path d="M188.919 213.691C188.348 213.121 187.207 213.121 186.636 213.691C186.065 214.261 186.065 215.402 186.636 216.163C187.016 216.543 187.397 216.733 187.777 216.733C188.158 216.733 188.538 216.543 188.919 216.163C189.68 215.402 189.68 214.452 188.919 213.691Z" fill="#EF4223"/>
<path d="M205.471 230.231C204.9 229.661 203.758 229.661 203.188 230.231C202.617 230.802 202.617 231.942 203.188 232.703C203.568 233.083 203.949 233.083 204.329 233.083C204.71 233.083 205.28 232.893 205.471 232.513C206.232 232.132 206.232 230.992 205.471 230.231Z" fill="#EF4223"/>
<path d="M247.135 271.867C246.565 271.297 245.423 271.297 244.852 271.867C244.282 272.437 244.282 273.578 244.852 274.338C245.233 274.719 245.613 274.719 245.994 274.719C246.374 274.719 246.945 274.529 247.135 274.148C247.896 273.578 247.896 272.437 247.135 271.867Z" fill="#EF4223"/>
<path d="M238.765 263.502C238.194 262.931 237.052 262.931 236.482 263.502C235.911 264.072 235.911 265.213 236.482 265.973C236.862 266.353 237.243 266.544 237.623 266.544C238.004 266.544 238.384 266.353 238.765 265.973C239.526 265.213 239.526 264.262 238.765 263.502Z" fill="#EF4223"/>
<path d="M197.29 222.056C196.719 221.486 195.578 221.486 195.007 222.056C194.436 222.627 194.436 223.767 195.007 224.528C195.387 224.908 195.768 225.098 196.148 225.098C196.529 225.098 196.909 224.908 197.29 224.528C198.051 223.767 198.051 222.817 197.29 222.056Z" fill="#EF4223"/>
<path d="M229.062 207.798C229.823 207.037 229.823 206.087 229.252 205.326C228.871 204.946 228.491 204.756 228.11 204.756C227.73 204.756 227.349 204.946 226.969 205.136C226.398 205.706 226.208 206.847 226.969 207.608C227.54 208.368 228.491 208.368 229.062 207.798Z" fill="#EF4223"/>
<path d="M253.224 179.66C252.843 179.66 252.272 179.85 252.082 180.231C251.511 180.801 251.321 181.942 252.082 182.702C252.653 183.272 253.794 183.462 254.365 182.702C254.936 182.132 254.936 180.991 254.365 180.421C254.175 179.85 253.604 179.66 253.224 179.66Z" fill="#EF4223"/>
<path d="M261.595 171.295C261.214 171.295 260.643 171.485 260.453 171.866C259.882 172.436 259.692 173.577 260.453 174.337C261.024 174.907 262.165 175.098 262.736 174.337C263.307 173.767 263.307 172.626 262.736 172.056C262.546 171.295 262.165 171.295 261.595 171.295Z" fill="#EF4223"/>
<path d="M237.623 199.242C238.384 198.482 238.384 197.531 237.623 196.771C237.242 196.391 236.862 196.201 236.481 196.201C236.101 196.201 235.53 196.391 235.34 196.771C234.769 197.341 234.579 198.482 235.34 199.242C235.911 200.003 236.862 200.003 237.623 199.242Z" fill="#EF4223"/>
<path d="M245.994 190.877C246.755 190.117 246.755 189.166 245.994 188.406C245.613 188.025 245.233 187.835 244.852 187.835C244.472 187.835 244.091 188.025 243.711 188.406C243.14 188.976 242.95 190.117 243.711 190.877C244.282 191.448 245.233 191.638 245.994 190.877Z" fill="#EF4223"/>
<path d="M268.824 195.82C268.444 195.82 268.063 196.01 267.683 196.39C267.112 196.961 266.922 198.102 267.683 198.862C268.253 199.432 269.395 199.622 269.966 198.862C270.536 198.292 270.536 197.151 269.966 196.581C269.775 195.82 269.205 195.82 268.824 195.82Z" fill="#EF4223"/>
<path d="M278.717 189.927C279.478 189.166 279.478 188.215 278.717 187.455C278.337 187.075 277.956 186.885 277.576 186.885C277.195 186.885 276.815 187.075 276.434 187.455C275.863 188.025 275.673 189.166 276.434 189.927C277.005 190.497 278.146 190.497 278.717 189.927Z" fill="#EF4223"/>
<path d="M261.214 207.417C261.975 206.657 261.975 205.706 261.214 204.946C260.834 204.565 260.453 204.375 260.073 204.375C259.692 204.375 259.312 204.565 258.931 204.946C258.36 205.516 258.17 206.657 258.931 207.417C259.502 207.988 260.643 207.988 261.214 207.417Z" fill="#EF4223"/>
<path d="M245.994 155.135C245.614 155.135 245.233 155.325 244.853 155.515C244.282 156.086 244.092 157.227 244.853 157.987C245.423 158.557 246.565 158.747 247.136 157.987C247.706 157.417 247.897 156.276 247.136 155.706C246.945 155.325 246.375 155.135 245.994 155.135Z" fill="#EF4223"/>
<path d="M229.442 171.675C229.062 171.675 228.491 171.866 228.301 172.246C227.73 172.816 227.54 173.957 228.301 174.717C228.872 175.288 230.013 175.478 230.584 174.717C231.155 174.147 231.155 173.006 230.584 172.436C230.203 171.866 229.823 171.675 229.442 171.675Z" fill="#EF4223"/>
<path d="M237.623 163.5C237.242 163.5 236.862 163.69 236.481 164.071C235.911 164.641 235.72 165.782 236.481 166.542C237.052 167.112 238.194 167.303 238.764 166.542C239.335 165.972 239.335 164.831 238.764 164.261C238.574 163.5 238.194 163.5 237.623 163.5Z" fill="#EF4223"/>
<path d="M221.071 180.041C220.691 180.041 220.12 180.231 219.93 180.611C219.359 181.181 219.169 182.322 219.93 183.083C220.5 183.653 221.642 183.843 222.213 183.083C222.783 182.512 222.783 181.371 222.213 180.801C221.832 180.231 221.452 180.041 221.071 180.041Z" fill="#EF4223"/>
<path d="M212.7 188.406C212.32 188.406 211.939 188.596 211.559 188.976C210.988 189.546 210.798 190.687 211.559 191.447C212.129 192.018 213.271 192.208 213.842 191.447C214.412 190.877 214.412 189.736 213.842 189.166C213.651 188.406 213.271 188.406 212.7 188.406Z" fill="#EF4223"/>
<path d="M196.148 204.946C195.768 204.946 195.197 205.136 195.007 205.516C194.436 206.086 194.246 207.227 195.007 207.988C195.578 208.558 196.719 208.748 197.29 207.988C197.861 207.417 197.861 206.277 197.29 205.706C196.909 205.136 196.529 204.946 196.148 204.946Z" fill="#EF4223"/>
<path d="M204.519 196.581C204.139 196.581 203.758 196.771 203.378 196.961C202.807 197.531 202.617 198.672 203.378 199.433C203.949 200.003 205.09 200.193 205.661 199.433C206.232 198.862 206.422 197.721 205.661 197.151C205.28 196.771 204.9 196.581 204.519 196.581Z" fill="#EF4223"/>
<path d="M26.6352 94.1076C27.206 93.5372 28.3475 93.5372 28.9182 94.1076C29.489 94.6779 29.489 95.8186 28.9182 96.5791C28.5377 96.7692 28.1572 96.9593 27.7767 96.9593C27.3962 96.9593 27.0157 96.7692 26.6352 96.389C25.8742 95.8186 25.8742 94.868 26.6352 94.1076Z" fill="#EF4223"/>
<path d="M43.3773 79.6589C42.8065 79.0885 42.8065 77.9478 43.3773 77.3775C43.948 76.8071 45.0895 76.8071 45.6603 77.3775C46.231 77.9478 46.231 79.0885 45.6603 79.849C45.2798 80.2292 44.8993 80.4193 44.5188 80.4193C44.1383 80.2292 43.7578 80.0391 43.3773 79.6589Z" fill="#EF4223"/>
<path d="M60.1192 62.9286C59.5485 62.3583 59.5485 61.2176 60.1192 60.6472C60.69 60.0769 61.8315 60.0769 62.4022 60.6472C62.973 61.2176 62.973 62.3583 62.4022 63.1188C62.0217 63.499 61.6412 63.6891 61.2607 63.6891C60.8802 63.6891 60.4997 63.3089 60.1192 62.9286Z" fill="#EF4223"/>
<path d="M51.7484 71.2936C51.1776 70.7233 51.1776 69.5826 51.7484 69.0122C52.3191 68.4419 53.4606 68.4419 54.0314 69.0122C54.6021 69.5826 54.6021 70.7233 54.0314 71.4837C53.6509 71.864 53.2704 71.864 52.8899 71.864C52.5094 71.864 52.1289 71.6739 51.7484 71.2936Z" fill="#EF4223"/>
<path d="M35.0062 88.024C34.4354 87.4536 34.4354 86.3129 35.0062 85.7426C35.5769 85.1722 36.7184 85.1722 37.2892 85.7426C37.86 86.3129 37.86 87.4536 37.2892 88.2141C36.9087 88.5943 36.5282 88.7845 36.1477 88.7845C35.5769 88.5943 35.1964 88.4042 35.0062 88.024Z" fill="#EF4223"/>
<path d="M18.0738 102.473C18.6446 101.903 19.7861 101.903 20.3568 102.473C20.9276 103.043 20.9276 104.184 20.3568 104.944C19.9763 105.325 19.5958 105.515 19.2153 105.515C18.8348 105.515 18.4543 105.325 18.0738 104.944C17.5031 104.184 17.5031 103.233 18.0738 102.473Z" fill="#EF4223"/>
<path d="M28.3475 60.4571C29.1085 59.6966 30.0598 59.6966 30.8208 60.4571C31.3915 61.0274 31.3915 62.1681 30.8208 62.9286C30.4403 63.3088 30.0598 63.4989 29.6793 63.4989C29.2988 63.4989 28.9183 63.3088 28.5378 62.9286C27.7768 62.1681 27.7768 61.2175 28.3475 60.4571Z" fill="#EF4223"/>
<path d="M19.596 71.6739C19.0253 71.1035 19.0253 69.9628 19.596 69.3925C20.1668 68.8221 21.3083 68.8221 21.879 69.3925C22.4498 69.9628 22.4498 71.1035 21.879 71.864C21.4985 72.2442 21.118 72.4344 20.7375 72.4344C20.357 72.4344 19.9765 72.0541 19.596 71.6739Z" fill="#EF4223"/>
<path d="M11.0346 77.9477C11.6054 77.3773 12.7469 77.3773 13.3176 77.9477C13.8884 78.518 13.8884 79.6587 13.3176 80.4192C12.9371 80.7994 12.5566 80.9895 12.1761 80.9895C11.7956 80.9895 11.4151 80.7994 11.0346 80.4192C10.2736 79.6587 10.2736 78.7081 11.0346 77.9477Z" fill="#EF4223"/>
<path d="M2.28312 86.6931C2.85388 86.1228 3.99538 86.1228 4.56613 86.6931C5.13688 87.2635 5.13688 88.4042 4.56613 89.1647C4.18563 89.3548 3.80513 89.5449 3.42463 89.5449C3.04413 89.5449 2.47338 89.3548 2.09287 89.1647C1.52212 88.4042 1.52212 87.4536 2.28312 86.6931Z" fill="#EF4223"/>
<path d="M58.7875 93.7274C59.3583 93.1571 60.4998 93.1571 61.0706 93.7274C61.6413 94.2978 61.6413 95.4385 61.0706 96.199C60.6901 96.5792 60.3096 96.7693 59.9291 96.7693C59.5486 96.7693 59.1681 96.5792 58.7875 96.199C58.0265 95.4385 58.0265 94.4879 58.7875 93.7274Z" fill="#EF4223"/>
<path d="M67.1586 85.3623C67.7294 84.792 68.8709 84.792 69.4416 85.3623C70.0124 85.9327 70.0124 87.0734 69.4416 87.8338C69.0611 88.2141 68.6807 88.4042 68.3001 88.4042C67.9196 88.4042 67.5391 88.2141 67.1586 87.8338C66.3976 87.0734 66.3976 86.1228 67.1586 85.3623Z" fill="#EF4223"/>
<path d="M50.4165 102.093C50.9872 101.522 52.1287 101.522 52.6995 102.093C53.2702 102.663 53.2702 103.804 52.6995 104.564C52.319 104.944 51.9385 105.135 51.558 105.135C51.1775 105.135 50.797 104.944 50.4165 104.564C49.8457 103.804 49.6555 102.663 50.4165 102.093Z" fill="#EF4223"/>
<path d="M92.0815 60.4571C92.6522 59.8867 93.7937 59.8867 94.3645 60.4571C94.9353 61.0274 94.9353 62.1681 94.3645 62.9286C93.984 63.3088 93.6035 63.4989 93.223 63.4989C92.8425 63.4989 92.462 63.3088 92.0815 62.9286C91.3205 62.1681 91.3205 61.2175 92.0815 60.4571Z" fill="#EF4223"/>
<path d="M75.3393 76.9971C75.9101 76.4267 77.0516 76.4267 77.6223 76.9971C78.1931 77.5675 78.1931 78.7082 77.6223 79.4686C77.2418 79.8489 76.8613 79.8489 76.4808 79.8489C76.1003 79.8489 75.5296 79.6587 75.3393 79.2785C74.5783 78.8983 74.7686 77.7576 75.3393 76.9971Z" fill="#EF4223"/>
<path d="M33.8647 118.633C34.4354 118.062 35.577 118.062 36.1477 118.633C36.7185 119.203 36.7185 120.344 36.1477 121.104C35.7672 121.485 35.3867 121.485 35.0062 121.485C34.6257 121.485 34.0549 121.294 33.8647 120.914C33.1037 120.344 33.1037 119.203 33.8647 118.633Z" fill="#EF4223"/>
<path d="M42.2358 110.268C42.8065 109.697 43.948 109.697 44.5188 110.268C45.0896 110.838 45.0896 111.979 44.5188 112.739C44.1383 113.119 43.7578 113.309 43.3773 113.309C42.9968 113.309 42.6163 113.119 42.2358 112.739C41.4748 111.979 41.4748 111.028 42.2358 110.268Z" fill="#EF4223"/>
<path d="M83.7104 68.8223C84.2812 68.2519 85.4227 68.2519 85.9934 68.8223C86.5642 69.3926 86.5642 70.5333 85.9934 71.2938C85.6129 71.6741 85.2324 71.8642 84.8519 71.8642C84.4714 71.8642 84.0909 71.6741 83.7104 71.2938C82.9494 70.5333 82.9494 69.5828 83.7104 68.8223Z" fill="#EF4223"/>
<path d="M51.7482 54.5636C50.9872 53.8031 50.9872 52.8525 51.558 52.0921C51.9385 51.7118 52.319 51.5217 52.6995 51.5217C53.08 51.5217 53.4605 51.7118 53.841 51.902C54.4117 52.4723 54.602 53.613 53.841 54.3735C53.4605 55.1339 52.5092 55.1339 51.7482 54.5636Z" fill="#EF4223"/>
<path d="M27.7766 26.426C28.1571 26.426 28.7279 26.6161 28.9181 26.9964C29.4889 27.5667 29.6791 28.7074 28.9181 29.4679C28.3474 30.0382 27.2058 30.2284 26.6351 29.4679C26.0643 28.8975 26.0643 27.7568 26.6351 27.1865C26.8253 26.6161 27.2058 26.426 27.7766 26.426Z" fill="#EF4223"/>
<path d="M19.2153 18.061C19.5958 18.061 20.1666 18.2512 20.3568 18.6314C20.9276 19.2017 21.1178 20.3424 20.3568 21.1029C19.7861 21.6733 18.6446 21.8634 18.0738 21.1029C17.5031 20.5326 17.5031 19.3919 18.0738 18.8215C18.4543 18.2512 18.8348 18.061 19.2153 18.061Z" fill="#EF4223"/>
<path d="M43.3771 46.0083C42.6161 45.2478 42.6161 44.2972 43.3771 43.5368C43.7576 43.1565 44.1382 42.9664 44.5187 42.9664C44.8992 42.9664 45.4699 43.1565 45.6602 43.5368C46.2309 44.1071 46.4212 45.2478 45.6602 46.0083C45.0894 46.7688 43.9479 46.7688 43.3771 46.0083Z" fill="#EF4223"/>
<path d="M35.0063 37.6431C34.2453 36.8826 34.2453 35.932 35.0063 35.1715C35.3868 34.7913 35.7673 34.6012 36.1478 34.6012C36.5283 34.6012 36.9088 34.7913 37.2893 35.1715C37.8601 35.7419 38.0503 36.8826 37.2893 37.6431C36.7186 38.4035 35.577 38.4035 35.0063 37.6431Z" fill="#EF4223"/>
<path d="M12.1763 42.5861C12.5568 42.5861 12.9373 42.7762 13.3178 43.1564C13.8885 43.7268 14.0788 44.8675 13.3178 45.6279C12.747 46.1983 11.6055 46.3884 11.0348 45.6279C10.464 45.0576 10.464 43.9169 11.0348 43.3465C11.225 42.7762 11.6055 42.5861 12.1763 42.5861Z" fill="#EF4223"/>
<path d="M2.28315 36.6924C1.52215 35.9319 1.52215 34.9813 2.28315 34.2209C2.66365 33.8406 3.04416 33.6505 3.42466 33.6505C3.80516 33.6505 4.18566 33.8406 4.56616 34.2209C5.13691 34.7912 5.32716 35.9319 4.56616 36.6924C3.99541 37.2627 2.85391 37.2627 2.28315 36.6924Z" fill="#EF4223"/>
<path d="M19.7861 54.1831C19.0251 53.4226 19.0251 52.4721 19.7861 51.7116C20.1666 51.3314 20.5471 51.1412 20.9276 51.1412C21.3081 51.1412 21.6886 51.3314 22.0691 51.7116C22.6398 52.2819 22.8301 53.4226 22.0691 54.1831C21.4983 54.7534 20.3568 54.7534 19.7861 54.1831Z" fill="#EF4223"/>
<path d="M35.0062 1.90112C35.3867 1.90112 35.7672 2.09124 36.1477 2.28136C36.7185 2.85171 36.9087 3.99241 36.1477 4.75287C35.577 5.32322 34.4355 5.51334 33.8647 4.75287C33.294 4.18252 33.1037 3.04182 33.8647 2.47147C34.055 2.09124 34.6257 1.90112 35.0062 1.90112Z" fill="#EF4223"/>
<path d="M51.5581 18.4413C51.9386 18.4413 52.5093 18.6314 52.6996 19.0116C53.2703 19.582 53.4606 20.7227 52.6996 21.4832C52.1288 22.0535 50.9873 22.2436 50.4166 21.4832C49.8458 20.9128 49.8458 19.7721 50.4166 19.2018C50.7971 18.6314 51.1776 18.4413 51.5581 18.4413Z" fill="#EF4223"/>
<path d="M43.187 10.2661C43.5675 10.2661 43.948 10.4562 44.3285 10.8365C44.8993 11.4068 45.0895 12.5475 44.3285 13.308C43.7577 13.8783 42.6162 14.0684 42.0455 13.308C41.4747 12.7376 41.4747 11.5969 42.0455 11.0266C42.426 10.4562 42.8065 10.2661 43.187 10.2661Z" fill="#EF4223"/>
<path d="M59.9289 26.8065C60.3094 26.8065 60.8802 26.9966 61.0704 27.3769C61.6412 27.9472 61.8314 29.0879 61.0704 29.8484C60.4997 30.4187 59.3582 30.6088 58.7874 29.8484C58.2167 29.278 58.2167 28.1373 58.7874 27.567C58.9777 26.9966 59.5484 26.8065 59.9289 26.8065Z" fill="#EF4223"/>
<path d="M68.1098 35.1715C68.4904 35.1715 68.8709 35.3616 69.2514 35.7419C69.8221 36.3122 70.0124 37.4529 69.2514 38.2134C68.6806 38.7837 67.5391 38.9738 66.9683 38.2134C66.3976 37.643 66.3976 36.5023 66.9683 35.932C67.3488 35.3616 67.7293 35.1715 68.1098 35.1715Z" fill="#EF4223"/>
<path d="M84.8518 51.7117C85.2323 51.7117 85.8031 51.9018 85.9933 52.282C86.5641 52.8524 86.7543 53.9931 85.9933 54.7535C85.4225 55.3239 84.281 55.514 83.7103 54.7535C83.1395 54.1832 83.1395 53.0425 83.7103 52.4721C83.9005 51.9018 84.4713 51.7117 84.8518 51.7117Z" fill="#EF4223"/>
<path d="M76.4808 43.3466C76.8613 43.3466 77.2418 43.5367 77.6223 43.7268C78.1931 44.2971 78.3833 45.4378 77.6223 46.1983C77.0516 46.7687 75.9101 46.9588 75.3393 46.1983C74.7686 45.628 74.5783 44.4873 75.3393 43.9169C75.7198 43.5367 76.1003 43.3466 76.4808 43.3466Z" fill="#EF4223"/>
<defs>
<radialGradient id="paint0_radial" cx="0" cy="0" r="1" gradientUnits="userSpaceOnUse" gradientTransform="translate(143.117 130.435) scale(87.6903 87.6286)">
<stop stop-color="#754C29"/>
<stop offset="1" stop-color="white"/>
</radialGradient>
</defs>
</svg>
