<svg width="200" height="200" viewBox="0 0 200 200" fill="none" xmlns="http://www.w3.org/2000/svg">
<circle cx="100" cy="100" r="100" fill="#F4F4FB"/>
<g clip-path="url(#clip0)">
<path d="M182.065 172.606H35.9347C33.3991 172.606 31.3438 170.55 31.3438 168.015V163.94C31.3438 162.872 32.2097 162.006 33.2775 162.006H184.723C185.791 162.006 186.656 162.872 186.656 163.94V168.015C186.656 170.55 184.601 172.606 182.065 172.606Z" fill="#C7C7C7"/>
<path d="M171.116 80.0603H46.884C43.7281 80.0603 41.1696 82.6187 41.1696 85.7747V162.006H176.83V85.7747C176.83 82.6187 174.272 80.0603 171.116 80.0603Z" fill="#C7C7C7"/>
<path d="M51.1696 162.006V92.6784C51.1696 91.2325 52.3418 90.0603 53.7877 90.0603H164.212C165.658 90.0603 166.83 91.2325 166.83 92.6784V162.006H51.1696Z" fill="#F0F0F4"/>
<path d="M184.723 162.006H175.348C176.416 162.006 177.281 162.872 177.281 163.94V168.015C177.281 170.551 175.226 172.606 172.69 172.606H182.065C184.601 172.606 186.656 170.55 186.656 168.015V163.94C186.656 162.872 185.79 162.006 184.723 162.006Z" fill="#C7C7C7"/>
<path d="M171.116 80.0603H161.741C164.897 80.0603 167.455 82.6187 167.455 85.7747V162.006H176.83V85.7747C176.83 82.6187 174.272 80.0603 171.116 80.0603Z" fill="#C7C7C7"/>
<path d="M164.212 90.0603H154.837C156.283 90.0603 157.455 91.2325 157.455 92.6784V162.006H166.83V92.6784C166.83 91.2325 165.658 90.0603 164.212 90.0603Z" fill="#C7C7C7"/>
<path d="M95.292 162.006H122.708V172.606H95.292V162.006Z" fill="#58595B"/>
<path d="M113.333 162.006H122.708V172.606H113.333V162.006Z" fill="#6F737B"/>
<path d="M148.283 53.8197H139.373C138.161 53.8197 137.178 52.8365 137.178 51.624V42.7147C137.178 41.5022 138.161 40.519 139.373 40.519H148.283C149.495 40.519 150.478 41.5022 150.478 42.7147V51.624C150.478 52.8365 149.495 53.8197 148.283 53.8197Z" fill="#FF8086"/>
<path d="M78.6267 60.0697H69.7173C68.5048 60.0697 67.5217 59.0865 67.5217 57.874V48.9647C67.5217 47.7522 68.5048 46.769 69.7173 46.769H78.6267C79.8392 46.769 80.8223 47.7522 80.8223 48.9647V57.874C80.8223 59.0865 79.8395 60.0697 78.6267 60.0697Z" fill="#FF8086"/>
<path d="M113.455 40.6947H104.545C103.333 40.6947 102.35 39.7115 102.35 38.499V29.5897C102.35 28.3772 103.333 27.394 104.545 27.394H113.455C114.667 27.394 115.65 28.3772 115.65 29.5897V38.499C115.65 39.7115 114.667 40.6947 113.455 40.6947Z" fill="#FFE07D"/>
<path d="M113.455 65.1525H104.545C103.333 65.1525 102.35 64.1693 102.35 62.9568V54.0475C102.35 52.835 103.333 51.8518 104.545 51.8518H113.455C114.667 51.8518 115.65 52.835 115.65 54.0475V62.9568C115.65 64.1696 114.667 65.1525 113.455 65.1525Z" fill="#FFE07D"/>
<path d="M113.455 115.807H104.545C103.333 115.807 102.35 114.824 102.35 113.612V104.702C102.35 103.49 103.333 102.507 104.545 102.507H113.455C114.667 102.507 115.65 103.49 115.65 104.702V113.612C115.65 114.824 114.667 115.807 113.455 115.807Z" fill="#FF8086"/>
<path d="M113.455 142.14H104.545C103.333 142.14 102.35 141.157 102.35 139.945V131.035C102.35 129.823 103.333 128.84 104.545 128.84H113.455C114.667 128.84 115.65 129.823 115.65 131.035V139.945C115.65 141.158 114.667 142.14 113.455 142.14Z" fill="#FFE07D"/>
<path d="M78.6267 119.645H69.7173C68.5048 119.645 67.5217 118.662 67.5217 117.449V108.54C67.5217 107.327 68.5048 106.344 69.7173 106.344H78.6267C79.8392 106.344 80.8223 107.327 80.8223 108.54V117.449C80.8223 118.662 79.8395 119.645 78.6267 119.645Z" fill="#FFE07D"/>
<path d="M78.6267 144.172H69.7173C68.5048 144.172 67.5217 143.189 67.5217 141.976V133.067C67.5217 131.854 68.5048 130.871 69.7173 130.871H78.6267C79.8392 130.871 80.8223 131.854 80.8223 133.067V141.976C80.8223 143.189 79.8395 144.172 78.6267 144.172Z" fill="#FFE07D"/>
<path d="M148.589 122.457H139.68C138.467 122.457 137.484 121.474 137.484 120.262V111.352C137.484 110.14 138.467 109.157 139.68 109.157H148.589C149.801 109.157 150.785 110.14 150.785 111.352V120.262C150.785 121.475 149.802 122.457 148.589 122.457Z" fill="#FFE07D"/>
<path d="M184.723 159.662H179.174V85.7747C179.174 81.3312 175.559 77.7165 171.116 77.7165H146.172V56.1634H148.283C150.786 56.1634 152.822 54.1272 152.822 51.624V42.7147C152.822 40.2119 150.786 38.1753 148.283 38.1753H139.374C136.871 38.1753 134.834 40.2115 134.834 42.7147V51.624C134.834 54.1269 136.871 56.1634 139.374 56.1634H141.484V77.7165H111.344V67.4962H113.455C115.958 67.4962 117.994 65.46 117.994 62.9569V54.0475C117.994 51.5444 115.958 49.5081 113.455 49.5081H111.344V43.0384H113.455C115.958 43.0384 117.994 41.0022 117.994 38.499V29.5897C117.994 27.0865 115.958 25.0503 113.455 25.0503H104.545C102.042 25.0503 100.006 27.0865 100.006 29.5897V38.499C100.006 41.0022 102.042 43.0384 104.545 43.0384H106.656V49.5084H104.545C102.042 49.5084 100.006 51.5447 100.006 54.0478V62.9572C100.006 65.46 102.042 67.4965 104.545 67.4965H106.656V77.7169H76.5159V62.4137H78.6266C81.1297 62.4137 83.1659 60.3775 83.1659 57.8744V48.965C83.1659 46.4622 81.1294 44.4256 78.6266 44.4256H69.7175C67.2144 44.4256 65.1781 46.4619 65.1781 48.965V57.8744C65.1781 60.3772 67.2144 62.4137 69.7175 62.4137H71.8284V77.7169H46.8841C42.4409 77.7169 38.8259 81.3315 38.8259 85.775V124.562C38.8259 125.857 39.8753 126.906 41.1697 126.906C42.4641 126.906 43.5134 125.857 43.5134 124.562V85.7747C43.5134 83.9162 45.0256 82.404 46.8841 82.404H106.656V87.7165H53.7878C51.0519 87.7165 48.8259 89.9425 48.8259 92.6784V159.662H43.5134V133.937C43.5134 132.643 42.4641 131.594 41.1697 131.594C39.8753 131.594 38.8259 132.643 38.8259 133.937V159.662H33.2775C30.9191 159.662 29 161.581 29 163.94V168.015C29 171.839 32.1109 174.95 35.9347 174.95H139.821C141.115 174.95 142.164 173.9 142.164 172.606C142.164 171.312 141.115 170.262 139.821 170.262H125.052V164.35H184.312V168.015C184.312 169.254 183.304 170.262 182.065 170.262H149.195C147.901 170.262 146.852 171.312 146.852 172.606C146.852 173.9 147.901 174.95 149.195 174.95H182.065C185.889 174.95 189 171.839 189 168.015V163.94C189 161.581 187.081 159.662 184.723 159.662ZM139.521 42.8628H148.134V51.4759H139.521V42.8628ZM104.693 29.7378H113.307V38.3509H104.693V29.7378ZM104.693 54.1959H113.307V62.809H104.693V54.1959ZM69.8656 49.1128H78.4784V57.7259H69.8656V49.1128ZM171.116 82.404C172.974 82.404 174.486 83.9159 174.486 85.7747V159.662H169.174V92.6784C169.174 89.9425 166.948 87.7165 164.212 87.7165H146.172V82.404H171.116ZM111.344 82.404H141.484V87.7165H111.344V82.404ZM53.5134 92.6784C53.5134 92.5272 53.6366 92.404 53.7878 92.404H106.656V100.163H104.545C102.042 100.163 100.006 102.199 100.006 104.702V113.612C100.006 116.115 102.042 118.151 104.545 118.151H113.455C115.958 118.151 117.994 116.115 117.994 113.612V104.702C117.994 102.2 115.958 100.163 113.455 100.163H111.344V92.404H141.484V98.2919C141.484 99.5862 142.533 100.636 143.828 100.636C145.122 100.636 146.172 99.5862 146.172 98.2919V92.404H164.212C164.363 92.404 164.486 92.5272 164.486 92.6784V159.662H53.5134V92.6784ZM113.307 104.851V113.463H104.693V104.851H113.307ZM33.6875 168.015V164.35H92.9481V170.262H35.9347C34.6956 170.262 33.6875 169.254 33.6875 168.015ZM120.364 170.262H97.6356V164.35H120.364V170.262Z" fill="#204BB9"/>
<path d="M113.455 126.496H104.545C102.042 126.496 100.006 128.532 100.006 131.036V139.945C100.006 142.448 102.042 144.484 104.545 144.484H113.455C115.958 144.484 117.994 142.448 117.994 139.945V131.036C117.994 128.532 115.958 126.496 113.455 126.496ZM113.307 139.797H104.694V131.184H113.307V139.797Z" fill="#204BB9"/>
<path d="M78.6267 104.001H69.7177C67.2145 104.001 65.1783 106.037 65.1783 108.54V117.449C65.1783 119.952 67.2145 121.989 69.7177 121.989H71.8286V128.528H69.7177C67.2145 128.528 65.1783 130.564 65.1783 133.067V141.977C65.1783 144.479 67.2145 146.516 69.7177 146.516H78.6267C81.1298 146.516 83.1661 144.48 83.1661 141.977V133.067C83.1661 130.564 81.1295 128.528 78.6267 128.528H76.5161V121.989H78.6267C81.1298 121.989 83.1661 119.952 83.1661 117.449V108.54C83.1661 106.037 81.1298 104.001 78.6267 104.001ZM78.4786 141.828H69.8658V133.215H78.4786V141.828ZM78.4786 117.301H69.8658V108.688H78.4786V117.301Z" fill="#204BB9"/>
<path d="M148.589 106.813H139.68C137.177 106.813 135.141 108.85 135.141 111.353V120.262C135.141 122.765 137.177 124.801 139.68 124.801H148.589C151.092 124.801 153.128 122.765 153.128 120.262V111.353C153.128 108.85 151.092 106.813 148.589 106.813ZM148.441 120.114H139.828V111.501H148.441V120.114Z" fill="#204BB9"/>
</g>
<defs>
<clipPath id="clip0">
<rect width="160" height="160" fill="white" transform="translate(29 20)"/>
</clipPath>
</defs>
</svg>
