<svg width="299" height="288" viewBox="0 0 299 288" fill="none" xmlns="http://www.w3.org/2000/svg">
<path d="M50.3185 186.842C50.3185 151.06 69.2847 119.726 97.5404 102.125C97.1534 67.3096 114.958 33.268 147.278 14.6998C100.443 -9.86433 41.9966 6.76965 15.0955 53.1901C-12.1926 100.384 3.67709 160.731 50.3185 188.583C50.512 188.003 50.3185 187.422 50.3185 186.842Z" fill="#EF4223"/>
<path d="M149.988 87.2319C168.567 87.2319 185.985 92.4542 201.08 101.351C200.5 67.5032 182.695 34.8155 151.149 16.8276C149.988 16.0539 148.633 15.4736 147.472 14.7C115.152 33.2681 97.3469 67.3098 97.734 102.125C112.83 92.841 130.828 87.2319 149.988 87.2319Z" fill="#D83926"/>
<path d="M149.988 87.2317C130.828 87.2317 112.83 92.6474 97.5405 102.125C97.7341 118.565 101.992 135.393 110.894 150.673C120.764 167.694 134.892 180.653 151.149 189.163C165.858 180.846 178.631 168.467 187.727 152.801C197.016 136.553 201.274 118.759 201.08 101.351C185.985 92.454 168.567 87.2317 149.988 87.2317Z" fill="#D22317"/>
<path d="M110.894 150.673C101.992 135.393 97.7339 118.566 97.5403 102.125C69.2846 119.726 50.3184 151.06 50.3184 186.842C50.3184 187.423 50.3184 188.003 50.3184 188.39C50.7054 188.583 51.0925 188.776 51.4796 189.163C83.4124 207.538 121.151 206.378 150.955 189.163C134.892 180.846 120.764 167.694 110.894 150.673Z" fill="#E5291B"/>
<path d="M201.08 101.351C201.467 118.759 197.016 136.553 187.727 152.8C178.631 168.467 165.857 180.846 151.149 189.356C180.372 204.443 216.369 205.023 246.948 187.229C247.915 186.649 248.689 186.262 249.463 185.681C249.27 149.706 229.723 118.565 201.08 101.351Z" fill="#E07E2A"/>
<path d="M283.525 51.0625C256.044 3.48154 195.081 -12.7656 147.472 14.5064C148.827 15.0866 149.988 15.8603 151.149 16.634C182.501 34.8153 200.306 67.503 200.887 101.158C229.723 118.372 249.077 149.512 249.464 185.488C295.331 157.443 310.426 97.8697 283.525 51.0625Z" fill="#E9DAC8"/>
<path d="M246.948 187.229C216.369 204.83 180.179 204.443 151.149 189.357C121.345 206.571 83.4125 207.731 51.6732 189.357C51.2861 189.163 50.899 188.97 50.512 188.583C51.2861 242.74 95.6051 286.453 150.181 286.453C205.145 286.453 249.851 241.966 249.851 186.842C249.851 186.455 249.851 186.069 249.851 185.488C248.689 186.069 247.915 186.649 246.948 187.229Z" fill="#F7931E"/>
<path d="M119.445 149.126C129.216 166.34 151.057 172.336 168.108 162.278C185.159 152.414 191.098 130.364 181.136 113.15C171.365 95.9355 149.524 89.9395 132.473 99.9973C115.422 109.862 109.483 131.911 119.445 149.126ZM176.154 116.051C184.392 130.364 179.411 148.932 165.234 157.249C151.057 165.566 132.665 160.537 124.427 146.224C116.188 131.911 121.17 113.343 135.347 105.026C149.524 96.7092 167.916 101.738 176.154 116.051Z" fill="white"/>
<path d="M156.038 108.508L154.888 112.956C150.29 111.796 145.309 112.376 141.094 114.891C134.58 118.759 131.132 125.915 132.09 133.072C132.281 135.199 134.772 136.553 136.688 135.393H136.879C138.029 134.813 138.412 133.459 138.412 132.298C137.837 127.656 140.136 122.821 144.351 120.306C147.033 118.759 150.29 118.372 153.356 118.952L152.206 123.208C151.823 124.561 153.356 125.722 154.505 124.948L165.042 118.759L158.912 108.121C158.337 106.96 156.421 107.154 156.038 108.508ZM146.459 148.739C151.057 149.899 156.038 149.319 160.253 146.805C166.767 142.936 170.024 135.78 169.257 128.623C169.066 126.496 166.575 125.142 164.659 126.302H164.468C163.318 126.882 162.935 128.236 162.935 129.397C163.51 134.039 161.211 138.874 156.996 141.389C154.314 142.936 151.057 143.323 147.991 142.743L149.141 138.488C149.524 137.134 147.991 135.973 146.842 136.747L136.305 142.936L142.435 153.574C143.202 154.735 144.926 154.541 145.309 153.187L146.459 148.739Z" fill="white"/>
<path d="M117.53 280.457C117.338 280.457 117.338 280.457 117.146 280.457C116.188 280.263 115.614 279.49 115.805 278.523C115.997 277.555 116.955 276.975 117.721 277.169C118.679 277.362 119.254 278.329 119.062 279.103C119.062 279.876 118.296 280.457 117.53 280.457ZM120.02 268.852C119.829 268.852 119.829 268.852 119.637 268.852C118.679 268.658 118.104 267.885 118.296 266.917C118.487 265.95 119.445 265.37 120.212 265.563C121.17 265.757 121.744 266.724 121.553 267.498C121.553 268.271 120.786 268.852 120.02 268.852ZM122.511 257.053C122.319 257.053 122.319 257.053 122.128 257.053C121.17 256.86 120.595 256.086 120.786 255.119C120.978 254.152 121.936 253.572 122.702 253.765C123.66 253.958 124.235 254.925 124.043 255.699C124.043 256.473 123.277 257.053 122.511 257.053ZM125.001 245.448C124.81 245.448 124.81 245.448 124.618 245.448C123.66 245.255 123.085 244.481 123.277 243.514C123.469 242.547 124.427 241.966 125.193 242.16C126.151 242.353 126.726 243.32 126.534 244.094C126.534 244.868 125.768 245.448 125.001 245.448ZM127.492 233.843C127.3 233.843 127.3 233.843 127.109 233.843C126.151 233.649 125.576 232.876 125.768 231.909C125.959 230.942 126.917 230.361 127.683 230.555C128.641 230.748 129.216 231.715 129.025 232.489C129.025 233.263 128.258 233.843 127.492 233.843ZM129.982 222.044C129.791 222.044 129.791 222.044 129.599 222.044C128.641 221.851 128.067 221.077 128.258 220.11C128.45 219.143 129.408 218.563 130.174 218.756C131.132 218.95 131.707 219.917 131.515 220.69C131.515 221.464 130.749 222.044 129.982 222.044ZM132.473 210.439C132.281 210.439 132.282 210.439 132.09 210.439C131.132 210.246 130.557 209.472 130.749 208.505C130.94 207.538 131.898 206.958 132.665 207.151C133.623 207.345 134.197 208.312 134.006 209.085C134.006 209.859 133.431 210.439 132.473 210.439ZM135.155 198.834C134.964 198.834 134.964 198.834 134.772 198.834C133.814 198.641 133.239 197.867 133.431 196.9C133.623 195.933 134.581 195.353 135.347 195.546C136.305 195.739 136.88 196.707 136.688 197.48C136.496 198.254 135.922 198.834 135.155 198.834ZM137.646 187.036C137.454 187.036 137.454 187.036 137.263 187.036C136.305 186.842 135.73 186.069 135.922 185.101C136.113 184.134 137.071 183.554 137.837 183.748C138.795 183.941 139.37 184.908 139.179 185.682C138.987 186.455 138.412 187.036 137.646 187.036Z" fill="white"/>
<path d="M86.8761 243.32C86.6845 243.32 86.3014 243.32 86.1098 243.127C85.3434 242.74 84.9603 241.773 85.3434 240.806C85.7266 240.032 86.8761 239.645 87.6424 240.226C88.4088 240.613 88.792 241.773 88.2172 242.547C88.2172 242.934 87.6424 243.32 86.8761 243.32ZM92.6236 232.876C92.4321 232.876 92.0489 232.876 91.8573 232.682C91.091 232.296 90.7078 231.328 91.091 230.361C91.4741 229.588 92.6236 229.201 93.39 229.781C94.1563 230.168 94.5395 231.329 93.9647 232.102C93.9647 232.489 93.1984 232.876 92.6236 232.876ZM98.3712 222.431C98.1796 222.431 97.7964 222.431 97.6048 222.238C96.8385 221.851 96.4553 220.884 96.8385 219.917C97.2217 219.143 98.3712 218.756 99.1375 219.337C99.9038 219.723 100.287 220.884 99.7123 221.658C99.5207 222.044 98.9459 222.431 98.3712 222.431ZM104.119 211.987C103.927 211.987 103.544 211.987 103.352 211.793C102.586 211.406 102.203 210.439 102.586 209.472C102.969 208.699 104.119 208.312 104.885 208.892C105.651 209.279 106.035 210.439 105.46 211.213C105.268 211.6 104.693 211.987 104.119 211.987ZM109.866 201.542C109.675 201.542 109.291 201.542 109.1 201.349C108.334 200.962 107.95 199.995 108.334 199.028C108.717 198.254 109.866 197.867 110.633 198.447C111.399 198.834 111.782 199.995 111.207 200.768C111.016 201.155 110.441 201.542 109.866 201.542ZM115.614 191.097C115.422 191.097 115.039 191.097 114.847 190.904C114.081 190.517 113.698 189.55 114.081 188.583C114.464 187.809 115.614 187.423 116.38 188.003C117.146 188.39 117.53 189.55 116.955 190.324C116.763 190.711 116.189 191.097 115.614 191.097Z" fill="white"/>
<path d="M61.0122 213.727C60.629 213.727 60.0543 213.534 59.8627 213.147C59.288 212.373 59.288 211.406 59.8627 210.826C60.629 210.246 61.587 210.246 62.1617 211.019C62.7365 211.793 62.7365 212.76 61.9701 213.34C61.9701 213.534 61.587 213.727 61.0122 213.727ZM69.8251 205.797C69.4419 205.797 68.8672 205.604 68.6756 205.217C68.1008 204.443 68.1008 203.476 68.6756 202.896C69.4419 202.316 70.3998 202.316 70.9746 203.089C71.5493 203.863 71.5493 204.83 70.783 205.41C70.783 205.604 70.2083 205.797 69.8251 205.797ZM78.638 197.674C78.2548 197.674 77.68 197.48 77.4885 197.093C76.9137 196.32 76.9137 195.352 77.4885 194.772C78.2548 194.192 79.2127 194.192 79.7875 194.966C80.3622 195.739 80.3622 196.706 79.5959 197.287C79.4043 197.674 79.0211 197.674 78.638 197.674ZM87.4508 189.743C87.0677 189.743 86.4929 189.55 86.3013 189.163C85.7266 188.389 85.7266 187.422 86.3013 186.842C87.0677 186.262 88.0256 186.262 88.6004 187.035C89.1751 187.809 89.1751 188.776 88.4088 189.357C88.2172 189.55 87.834 189.743 87.4508 189.743ZM96.2637 181.62C95.8806 181.62 95.3058 181.426 95.1142 181.04C94.5395 180.266 94.5395 179.299 95.1142 178.719C95.8806 178.138 96.8385 178.138 97.4132 178.912C97.988 179.686 97.988 180.653 97.2216 181.233C97.0301 181.62 96.6469 181.62 96.2637 181.62ZM104.885 173.69C104.502 173.69 103.927 173.496 103.736 173.109C103.161 172.336 103.161 171.369 103.736 170.788C104.502 170.208 105.46 170.208 106.035 170.982C106.609 171.755 106.609 172.723 105.843 173.303C105.843 173.496 105.46 173.69 104.885 173.69ZM113.698 165.759C113.315 165.759 112.74 165.566 112.548 165.179C111.974 164.406 111.974 163.438 112.548 162.858C113.315 162.278 114.273 162.278 114.847 163.052C115.422 163.825 115.422 164.792 114.656 165.373C114.464 165.566 114.081 165.759 113.698 165.759Z" fill="white"/>
<path d="M41.0875 184.715C40.5128 184.715 39.7464 184.328 39.5549 183.748C39.1717 182.974 39.5549 182.007 40.3212 181.62C41.0875 181.233 42.237 181.62 42.6202 182.394C43.0034 183.167 42.6202 184.328 41.8539 184.715C41.4707 184.715 41.2791 184.715 41.0875 184.715ZM51.8163 179.686C51.2415 179.686 50.4752 179.299 50.2836 178.719C49.9004 177.945 50.2836 176.978 51.0499 176.591C51.8163 176.204 52.9658 176.591 53.3489 177.365C53.7321 178.138 53.3489 179.299 52.5826 179.686C52.391 179.686 52.0078 179.686 51.8163 179.686ZM62.545 174.85C61.9702 174.85 61.2039 174.463 61.0123 173.883C60.6291 173.11 61.0123 172.142 61.7786 171.756C62.545 171.369 63.6945 171.756 64.0776 172.529C64.4608 173.303 64.0776 174.463 63.3113 174.85C63.1197 174.657 62.9281 174.85 62.545 174.85ZM73.2737 169.821C72.6989 169.821 71.9326 169.435 71.741 168.854C71.3579 168.081 71.741 167.114 72.5074 166.727C73.2737 166.34 74.4232 166.727 74.8064 167.5C75.1895 168.274 74.8064 169.435 74.04 169.821C73.8484 169.821 73.6569 169.821 73.2737 169.821Z" fill="white"/>
<path d="M18.8637 156.862C18.0974 156.862 17.3311 156.282 17.1395 155.508C16.9479 154.541 17.5227 153.768 18.4806 153.574C19.4385 153.381 20.3964 153.961 20.3964 154.928C20.588 155.895 20.0133 156.669 19.0553 156.862H18.8637ZM30.5504 154.928C29.7841 154.928 29.0177 154.348 28.8261 153.574C28.6345 152.607 29.2093 151.833 30.1672 151.64C31.1251 151.447 32.0831 152.027 32.0831 152.994C32.2747 153.961 31.6999 154.735 30.742 154.928H30.5504ZM42.0454 152.801C41.2791 152.801 40.5128 152.22 40.3212 151.447C40.1296 150.48 40.7044 149.706 41.6623 149.512C42.6202 149.319 43.5781 149.899 43.5781 150.866C43.7697 151.833 43.195 152.607 42.237 152.801C42.237 152.801 42.237 152.801 42.0454 152.801ZM53.7321 150.673C52.9658 150.673 52.1994 150.093 52.0078 149.319C51.8162 148.352 52.391 147.578 53.3489 147.385C54.3068 147.191 55.2648 147.772 55.2648 148.739C55.4563 149.706 54.8816 150.48 53.9237 150.673C53.9237 150.673 53.9237 150.673 53.7321 150.673ZM65.4187 148.545C64.6524 148.545 63.8861 147.965 63.6945 147.191C63.5029 146.224 64.0776 145.451 65.0356 145.257C65.9935 145.064 66.9514 145.644 66.9514 146.611C67.143 147.578 66.5682 148.352 65.6103 148.545C65.6103 148.545 65.6103 148.545 65.4187 148.545ZM77.1054 146.611C76.339 146.611 75.5727 146.031 75.3811 145.257C75.1895 144.29 75.7643 143.516 76.7222 143.323C77.6801 143.13 78.6381 143.71 78.6381 144.677C78.8296 145.644 78.2549 146.418 77.297 146.611H77.1054ZM88.792 144.484C88.0257 144.484 87.2593 143.903 87.0678 143.13C86.8762 142.163 87.4509 141.389 88.4088 141.195C89.3668 141.002 90.3247 141.582 90.3247 142.549C90.5163 143.516 89.9415 144.29 88.9836 144.484H88.792ZM100.287 142.356C99.5207 142.356 98.7544 141.776 98.5628 141.002C98.3712 140.035 98.946 139.261 99.9039 139.068C100.862 138.874 101.82 139.455 101.82 140.422C102.011 141.389 101.437 142.163 100.479 142.356C100.67 142.356 100.479 142.356 100.287 142.356Z" fill="white"/>
<path d="M204.126 265.177C203.551 265.177 202.976 264.79 202.593 264.21C202.21 263.436 202.593 262.275 203.551 262.082C204.317 261.695 205.467 262.082 205.658 263.049C206.042 263.823 205.658 264.983 204.701 265.37C204.701 264.983 204.509 265.177 204.126 265.177ZM199.719 254.152C199.145 254.152 198.57 253.765 198.187 253.185C197.803 252.411 198.187 251.251 199.145 251.057C199.911 250.67 201.06 251.057 201.252 252.024C201.635 252.798 201.252 253.958 200.294 254.345C200.102 253.958 199.911 254.152 199.719 254.152ZM195.121 243.127C194.547 243.127 193.972 242.74 193.589 242.16C193.205 241.386 193.589 240.226 194.547 240.032C195.313 239.645 196.462 240.032 196.654 240.999C197.037 241.773 196.654 242.934 195.696 243.32C195.504 242.934 195.313 243.127 195.121 243.127ZM190.523 232.102C189.949 232.102 189.374 231.715 188.991 231.135C188.607 230.361 188.991 229.201 189.949 229.007C190.715 228.621 191.864 229.007 192.056 229.975C192.439 230.748 192.056 231.909 191.098 232.296C190.906 232.102 190.715 232.102 190.523 232.102ZM185.925 221.077C185.35 221.077 184.776 220.69 184.393 220.11C184.009 219.336 184.393 218.176 185.35 217.983C186.117 217.596 187.266 217.983 187.458 218.95C187.841 219.723 187.458 220.884 186.5 221.271C186.308 221.077 186.117 221.077 185.925 221.077ZM181.327 210.052C180.752 210.052 180.178 209.666 179.795 209.085C179.411 208.312 179.795 207.151 180.752 206.958C181.519 206.571 182.668 206.958 182.86 207.925C183.051 208.892 182.86 209.859 181.902 210.246C181.71 210.052 181.519 210.052 181.327 210.052ZM176.729 199.028C176.154 199.028 175.58 198.641 175.197 198.06C174.813 197.287 175.197 196.126 176.154 195.933C176.921 195.546 178.07 195.933 178.262 196.9C178.453 197.867 178.262 198.834 177.304 199.221C177.112 199.028 176.921 199.028 176.729 199.028ZM172.131 188.003C171.556 188.003 170.982 187.616 170.598 187.036C170.215 186.262 170.598 185.101 171.556 184.908C172.323 184.521 173.472 184.908 173.664 185.875C173.855 186.842 173.664 187.809 172.706 188.196C172.706 188.003 172.323 188.003 172.131 188.003Z" fill="white"/>
<path d="M234.396 238.485C234.013 238.485 233.438 238.291 233.055 237.905C232.48 237.131 232.672 236.164 233.246 235.584C234.013 235.003 234.971 235.197 235.545 235.777C236.12 236.357 236.12 237.518 235.354 238.098C235.162 238.291 234.779 238.485 234.396 238.485ZM227.116 229.007C226.732 229.007 226.158 228.814 225.775 228.427C225.2 227.653 225.391 226.686 225.966 226.106C226.732 225.526 227.69 225.719 228.265 226.3C228.84 227.073 228.648 228.04 228.074 228.621C227.69 229.007 227.499 229.007 227.116 229.007ZM219.644 219.723C219.069 219.723 218.686 219.53 218.303 219.143C217.728 218.369 217.92 217.402 218.686 216.822C219.452 216.242 220.41 216.435 220.985 217.209C221.56 217.983 221.368 219.143 220.793 219.53C220.41 219.53 220.027 219.723 219.644 219.723ZM212.364 210.439C211.981 210.439 211.406 210.246 211.023 209.859C210.448 209.085 210.639 208.118 211.214 207.538C211.981 206.958 212.938 207.151 213.513 207.731C214.088 208.505 213.896 209.472 213.322 210.052C213.13 210.246 212.747 210.439 212.364 210.439ZM205.083 200.962C204.7 200.962 204.126 200.768 203.742 200.381C203.168 199.608 203.359 198.641 203.934 198.06C204.7 197.48 205.658 197.674 206.233 198.254C206.808 199.028 206.616 199.995 206.041 200.575C205.658 200.768 205.275 200.962 205.083 200.962ZM197.612 191.678C197.229 191.678 196.654 191.484 196.271 191.097C195.696 190.324 195.887 189.357 196.462 188.776C197.229 188.196 198.186 188.39 198.761 188.97C199.336 189.55 199.336 190.711 198.57 191.291C198.378 191.484 197.995 191.678 197.612 191.678Z" fill="white"/>
<path d="M244.167 198.06C243.784 198.06 243.592 198.06 243.209 197.867C242.442 197.287 242.251 196.32 242.826 195.546C243.4 194.772 244.358 194.579 245.125 195.159C245.891 195.739 246.083 196.707 245.699 197.48C245.316 197.867 244.741 198.06 244.167 198.06ZM234.396 191.484C234.013 191.484 233.821 191.484 233.438 191.291C232.672 190.711 232.48 189.743 233.055 188.97C233.63 188.196 234.588 188.003 235.354 188.583C236.12 189.163 236.312 190.13 235.929 190.904C235.354 191.097 234.971 191.484 234.396 191.484ZM224.625 184.715C224.242 184.715 224.05 184.715 223.667 184.328C222.901 183.747 222.709 182.78 223.284 182.007C223.859 181.233 224.817 181.04 225.583 181.62C226.349 182.2 226.541 183.167 225.966 183.941C225.583 184.521 225.2 184.715 224.625 184.715ZM214.854 178.138C214.471 178.138 214.28 178.138 213.896 177.945C213.13 177.365 212.938 176.398 213.513 175.624C214.088 174.85 215.046 174.657 215.812 175.237C216.579 175.817 216.77 176.784 216.387 177.558C215.812 177.752 215.237 178.138 214.854 178.138ZM205.084 171.369C204.7 171.369 204.509 171.369 204.126 171.175C203.359 170.595 203.168 169.628 203.742 168.854C204.317 168.081 205.275 167.887 206.041 168.467C206.808 169.048 206.999 170.015 206.616 170.788C206.041 171.175 205.467 171.369 205.084 171.369ZM195.121 164.599C194.738 164.599 194.546 164.599 194.163 164.406C193.397 163.825 193.205 162.858 193.78 162.085C194.355 161.311 195.313 161.118 196.079 161.698C196.845 162.278 197.037 163.245 196.654 164.019C196.271 164.406 195.696 164.599 195.121 164.599ZM185.35 158.023C184.967 158.023 184.776 158.023 184.392 157.829C183.626 157.249 183.434 156.282 184.009 155.508C184.584 154.735 185.542 154.541 186.308 155.122C187.075 155.702 187.266 156.669 186.883 157.443C186.5 157.636 185.925 158.023 185.35 158.023Z" fill="white"/>
<path d="M263.9 173.496C263.708 173.496 263.517 173.496 263.325 173.496C262.367 173.109 261.984 172.142 262.367 171.369C262.75 170.402 263.708 170.015 264.475 170.402C265.433 170.788 265.816 171.755 265.624 172.529C265.049 173.109 264.475 173.496 263.9 173.496ZM252.596 169.628C252.405 169.628 252.213 169.628 252.022 169.628C251.064 169.241 250.681 168.274 251.064 167.5C251.447 166.533 252.405 166.146 253.171 166.533C254.129 166.92 254.512 167.887 254.321 168.661C253.938 169.241 253.363 169.628 252.596 169.628ZM241.485 165.76C241.293 165.76 241.101 165.76 240.91 165.76C239.952 165.373 239.569 164.406 239.952 163.632C240.335 162.665 241.293 162.278 242.059 162.665C243.017 163.052 243.4 164.019 243.209 164.792C242.826 165.179 242.251 165.76 241.485 165.76ZM230.373 161.698C230.181 161.698 229.989 161.698 229.798 161.698C228.84 161.311 228.457 160.344 228.84 159.57C229.223 158.603 230.181 158.216 230.947 158.603C231.905 158.99 232.288 159.957 232.097 160.731C231.522 161.311 230.947 161.698 230.373 161.698ZM219.069 157.829C218.878 157.829 218.686 157.829 218.494 157.829C217.536 157.443 217.153 156.475 217.536 155.702C217.92 154.735 218.878 154.348 219.644 154.735C220.602 155.121 220.985 156.089 220.793 156.862C220.41 157.443 219.835 157.829 219.069 157.829Z" fill="white"/>
<path d="M276.353 145.644H276.161C275.204 145.644 274.629 144.677 274.629 143.71C274.629 142.743 275.587 142.163 276.545 142.163C277.503 142.163 278.269 143.13 278.077 144.097C277.886 144.87 277.311 145.644 276.353 145.644ZM264.666 144.29C264.475 144.29 264.475 144.29 264.666 144.29H264.475C263.517 144.29 262.942 143.323 262.942 142.356C262.942 141.389 263.9 140.809 264.858 140.809C265.816 140.809 266.582 141.776 266.391 142.743C266.199 143.517 265.433 144.29 264.666 144.29ZM252.788 142.936H252.597C251.639 142.743 251.064 141.969 251.064 141.002C251.255 140.035 252.022 139.455 252.98 139.455C253.938 139.648 254.512 140.422 254.512 141.389C254.321 142.356 253.746 142.936 252.788 142.936ZM241.102 141.582H240.91C239.952 141.389 239.377 140.615 239.377 139.648C239.569 138.681 240.335 138.101 241.293 138.101C242.251 138.294 242.826 139.068 242.826 140.035C242.634 141.002 241.868 141.582 241.102 141.582ZM229.415 140.228C229.223 140.228 229.223 140.228 229.415 140.228H229.223C228.265 140.228 227.691 139.261 227.691 138.294C227.691 137.327 228.649 136.747 229.606 136.747C230.564 136.747 231.331 137.714 231.139 138.681C230.948 139.648 230.181 140.228 229.415 140.228ZM217.537 139.068H217.345C216.387 139.068 215.812 138.101 215.812 137.134C215.812 136.167 216.77 135.586 217.728 135.586C218.686 135.586 219.452 136.553 219.261 137.521C219.069 138.294 218.495 139.068 217.537 139.068ZM205.85 137.714H205.658C204.7 137.521 204.126 136.747 204.126 135.78C204.317 134.813 205.084 134.232 206.042 134.232C206.999 134.426 207.574 135.2 207.574 136.167C207.383 137.134 206.616 137.714 205.85 137.714Z" fill="white"/>
<path d="M198.953 110.248C198.378 110.248 197.803 109.862 197.42 109.281C197.037 108.508 197.42 107.347 198.186 106.96C198.953 106.574 200.102 106.96 200.485 107.734C200.869 108.508 200.485 109.475 199.719 110.055C199.528 110.055 199.336 110.248 198.953 110.248ZM209.681 105.026C209.107 105.026 208.532 104.639 208.149 104.059C207.766 103.285 208.149 102.125 208.915 101.738C209.681 101.351 210.831 101.738 211.214 102.512C211.597 103.285 211.214 104.252 210.448 104.833C210.256 105.026 210.065 105.026 209.681 105.026ZM220.41 99.9973C219.835 99.9973 219.069 99.6105 218.878 99.0302C218.494 98.2565 218.878 97.096 219.644 96.7092C220.41 96.3223 221.56 96.7092 221.943 97.4829C222.326 98.2565 221.943 99.2236 221.177 99.6105C220.985 99.9973 220.602 99.9973 220.41 99.9973ZM231.139 94.9684C230.564 94.9684 229.798 94.5816 229.606 94.0013C229.223 93.2276 229.606 92.0671 230.373 91.6803C231.139 91.2935 232.288 91.6803 232.672 92.454C233.055 93.2276 232.672 94.1947 231.905 94.5816C231.714 94.775 231.331 94.9684 231.139 94.9684ZM241.868 89.7461C241.293 89.7461 240.718 89.3593 240.335 88.779C239.952 88.0054 240.335 86.8448 241.101 86.458C241.868 86.0712 243.017 86.458 243.4 87.2317C243.784 88.0054 243.4 88.9724 242.634 89.5527C242.251 89.7461 242.059 89.7461 241.868 89.7461ZM252.596 84.7172C252.022 84.7172 251.447 84.3304 251.064 83.7501C250.681 82.9765 251.064 81.816 251.83 81.4291C252.596 81.0423 253.746 81.4291 254.129 82.2028C254.512 82.9765 254.129 83.9436 253.363 84.5238C252.98 84.7172 252.788 84.7172 252.596 84.7172ZM263.325 79.6884C262.75 79.6884 262.176 79.3015 261.792 78.7213C261.409 77.9476 261.792 76.7871 262.559 76.4002C263.325 76.0134 264.475 76.4002 264.858 77.1739C265.241 77.9476 264.858 78.9147 264.091 79.4949C263.708 79.6884 263.517 79.6884 263.325 79.6884ZM274.054 74.4661C273.479 74.4661 272.904 74.0792 272.521 73.499C272.138 72.7253 272.521 71.5648 273.288 71.1779C274.054 70.7911 275.203 71.178 275.587 71.9516C275.97 72.7253 275.586 73.6924 274.82 74.2726C274.437 74.4661 274.245 74.4661 274.054 74.4661ZM284.591 69.4372C284.016 69.4372 283.441 69.0504 283.058 68.4701C282.675 67.6964 283.058 66.5359 283.825 66.1491C284.591 65.7622 285.74 66.1491 286.124 66.9227C286.507 67.6964 286.124 68.6635 285.357 69.2438C285.166 69.4372 284.974 69.4372 284.591 69.4372Z" fill="white"/>
<path d="M196.846 90.9068C196.462 90.9068 195.888 90.7134 195.504 90.3265C194.93 89.5528 194.93 88.5858 195.696 88.0055C196.462 87.4252 197.42 87.4252 198.187 88.1989C198.761 88.9726 198.761 89.9397 198.187 90.5199C197.612 90.7134 197.229 90.9068 196.846 90.9068ZM205.467 82.7832C205.084 82.7832 204.509 82.5898 204.126 82.2029C203.551 81.4293 203.551 80.4622 204.317 79.8819C205.084 79.3017 206.042 79.3017 206.808 80.0753C207.383 80.849 207.383 81.8161 206.808 82.3964C206.425 82.5898 206.042 82.7832 205.467 82.7832ZM214.28 74.8531C213.897 74.8531 213.322 74.6596 213.13 74.2728C212.555 73.4991 212.555 72.532 213.322 71.9518C214.088 71.3715 215.046 71.3715 215.812 71.9518C216.387 72.7254 216.387 73.6925 215.812 74.2728C215.046 74.6596 214.663 74.8531 214.28 74.8531ZM223.093 66.7295C222.709 66.7295 222.135 66.5361 221.751 66.1492C221.177 65.3755 221.177 64.4085 221.943 63.8282C222.709 63.2479 223.667 63.2479 224.434 64.0216C225.008 64.7953 225.008 65.7624 224.434 66.3426C223.859 66.5361 223.476 66.7295 223.093 66.7295ZM231.905 58.7993C231.522 58.7993 230.948 58.6059 230.564 58.2191C229.99 57.4454 229.99 56.4783 230.756 55.898C231.522 55.3178 232.48 55.3178 233.247 56.0915C233.821 56.8651 233.821 57.8322 233.247 58.4125C232.672 58.6059 232.289 58.7993 231.905 58.7993ZM240.527 50.6757C240.144 50.6757 239.569 50.4823 239.377 50.0955C238.802 49.3218 238.802 48.3547 239.569 47.7745C240.335 47.1942 241.293 47.1942 242.059 47.7745C242.634 48.5481 242.634 49.5152 242.059 50.0955C241.485 50.4823 240.91 50.6757 240.527 50.6757ZM249.34 42.7456C248.956 42.7456 248.382 42.5522 247.998 42.1653C247.424 41.3917 247.424 40.4246 248.19 39.8443C248.956 39.2641 249.914 39.2641 250.681 40.0377C251.255 40.8114 251.255 41.7785 250.681 42.3588C250.106 42.5522 249.723 42.7456 249.34 42.7456ZM258.152 34.622C257.769 34.622 257.195 34.4286 256.811 34.0418C256.237 33.2681 256.237 32.301 257.003 31.7207C257.769 31.1405 258.727 31.1405 259.494 31.9142C260.068 32.6878 260.068 33.6549 259.494 34.2352C258.919 34.4286 258.536 34.622 258.152 34.622Z" fill="white"/>
<path d="M178.837 84.3306C178.453 84.3306 178.262 84.3306 177.879 84.1372C177.112 83.7503 176.921 82.5898 177.304 81.8161C177.687 81.0425 178.837 80.6556 179.603 81.2359C180.369 81.6227 180.752 82.7832 180.178 83.5569C179.986 84.1372 179.411 84.3306 178.837 84.3306ZM184.967 74.0794C184.584 74.0794 184.393 74.0794 184.201 73.886C183.435 73.4992 183.051 72.3386 183.626 71.565C184.201 70.7913 185.159 70.4045 185.925 70.9847C186.692 71.3716 187.075 72.5321 186.5 73.3057C186.117 73.886 185.542 74.0794 184.967 74.0794ZM191.098 63.8282C190.715 63.8282 190.523 63.8282 190.14 63.6348C189.374 63.248 189.182 62.0875 189.565 61.3138C189.948 60.5401 191.098 60.1533 191.864 60.7335C192.631 61.1204 193.014 62.2809 192.439 63.0546C192.247 63.6348 191.673 63.8282 191.098 63.8282ZM197.229 53.5771C196.845 53.5771 196.654 53.5771 196.271 53.3836C195.504 52.9968 195.313 51.8363 195.696 51.0626C196.079 50.289 197.229 49.9021 197.995 50.4824C198.761 50.8692 199.144 52.0297 198.57 52.8034C198.187 53.3836 197.803 53.5771 197.229 53.5771ZM203.168 43.3259C202.785 43.3259 202.593 43.3259 202.401 43.1325C201.635 42.7456 201.252 41.5851 201.827 40.8115C202.21 40.0378 203.359 39.6509 204.126 40.2312C204.892 40.618 205.275 41.7785 204.7 42.5522C204.317 43.1325 203.743 43.3259 203.168 43.3259ZM209.298 33.0747C208.915 33.0747 208.724 33.0747 208.341 32.8813C207.574 32.4945 207.383 31.3339 207.766 30.5603C208.149 29.7866 209.298 29.3998 210.065 29.98C210.831 30.3669 211.214 31.5274 210.64 32.301C210.448 32.8813 209.873 33.0747 209.298 33.0747ZM215.429 22.8235C215.046 22.8235 214.854 22.8235 214.471 22.6301C213.705 22.2433 213.513 21.0828 213.896 20.3091C214.28 19.5354 215.429 19.1486 216.195 19.7288C216.962 20.1157 217.345 21.2762 216.77 22.0499C216.579 22.6301 216.004 22.8235 215.429 22.8235Z" fill="white"/>
<path d="M165.234 62.4742C165.042 62.4742 165.042 62.4742 164.851 62.4742C163.893 62.2807 163.318 61.3137 163.701 60.3466C163.893 59.3795 164.851 58.7992 165.809 58.9926C166.767 59.1861 167.341 60.1531 167.15 60.9268C166.767 62.0873 166 62.4742 165.234 62.4742ZM167.916 50.8691C167.725 50.8691 167.725 50.8691 167.533 50.8691C166.575 50.6756 166 49.7085 166.384 48.7415C166.575 47.7744 167.533 47.1941 168.491 47.3875C169.449 47.5809 170.024 48.548 169.832 49.3217C169.449 50.2888 168.683 50.8691 167.916 50.8691ZM170.79 39.264C170.598 39.264 170.598 39.264 170.407 39.264C169.449 39.0705 168.874 38.1034 169.066 37.1364C169.257 36.1693 170.215 35.589 171.173 35.7824C172.131 35.9758 172.706 36.9429 172.514 37.7166C172.131 38.6837 171.556 39.264 170.79 39.264ZM173.472 27.6589C173.281 27.6589 173.281 27.6589 173.089 27.6589C172.131 27.4654 171.556 26.4983 171.939 25.5312C172.131 24.5642 173.089 23.9839 174.047 24.1773C175.005 24.3707 175.58 25.3378 175.388 26.1115C174.813 27.0786 174.238 27.6589 173.472 27.6589ZM176.154 16.0537C175.963 16.0537 175.963 16.0537 175.771 16.0537C174.813 15.8603 174.238 14.8932 174.622 13.9261C174.813 12.9591 175.771 12.3788 176.729 12.5722C177.687 12.7656 178.262 13.7327 178.07 14.5064C177.687 15.4735 176.921 16.0537 176.154 16.0537Z" fill="white"/>
<path d="M144.735 76.2069C143.968 76.2069 143.202 75.6267 143.01 74.6596C143.01 73.6925 143.585 72.9188 144.543 72.9188C145.501 72.9188 146.267 73.4991 146.267 74.4662C146.267 75.4333 145.693 76.2069 144.735 76.2069ZM143.585 64.4084C142.819 64.4084 142.052 63.8282 141.861 62.8611C141.861 61.894 142.436 61.1203 143.394 61.1203C144.351 61.1203 145.118 61.7006 145.118 62.6676C145.309 63.4413 144.735 64.215 143.585 64.4084C143.777 64.4084 143.585 64.4084 143.585 64.4084ZM142.627 52.4165C141.861 52.4165 141.095 51.8362 140.903 50.8691C140.903 49.902 141.478 49.1284 142.436 49.1284C143.394 49.1284 144.16 49.7086 144.16 50.6757C144.16 51.6428 143.585 52.4165 142.627 52.4165ZM141.478 40.6179C140.711 40.6179 139.945 40.0377 139.753 39.0706C139.753 38.1035 140.328 37.3298 141.286 37.3298C142.244 37.3298 143.01 37.9101 143.01 38.8772C143.01 39.8443 142.627 40.4245 141.478 40.6179C141.669 40.6179 141.478 40.6179 141.478 40.6179ZM140.52 28.626C139.753 28.626 138.987 28.0457 138.795 27.0787C138.795 26.1116 139.37 25.3379 140.328 25.3379C141.286 25.3379 142.052 25.9181 142.052 26.8852C142.244 27.6589 141.478 28.626 140.52 28.626ZM139.37 16.8275C138.604 16.8275 137.838 16.2472 137.646 15.2801C137.646 14.313 138.221 13.5394 139.179 13.3459C140.137 13.3459 140.903 13.9262 141.095 14.8933C141.095 15.667 140.52 16.6341 139.37 16.8275C139.562 16.6341 139.37 16.8275 139.37 16.8275Z" fill="white"/>
<path d="M131.707 89.9396C131.132 89.9396 130.557 89.5527 130.174 88.9725C129.791 88.1988 130.174 87.0383 131.132 86.8449C131.898 86.4581 133.048 86.8449 133.24 87.812C133.623 88.5857 133.24 89.7462 132.282 90.133C132.09 89.7462 131.898 89.9396 131.707 89.9396ZM127.109 78.9147C126.534 78.9147 125.959 78.5279 125.576 77.9476C125.193 77.174 125.576 76.0135 126.534 75.82C127.3 75.4332 128.45 75.82 128.642 76.7871C129.025 77.5608 128.642 78.7213 127.684 79.1082C127.684 78.7213 127.492 78.9147 127.109 78.9147ZM122.702 67.8899C122.128 67.8899 121.553 67.503 121.17 66.9228C120.787 66.1491 121.17 64.9886 122.128 64.7952C122.894 64.4084 124.043 64.7952 124.235 65.7623C124.427 66.7294 124.235 67.6965 123.277 68.0833C123.086 67.6965 122.894 67.8899 122.702 67.8899ZM118.104 56.865C117.53 56.865 116.955 56.4782 116.572 55.8979C116.189 55.1243 116.572 53.9638 117.53 53.7703C118.296 53.3835 119.445 53.7703 119.637 54.7374C120.02 55.5111 119.637 56.6716 118.679 57.0585C118.488 56.6716 118.296 56.865 118.104 56.865ZM113.506 45.8402C112.932 45.8402 112.357 45.4534 111.974 44.8731C111.591 44.0994 111.974 42.9389 112.932 42.7455C113.698 42.3587 114.847 42.7455 115.039 43.7126C115.231 44.6797 115.039 45.6468 114.081 46.0336C113.89 45.6468 113.698 45.8402 113.506 45.8402ZM108.908 34.8153C108.334 34.8153 107.759 34.4285 107.376 33.8482C106.992 33.0746 107.376 31.9141 108.334 31.7206C109.1 31.3338 110.249 31.7206 110.441 32.6877C110.824 33.4614 110.441 34.6219 109.483 35.0088C109.291 34.8153 109.1 34.8153 108.908 34.8153ZM104.31 23.7905C103.736 23.7905 103.161 23.4036 102.778 22.8234C102.394 22.0497 102.778 20.8892 103.736 20.6958C104.502 20.309 105.651 20.6958 105.843 21.6629C106.226 22.4366 105.843 23.5971 104.885 23.9839C104.885 23.7905 104.502 23.7905 104.31 23.7905ZM99.9039 12.7656C99.3291 12.7656 98.7544 12.3788 98.3712 11.7985C97.988 11.0249 98.3712 9.86436 99.3291 9.67094C100.095 9.28411 101.245 9.67094 101.437 10.638C101.628 11.6051 101.437 12.5722 100.479 12.9591C100.287 12.7656 100.095 12.7656 99.9039 12.7656Z" fill="white"/>
<path d="M98.3713 70.0173C97.9881 70.0173 97.4133 69.8239 97.0302 69.437C96.4554 68.6633 96.647 67.6962 97.2218 67.116C97.7965 66.5357 98.946 66.7292 99.5208 67.3094C100.096 68.0831 100.096 69.0502 99.3292 69.6304C99.1376 69.8238 98.7544 70.0173 98.3713 70.0173ZM90.8995 60.7332C90.5163 60.7332 89.9416 60.5398 89.75 60.1529C89.1752 59.3793 89.1752 58.4122 89.9416 57.8319C90.7079 57.2517 91.6658 57.2517 92.2406 58.0253C92.8153 58.799 92.8153 59.7661 92.049 60.3463C91.6658 60.5398 91.2827 60.7332 90.8995 60.7332ZM83.4277 51.4491C83.0445 51.4491 82.4698 51.2557 82.0866 50.8688C81.5119 50.0952 81.7034 49.1281 82.2782 48.5478C83.0445 47.9676 84.0024 48.161 84.5772 48.7412C85.152 49.5149 85.152 50.482 84.3856 51.0623C84.194 51.2557 83.8109 51.4491 83.4277 51.4491ZM75.9559 42.165C75.5727 42.165 74.998 41.9716 74.6148 41.5848C74.0401 40.8111 74.2317 39.844 74.8064 39.2637C75.3812 38.6835 76.5307 38.8769 77.1054 39.4572C77.6802 40.2308 77.6802 41.1979 76.9138 41.7782C76.7222 41.9716 76.3391 42.165 75.9559 42.165ZM68.4841 32.8809C68.101 32.8809 67.5262 32.6875 67.3346 32.3007C66.7599 31.527 66.7599 30.5599 67.5262 29.9797C68.2925 29.3994 69.2505 29.3994 69.8252 30.1731C70.4 30.9467 70.4 31.9138 69.6336 32.4941C69.2505 32.8809 68.8673 32.8809 68.4841 32.8809ZM61.0123 23.5968C60.6292 23.5968 60.0544 23.4034 59.6713 23.0166C59.0965 22.2429 59.2881 21.2758 59.8628 20.6956C60.6292 20.1153 61.5871 20.3087 62.1618 20.889C62.7366 21.6627 62.7366 22.6298 61.9703 23.21C61.7787 23.5968 61.3955 23.5968 61.0123 23.5968Z" fill="white"/>
<path d="M103.352 101.932C102.969 101.932 102.778 101.932 102.394 101.738C101.628 101.158 101.436 100.191 102.011 99.4171C102.586 98.6434 103.544 98.45 104.31 99.0302C105.077 99.6105 105.268 100.578 104.885 101.351C104.31 101.545 103.927 101.932 103.352 101.932ZM93.5815 95.1619C93.1984 95.1619 93.0068 95.1619 92.6236 94.9685C91.8573 94.3882 91.6657 93.4211 92.2404 92.6474C92.8152 91.8738 93.7731 91.6803 94.5395 92.2606C95.3058 92.8409 95.4974 93.8079 95.1142 94.5816C94.5395 94.9685 93.9647 95.1619 93.5815 95.1619ZM83.6192 88.3922C83.236 88.3922 83.0444 88.3922 82.6612 88.0054C81.8949 87.4251 81.7033 86.458 82.2781 85.6844C82.8528 84.9107 83.8107 84.7173 84.5771 85.2975C85.3434 85.8778 85.535 86.8449 84.9602 87.6186C84.7687 88.1988 84.1939 88.3922 83.6192 88.3922ZM73.8484 81.816C73.4652 81.816 73.2736 81.816 72.8904 81.6226C72.1241 81.0423 71.9325 80.0752 72.5073 79.3016C73.082 78.5279 74.0399 78.3345 74.8063 78.9147C75.5726 79.495 75.7642 80.4621 75.381 81.2358C74.9979 81.4292 74.4231 81.816 73.8484 81.816ZM64.0776 75.0464C63.6944 75.0464 63.5028 75.0464 63.1196 74.8529C62.3533 74.2727 62.1617 73.3056 62.7365 72.5319C63.3112 71.7583 64.2691 71.5648 65.0355 72.1451C65.8018 72.7253 65.9934 73.6924 65.6102 74.4661C65.2271 74.8529 64.6523 75.0464 64.0776 75.0464ZM54.3068 68.4701C53.9236 68.4701 53.732 68.4701 53.3488 68.2767C52.5825 67.6965 52.3909 66.7294 52.9657 65.9557C53.5404 65.182 54.4983 64.9886 55.2647 65.5689C56.031 66.1491 56.2226 67.1162 55.8394 67.8899C55.4563 68.0833 54.8815 68.4701 54.3068 68.4701ZM44.536 61.7005C44.1528 61.7005 43.9612 61.7005 43.578 61.3137C42.8117 60.7334 42.6201 59.7663 43.1949 58.9926C43.7696 58.219 44.7276 58.0255 45.4939 58.6058C46.2602 59.1861 46.4518 60.1531 45.8771 60.9268C45.4939 61.5071 45.1107 61.7005 44.536 61.7005ZM34.7652 54.9309C34.382 54.9309 34.1904 54.9309 33.8072 54.7374C33.0409 54.1572 32.8493 53.1901 33.4241 52.4164C33.9988 51.6427 34.9568 51.4493 35.7231 52.0296C36.4894 52.6098 36.681 53.5769 36.2978 54.3506C35.7231 54.7374 35.3399 54.9309 34.7652 54.9309ZM24.9944 48.3546C24.6112 48.3546 24.4196 48.3546 24.0364 48.1612C23.2701 47.581 23.0785 46.6139 23.6533 45.8402C24.228 45.0665 25.186 44.8731 25.9523 45.4534C26.7186 46.0336 26.9102 47.0007 26.527 47.7744C25.9523 47.9678 25.5691 48.3546 24.9944 48.3546Z" fill="white"/>
<path d="M97.6047 115.277C97.4131 115.277 97.2215 115.277 97.0299 115.277C96.072 114.891 95.6888 113.923 96.072 113.15C96.4552 112.183 97.4131 111.796 98.1794 112.183C99.1374 112.57 99.5205 113.537 99.3289 114.31C98.9458 114.891 98.371 115.277 97.6047 115.277ZM86.4928 111.409C86.3012 111.409 86.1096 111.409 85.918 111.409C84.9601 111.022 84.577 110.248 84.7685 109.281C85.1517 108.314 85.918 107.927 86.876 108.121C87.8339 108.508 88.2171 109.475 88.0255 110.248C87.8339 111.022 87.0675 111.409 86.4928 111.409ZM75.1893 107.541C74.9977 107.541 74.8062 107.541 74.6146 107.541C73.6566 107.154 73.2735 106.187 73.6566 105.413C74.0398 104.446 74.9977 104.059 75.7641 104.446C76.5304 104.833 77.1052 105.8 76.9136 106.574C76.5304 107.154 75.9557 107.541 75.1893 107.541ZM64.0774 103.672C63.8858 103.672 63.6943 103.672 63.5027 103.672C62.5448 103.285 62.1616 102.512 62.3532 101.545C62.7363 100.578 63.5027 100.191 64.4606 100.384C65.4185 100.771 65.8017 101.738 65.6101 102.512C65.4185 103.092 64.8438 103.672 64.0774 103.672ZM52.9655 99.6105C52.774 99.6105 52.5824 99.6105 52.3908 99.6105C51.4329 99.2236 51.0497 98.2566 51.4329 97.4829C51.816 96.5158 52.774 96.129 53.5403 96.5158C54.4982 96.9026 54.8814 97.8697 54.6898 98.6434C54.3066 99.2236 53.5403 99.6105 52.9655 99.6105ZM41.6621 95.7421C41.4705 95.7421 41.2789 95.7421 41.0873 95.7421C40.1294 95.3553 39.7462 94.5816 39.9378 93.6145C40.321 92.6474 41.0873 92.2606 42.0452 92.454C43.0032 92.8408 43.3863 93.8079 43.1947 94.5816C43.0032 95.3553 42.4284 95.7421 41.6621 95.7421ZM30.5502 91.8737C30.3586 91.8737 30.167 91.8737 29.9754 91.8737C29.0175 91.4869 28.6343 90.5198 29.0175 89.7461C29.4007 88.7791 30.3586 88.3922 31.1249 88.7791C32.0829 89.1659 32.466 90.133 32.2744 90.9067C31.8913 91.4869 31.3165 91.8737 30.5502 91.8737ZM19.4383 88.0054C19.2467 88.0054 19.0551 88.0054 18.8635 88.0054C17.9056 87.6185 17.5225 86.6515 17.9056 85.8778C18.2888 84.9107 19.2467 84.5239 20.013 84.9107C20.971 85.2975 21.3541 86.2646 21.1626 87.0383C20.7794 87.4251 20.013 88.0054 19.4383 88.0054Z" fill="white"/>
<path d="M179.028 4.83548C178.837 4.83548 178.837 4.64206 179.028 4.83548C177.879 4.83548 177.304 3.86838 177.304 3.09471C177.304 2.12762 178.262 1.54736 179.028 1.54736C179.986 1.54736 180.561 2.51446 180.561 3.28813C180.561 4.0618 179.795 4.83548 179.028 4.83548Z" fill="white"/>
<path d="M212.555 122.627C211.789 122.627 211.023 122.047 210.831 121.273C210.64 120.306 211.214 119.533 212.172 119.339C213.13 119.146 214.088 119.726 214.088 120.693C214.28 121.66 213.705 122.434 212.747 122.627C212.747 122.627 212.747 122.627 212.555 122.627ZM224.242 120.5C223.476 120.5 222.709 119.919 222.518 119.146C222.326 118.179 222.901 117.405 223.859 117.211C224.817 117.018 225.775 117.598 225.775 118.565C225.966 119.533 225.392 120.306 224.434 120.5C224.434 120.5 224.434 120.5 224.242 120.5ZM235.929 118.372C235.162 118.372 234.396 117.792 234.204 117.018C234.013 116.051 234.588 115.277 235.546 115.084C236.503 114.89 237.461 115.471 237.461 116.438C237.461 117.405 237.078 118.179 236.12 118.372H235.929ZM247.615 116.438C246.849 116.438 246.083 115.858 245.891 115.084C245.699 114.117 246.274 113.343 247.232 113.15C248.19 112.956 248.956 113.537 249.148 114.504C249.34 115.471 248.765 116.244 247.807 116.438H247.615ZM259.302 114.31C258.536 114.31 257.769 113.73 257.578 112.956C257.386 111.989 257.961 111.216 258.919 111.022C259.877 110.829 260.835 111.409 260.835 112.376C260.835 113.343 260.451 114.117 259.494 114.31H259.302ZM270.797 112.183C270.031 112.183 269.264 111.602 269.073 110.829C268.881 109.862 269.456 109.088 270.414 108.894C271.372 108.701 272.33 109.281 272.33 110.248C272.521 111.216 271.947 111.989 270.989 112.183C270.989 112.183 270.989 112.183 270.797 112.183ZM282.484 110.055C281.717 110.055 280.951 109.475 280.759 108.701C280.568 107.734 281.143 106.96 282.1 106.767C283.058 106.573 284.016 107.154 284.016 108.121C284.016 109.088 283.633 109.862 282.675 110.055C282.675 110.055 282.675 110.055 282.484 110.055ZM294.17 108.121C293.404 108.121 292.638 107.541 292.446 106.767C292.254 105.8 292.829 105.026 293.787 104.833C294.745 104.639 295.703 105.22 295.703 106.187C295.895 107.154 295.32 107.927 294.362 108.121" fill="white"/>
<path d="M64.4607 125.722C64.4607 125.722 64.2692 125.722 64.4607 125.722C63.3112 125.722 62.7365 124.755 62.7365 123.981C62.7365 123.014 63.5028 122.434 64.4607 122.434C65.4187 122.434 65.9934 123.401 65.9934 124.175C65.9934 124.948 65.2271 125.722 64.4607 125.722ZM52.5825 124.755C51.433 124.755 50.8583 123.788 50.8583 123.014C50.8583 122.047 51.8162 121.467 52.5825 121.467C53.5404 121.467 54.1152 122.434 54.1152 123.208C54.3068 123.981 53.5404 124.755 52.5825 124.755ZM40.8959 123.788C40.7043 123.788 40.7043 123.788 40.8959 123.788C39.7464 123.788 39.1716 122.821 39.1716 122.047C39.1716 121.08 39.938 120.5 40.8959 120.5C41.8538 120.5 42.4285 121.467 42.4285 122.24C42.4285 123.208 41.6622 123.788 40.8959 123.788ZM29.0176 122.821C27.8681 122.821 27.2934 121.854 27.2934 121.08C27.2934 120.113 28.2513 119.533 29.0176 119.533C29.9756 119.533 30.5503 120.5 30.5503 121.273C30.5503 122.24 29.9756 122.821 29.0176 122.821ZM17.331 121.854C17.1394 121.854 17.1394 121.854 17.331 121.854C16.1815 121.854 15.6067 120.886 15.6067 120.113C15.6067 119.146 16.3731 118.565 17.331 118.565H17.5226C18.4805 118.565 19.0553 119.533 19.0553 120.306C18.8637 121.273 18.0973 121.854 17.331 121.854ZM5.45277 120.886C4.30327 120.886 3.72852 119.919 3.72852 119.146C3.72852 118.179 4.68644 117.598 5.45277 117.598C6.4107 117.598 6.98545 118.565 6.98545 119.339C6.98545 120.306 6.4107 120.886 5.45277 120.886Z" fill="white"/>
<path d="M163.51 286.453C162.744 286.453 161.977 285.872 161.786 284.905C161.786 283.938 162.36 283.165 163.318 283.165C164.276 283.165 165.043 283.745 165.043 284.712C165.043 285.679 164.659 286.259 163.51 286.453C163.701 286.453 163.51 286.453 163.51 286.453ZM162.552 274.461C161.786 274.461 161.019 273.881 160.828 272.913C160.828 271.946 161.402 271.173 162.36 271.173C163.318 271.173 164.085 271.753 164.085 272.72C164.276 273.494 163.51 274.461 162.552 274.461ZM161.402 262.662C160.636 262.662 159.87 262.082 159.678 261.115C159.678 260.148 160.253 259.374 161.211 259.374C162.169 259.374 162.935 259.954 162.935 260.921C162.935 261.889 162.552 262.469 161.402 262.662C161.594 262.662 161.594 262.662 161.402 262.662ZM160.444 250.67C159.678 250.67 158.912 250.09 158.72 249.123C158.72 248.156 159.295 247.382 160.253 247.382C161.211 247.382 161.977 247.962 161.977 248.93C161.977 249.897 161.402 250.67 160.444 250.67ZM159.295 238.872C158.529 238.872 157.762 238.292 157.571 237.324C157.571 236.357 158.145 235.584 159.103 235.584C160.061 235.584 160.828 236.164 160.828 237.131C160.828 238.098 160.444 238.678 159.295 238.872C159.487 238.872 159.487 238.872 159.295 238.872ZM158.337 226.88C157.571 226.88 156.804 226.3 156.613 225.332C156.613 224.365 157.188 223.592 158.145 223.592C159.103 223.592 159.87 224.172 159.87 225.139C159.87 226.106 159.295 226.88 158.337 226.88ZM157.188 215.081C156.421 215.081 155.655 214.501 155.463 213.534C155.463 212.567 156.038 211.793 156.996 211.793C157.954 211.793 158.72 212.373 158.72 213.341C158.72 214.308 158.337 214.888 157.188 215.081C157.379 215.081 157.379 215.081 157.188 215.081ZM156.23 203.089C155.463 203.089 154.697 202.509 154.505 201.542C154.505 200.575 155.08 199.801 156.038 199.801C156.996 199.801 157.762 200.382 157.762 201.349C157.954 202.122 157.188 203.089 156.23 203.089Z" fill="white"/>
</svg>
