<svg width="305" height="255" viewBox="0 0 305 255" fill="none" xmlns="http://www.w3.org/2000/svg">
<circle cx="187" cy="155" r="100" fill="#F7931E"/>
<circle cx="100" cy="100" r="100" fill="#EF4323"/>
<path fill-rule="evenodd" clip-rule="evenodd" d="M100 200C155.228 200 200 155.228 200 100C200 83.8246 196.16 68.5462 189.341 55.0269C188.563 55.009 187.782 55 187 55C131.772 55 87 99.7715 87 155C87 171.175 90.8405 186.454 97.6594 199.973C98.4374 199.991 99.2177 200 100 200Z" fill="#E5291B"/>
<path d="M110.84 148.014C120.611 165.229 142.451 171.225 159.502 161.167C176.553 151.303 182.492 129.253 172.53 112.039C162.759 94.8244 140.919 88.8284 123.868 98.8862C106.817 108.751 100.877 130.8 110.84 148.014ZM167.549 114.94C175.787 129.253 170.806 147.821 156.629 156.138C142.451 164.455 124.059 159.426 115.821 145.113C107.583 130.8 112.564 112.232 126.741 103.915C140.919 95.5981 159.311 100.627 167.549 114.94Z" fill="white"/>
<path d="M145 129.055H149.786C151.193 129.087 151.861 130.893 150.881 131.74L142.122 140.344L133.487 131.697C132.449 130.779 133.188 129.004 134.595 129.035L139.002 129.08V111.094C139.002 109.385 140.388 108 142.097 108C143.806 108 145 109.382 145 111.091V129.055Z" fill="white"/>
<path fill-rule="evenodd" clip-rule="evenodd" d="M127.5 136C129.157 136 130.5 137.343 130.5 139V144H153.5V139C153.5 137.343 154.843 136 156.5 136C158.157 136 159.5 137.343 159.5 139V144C159.5 147.314 156.814 150 153.5 150H130.5C127.186 150 124.5 147.314 124.5 144V139C124.5 137.343 125.843 136 127.5 136Z" fill="white"/>
<path d="M24.9492 115.207C25.5199 114.636 26.6614 114.636 27.2322 115.207C27.8029 115.777 27.8029 116.918 27.2322 117.678C26.8517 117.868 26.4712 118.058 26.0907 118.058C25.7102 118.058 25.3297 117.868 24.9492 117.488C24.1882 116.918 24.1882 115.967 24.9492 115.207Z" fill="white"/>
<path d="M41.6912 100.758C41.1205 100.187 41.1205 99.0467 41.6912 98.4763C42.262 97.906 43.4035 97.906 43.9743 98.4763C44.545 99.0467 44.545 100.187 43.9743 100.948C43.5938 101.328 43.2133 101.518 42.8328 101.518C42.4523 101.328 42.0717 101.138 41.6912 100.758Z" fill="white"/>
<path d="M58.4332 84.0275C57.8624 83.4572 57.8624 82.3165 58.4332 81.7461C59.0039 81.1758 60.1454 81.1758 60.7162 81.7461C61.2869 82.3165 61.2869 83.4572 60.7162 84.2176C60.3357 84.5979 59.9552 84.788 59.5747 84.788C59.1942 84.788 58.8137 84.4078 58.4332 84.0275Z" fill="white"/>
<path d="M50.0623 92.3925C49.4916 91.8222 49.4916 90.6815 50.0623 90.1111C50.6331 89.5408 51.7746 89.5408 52.3453 90.1111C52.9161 90.6815 52.9161 91.8222 52.3453 92.5826C51.9648 92.9629 51.5843 92.9629 51.2038 92.9629C50.8233 92.9629 50.4428 92.7727 50.0623 92.3925Z" fill="white"/>
<path d="M33.3202 109.123C32.7494 108.552 32.7494 107.412 33.3202 106.841C33.8909 106.271 35.0324 106.271 35.6032 106.841C36.1739 107.412 36.1739 108.552 35.6032 109.313C35.2227 109.693 34.8422 109.883 34.4617 109.883C33.8909 109.693 33.5104 109.503 33.3202 109.123Z" fill="white"/>
<path d="M16.3878 123.572C16.9585 123.001 18.1 123.001 18.6708 123.572C19.2415 124.142 19.2415 125.283 18.6708 126.043C18.2903 126.424 17.9098 126.614 17.5293 126.614C17.1488 126.614 16.7683 126.424 16.3878 126.043C15.817 125.283 15.817 124.332 16.3878 123.572Z" fill="white"/>
<path d="M26.6615 81.5559C27.4225 80.7955 28.3737 80.7955 29.1347 81.5559C29.7055 82.1263 29.7055 83.267 29.1347 84.0275C28.7542 84.4077 28.3737 84.5978 27.9932 84.5978C27.6127 84.5978 27.2322 84.4077 26.8517 84.0275C26.0907 83.267 26.0907 82.3164 26.6615 81.5559Z" fill="white"/>
<path d="M17.91 92.7726C17.3392 92.2023 17.3392 91.0616 17.91 90.4912C18.4807 89.9209 19.6223 89.9209 20.193 90.4912C20.7638 91.0616 20.7638 92.2023 20.193 92.9628C19.8125 93.343 19.432 93.5331 19.0515 93.5331C18.671 93.5331 18.2905 93.1529 17.91 92.7726Z" fill="white"/>
<path d="M9.34858 99.0467C9.91934 98.4763 11.0608 98.4763 11.6316 99.0467C12.2023 99.617 12.2023 100.758 11.6316 101.518C11.2511 101.898 10.8706 102.089 10.4901 102.089C10.1096 102.089 9.72908 101.898 9.34858 101.518C8.58758 100.758 8.58758 99.8071 9.34858 99.0467Z" fill="white"/>
<path d="M0.59709 107.792C1.16784 107.222 2.30934 107.222 2.8801 107.792C3.45085 108.362 3.45085 109.503 2.8801 110.264C2.49959 110.454 2.11909 110.644 1.73859 110.644C1.35809 110.644 0.78734 110.454 0.406839 110.264C-0.163912 109.503 -0.163912 108.552 0.59709 107.792Z" fill="white"/>
<path d="M57.1015 114.826C57.6723 114.256 58.8138 114.256 59.3845 114.826C59.9553 115.397 59.9553 116.537 59.3845 117.298C59.004 117.678 58.6235 117.868 58.243 117.868C57.8625 117.868 57.482 117.678 57.1015 117.298C56.3405 116.537 56.3405 115.587 57.1015 114.826Z" fill="white"/>
<path d="M65.4726 106.461C66.0434 105.891 67.1849 105.891 67.7556 106.461C68.3264 107.032 68.3264 108.172 67.7556 108.933C67.3751 109.313 66.9946 109.503 66.6141 109.503C66.2336 109.503 65.8531 109.313 65.4726 108.933C64.7116 108.172 64.7116 107.222 65.4726 106.461Z" fill="white"/>
<path d="M48.7304 123.192C49.3012 122.621 50.4427 122.621 51.0134 123.192C51.5842 123.762 51.5842 124.903 51.0134 125.663C50.6329 126.043 50.2524 126.234 49.8719 126.234C49.4914 126.234 49.1109 126.043 48.7304 125.663C48.1597 124.903 47.9694 123.762 48.7304 123.192Z" fill="white"/>
<path d="M90.3955 81.5559C90.9662 80.9856 92.1077 80.9856 92.6785 81.5559C93.2492 82.1263 93.2492 83.267 92.6785 84.0275C92.298 84.4077 91.9175 84.5978 91.537 84.5978C91.1565 84.5978 90.776 84.4077 90.3955 84.0275C89.6345 83.267 89.6345 82.3164 90.3955 81.5559Z" fill="white"/>
<path d="M73.6533 98.096C74.2241 97.5256 75.3656 97.5256 75.9363 98.096C76.5071 98.6663 76.5071 99.807 75.9363 100.567C75.5558 100.948 75.1753 100.948 74.7948 100.948C74.4143 100.948 73.8436 100.758 73.6533 100.377C72.8923 99.9971 73.0825 98.8564 73.6533 98.096Z" fill="white"/>
<path d="M32.1787 139.732C32.7494 139.161 33.8909 139.161 34.4617 139.732C35.0324 140.302 35.0324 141.443 34.4617 142.203C34.0812 142.583 33.7007 142.583 33.3202 142.583C32.9397 142.583 32.3689 142.393 32.1787 142.013C31.4177 141.443 31.4177 140.302 32.1787 139.732Z" fill="white"/>
<path d="M40.5498 131.366C41.1205 130.796 42.262 130.796 42.8328 131.366C43.4035 131.937 43.4035 133.078 42.8328 133.838C42.4523 134.218 42.0718 134.408 41.6913 134.408C41.3108 134.408 40.9303 134.218 40.5498 133.838C39.7888 133.078 39.7888 132.127 40.5498 131.366Z" fill="white"/>
<path d="M82.0244 89.9212C82.5951 89.3508 83.7366 89.3508 84.3074 89.9212C84.8781 90.4915 84.8781 91.6322 84.3074 92.3927C83.9269 92.7729 83.5464 92.963 83.1659 92.963C82.7854 92.963 82.4049 92.7729 82.0244 92.3927C81.2634 91.6322 81.2634 90.6816 82.0244 89.9212Z" fill="white"/>
<path d="M50.0622 75.6625C49.3012 74.902 49.3012 73.9514 49.8719 73.191C50.2524 72.8107 50.6329 72.6206 51.0134 72.6206C51.3939 72.6206 51.7744 72.8107 52.1549 73.0008C52.7257 73.5712 52.9159 74.7119 52.1549 75.4724C51.7744 76.2328 50.8232 76.2328 50.0622 75.6625Z" fill="white"/>
<path d="M26.0906 47.5249C26.4711 47.5249 27.0418 47.715 27.2321 48.0953C27.8028 48.6656 27.9931 49.8063 27.2321 50.5668C26.6613 51.1371 25.5198 51.3272 24.9491 50.5668C24.3783 49.9964 24.3783 48.8557 24.9491 48.2854C25.1393 47.715 25.5198 47.5249 26.0906 47.5249Z" fill="white"/>
<path d="M17.5293 39.1599C17.9098 39.1599 18.4805 39.35 18.6708 39.7303C19.2415 40.3006 19.4318 41.4413 18.6708 42.2018C18.1 42.7721 16.9585 42.9622 16.3878 42.2018C15.817 41.6314 15.817 40.4907 16.3878 39.9204C16.7683 39.35 17.1488 39.1599 17.5293 39.1599Z" fill="white"/>
<path d="M41.6911 67.107C40.9301 66.3466 40.9301 65.396 41.6911 64.6355C42.0716 64.2553 42.4521 64.0652 42.8326 64.0652C43.2131 64.0652 43.7839 64.2553 43.9741 64.6355C44.5449 65.2059 44.7351 66.3466 43.9741 67.107C43.4034 67.8675 42.2619 67.8675 41.6911 67.107Z" fill="white"/>
<path d="M33.3203 58.7418C32.5593 57.9813 32.5593 57.0308 33.3203 56.2703C33.7008 55.8901 34.0813 55.7 34.4618 55.7C34.8423 55.7 35.2228 55.8901 35.6033 56.2703C36.174 56.8406 36.3643 57.9813 35.6033 58.7418C35.0325 59.5023 33.891 59.5023 33.3203 58.7418Z" fill="white"/>
<path d="M10.4902 63.6848C10.8707 63.6848 11.2512 63.8749 11.6317 64.2552C12.2025 64.8255 12.3927 65.9662 11.6317 66.7267C11.061 67.297 9.91947 67.4871 9.34872 66.7267C8.77797 66.1563 8.77797 65.0156 9.34872 64.4453C9.53897 63.8749 9.91947 63.6848 10.4902 63.6848Z" fill="white"/>
<path d="M0.597119 57.7914C-0.163883 57.0309 -0.163883 56.0803 0.597119 55.3199C0.97762 54.9396 1.35812 54.7495 1.73862 54.7495C2.11912 54.7495 2.49962 54.9396 2.88012 55.3199C3.45088 55.8902 3.64113 57.0309 2.88012 57.7914C2.30937 58.3617 1.16787 58.3617 0.597119 57.7914Z" fill="white"/>
<path d="M18.1 75.2821C17.339 74.5216 17.339 73.5711 18.1 72.8106C18.4805 72.4304 18.8611 72.2402 19.2416 72.2402C19.6221 72.2402 20.0026 72.4304 20.3831 72.8106C20.9538 73.3809 21.1441 74.5216 20.3831 75.2821C19.8123 75.8524 18.6708 75.8524 18.1 75.2821Z" fill="white"/>
<path d="M33.3202 23C33.7007 23 34.0812 23.1901 34.4617 23.3802C35.0324 23.9506 35.2227 25.0913 34.4617 25.8517C33.8909 26.4221 32.7494 26.6122 32.1787 25.8517C31.6079 25.2814 31.4177 24.1407 32.1787 23.5703C32.3689 23.1901 32.9397 23 33.3202 23Z" fill="white"/>
<path d="M49.8721 39.54C50.2526 39.54 50.8233 39.7302 51.0136 40.1104C51.5843 40.6807 51.7746 41.8214 51.0136 42.5819C50.4428 43.1523 49.3013 43.3424 48.7306 42.5819C48.1598 42.0116 48.1598 40.8709 48.7306 40.3005C49.1111 39.7302 49.4916 39.54 49.8721 39.54Z" fill="white"/>
<path d="M41.501 31.365C41.8815 31.365 42.262 31.5551 42.6425 31.9353C43.2132 32.5057 43.4035 33.6464 42.6425 34.4069C42.0717 34.9772 40.9302 35.1673 40.3595 34.4069C39.7887 33.8365 39.7887 32.6958 40.3595 32.1255C40.74 31.5551 41.1205 31.365 41.501 31.365Z" fill="white"/>
<path d="M58.2429 47.9053C58.6234 47.9053 59.1942 48.0954 59.3844 48.4756C59.9552 49.046 60.1454 50.1867 59.3844 50.9471C58.8137 51.5175 57.6722 51.7076 57.1014 50.9471C56.5307 50.3768 56.5307 49.2361 57.1014 48.6657C57.2917 48.0954 57.8624 47.9053 58.2429 47.9053Z" fill="white"/>
<path d="M66.4238 56.2705C66.8043 56.2705 67.1848 56.4606 67.5653 56.8409C68.1361 57.4112 68.3263 58.5519 67.5653 59.3124C66.9946 59.8827 65.8531 60.0728 65.2823 59.3124C64.7116 58.742 64.7116 57.6013 65.2823 57.031C65.6628 56.4606 66.0433 56.2705 66.4238 56.2705Z" fill="white"/>
<path d="M83.1658 72.8105C83.5463 72.8105 84.117 73.0007 84.3073 73.3809C84.878 73.9512 85.0683 75.0919 84.3073 75.8524C83.7365 76.4228 82.595 76.6129 82.0243 75.8524C81.4535 75.2821 81.4535 74.1414 82.0243 73.571C82.2145 73.0007 82.7853 72.8105 83.1658 72.8105Z" fill="white"/>
<path d="M74.7948 64.4456C75.1753 64.4456 75.5558 64.6357 75.9363 64.8258C76.5071 65.3961 76.6973 66.5368 75.9363 67.2973C75.3656 67.8677 74.2241 68.0578 73.6533 67.2973C73.0825 66.727 72.8923 65.5863 73.6533 65.0159C74.0338 64.6357 74.4143 64.4456 74.7948 64.4456Z" fill="white"/>
<path d="M255.157 223.207C254.587 222.636 253.445 222.636 252.874 223.207C252.304 223.777 252.304 224.918 252.874 225.678C253.255 226.058 253.635 226.248 254.016 226.248C254.396 226.248 254.777 226.058 255.157 225.678C255.918 224.918 255.918 223.967 255.157 223.207Z" fill="white"/>
<path d="M238.415 208.758C238.986 208.187 238.986 207.047 238.415 206.476C237.844 205.906 236.703 205.906 236.132 206.476C235.561 207.047 235.561 208.187 236.132 208.948C236.513 209.328 236.893 209.518 237.274 209.518C237.654 209.328 238.035 209.138 238.415 208.758Z" fill="white"/>
<path d="M221.673 192.028C222.244 191.457 222.244 190.316 221.673 189.746C221.102 189.176 219.961 189.176 219.39 189.746C218.819 190.316 218.819 191.457 219.39 192.218C219.771 192.598 220.151 192.788 220.532 192.788C220.912 192.788 221.293 192.218 221.673 192.028Z" fill="white"/>
<path d="M230.044 200.393C230.615 199.822 230.615 198.681 230.044 198.111C229.473 197.541 228.332 197.541 227.761 198.111C227.19 198.681 227.19 199.822 227.761 200.583C228.142 200.963 228.522 200.963 228.903 200.963C229.283 200.963 229.664 200.773 230.044 200.393Z" fill="white"/>
<path d="M246.786 217.123C247.357 216.552 247.357 215.412 246.786 214.841C246.216 214.271 245.074 214.271 244.503 214.841C243.933 215.412 243.933 216.552 244.503 217.313C244.884 217.693 245.264 217.883 245.645 217.883C246.025 217.693 246.596 217.503 246.786 217.123Z" fill="white"/>
<path d="M263.528 231.572C262.958 231.001 261.816 231.001 261.245 231.572C260.675 232.142 260.675 233.283 261.245 234.043C261.626 234.424 262.006 234.614 262.387 234.614C262.767 234.614 263.148 234.424 263.528 234.043C264.289 233.283 264.289 232.332 263.528 231.572Z" fill="white"/>
<path d="M253.255 189.556C252.494 188.795 251.543 188.795 250.782 189.556C250.211 190.126 250.211 191.267 250.782 192.027C251.162 192.408 251.543 192.598 251.923 192.598C252.304 192.598 252.684 192.408 253.065 192.027C254.016 191.267 254.016 190.316 253.255 189.556Z" fill="white"/>
<path d="M262.006 200.773C262.577 200.202 262.577 199.062 262.006 198.491C261.436 197.921 260.294 197.921 259.723 198.491C259.153 199.062 259.153 200.202 259.723 200.963C260.104 201.343 260.484 201.533 260.865 201.533C261.245 201.533 261.816 200.963 262.006 200.773Z" fill="white"/>
<path d="M270.758 207.047C270.187 206.476 269.046 206.476 268.475 207.047C267.904 207.617 267.904 208.758 268.475 209.518C268.855 209.898 269.236 210.089 269.616 210.089C269.997 210.089 270.377 209.898 270.758 209.518C271.519 208.758 271.519 207.807 270.758 207.047Z" fill="white"/>
<path d="M279.509 215.792C278.939 215.222 277.797 215.222 277.226 215.792C276.656 216.362 276.656 217.503 277.226 218.264C277.607 218.644 277.987 218.834 278.368 218.834C278.748 218.834 279.129 218.644 279.509 218.264C280.27 217.503 280.27 216.552 279.509 215.792Z" fill="white"/>
<path d="M223.005 222.826C222.434 222.256 221.293 222.256 220.722 222.826C220.151 223.397 220.151 224.537 220.722 225.298C221.103 225.678 221.483 225.868 221.864 225.868C222.244 225.868 222.625 225.678 223.005 225.298C223.766 224.537 223.766 223.587 223.005 222.826Z" fill="white"/>
<path d="M214.634 214.461C214.063 213.891 212.922 213.891 212.351 214.461C211.78 215.032 211.78 216.172 212.351 216.933C212.731 217.313 213.112 217.503 213.492 217.503C213.873 217.503 214.253 217.313 214.634 216.933C215.395 216.172 215.395 215.222 214.634 214.461Z" fill="white"/>
<path d="M231.376 231.001C230.805 230.431 229.664 230.431 229.093 231.001C228.522 231.572 228.522 232.712 229.093 233.473C229.473 233.853 229.854 234.043 230.234 234.043C230.615 234.043 230.995 233.853 231.376 233.473C231.947 232.902 231.947 231.762 231.376 231.001Z" fill="white"/>
<path d="M189.711 189.556C189.14 188.986 187.999 188.986 187.428 189.556C186.857 190.126 186.857 191.267 187.428 192.027C187.809 192.408 188.189 192.598 188.57 192.598C188.95 192.598 189.331 192.408 189.711 192.027C190.472 191.267 190.472 190.316 189.711 189.556Z" fill="white"/>
<path d="M206.263 206.096C205.692 205.526 204.551 205.526 203.98 206.096C203.409 206.666 203.409 207.807 203.98 208.567C204.36 208.948 204.741 208.948 205.121 208.948C205.502 208.948 206.073 208.758 206.263 208.377C207.024 207.997 207.024 206.856 206.263 206.096Z" fill="white"/>
<path d="M247.928 247.732C247.357 247.161 246.216 247.161 245.645 247.732C245.074 248.302 245.074 249.443 245.645 250.203C246.025 250.583 246.406 250.583 246.786 250.583C247.167 250.583 247.738 250.393 247.928 250.013C248.689 249.443 248.689 248.302 247.928 247.732Z" fill="white"/>
<path d="M239.557 239.366C238.986 238.796 237.845 238.796 237.274 239.366C236.703 239.937 236.703 241.078 237.274 241.838C237.654 242.218 238.035 242.408 238.415 242.408C238.796 242.408 239.176 242.218 239.557 241.838C240.318 241.078 240.318 240.127 239.557 239.366Z" fill="white"/>
<path d="M198.082 197.921C197.511 197.351 196.37 197.351 195.799 197.921C195.228 198.492 195.228 199.632 195.799 200.393C196.18 200.773 196.56 200.963 196.941 200.963C197.321 200.963 197.702 200.773 198.082 200.393C198.843 199.632 198.843 198.682 198.082 197.921Z" fill="white"/>
<path d="M229.854 183.662C230.615 182.902 230.615 181.951 230.044 181.191C229.664 180.811 229.283 180.621 228.903 180.621C228.522 180.621 228.142 180.811 227.761 181.001C227.19 181.571 227 182.712 227.761 183.472C228.332 184.233 229.283 184.233 229.854 183.662Z" fill="white"/>
<path d="M254.016 155.525C253.636 155.525 253.065 155.715 252.874 156.095C252.304 156.666 252.113 157.806 252.874 158.567C253.445 159.137 254.587 159.327 255.157 158.567C255.728 157.996 255.728 156.856 255.157 156.285C254.967 155.715 254.397 155.525 254.016 155.525Z" fill="white"/>
<path d="M262.387 147.16C262.006 147.16 261.435 147.35 261.245 147.73C260.674 148.301 260.484 149.441 261.245 150.202C261.816 150.772 262.957 150.962 263.528 150.202C264.099 149.631 264.099 148.491 263.528 147.92C263.338 147.16 262.957 147.16 262.387 147.16Z" fill="white"/>
<path d="M238.415 175.107C239.176 174.347 239.176 173.396 238.415 172.636C238.035 172.255 237.654 172.065 237.274 172.065C236.893 172.065 236.323 172.255 236.132 172.636C235.562 173.206 235.371 174.347 236.132 175.107C236.703 175.868 237.654 175.868 238.415 175.107Z" fill="white"/>
<path d="M246.786 166.742C247.547 165.981 247.547 165.031 246.786 164.27C246.406 163.89 246.025 163.7 245.645 163.7C245.264 163.7 244.884 163.89 244.503 164.27C243.933 164.841 243.742 165.981 244.503 166.742C245.074 167.312 246.025 167.502 246.786 166.742Z" fill="white"/>
<path d="M269.616 171.685C269.236 171.685 268.855 171.875 268.475 172.255C267.904 172.826 267.714 173.966 268.475 174.727C269.045 175.297 270.187 175.487 270.758 174.727C271.328 174.156 271.328 173.016 270.758 172.445C270.567 171.685 269.997 171.685 269.616 171.685Z" fill="white"/>
<path d="M279.51 165.791C280.271 165.031 280.271 164.08 279.51 163.32C279.129 162.94 278.749 162.75 278.368 162.75C277.988 162.75 277.607 162.94 277.227 163.32C276.656 163.89 276.466 165.031 277.227 165.791C277.797 166.362 278.939 166.362 279.51 165.791Z" fill="white"/>
<path d="M262.006 183.282C262.767 182.522 262.767 181.571 262.006 180.811C261.626 180.43 261.245 180.24 260.865 180.24C260.484 180.24 260.104 180.43 259.723 180.811C259.152 181.381 258.962 182.522 259.723 183.282C260.294 183.852 261.435 183.852 262.006 183.282Z" fill="white"/>
<path d="M246.786 131C246.406 131 246.025 131.19 245.645 131.38C245.074 131.951 244.884 133.091 245.645 133.852C246.215 134.422 247.357 134.612 247.927 133.852C248.498 133.281 248.688 132.141 247.927 131.57C247.737 131.19 247.167 131 246.786 131Z" fill="white"/>
<path d="M230.234 147.54C229.854 147.54 229.283 147.73 229.093 148.11C228.522 148.681 228.332 149.821 229.093 150.582C229.664 151.152 230.805 151.342 231.376 150.582C231.947 150.012 231.947 148.871 231.376 148.3C230.995 147.73 230.615 147.54 230.234 147.54Z" fill="white"/>
<path d="M238.415 139.365C238.035 139.365 237.654 139.555 237.274 139.935C236.703 140.506 236.513 141.646 237.274 142.407C237.845 142.977 238.986 143.167 239.557 142.407C240.128 141.837 240.128 140.696 239.557 140.125C239.367 139.365 238.986 139.365 238.415 139.365Z" fill="white"/>
<path d="M221.863 155.905C221.483 155.905 220.912 156.095 220.722 156.476C220.151 157.046 219.961 158.187 220.722 158.947C221.293 159.518 222.434 159.708 223.005 158.947C223.576 158.377 223.576 157.236 223.005 156.666C222.624 156.095 222.244 155.905 221.863 155.905Z" fill="white"/>
<path d="M213.492 164.271C213.112 164.271 212.731 164.461 212.351 164.841C211.78 165.411 211.59 166.552 212.351 167.312C212.922 167.883 214.063 168.073 214.634 167.312C215.205 166.742 215.205 165.601 214.634 165.031C214.444 164.271 214.063 164.271 213.492 164.271Z" fill="white"/>
<path d="M196.941 180.811C196.56 180.811 195.989 181.001 195.799 181.381C195.228 181.951 195.038 183.092 195.799 183.852C196.37 184.423 197.511 184.613 198.082 183.852C198.653 183.282 198.653 182.141 198.082 181.571C197.702 181.001 197.321 180.811 196.941 180.811Z" fill="white"/>
<path d="M205.312 172.446C204.931 172.446 204.551 172.636 204.17 172.826C203.599 173.396 203.409 174.537 204.17 175.297C204.741 175.868 205.882 176.058 206.453 175.297C207.024 174.727 207.214 173.586 206.453 173.016C206.073 172.636 205.692 172.446 205.312 172.446Z" fill="white"/>
</svg>
