<svg width="321" height="308" viewBox="0 0 321 308" fill="none" xmlns="http://www.w3.org/2000/svg">
<path d="M249.641 164.478C249.641 212.914 210.518 252.043 162.089 252.043C113.66 252.043 74.5369 212.914 74.5369 164.478C74.5369 116.041 113.66 76.9121 162.089 76.9121C210.518 76.9121 249.641 116.231 249.641 164.478Z" fill="url(#paint0_radial)"/>
<path d="M174.769 136.5H145.231C144.489 136.5 143.787 136.165 143.32 135.59C142.852 135.014 142.67 134.258 142.822 133.533L143.895 128.428C144.451 125.785 146.815 123.867 149.516 123.867H151.924L151.048 120.362C150.864 119.627 151.029 118.848 151.496 118.251C151.962 117.654 152.678 117.304 153.436 117.304H166.564C167.322 117.304 168.038 117.654 168.505 118.251C168.971 118.848 169.136 119.627 168.952 120.362L168.076 123.867H170.485C173.186 123.867 175.55 125.785 176.105 128.428L177.178 133.533C177.331 134.258 177.148 135.014 176.681 135.59C176.213 136.165 175.511 136.5 174.769 136.5Z" fill="#754C29"/>
<path fill-rule="evenodd" clip-rule="evenodd" d="M181.913 127.844H189.539C190.898 127.844 192 128.946 192 130.305V199.539C192 200.898 190.898 202 189.539 202H130.462C129.102 202 128 200.898 128 199.539V130.305C128 128.946 129.102 127.844 130.462 127.844H138.205C138.205 127.844 137.921 130.699 138.004 133.217C138.007 133.323 138.011 133.428 138.014 133.533C138.09 135.896 138.148 137.726 139.498 139.388C140.906 141.122 142.996 142.117 145.231 142.117H174.769C177.004 142.117 179.094 141.122 180.503 139.387C181.911 137.652 182.079 135.566 181.996 133.216L181.913 127.844ZM160 154.586H140.308C138.949 154.586 137.846 153.484 137.846 152.125C137.846 150.766 138.949 149.664 140.308 149.664H160C161.36 149.664 162.462 150.766 162.462 152.125C162.462 153.484 161.36 154.586 160 154.586ZM140.308 167.055H160C161.36 167.055 162.462 165.953 162.462 164.594C162.462 163.235 161.36 162.133 160 162.133H140.308C138.949 162.133 137.846 163.235 137.846 164.594C137.846 165.953 138.949 167.055 140.308 167.055ZM160 179.523H140.308C138.949 179.523 137.846 178.422 137.846 177.062C137.846 175.703 138.949 174.602 140.308 174.602H160C161.36 174.602 162.462 175.703 162.462 177.062C162.462 178.422 161.36 179.523 160 179.523ZM140.308 191.992H160C161.36 191.992 162.462 190.89 162.462 189.531C162.462 188.172 161.36 187.07 160 187.07H140.308C138.949 187.07 137.846 188.172 137.846 189.531C137.846 190.89 138.949 191.992 140.308 191.992ZM181.433 162.854L174.471 169.814C173.99 170.295 173.36 170.535 172.73 170.535C172.101 170.535 171.47 170.295 170.99 169.814L167.509 166.334C166.547 165.373 166.547 163.815 167.509 162.854C168.47 161.893 170.029 161.893 170.99 162.854L172.73 164.594L177.952 159.373C178.913 158.413 180.472 158.412 181.433 159.373C182.394 160.334 182.394 161.893 181.433 162.854ZM174.471 157.345L181.433 150.385C182.394 149.424 182.394 147.866 181.433 146.905C180.472 145.943 178.913 145.944 177.952 146.905L172.73 152.125L170.99 150.385C170.029 149.424 168.47 149.424 167.509 150.385C166.547 151.346 166.547 152.904 167.509 153.865L170.99 157.345C171.47 157.826 172.101 158.066 172.73 158.066C173.36 158.066 173.99 157.826 174.471 157.345Z" fill="#F7931E"/>
<path d="M148.415 108.443C147.655 108.443 146.896 107.874 146.706 107.114C146.516 106.164 147.086 105.214 148.035 105.024C148.985 104.834 149.744 105.404 149.934 106.354C150.124 107.304 149.555 108.063 148.605 108.253C148.605 108.443 148.605 108.443 148.415 108.443ZM145.946 96.8566C145.186 96.8566 144.427 96.2868 144.237 95.527C144.047 94.5772 144.617 93.6275 145.566 93.4375C146.516 93.2476 147.276 93.8174 147.465 94.5772C147.655 95.527 147.086 96.2868 146.136 96.4767C146.136 96.8566 146.136 96.8566 145.946 96.8566ZM143.477 85.4598C142.718 85.4598 141.958 84.8899 141.768 84.1301C141.578 83.1804 142.148 82.2307 143.097 82.0407C144.047 81.8508 144.807 82.4206 144.997 83.1804C145.186 84.1301 144.617 84.8899 143.667 85.0799C143.667 85.4598 143.667 85.4598 143.477 85.4598ZM141.008 74.0629C140.249 74.0629 139.489 73.4931 139.299 72.7333C139.109 71.7836 139.679 70.8338 140.628 70.6439C141.578 70.4539 142.338 71.0238 142.528 71.9735C142.718 72.9233 142.148 73.683 141.198 73.873C141.198 74.0629 141.008 74.0629 141.008 74.0629ZM138.539 62.4762C137.78 62.4762 137.02 61.9063 136.83 61.1465C136.64 60.1968 137.21 59.2471 138.159 59.0571C139.109 58.8672 139.869 59.437 140.059 60.1968C140.249 61.1465 139.679 61.9063 138.729 62.0963C138.729 62.4762 138.539 62.4762 138.539 62.4762ZM136.07 51.0793C135.311 51.0793 134.551 50.5095 134.361 49.7497C134.171 48.8 134.741 47.8502 135.691 47.6603C136.64 47.4703 137.4 48.0402 137.59 48.8C137.78 49.7497 137.21 50.5095 136.26 50.6994C136.26 51.0793 136.07 51.0793 136.07 51.0793ZM133.601 39.6825C132.842 39.6825 132.082 39.1127 131.892 38.3529C131.702 37.4031 132.272 36.4534 133.222 36.2635C134.171 36.0735 134.931 36.6434 135.121 37.4031C135.311 38.3529 134.741 39.1127 133.791 39.3026C133.791 39.6825 133.601 39.6825 133.601 39.6825ZM130.943 28.0957C130.183 28.0957 129.423 27.5259 129.233 26.7661C129.043 25.8164 129.613 24.8666 130.563 24.6767C131.512 24.4867 132.272 25.0566 132.462 26.0063C132.652 26.956 132.082 27.7158 131.133 27.9058C131.322 28.0957 131.133 28.0957 130.943 28.0957ZM128.474 16.6989C127.714 16.6989 126.954 16.1291 126.764 15.3693C126.574 14.4195 127.144 13.4698 128.094 13.2799C129.043 13.0899 129.803 13.6598 129.993 14.4195C130.183 15.3693 129.613 16.1291 128.664 16.319C128.854 16.6989 128.664 16.6989 128.474 16.6989Z" fill="#EF4223"/>
<path d="M125.815 103.505C125.245 103.505 124.675 103.125 124.296 102.555C123.916 101.795 124.106 100.655 124.865 100.276C125.625 99.8957 126.575 100.086 127.144 100.845C127.524 101.605 127.334 102.745 126.385 103.125C126.385 103.505 126.195 103.505 125.815 103.505ZM120.117 93.2475C119.548 93.2475 118.978 92.8676 118.598 92.2978C118.218 91.538 118.408 90.3983 119.168 90.0184C119.927 89.6385 120.877 89.8285 121.447 90.5883C121.827 91.3481 121.637 92.4878 120.877 92.8676C120.687 93.2475 120.497 93.2475 120.117 93.2475ZM114.42 82.9904C113.85 82.9904 113.28 82.6105 112.9 82.2306C112.521 81.4708 112.711 80.3311 113.47 79.9512C114.23 79.5714 115.179 79.7613 115.749 80.5211C116.129 81.2809 115.939 82.4206 115.179 82.8005C114.99 82.9904 114.8 82.9904 114.42 82.9904ZM108.722 72.7333C108.152 72.7333 107.583 72.3534 107.203 71.9735C106.823 71.2137 107.013 70.074 107.773 69.6941C108.532 69.3142 109.482 69.5042 110.052 70.2639C110.432 71.0237 110.242 72.1634 109.482 72.5433C109.292 72.7333 109.102 72.7333 108.722 72.7333ZM103.215 62.4761C102.645 62.4761 102.075 62.0962 101.695 61.5264C101.315 60.7666 101.505 59.6269 102.265 59.247C103.025 58.8671 103.974 59.0571 104.544 59.8169C104.924 60.5766 104.734 61.7163 103.974 62.0962C103.594 62.4761 103.405 62.4761 103.215 62.4761Z" fill="#EF4223"/>
<path d="M107.773 114.712C107.393 114.712 107.013 114.522 106.633 114.332C105.873 113.762 105.873 112.622 106.443 111.862C107.013 111.103 108.152 111.103 108.722 111.672C109.482 112.242 109.482 113.382 108.912 113.952C108.722 114.522 108.342 114.712 107.773 114.712ZM99.2263 106.924C98.8465 106.924 98.4666 106.734 98.0868 106.544C97.3271 105.974 97.3271 104.834 97.8969 104.075C98.4666 103.315 99.6061 103.315 100.176 103.885C100.936 104.454 100.936 105.594 100.366 106.164C99.986 106.734 99.6061 106.924 99.2263 106.924ZM90.4901 99.136C90.1103 99.136 89.7304 98.946 89.3506 98.7561C88.5909 98.1862 88.5909 97.0465 89.1607 96.2867C89.7304 95.527 90.8699 95.527 91.4397 96.0968C92.1994 96.6666 92.1993 97.8063 91.6296 98.3762C91.4397 98.946 90.8699 99.136 90.4901 99.136ZM81.7539 91.1582C81.374 91.1582 80.9942 90.9682 80.6144 90.7783C79.8547 90.2084 79.8547 89.0688 80.4244 88.309C80.9942 87.5492 82.1337 87.5492 82.7034 88.119C83.4631 88.6889 83.4631 89.8286 82.8934 90.3984C82.7035 90.9682 82.1337 91.1582 81.7539 91.1582ZM73.0176 83.3703C72.6378 83.3703 72.258 83.1804 71.8781 82.9905C71.1185 82.4206 71.1185 81.2809 71.6882 80.5211C72.258 79.7614 73.3975 79.7614 73.9672 80.3312C74.7269 80.901 74.7269 82.0407 74.1571 82.6106C73.9672 83.1804 73.5874 83.3703 73.0176 83.3703ZM64.2814 75.3926C63.9016 75.3926 63.5217 75.2026 63.1419 75.0127C62.3822 74.4428 62.3822 73.3032 62.952 72.5434C63.5217 71.7836 64.6612 71.7836 65.231 72.3534C65.9907 72.9233 65.9907 74.0629 65.4209 74.6328C65.231 75.2026 64.8512 75.3926 64.2814 75.3926ZM55.7351 67.6047C55.3553 67.6047 54.9754 67.4148 54.5956 67.2249C53.8359 66.655 53.8359 65.5153 54.4057 64.7555C54.9754 63.9958 56.1149 63.9957 56.6847 64.5656C57.4444 65.1354 57.4444 66.2751 56.8746 66.845C56.4948 67.4148 56.1149 67.6047 55.7351 67.6047ZM46.9989 59.627C46.619 59.627 46.2392 59.437 45.8594 59.2471C45.0997 58.6772 45.0997 57.5376 45.6695 56.7778C46.2392 56.018 47.3787 56.018 47.9485 56.5878C48.7081 57.1577 48.7081 58.2973 48.1384 58.8672C47.9485 59.437 47.3787 59.627 46.9989 59.627ZM38.2627 51.8391C37.8828 51.8391 37.503 51.6492 37.1231 51.4592C36.3635 50.8894 36.3635 49.7497 36.9332 48.9899C37.503 48.2302 38.6425 48.2301 39.2122 48.8C39.9719 49.3698 39.9719 50.5095 39.4022 51.0794C39.2122 51.6492 38.6425 51.8391 38.2627 51.8391Z" fill="#EF4223"/>
<path d="M106.823 136.176C106.633 136.176 106.443 136.176 106.063 135.986C105.304 135.606 104.734 134.656 105.114 133.706C105.494 132.946 106.443 132.567 107.203 132.757C107.963 133.136 108.342 134.086 107.963 135.036C107.963 135.796 107.393 136.176 106.823 136.176ZM96.1876 131.237C95.9977 131.237 95.8078 131.237 95.4279 131.047C94.6683 130.667 94.0985 129.717 94.6683 128.768C95.0481 128.008 95.9977 127.628 96.7574 128.008C97.517 128.388 97.8969 129.337 97.517 130.287C97.3271 130.857 96.7574 131.237 96.1876 131.237ZM85.3623 126.488C85.1724 126.488 84.9825 126.488 84.6026 126.298C83.8429 125.918 83.2732 124.969 83.843 124.019C84.2228 123.259 85.1724 122.879 85.932 123.259C86.6917 123.639 87.0716 124.589 86.6917 125.539C86.6917 126.108 86.122 126.488 85.3623 126.488ZM74.7269 121.55C74.537 121.55 74.3471 121.55 73.9672 121.36C73.2075 120.98 72.6378 120.03 73.2075 119.08C73.5874 118.321 74.537 117.941 75.2966 118.321C76.0563 118.7 76.4361 119.65 76.0563 120.6C76.0563 121.17 75.4866 121.55 74.7269 121.55ZM64.0915 116.801C63.9016 116.801 63.7117 116.801 63.3318 116.611C62.5721 116.231 62.0024 115.281 62.5721 114.332C62.952 113.572 63.9016 113.192 64.6612 113.572C65.4209 113.952 65.8007 114.901 65.4209 115.851C65.231 116.421 64.6612 116.801 64.0915 116.801ZM53.4561 111.862C53.2662 111.862 53.0762 111.862 52.6964 111.672C51.9367 111.293 51.367 110.343 51.7468 109.393C52.1267 108.633 53.0762 108.063 53.8359 108.443C54.5956 108.823 54.9754 109.773 54.5956 110.723C54.5956 111.482 54.0258 111.862 53.4561 111.862ZM42.8207 106.924C42.6308 106.924 42.4408 106.924 42.061 106.734C41.3013 106.354 40.7316 105.404 41.1114 104.454C41.4913 103.695 42.4408 103.315 43.2005 103.695C43.9602 104.075 44.34 105.024 43.9602 105.974C43.9602 106.734 43.3904 106.924 42.8207 106.924ZM31.9954 102.175C31.8054 102.175 31.6155 102.175 31.2357 101.985C30.476 101.605 29.9063 100.655 30.2861 99.7057C30.6659 98.9459 31.6155 98.566 32.3752 98.9459C33.1349 99.3258 33.5147 100.276 33.1349 101.225C33.3248 101.795 32.755 102.175 31.9954 102.175ZM21.3599 97.2364C21.17 97.2364 20.9801 97.2364 20.6003 97.0465C19.8406 96.6666 19.2709 95.7168 19.6507 94.7671C20.0305 94.0073 20.9801 93.6274 21.7398 94.0073C22.4995 94.3872 22.8793 95.3369 22.4995 96.2867C22.6894 96.8565 22.1196 97.2364 21.3599 97.2364Z" fill="#EF4223"/>
<path d="M85.1724 148.522C85.1724 148.522 84.9825 148.522 84.7926 148.522C83.843 148.332 83.2732 147.572 83.4631 146.623C83.653 145.673 84.4127 145.103 85.3623 145.293C86.3119 145.483 86.8817 146.243 86.6917 147.193C86.6917 147.952 85.9321 148.522 85.1724 148.522ZM73.5874 146.433C73.5874 146.433 73.3975 146.433 73.2076 146.433C72.258 146.243 71.6882 145.483 71.8781 144.533C72.0681 143.584 72.8277 143.014 73.7773 143.204C74.7269 143.394 75.2967 144.153 75.1067 145.103C75.1067 145.863 74.537 146.433 73.5874 146.433ZM62.1923 144.343C62.1923 144.343 62.0024 144.343 61.8125 144.343C60.8629 144.153 60.2931 143.394 60.4831 142.444C60.673 141.494 61.4326 140.924 62.3822 141.114C63.3318 141.304 63.9016 142.064 63.7117 143.014C63.5217 143.773 62.952 144.343 62.1923 144.343ZM50.6073 142.444C50.6073 142.444 50.4174 142.444 50.2275 142.444C49.2779 142.254 48.7081 141.494 48.8981 140.544C49.088 139.595 49.8476 139.025 50.7972 139.215C51.7468 139.405 52.3166 140.164 52.1267 141.114C51.9367 141.874 51.367 142.444 50.6073 142.444ZM39.0223 140.354H38.8324C37.8828 140.164 37.3131 139.405 37.503 138.455C37.6929 137.505 38.4526 136.935 39.4022 137.125C40.3518 137.315 40.9215 138.075 40.7316 139.025C40.5417 139.785 39.782 140.354 39.0223 140.354ZM27.4373 138.265C27.4373 138.265 27.2474 138.265 27.0575 138.265C26.1079 138.075 25.5382 137.315 25.7281 136.366C25.918 135.416 26.6777 134.846 27.6273 135.036C28.5768 135.226 29.1466 135.986 28.9567 136.935C28.9567 137.695 28.197 138.265 27.4373 138.265ZM15.8523 136.176C15.8523 136.176 15.6624 136.176 15.4725 136.176C14.5229 135.986 13.9532 135.226 14.1431 134.276C14.333 133.326 15.0927 132.757 16.0423 132.946C16.9918 133.136 17.5616 133.896 17.3717 134.846C17.3717 135.606 16.8019 136.176 15.8523 136.176Z" fill="#EF4223"/>
<path d="M167.407 86.0295C166.267 85.8396 165.698 85.0798 165.698 84.1301C165.698 83.1803 166.647 82.4205 167.597 82.6105C168.546 82.6105 169.116 83.5602 169.116 84.32C168.926 85.2697 168.356 86.0295 167.407 86.0295ZM168.546 74.2528C168.356 74.2528 168.356 74.2528 168.546 74.2528C167.407 74.2528 166.837 73.3031 166.837 72.5433C166.837 71.5936 167.787 70.8338 168.546 71.0237C169.496 71.0237 170.066 71.7835 170.066 72.7332C170.066 73.683 169.306 74.2528 168.546 74.2528ZM169.496 62.666C168.356 62.4761 167.787 61.7163 167.787 60.7666C167.787 59.8168 168.736 59.057 169.686 59.247C170.635 59.247 171.205 60.1967 171.205 60.9565C171.015 61.9063 170.445 62.666 169.496 62.666ZM170.635 50.8893C170.445 50.8893 170.445 50.8893 170.635 50.8893C169.496 50.8893 168.926 49.9396 168.926 49.1798C168.926 48.2301 169.876 47.4703 170.635 47.6602C171.585 47.6602 172.155 48.42 172.155 49.3697C172.155 50.3195 171.395 50.8893 170.635 50.8893ZM171.585 39.3026C170.445 39.1126 169.876 38.3528 169.876 37.4031C169.876 36.4533 170.825 35.6936 171.775 35.8835C172.724 35.8835 173.294 36.8332 173.294 37.593C173.104 38.5428 172.535 39.3026 171.585 39.3026ZM172.724 27.5258C172.535 27.5258 172.535 27.5258 172.724 27.5258C171.585 27.3359 171.015 26.5761 171.015 25.6264C171.015 24.6766 171.965 23.9168 172.914 24.1068C173.864 24.1068 174.434 25.0565 174.434 25.8163C174.244 26.956 173.484 27.5258 172.724 27.5258ZM173.674 15.9391C172.535 15.7491 171.965 14.9893 171.965 14.0396C171.965 13.0899 172.914 12.3301 173.864 12.52C174.814 12.52 175.383 13.4697 175.383 14.2295C175.193 15.1793 174.624 15.9391 173.674 15.9391ZM174.814 4.16234C174.624 4.16234 174.624 4.16234 174.814 4.16234C173.674 3.97239 173.104 3.2126 173.104 2.26287C173.104 1.31313 174.054 0.553344 175.003 0.743291C175.953 0.743291 176.523 1.69303 176.523 2.45281C176.333 3.5925 175.573 4.16234 174.814 4.16234Z" fill="#EF4223"/>
<path d="M183.55 106.734C183.36 106.734 183.17 106.734 182.98 106.544C182.22 106.164 181.651 105.214 182.031 104.454C182.41 103.695 183.36 103.125 184.31 103.505C185.069 103.885 185.639 104.834 185.259 105.594C184.879 106.354 184.31 106.734 183.55 106.734ZM188.108 95.9068C187.918 95.9068 187.728 95.9068 187.538 95.7169C186.779 95.337 186.209 94.3872 186.589 93.6274C186.968 92.8677 187.918 92.2978 188.868 92.6777C189.627 93.0576 190.197 94.0073 189.817 94.7671C189.437 95.5269 188.868 95.9068 188.108 95.9068ZM192.666 85.0798C192.476 85.0798 192.286 85.0798 192.096 84.8899C191.337 84.51 190.767 83.5602 191.147 82.8005C191.526 82.0407 192.476 81.4708 193.236 81.8507C193.995 82.2306 194.565 83.1804 194.185 83.9401C193.995 84.6999 193.236 85.0798 192.666 85.0798ZM197.224 74.2528C197.034 74.2528 196.844 74.2528 196.654 74.0629C195.895 73.683 195.325 72.7333 195.705 71.9735C196.084 71.2137 197.034 70.6438 197.794 71.0237C198.553 71.4036 199.123 72.3534 198.743 73.1132C198.364 73.8729 197.794 74.2528 197.224 74.2528ZM201.592 63.4258C201.402 63.4258 201.212 63.4259 201.022 63.2359C200.263 62.856 199.693 61.9063 200.073 61.1465C200.453 60.3867 201.402 59.8169 202.352 60.1967C203.111 60.5766 203.681 61.5264 203.301 62.2862C202.922 63.046 202.352 63.4258 201.592 63.4258ZM206.15 52.5989C205.96 52.5989 205.77 52.5989 205.58 52.4089C204.821 52.029 204.251 51.0793 204.631 50.3195C205.011 49.5597 205.96 48.9899 206.91 49.3698C207.669 49.7497 208.239 50.6994 207.859 51.4592C207.48 52.219 206.91 52.5989 206.15 52.5989ZM210.708 41.7719C210.518 41.7719 210.328 41.7719 210.138 41.5819C209.379 41.202 208.809 40.2523 209.189 39.4925C209.569 38.7327 210.518 38.1629 211.468 38.5428C212.228 38.9227 212.797 39.8724 212.417 40.6322C212.038 41.392 211.278 41.7719 210.708 41.7719ZM215.266 30.9449C215.076 30.9449 214.886 30.9449 214.696 30.7549C213.937 30.375 213.367 29.4253 213.747 28.6655C214.127 27.9057 215.076 27.3359 216.026 27.7158C216.786 28.0957 217.355 29.0454 216.975 29.8052C216.406 30.565 215.836 30.9449 215.266 30.9449ZM219.634 20.1179C219.444 20.1179 219.254 20.1179 219.065 19.928C218.305 19.5481 217.735 18.5983 218.115 17.8385C218.495 17.0788 219.444 16.5089 220.204 16.8888C220.964 17.2687 221.533 18.2184 221.154 18.9782C220.964 19.738 220.394 20.1179 219.634 20.1179Z" fill="#EF4223"/>
<path d="M218.115 92.2979C217.735 92.2979 217.355 92.1079 217.165 91.918C216.406 91.3482 216.216 90.3984 216.785 89.6386C217.355 88.8788 218.495 88.6889 219.064 89.2587C219.824 89.8286 220.014 90.7783 219.444 91.5381C219.064 92.1079 218.685 92.2979 218.115 92.2979ZM225.332 83.1804C224.952 83.1804 224.572 82.9905 224.382 82.8005C223.622 82.2307 223.433 81.281 224.002 80.5212C224.572 79.7614 225.712 79.5714 226.281 80.1413C227.041 80.7111 227.231 81.6609 226.661 82.4206C226.471 82.8005 225.901 83.1804 225.332 83.1804ZM232.738 73.873C232.359 73.873 231.979 73.6831 231.789 73.4931C231.029 72.9233 231.029 71.9735 231.599 71.2138C232.169 70.454 233.308 70.264 233.878 70.8339C234.638 71.4037 234.828 72.3534 234.258 73.1132C233.688 73.6831 233.118 73.873 232.738 73.873ZM239.955 64.7556C239.576 64.7556 239.196 64.5656 239.006 64.3757C238.246 63.8058 238.246 62.6661 238.816 62.0963C239.386 61.3365 240.525 61.1466 241.095 61.7164C241.855 62.2862 242.044 63.236 241.475 63.9958C240.905 64.5656 240.525 64.7556 239.955 64.7556ZM247.172 55.4481C246.792 55.4481 246.413 55.2582 246.223 55.0683C245.463 54.4984 245.463 53.5487 246.033 52.7889C246.603 52.0291 247.742 51.8392 248.312 52.409C249.071 52.9788 249.261 53.9286 248.692 54.6884C248.312 55.2582 247.742 55.4481 247.172 55.4481ZM254.579 46.3307C254.199 46.3307 253.819 46.1407 253.629 45.9508C252.87 45.381 252.87 44.2413 253.44 43.6714C254.009 42.9116 255.149 42.7217 255.719 43.2915C256.478 43.8614 256.668 44.8111 256.098 45.5709C255.529 46.1407 254.959 46.3307 254.579 46.3307Z" fill="#EF4223"/>
<path d="M213.177 126.298C212.607 126.298 212.038 126.108 211.848 125.538C211.278 124.779 211.468 123.829 212.227 123.259C212.987 122.689 214.127 122.879 214.506 123.639C215.076 124.399 214.886 125.349 214.127 125.918C213.747 126.108 213.557 126.298 213.177 126.298ZM222.863 119.65C222.293 119.65 221.723 119.46 221.533 118.89C220.964 118.131 221.154 117.181 221.913 116.611C222.673 116.041 223.812 116.231 224.192 116.991C224.572 117.751 224.572 118.7 223.812 119.27C223.623 119.65 223.243 119.65 222.863 119.65ZM232.549 113.002C231.979 113.002 231.409 112.812 231.219 112.242C230.65 111.482 230.839 110.533 231.599 109.963C232.359 109.393 233.498 109.583 233.878 110.343C234.448 111.103 234.258 112.052 233.498 112.622C233.308 113.002 232.929 113.002 232.549 113.002ZM242.424 106.544C241.855 106.544 241.285 106.354 241.095 105.784C240.525 105.024 240.715 104.074 241.475 103.505C242.234 102.935 243.374 103.125 243.754 103.885C244.324 104.644 244.134 105.594 243.374 106.164C242.994 106.354 242.614 106.544 242.424 106.544ZM252.11 99.8956C251.54 99.8956 250.971 99.7057 250.781 99.1359C250.211 98.3761 250.401 97.4263 251.161 96.8565C251.92 96.2866 253.06 96.4766 253.44 97.2364C254.009 97.9962 253.819 98.9459 253.06 99.5157C252.68 99.8956 252.3 99.8956 252.11 99.8956ZM261.796 93.4374C261.226 93.4374 260.657 93.2475 260.467 92.6777C259.897 91.9179 260.087 90.9681 260.846 90.3983C261.606 89.8284 262.746 90.0184 263.125 90.7782C263.695 91.538 263.505 92.4877 262.746 93.0575C262.366 93.2475 261.986 93.4374 261.796 93.4374ZM271.482 86.7893C270.912 86.7893 270.342 86.5993 270.152 86.0295C269.583 85.2697 269.773 84.32 270.532 83.7501C271.292 83.1803 272.431 83.3702 272.811 84.13C273.381 84.8898 273.191 85.8396 272.431 86.4094C272.052 86.5993 271.862 86.7893 271.482 86.7893ZM281.168 80.1411C280.598 80.1411 280.028 79.9512 279.838 79.3814C279.268 78.6216 279.458 77.6718 280.218 77.102C280.978 76.5321 282.117 76.7221 282.497 77.4819C283.067 78.2417 282.877 79.1914 282.117 79.7612C281.737 80.1411 281.548 80.1411 281.168 80.1411ZM290.853 73.6829C290.284 73.6829 289.714 73.493 289.524 72.9232C288.954 72.1634 289.144 71.2136 289.904 70.6438C290.664 70.0739 291.803 70.2639 292.183 71.0237C292.563 71.7835 292.563 72.7332 291.803 73.303C291.613 73.493 291.233 73.6829 290.853 73.6829ZM300.539 67.0348C299.97 67.0348 299.4 66.8448 299.21 66.275C298.64 65.5152 298.83 64.5655 299.59 63.9956C300.349 63.4258 301.489 63.6157 301.869 64.3755C302.438 65.1353 302.249 66.0851 301.489 66.6549C301.299 67.0348 300.919 67.0348 300.539 67.0348Z" fill="#EF4223"/>
<path d="M231.409 137.315C230.65 137.315 230.08 136.935 229.89 136.176C229.51 135.226 230.08 134.276 230.84 134.086C231.789 133.706 232.739 134.276 232.929 135.036C233.308 135.986 232.739 136.745 231.979 137.125C231.789 137.315 231.599 137.315 231.409 137.315ZM242.425 133.516C241.665 133.516 241.095 133.136 240.905 132.377C240.525 131.427 241.095 130.477 241.855 130.287C242.804 129.907 243.754 130.477 243.944 131.237C244.134 131.997 243.754 132.946 242.994 133.326C242.804 133.516 242.614 133.516 242.425 133.516ZM253.44 129.527C252.68 129.527 252.11 129.148 251.92 128.388C251.541 127.438 252.11 126.488 252.87 126.298C253.82 125.918 254.769 126.488 254.959 127.248C255.339 128.198 254.769 128.958 254.01 129.337C253.82 129.527 253.63 129.527 253.44 129.527ZM264.645 125.728C263.885 125.728 263.316 125.349 263.126 124.589C262.746 123.639 263.316 122.689 264.075 122.499C265.025 122.119 265.974 122.689 266.164 123.449C266.544 124.399 265.974 125.159 265.215 125.539C265.025 125.728 264.835 125.728 264.645 125.728ZM275.66 121.93C274.901 121.93 274.331 121.55 274.141 120.79C273.761 119.84 274.331 118.89 275.09 118.7C276.04 118.321 276.99 118.89 277.18 119.65C277.559 120.6 276.99 121.36 276.23 121.74C276.04 121.93 275.85 121.93 275.66 121.93ZM286.675 118.131C285.916 118.131 285.346 117.751 285.156 116.991C284.776 116.041 285.346 115.091 286.106 114.901C287.055 114.522 288.005 115.091 288.195 115.851C288.575 116.801 288.005 117.561 287.245 117.941C287.055 118.131 286.865 118.131 286.675 118.131Z" fill="#EF4223"/>
<path d="M211.468 158.399C210.708 158.399 209.948 157.83 209.759 156.88C209.759 155.93 210.328 155.17 211.278 155.17C212.227 155.17 212.987 155.74 213.177 156.69C213.177 157.64 212.607 158.399 211.658 158.399H211.468ZM223.053 157.26C222.293 157.26 221.533 156.69 221.344 155.74C221.344 154.79 221.913 154.031 222.863 154.031C223.812 154.031 224.572 154.6 224.762 155.55C224.762 156.5 224.192 157.26 223.243 157.26H223.053C223.243 157.26 223.243 157.26 223.053 157.26ZM234.828 156.31C234.068 156.31 233.308 155.74 233.118 154.79C233.118 153.841 233.688 153.081 234.638 153.081C235.587 153.081 236.347 153.651 236.537 154.6C236.537 155.55 235.967 156.31 235.018 156.31H234.828ZM246.413 155.36C245.653 155.36 244.893 154.79 244.703 153.841C244.703 152.891 245.273 152.131 246.223 152.131C247.172 152.131 247.932 152.701 248.122 153.651C248.122 154.6 247.552 155.36 246.603 155.36H246.413C246.603 155.36 246.603 155.36 246.413 155.36ZM258.188 154.221C257.428 154.221 256.668 153.651 256.478 152.701C256.478 151.751 257.048 150.991 257.998 150.991C258.947 150.991 259.707 151.561 259.897 152.511C259.897 153.461 259.327 154.221 258.378 154.221H258.188ZM269.773 153.271C269.013 153.271 268.253 152.701 268.063 151.751C268.063 150.802 268.633 150.042 269.583 150.042C270.532 150.042 271.292 150.612 271.482 151.561C271.482 152.511 270.912 153.271 269.963 153.271H269.773C269.963 153.271 269.963 153.271 269.773 153.271ZM281.548 152.131C280.788 152.131 280.028 151.561 279.838 150.612C279.838 149.662 280.408 148.902 281.358 148.902C282.307 148.902 283.067 149.472 283.257 150.422C283.257 151.371 282.687 152.131 281.737 152.131H281.548ZM293.132 151.181C292.373 151.181 291.613 150.612 291.423 149.662C291.423 148.712 291.993 147.952 292.943 147.952C293.892 147.952 294.652 148.522 294.842 149.472C294.842 150.422 294.272 151.181 293.322 151.181H293.132C293.322 151.181 293.322 151.181 293.132 151.181ZM304.907 150.042C304.148 150.042 303.388 149.472 303.198 148.522C303.198 147.572 303.768 146.813 304.717 146.813C305.667 146.813 306.427 147.382 306.617 148.332C306.617 149.282 306.047 150.042 305.097 150.042H304.907ZM316.492 149.092C315.733 149.092 314.973 148.522 314.783 147.572C314.783 146.623 315.353 145.863 316.302 145.863C317.252 145.863 318.012 146.433 318.202 147.382C318.202 148.332 317.632 149.092 316.682 149.092H316.492C316.682 149.092 316.682 149.092 316.492 149.092Z" fill="#EF4223"/>
<path d="M318.582 189.741C318.392 189.741 318.392 189.741 318.202 189.741C317.252 189.551 316.682 188.791 316.872 187.841C317.062 186.891 317.822 186.322 318.772 186.512C319.721 186.701 320.291 187.461 320.101 188.411C320.101 189.171 319.341 189.741 318.582 189.741ZM306.997 187.651C306.807 187.651 306.807 187.651 306.617 187.651C305.667 187.461 305.097 186.701 305.287 185.752C305.477 184.802 306.237 184.232 307.187 184.422C308.136 184.612 308.706 185.372 308.516 186.322C308.516 187.081 307.756 187.651 306.997 187.651ZM295.602 185.562H295.412C294.462 185.372 293.892 184.612 294.082 183.662C294.272 182.713 295.032 182.143 295.981 182.333C296.931 182.523 297.501 183.282 297.311 184.232C296.931 184.992 296.361 185.562 295.602 185.562ZM284.017 183.662C284.017 183.662 283.827 183.662 283.637 183.662C282.687 183.472 282.117 182.713 282.307 181.763C282.497 180.813 283.257 180.243 284.206 180.433C285.156 180.623 285.726 181.383 285.536 182.333C285.346 183.092 284.776 183.662 284.017 183.662ZM272.432 181.573C272.242 181.573 272.242 181.573 272.052 181.573C271.102 181.383 270.532 180.623 270.722 179.673C270.912 178.724 271.672 178.154 272.621 178.344C273.571 178.534 274.141 179.294 273.951 180.243C273.951 181.003 273.191 181.573 272.432 181.573ZM260.847 179.484H260.657C259.707 179.294 259.137 178.534 259.327 177.584C259.517 176.634 260.277 176.064 261.226 176.254C262.176 176.444 262.746 177.204 262.556 178.154C262.366 178.914 261.606 179.484 260.847 179.484ZM249.262 177.584C249.072 177.584 249.072 177.584 248.882 177.584C247.932 177.394 247.362 176.634 247.552 175.685C247.742 174.735 248.502 174.165 249.451 174.355C250.401 174.545 250.971 175.305 250.781 176.254C250.781 177.014 250.021 177.584 249.262 177.584ZM237.867 175.495C237.867 175.495 237.677 175.495 237.487 175.495C236.537 175.305 235.967 174.545 236.157 173.595C236.347 172.645 237.107 172.076 238.056 172.266C239.006 172.455 239.576 173.215 239.386 174.165C239.196 174.925 238.626 175.495 237.867 175.495Z" fill="#EF4223"/>
<path d="M278.129 217.093C277.939 217.093 277.749 217.093 277.369 216.903C276.61 216.523 276.23 215.573 276.61 214.624C276.99 213.864 277.939 213.484 278.889 213.864C279.648 214.244 280.028 215.194 279.648 216.143C279.459 216.713 278.889 217.093 278.129 217.093ZM267.494 212.154C267.304 212.154 267.114 212.154 266.734 211.964C265.974 211.585 265.595 210.635 265.974 209.685C266.354 208.925 267.304 208.545 268.253 208.925C269.013 209.305 269.393 210.255 269.013 211.205C268.823 211.775 268.253 212.154 267.494 212.154ZM257.048 207.216C256.858 207.216 256.668 207.216 256.289 207.026C255.529 206.646 255.149 205.696 255.529 204.746C255.909 203.797 256.858 203.607 257.808 203.987C258.568 204.367 258.947 205.316 258.568 206.266C258.188 206.836 257.618 207.216 257.048 207.216ZM246.413 202.087C246.223 202.087 246.033 202.087 245.653 201.897C244.893 201.517 244.514 200.568 244.893 199.618C245.273 198.668 246.223 198.478 247.172 198.858C247.932 199.238 248.502 200.188 248.122 201.138C247.552 201.707 246.983 202.087 246.413 202.087ZM235.777 197.149C235.587 197.149 235.398 197.149 235.018 196.959C234.258 196.579 233.878 195.629 234.258 194.679C234.638 193.92 235.587 193.54 236.537 193.92C237.297 194.299 237.677 195.249 237.297 196.199C236.917 196.769 236.347 197.149 235.777 197.149ZM225.142 192.21C224.952 192.21 224.762 192.21 224.382 192.02C223.623 191.64 223.243 190.69 223.623 189.741C224.002 188.981 224.952 188.601 225.902 188.981C226.661 189.361 227.041 190.311 226.661 191.26C226.281 191.83 225.712 192.21 225.142 192.21Z" fill="#EF4223"/>
<path d="M276.989 267.049C276.61 267.049 276.23 266.859 275.85 266.669C275.09 266.099 275.09 264.96 275.66 264.39C276.23 263.63 277.369 263.63 277.939 264.2C278.699 264.77 278.699 265.91 278.129 266.669C277.749 266.859 277.369 267.049 276.989 267.049ZM268.253 259.071C267.873 259.071 267.494 258.881 267.114 258.692C266.354 258.122 266.354 256.982 266.924 256.412C267.494 255.652 268.633 255.652 269.203 256.222C269.962 256.792 269.962 257.932 269.393 258.692C269.203 258.881 268.633 259.071 268.253 259.071ZM259.517 251.284C259.137 251.284 258.757 251.094 258.377 250.904C257.618 250.334 257.618 249.194 258.188 248.624C258.757 247.865 259.897 247.865 260.467 248.434C261.226 249.004 261.226 250.144 260.656 250.904C260.467 251.094 259.897 251.284 259.517 251.284ZM250.781 243.306C250.401 243.306 250.021 243.116 249.641 242.926C248.882 242.356 248.882 241.216 249.451 240.647C250.021 239.887 251.161 239.887 251.73 240.457C252.49 241.026 252.49 242.166 251.92 242.926C251.73 243.116 251.351 243.306 250.781 243.306ZM242.234 235.518C241.855 235.518 241.475 235.328 241.095 235.138C240.335 234.568 240.335 233.429 240.905 232.859C241.475 232.099 242.614 232.099 243.184 232.669C243.944 233.239 243.944 234.378 243.374 235.138C242.994 235.328 242.614 235.518 242.234 235.518ZM233.498 227.54C233.118 227.54 232.739 227.35 232.359 227.16C231.599 226.59 231.599 225.451 232.169 224.881C232.739 224.121 233.878 224.121 234.448 224.691C235.207 225.261 235.207 226.4 234.638 227.16C234.448 227.35 233.878 227.54 233.498 227.54ZM224.762 219.752C224.382 219.752 224.002 219.562 223.622 219.372C222.863 218.803 222.863 217.663 223.433 217.093C224.002 216.333 225.142 216.333 225.712 216.903C226.471 217.473 226.471 218.613 225.901 219.372C225.712 219.562 225.332 219.752 224.762 219.752ZM216.026 211.775C215.646 211.775 215.266 211.585 214.886 211.395C214.127 210.825 214.127 209.685 214.696 209.115C215.266 208.356 216.406 208.356 216.975 208.925C217.735 209.495 217.735 210.635 217.165 211.395C216.975 211.585 216.596 211.775 216.026 211.775ZM207.479 203.987C207.1 203.987 206.72 203.797 206.34 203.607C205.58 203.037 205.58 201.897 206.15 201.327C206.72 200.568 207.859 200.568 208.429 201.138C209.189 201.707 209.189 202.847 208.619 203.607C208.239 203.797 207.859 203.987 207.479 203.987Z" fill="#EF4223"/>
<path d="M235.967 287.753C235.398 287.753 234.828 287.563 234.638 286.994C234.258 286.234 234.448 285.094 235.208 284.714C235.967 284.334 237.107 284.524 237.487 285.284C237.866 286.044 237.677 287.184 236.917 287.563C236.537 287.563 236.157 287.753 235.967 287.753ZM229.89 277.686C229.32 277.686 228.75 277.496 228.56 276.926C228.181 276.167 228.371 275.027 229.13 274.647C229.89 274.267 231.029 274.457 231.409 275.217C231.789 275.977 231.599 277.116 230.839 277.496C230.46 277.496 230.27 277.686 229.89 277.686ZM223.813 267.619C223.243 267.619 222.673 267.429 222.483 266.859C221.913 266.099 222.293 264.96 223.053 264.58C223.813 264.01 224.952 264.39 225.332 265.15C225.902 265.909 225.522 267.049 224.762 267.429C224.572 267.429 224.192 267.619 223.813 267.619ZM217.925 257.552C217.355 257.552 216.786 257.362 216.596 256.792C216.216 256.032 216.406 254.893 217.165 254.513C217.925 254.133 219.065 254.323 219.444 255.082C219.824 255.842 219.634 256.982 218.875 257.362C218.495 257.362 218.115 257.552 217.925 257.552ZM211.848 247.485C211.278 247.485 210.708 247.295 210.518 246.725C210.138 245.965 210.328 244.825 211.088 244.445C211.848 244.066 212.987 244.255 213.367 245.015C213.747 245.775 213.557 246.915 212.797 247.295C212.417 247.295 212.228 247.485 211.848 247.485ZM205.77 237.417C205.201 237.417 204.631 237.227 204.441 236.658C203.871 235.898 204.251 234.758 205.011 234.378C205.77 233.808 206.91 234.188 207.29 234.948C207.669 235.708 207.48 236.848 206.72 237.227C206.53 237.227 206.15 237.417 205.77 237.417ZM199.883 227.35C199.313 227.35 198.743 227.16 198.553 226.59C198.174 225.831 198.364 224.691 199.123 224.311C199.883 223.931 201.022 224.121 201.402 224.881C201.782 225.641 201.592 226.78 200.832 227.16C200.453 227.16 200.073 227.35 199.883 227.35Z" fill="#EF4223"/>
<path d="M194.755 311.687C193.995 311.687 193.426 311.117 193.236 310.547C193.046 309.597 193.616 308.838 194.375 308.458C195.325 308.268 196.085 308.838 196.464 309.597C196.654 310.547 196.085 311.497 195.325 311.687C195.135 311.497 194.945 311.687 194.755 311.687ZM192.096 300.1C191.337 300.1 190.767 299.53 190.577 298.77C190.387 297.821 190.957 297.061 191.906 296.871C192.856 296.681 193.616 297.251 193.806 298.201C193.995 299.15 193.426 300.1 192.476 300.29C192.286 300.1 192.286 300.1 192.096 300.1ZM189.437 288.703C188.678 288.703 188.108 288.133 187.918 287.563C187.728 286.614 188.298 285.854 189.058 285.474C190.007 285.284 190.767 285.854 191.147 286.614C191.337 287.563 190.767 288.513 190.007 288.703C189.627 288.703 189.437 288.703 189.437 288.703ZM186.589 277.306C185.829 277.306 185.259 276.736 185.069 276.167C184.879 275.217 185.449 274.457 186.209 274.077C187.158 273.887 187.918 274.457 188.298 275.217C188.488 276.167 187.918 277.116 187.158 277.306C186.969 277.306 186.779 277.306 186.589 277.306ZM183.93 265.91C183.17 265.91 182.6 265.34 182.41 264.77C182.221 263.82 182.79 263.06 183.55 262.68C184.5 262.49 185.259 263.06 185.639 263.82C185.829 264.77 185.259 265.72 184.5 265.91C184.31 265.91 184.12 265.91 183.93 265.91ZM181.271 254.513C180.511 254.513 179.942 253.943 179.752 253.183C179.562 252.233 180.131 251.473 181.081 251.284C182.031 251.094 182.79 251.663 182.98 252.613C183.17 253.563 182.6 254.513 181.651 254.703C181.461 254.513 181.461 254.513 181.271 254.513ZM178.612 243.116C177.852 243.116 177.283 242.736 177.093 241.976C176.903 241.026 177.473 240.267 178.232 239.887C179.182 239.697 179.942 240.267 180.321 241.026C180.511 241.976 179.942 242.926 179.182 243.116C178.802 243.116 178.612 243.116 178.612 243.116ZM175.763 231.719C175.004 231.719 174.434 231.149 174.244 230.579C174.054 229.63 174.624 228.87 175.384 228.49C176.333 228.3 177.093 228.87 177.473 229.63C177.663 230.579 177.093 231.529 176.333 231.719C176.143 231.719 175.953 231.719 175.763 231.719ZM173.104 220.322C172.345 220.322 171.775 219.942 171.585 219.183C171.395 218.233 171.965 217.473 172.725 217.093C173.674 216.903 174.434 217.473 174.814 218.233C175.004 219.183 174.434 220.132 173.674 220.322C173.484 220.322 173.294 220.322 173.104 220.322Z" fill="#EF4223"/>
<path d="M148.225 301.999C148.035 301.999 148.035 301.999 148.225 301.999C147.086 301.999 146.516 301.05 146.516 300.1C146.516 299.15 147.465 298.39 148.415 298.58C149.365 298.58 149.934 299.34 149.934 300.29C149.744 301.24 148.985 301.999 148.225 301.999ZM149.175 290.223C148.035 290.223 147.465 289.273 147.465 288.323C147.465 287.373 148.415 286.614 149.365 286.804C150.314 286.804 150.884 287.563 150.884 288.513C150.694 289.653 150.124 290.223 149.175 290.223ZM150.314 278.636C150.124 278.636 150.124 278.636 150.314 278.636C149.175 278.636 148.605 277.686 148.605 276.736C148.605 275.787 149.555 275.027 150.504 275.217C151.454 275.217 152.023 275.977 152.023 276.926C151.834 277.876 151.074 278.636 150.314 278.636ZM151.264 266.859C151.264 266.859 151.074 266.859 151.264 266.859C150.124 266.669 149.555 265.909 149.555 264.96C149.555 264.01 150.504 263.25 151.454 263.44C152.403 263.44 152.973 264.39 152.973 265.15C152.783 266.289 152.023 266.859 151.264 266.859ZM152.403 255.272C152.213 255.272 152.213 255.272 152.403 255.272C151.264 255.272 150.694 254.323 150.694 253.373C150.694 252.423 151.644 251.663 152.593 251.853C153.543 251.853 154.113 252.613 154.113 253.563C153.923 254.513 153.163 255.272 152.403 255.272ZM153.353 243.496C152.213 243.496 151.644 242.546 151.644 241.596C151.644 240.646 152.593 239.887 153.543 240.077C154.492 240.077 155.062 240.836 155.062 241.786C154.872 242.926 154.303 243.496 153.353 243.496Z" fill="#EF4223"/>
<path d="M96.9474 314.726C96.7575 314.726 96.5675 314.726 96.3776 314.536C95.6179 314.156 95.0482 313.206 95.428 312.447C95.8079 311.687 96.7575 311.117 97.707 311.497C98.4667 311.877 99.0365 312.826 98.6566 313.586C98.2768 314.346 97.5171 314.726 96.9474 314.726ZM101.505 303.899C101.315 303.899 101.126 303.899 100.936 303.709C100.176 303.329 99.6062 302.379 99.9861 301.62C100.366 300.86 101.315 300.29 102.265 300.67C103.025 301.05 103.595 301.999 103.215 302.759C102.645 303.519 102.075 303.899 101.505 303.899ZM106.063 293.072C105.874 293.072 105.684 293.072 105.494 292.882C104.734 292.502 104.164 291.552 104.544 290.793C104.924 290.033 105.874 289.463 106.823 289.843C107.583 290.223 108.153 291.172 107.773 291.932C107.203 292.692 106.633 293.072 106.063 293.072ZM110.432 282.245C110.242 282.245 110.052 282.245 109.862 282.055C109.102 281.675 108.532 280.725 108.912 279.966C109.292 279.206 110.242 278.636 111.191 279.016C111.951 279.396 112.521 280.345 112.141 281.105C111.761 281.865 111.191 282.245 110.432 282.245ZM114.99 271.418C114.8 271.418 114.61 271.418 114.42 271.228C113.66 270.848 113.09 269.898 113.47 269.139C113.85 268.379 114.8 267.809 115.749 268.189C116.509 268.569 117.079 269.518 116.699 270.278C116.319 271.038 115.749 271.418 114.99 271.418ZM119.548 260.591C119.358 260.591 119.168 260.591 118.978 260.401C118.218 260.021 117.648 259.071 118.028 258.312C118.408 257.552 119.358 256.982 120.307 257.362C121.257 257.742 121.637 258.691 121.257 259.451C120.877 260.211 120.117 260.591 119.548 260.591ZM124.106 249.764C123.916 249.764 123.726 249.764 123.536 249.574C122.776 249.194 122.206 248.244 122.586 247.485C122.966 246.725 123.916 246.155 124.865 246.535C125.625 246.915 126.195 247.864 125.815 248.624C125.245 249.384 124.675 249.764 124.106 249.764ZM128.664 238.937C128.474 238.937 128.284 238.937 128.094 238.747C127.334 238.367 126.764 237.417 127.144 236.658C127.524 235.898 128.474 235.328 129.423 235.708C130.183 236.088 130.753 237.038 130.373 237.797C129.803 238.557 129.233 238.937 128.664 238.937ZM133.032 228.11C132.842 228.11 132.652 228.11 132.462 227.92C131.702 227.54 131.133 226.59 131.512 225.831C131.892 225.071 132.842 224.501 133.791 224.881C134.551 225.261 135.121 226.211 134.741 226.97C134.361 227.73 133.791 228.11 133.032 228.11ZM137.59 217.283C137.4 217.283 137.21 217.283 137.02 217.093C136.26 216.713 135.691 215.763 136.07 215.004C136.45 214.244 137.4 213.674 138.349 214.054C139.109 214.434 139.679 215.384 139.299 216.143C138.919 216.903 138.349 217.283 137.59 217.283Z" fill="#EF4223"/>
<path d="M72.6377 269.898C72.2578 269.898 71.878 269.708 71.6881 269.518C70.9284 268.949 70.9284 267.809 71.4982 267.239C72.0679 266.479 73.2074 266.289 73.7772 266.859C74.5369 267.429 74.7268 268.379 74.157 269.139C73.5873 269.518 73.2074 269.898 72.6377 269.898ZM80.0445 260.781C79.6646 260.781 79.2848 260.591 78.905 260.401C78.1453 259.831 78.1453 258.691 78.7151 258.122C79.2848 257.362 80.4243 257.172 80.9941 257.932C81.7537 258.501 81.7537 259.451 81.184 260.211C80.9941 260.591 80.6142 260.781 80.0445 260.781ZM87.4513 251.663C87.0714 251.663 86.6916 251.473 86.3118 251.283C85.5521 250.714 85.5521 249.574 86.1219 249.004C86.6916 248.244 87.8311 248.244 88.4009 248.814C89.1605 249.384 89.1605 250.334 88.5908 251.094C88.4009 251.473 88.021 251.663 87.4513 251.663ZM94.8581 242.546C94.4782 242.546 94.0984 242.356 93.7186 242.166C92.9589 241.596 92.9589 240.456 93.5287 239.887C94.0984 239.127 95.2379 239.127 95.8077 239.697C96.5673 240.267 96.5673 241.216 95.9976 241.976C95.8077 242.356 95.4278 242.546 94.8581 242.546ZM102.265 233.428C101.885 233.428 101.505 233.239 101.315 233.049C100.556 232.479 100.556 231.339 101.125 230.769C101.695 230.009 102.835 229.819 103.404 230.389C104.164 230.959 104.354 231.909 103.784 232.669C103.214 233.239 102.835 233.428 102.265 233.428ZM109.672 224.311C109.292 224.311 108.912 224.121 108.532 223.931C107.773 223.361 107.772 222.222 108.342 221.652C108.912 220.892 110.052 220.892 110.621 221.462C111.381 222.032 111.381 222.981 110.811 223.741C110.621 224.121 110.241 224.311 109.672 224.311Z" fill="#EF4223"/>
<path d="M28.9566 251.094C28.3868 251.094 27.8171 250.904 27.6272 250.334C27.0574 249.574 27.2473 248.624 28.007 248.054C28.7667 247.485 29.9062 247.675 30.286 248.434C30.8558 249.194 30.6659 250.144 29.9062 250.714C29.5264 250.904 29.3364 251.094 28.9566 251.094ZM38.6424 244.445C38.0727 244.445 37.5029 244.256 37.313 243.686C36.7432 242.926 36.9332 241.976 37.6928 241.406C38.4525 240.836 39.592 241.026 39.9718 241.786C40.5416 242.546 40.3517 243.496 39.592 244.066C39.2122 244.256 39.0223 244.445 38.6424 244.445ZM48.3282 237.797C47.7585 237.797 47.1887 237.607 46.9988 237.038C46.4291 236.278 46.619 235.328 47.3786 234.758C48.1383 234.188 49.2778 234.378 49.6577 235.138C50.2274 235.898 50.0375 236.848 49.2778 237.417C49.0879 237.797 48.7081 237.797 48.3282 237.797ZM58.014 231.339C57.4443 231.339 56.8745 231.149 56.6846 230.579C56.1149 229.82 56.3048 228.87 57.0645 228.3C57.8241 227.73 58.9636 227.92 59.3435 228.68C59.9132 229.44 59.7233 230.389 58.9636 230.959C58.7737 231.149 58.3939 231.339 58.014 231.339ZM67.8898 224.691C67.32 224.691 66.7503 224.501 66.5603 223.931C65.9906 223.171 66.1805 222.222 66.9402 221.652C67.6999 221.082 68.8394 221.272 69.2192 222.032C69.599 222.792 69.599 223.741 68.8394 224.311C68.4595 224.691 68.0797 224.691 67.8898 224.691ZM77.5756 218.043C77.0058 218.043 76.4361 217.853 76.2462 217.283C75.6764 216.523 75.8663 215.574 76.626 215.004C77.3857 214.434 78.5252 214.624 78.905 215.384C79.4748 216.143 79.2849 217.093 78.5252 217.663C78.1454 218.043 77.7655 218.043 77.5756 218.043ZM87.2614 211.585C86.6917 211.585 86.1219 211.395 85.932 210.825C85.3622 210.065 85.5521 209.115 86.3118 208.545C87.0715 207.976 88.211 208.166 88.5908 208.925C88.9707 209.685 88.9707 210.635 88.211 211.205C87.8312 211.395 87.4513 211.585 87.2614 211.585ZM96.9472 204.936C96.3775 204.936 95.8077 204.747 95.6178 204.177C95.048 203.417 95.238 202.467 95.9976 201.897C96.7573 201.327 97.8968 201.517 98.2766 202.277C98.8464 203.037 98.6565 203.987 97.8968 204.557C97.517 204.936 97.3271 204.936 96.9472 204.936ZM106.633 198.478C106.063 198.478 105.494 198.288 105.304 197.718C104.734 196.959 104.924 196.009 105.683 195.439C106.443 194.869 107.583 195.059 107.962 195.819C108.532 196.579 108.342 197.529 107.583 198.098C107.203 198.288 107.013 198.478 106.633 198.478Z" fill="#EF4223"/>
<path d="M1.98831 174.735C1.03872 174.735 0.279053 174.165 0.279053 173.215C0.279053 172.266 0.848806 171.506 1.7984 171.506C2.74799 171.506 3.50766 172.076 3.50766 173.025C3.69758 173.975 2.9379 174.735 1.98831 174.735ZM13.5733 173.785C12.6237 173.785 11.864 173.215 11.864 172.266C11.864 171.316 12.4338 170.556 13.3834 170.556H13.5733C14.5229 170.556 15.2826 171.126 15.2826 172.076C15.4725 173.025 14.7128 173.785 13.5733 173.785C13.7632 173.785 13.7632 173.785 13.5733 173.785ZM25.3482 173.025C24.3986 173.025 23.639 172.455 23.639 171.506C23.639 170.556 24.2087 169.796 25.1583 169.796C26.1079 169.796 26.8676 170.366 26.8676 171.316C27.0575 172.076 26.2978 172.835 25.3482 173.025ZM37.1231 172.076C36.1735 172.076 35.4139 171.506 35.4139 170.556C35.4139 169.606 35.9836 168.846 36.9332 168.846C37.8828 168.846 38.6425 169.416 38.6425 170.366C38.8324 171.126 38.0727 171.886 37.1231 172.076ZM48.7081 171.126C47.7585 171.126 46.9989 170.556 46.9989 169.606C46.9989 168.657 47.5686 167.897 48.5182 167.897C49.4678 167.897 50.2275 168.467 50.2275 169.416C50.4174 170.176 49.8476 171.126 48.7081 171.126C48.898 171.126 48.7081 171.126 48.7081 171.126ZM60.483 170.176C59.5334 170.176 58.7738 169.606 58.7738 168.657C58.7738 167.707 59.3435 166.947 60.2931 166.947C61.2427 166.947 62.0024 167.517 62.0024 168.467C62.1923 169.226 61.4326 170.176 60.483 170.176ZM72.068 169.226C71.1184 169.226 70.3588 168.657 70.3588 167.707C70.3588 166.757 70.9285 165.997 71.8781 165.997C72.8277 165.997 73.5874 166.567 73.5874 167.517C73.7773 168.467 73.2075 169.226 72.068 169.226C72.2579 169.226 72.068 169.226 72.068 169.226ZM83.8429 168.277C82.8933 168.277 82.1337 167.707 82.1337 166.757C82.1337 165.807 82.7034 165.048 83.653 165.048C84.6026 165.048 85.3623 165.617 85.3623 166.567C85.5522 167.517 84.7925 168.277 83.8429 168.277ZM95.4279 167.517C94.4783 167.517 93.7187 166.947 93.7187 165.997C93.7187 165.048 94.2884 164.288 95.238 164.288C96.1876 164.288 96.9473 164.858 96.9473 165.807C97.1372 166.567 96.5674 167.327 95.4279 167.517C95.6178 167.517 95.6178 167.517 95.4279 167.517ZM107.203 166.567C106.253 166.567 105.494 165.997 105.494 165.048C105.494 164.098 106.063 163.338 107.013 163.338C107.963 163.338 108.722 163.908 108.722 164.858C108.912 165.617 108.152 166.377 107.203 166.567Z" fill="#EF4223"/>
<path d="M35.7938 205.126C35.0341 205.126 34.4644 204.747 34.2745 203.987C33.8946 203.037 34.4644 202.087 35.2241 201.897C36.1736 201.517 37.1232 202.087 37.3132 202.847C37.693 203.797 37.1232 204.557 36.3636 204.936C36.1736 205.126 35.9837 205.126 35.7938 205.126ZM46.8091 201.327C46.0494 201.327 45.4796 200.948 45.2897 200.188C44.9099 199.238 45.4796 198.288 46.2393 198.098C47.1889 197.718 48.1385 198.288 48.3284 199.048C48.7082 199.998 48.1385 200.758 47.3788 201.138C47.1889 201.327 46.999 201.327 46.8091 201.327ZM58.0142 197.529C57.2545 197.529 56.6848 197.149 56.4949 196.389C56.115 195.439 56.6848 194.489 57.4445 194.299C58.394 193.92 59.3436 194.489 59.5336 195.249C59.9134 196.199 59.3436 196.959 58.584 197.339C58.394 197.339 58.2041 197.529 58.0142 197.529ZM69.0295 193.54C68.2698 193.54 67.7 193.16 67.5101 192.4C67.1303 191.45 67.7 190.5 68.4597 190.311C69.4093 189.931 70.3589 190.5 70.5488 191.26C70.9286 192.21 70.3589 192.97 69.5992 193.35C69.4093 193.54 69.2194 193.54 69.0295 193.54ZM80.0447 189.741C79.285 189.741 78.7153 189.361 78.5253 188.601C78.1455 187.651 78.7153 186.702 79.4749 186.512C80.4245 186.132 81.3741 186.702 81.564 187.461C81.9439 188.411 81.3741 189.171 80.6144 189.551C80.4245 189.741 80.2346 189.741 80.0447 189.741ZM91.2498 185.942C90.4902 185.942 89.9204 185.562 89.7305 184.802C89.3507 183.852 89.9204 182.903 90.6801 182.713C91.6297 182.333 92.5793 182.903 92.7692 183.662C93.149 184.612 92.5793 185.372 91.8196 185.752C91.6297 185.942 91.4398 185.942 91.2498 185.942Z" fill="#EF4223"/>
<defs>
<radialGradient id="paint0_radial" cx="0" cy="0" r="1" gradientUnits="userSpaceOnUse" gradientTransform="translate(162.107 164.549) scale(87.537 87.5504)">
<stop offset="0.5109" stop-color="white"/>
<stop offset="1" stop-color="#FFFDE4"/>
</radialGradient>
</defs>
</svg>
