<svg width="111" height="110" viewBox="0 0 111 110" fill="none" xmlns="http://www.w3.org/2000/svg">
<g clip-path="url(#clip0)">
<path d="M68.3883 38.4999H66.555H59.2217H51.8883H44.555H42.7217V56.8332H68.3883V38.4999ZM62.8883 51.3332C62.8883 52.347 62.067 53.1665 61.055 53.1665H50.055C49.043 53.1665 48.2217 52.347 48.2217 51.3332V43.9999C48.2217 42.986 49.043 42.1665 50.055 42.1665H61.055C62.067 42.1665 62.8883 42.986 62.8883 43.9999V51.3332Z" fill="#F7931E"/>
<path d="M50.0549 29.3334C50.0549 26.3011 52.5225 23.8334 55.5549 23.8334C58.5872 23.8334 61.0549 26.3011 61.0549 29.3334V34.8334H64.7215V29.3334C64.7215 24.2789 60.6094 20.1667 55.5549 20.1667C50.5004 20.1667 46.3882 24.2789 46.3882 29.3334V34.8334H50.0549V29.3334Z" fill="#F7931E"/>
<path d="M103.223 7.33325H7.88643C3.84393 7.33325 0.554932 10.6223 0.554932 14.6648V78.8351C0.554932 82.8776 3.84393 86.1666 7.88643 86.1666H38.2959L54.2588 102.129C54.6163 102.487 55.0856 102.667 55.5549 102.667C56.0243 102.667 56.4936 102.487 56.8511 102.129L72.8158 86.1666H103.225C107.268 86.1666 110.557 82.8776 110.557 78.8351V14.6648C110.555 10.6223 107.266 7.33325 103.223 7.33325V7.33325ZM73.8883 67.8333C73.8883 68.8471 73.0669 69.6666 72.0549 69.6666H57.3883C56.3763 69.6666 55.5549 68.8471 55.5549 67.8333C55.5549 66.8194 56.3763 65.9999 57.3883 65.9999H72.0549C73.0669 65.9999 73.8883 66.8194 73.8883 67.8333ZM39.0549 36.6666C39.0549 35.6528 39.8763 34.8333 40.8883 34.8333H42.7216V29.3333C42.7216 22.2584 48.4783 16.4999 55.5549 16.4999C62.6316 16.4999 68.3883 22.2584 68.3883 29.3333V34.8333H70.2216C71.2336 34.8333 72.0549 35.6528 72.0549 36.6666V58.6666C72.0549 59.6804 71.2336 60.4999 70.2216 60.4999H40.8883C39.8763 60.4999 39.0549 59.6804 39.0549 58.6666V36.6666ZM24.3883 65.9999H50.0549C51.0669 65.9999 51.8883 66.8194 51.8883 67.8333C51.8883 68.8471 51.0669 69.6666 50.0549 69.6666H24.3883C23.3763 69.6666 22.5549 68.8471 22.5549 67.8333C22.5549 66.8194 23.3763 65.9999 24.3883 65.9999ZM29.8883 76.9999H24.3883C23.3763 76.9999 22.5549 76.1804 22.5549 75.1666C22.5549 74.1528 23.3763 73.3333 24.3883 73.3333H29.8883C30.9003 73.3333 31.7216 74.1528 31.7216 75.1666C31.7216 76.1804 30.9003 76.9999 29.8883 76.9999ZM57.3883 76.9999H37.2216C36.2096 76.9999 35.3883 76.1804 35.3883 75.1666C35.3883 74.1528 36.2096 73.3333 37.2216 73.3333H57.3883C58.4003 73.3333 59.2216 74.1528 59.2216 75.1666C59.2216 76.1804 58.4003 76.9999 57.3883 76.9999ZM86.7216 76.9999H64.7216C63.7096 76.9999 62.8883 76.1804 62.8883 75.1666C62.8883 74.1528 63.7096 73.3333 64.7216 73.3333H86.7216C87.7336 73.3333 88.5549 74.1528 88.5549 75.1666C88.5549 76.1804 87.7336 76.9999 86.7216 76.9999ZM86.7216 69.6666H79.3883C78.3763 69.6666 77.5549 68.8471 77.5549 67.8333C77.5549 66.8194 78.3763 65.9999 79.3883 65.9999H86.7216C87.7336 65.9999 88.5549 66.8194 88.5549 67.8333C88.5549 68.8471 87.7336 69.6666 86.7216 69.6666Z" fill="#58595B"/>
</g>
<defs>
<clipPath id="clip0">
<rect width="110" height="110" fill="white" transform="translate(0.5)"/>
</clipPath>
</defs>
</svg>
