<svg width="101" height="100" viewBox="0 0 101 100" fill="none" xmlns="http://www.w3.org/2000/svg">
<g clip-path="url(#clip0)">
<path d="M0.5 21.4286V95.536C0.5 97.998 2.50348 100 4.96396 100H96.036C98.4965 100 100.5 97.9965 100.5 95.536V21.4286H0.5ZM18.3574 87.5C18.3574 88.4857 17.557 89.286 16.5713 89.286H9.42868C8.44296 89.286 7.64264 88.4857 7.64264 87.5V80.3573C7.64264 79.3716 8.44296 78.5713 9.42868 78.5713H16.5713C17.557 78.5713 18.3574 79.3716 18.3574 80.3573V87.5ZM34.4287 87.5C34.4287 88.4857 33.6284 89.286 32.6426 89.286H25.5C24.5143 89.286 23.714 88.4857 23.714 87.5V80.3573C23.714 79.3716 24.5143 78.5713 25.5 78.5713H32.6426C33.6284 78.5713 34.4287 79.3716 34.4287 80.3573V87.5ZM7.64264 64.286C7.64264 63.3003 8.44296 62.5 9.42868 62.5H25.5C26.4857 62.5 27.286 63.3003 27.286 64.286C27.286 65.2717 26.4857 66.0713 25.5 66.0713H9.42868C8.44296 66.0713 7.64264 65.2717 7.64264 64.286ZM34.4287 55.3573C34.4287 56.3431 33.6284 57.1426 32.6426 57.1426H9.42868C8.44296 57.1426 7.64264 56.3431 7.64264 55.3573V48.2139C7.64264 47.2282 8.44296 46.4287 9.42868 46.4287H32.6426C33.6284 46.4287 34.4287 47.2282 34.4287 48.2139V55.3573ZM32.6426 41.0713H9.42868C8.44296 41.0713 7.64264 40.2717 7.64264 39.286C7.64264 38.3003 8.44296 37.5 9.42868 37.5H32.6426C33.6284 37.5 34.4287 38.3003 34.4287 39.286C34.4287 40.2717 33.6284 41.0713 32.6426 41.0713ZM77.8125 80.9158C75.8342 81.6871 74.1053 83.1764 72.9464 85.1089L69.8893 90.2054C69.5659 90.7425 68.986 91.0713 68.3589 91.0713C67.7325 91.0713 67.1496 90.7425 66.8284 90.2054L63.7752 85.1143C62.6071 83.168 60.9126 81.691 59.0053 80.9555C48.8032 77.018 39.5732 66.7747 41.9482 52.7664C43.9555 40.9355 53.5968 31.7856 65.3949 30.516C73.1089 29.6783 80.5217 32.0625 86.2521 37.2085C91.9032 42.2836 95.1449 49.5498 95.1449 57.1426C95.1426 67.6376 88.502 76.7463 77.8125 80.9158Z" fill="#58595B"/>
<path d="M27.2861 82.1427H30.8575V85.714H27.2861V82.1427Z" fill="#58595B"/>
<path d="M83.8624 39.8658C79.5465 35.9893 74.1281 33.9271 68.3855 33.9271C67.521 33.9271 66.6498 33.9729 65.7747 34.0675C55.5589 35.1677 47.2085 43.1038 45.466 53.3645C43.287 66.2086 52.0891 74.4606 60.2876 77.6229C62.9335 78.6445 65.2566 80.6518 66.8336 83.2771L68.3572 85.8146L69.8839 83.2695C71.4479 80.664 73.8031 78.646 76.5138 77.5871C85.8018 73.9639 91.5712 66.13 91.5712 57.1411C91.5712 50.5623 88.762 44.2657 83.8624 39.8658ZM83.9372 53.0143L77.4126 59.8838L79.046 69.3374C79.1658 70.0271 78.8728 70.7199 78.296 71.1143C77.9924 71.3234 77.6391 71.4271 77.2874 71.4271C76.9693 71.4271 76.6534 71.3432 76.3696 71.1715L68.3587 66.3658L60.3502 71.1715C59.752 71.5301 58.9982 71.5072 58.4215 71.1128C57.8447 70.7176 57.5517 70.0248 57.6715 69.3359L59.3049 59.8823L52.7803 53.0128C52.3179 52.5268 52.1676 51.8211 52.3912 51.1894C52.614 50.5569 53.1747 50.1014 53.8408 50.0145L62.7443 48.8342L66.7444 40.3122C67.0412 39.6858 67.6713 39.286 68.3626 39.286C69.0538 39.286 69.6855 39.6858 69.9785 40.3122L73.9786 48.8342L82.8821 50.0145C83.5481 50.1014 84.1089 50.5569 84.3317 51.1894C84.5499 51.8234 84.3996 52.5283 83.9372 53.0143Z" fill="#F7931E"/>
<path d="M11.2139 50H30.8573V53.5713H11.2139V50Z" fill="#58595B"/>
<path d="M7.64258 7.14264H11.2139V10.714H7.64258V7.14264Z" fill="#58595B"/>
<path d="M11.2139 82.1427H14.7859V85.714H11.2139V82.1427Z" fill="#58595B"/>
<path d="M71.1549 51.236L68.3572 45.2751L65.5588 51.236C65.3001 51.7861 64.7806 52.1675 64.1763 52.2461L57.7783 53.0945L62.5085 58.075C62.8984 58.4839 63.0693 59.0515 62.9732 59.6092L61.8517 66.1057L67.4394 62.7533C67.7209 62.5839 68.0391 62.4985 68.3572 62.4985C68.6746 62.4985 68.9928 62.5824 69.2766 62.7533L74.8621 66.1057L73.7413 59.6092C73.6444 59.0515 73.8176 58.4839 74.2052 58.075L78.9354 53.0945L72.5374 52.2461C71.9339 52.1675 71.4143 51.7861 71.1549 51.236Z" fill="#F7931E"/>
<path d="M100.5 4.46396C100.5 2.00195 98.4965 0 96.036 0H4.96396C2.50195 0 0.5 2.00348 0.5 4.46396V17.8574H100.5V4.46396ZM14.786 12.5C14.786 13.4857 13.9857 14.286 13 14.286H5.85736C4.87164 14.286 4.07132 13.4857 4.07132 12.5V5.35736C4.07132 4.37164 4.87164 3.57132 5.85736 3.57132H13C13.9857 3.57132 14.786 4.37164 14.786 5.35736V12.5ZM29.0713 12.5C29.0713 13.4857 28.2718 14.286 27.286 14.286H20.1426C19.1569 14.286 18.3574 13.4857 18.3574 12.5V5.35736C18.3574 4.37164 19.1569 3.57132 20.1426 3.57132H27.286C28.2718 3.57132 29.0713 4.37164 29.0713 5.35736V12.5Z" fill="#58595B"/>
<path d="M21.9287 7.14264H25.5V10.714H21.9287V7.14264Z" fill="#58595B"/>
</g>
<defs>
<clipPath id="clip0">
<rect width="100" height="100" fill="white" transform="translate(0.5)"/>
</clipPath>
</defs>
</svg>
