<svg width="324" height="359" viewBox="0 0 324 359" fill="none" xmlns="http://www.w3.org/2000/svg">
<path d="M251.641 187.478C251.641 235.914 212.518 275.043 164.089 275.043C115.66 275.043 76.5369 235.914 76.5369 187.478C76.5369 139.041 115.66 99.9121 164.089 99.9121C212.518 99.9121 251.641 139.231 251.641 187.478Z" fill="url(#paint0_radial)"/>
<path d="M126.105 213.691C126.105 217.11 128.764 219.769 132.183 219.769H192.957C196.375 219.769 199.034 217.11 199.034 213.691V161.835H126.105V213.691ZM144.148 210.271H131.803V199.824H144.148V210.271ZM160.671 210.271H148.326V199.824H160.671V210.271ZM177.003 210.271H164.659V199.824H177.003V210.271ZM193.336 210.271H180.992V199.824H193.336V210.271ZM193.336 195.835H180.992V185.388H193.336V195.835ZM180.992 171.142H193.336V181.589H180.992V171.142ZM177.003 195.835H164.659V185.388H177.003V195.835ZM164.659 171.142H177.003V181.589H164.659V171.142ZM160.671 195.835H148.326V185.388H160.671V195.835ZM148.326 171.142H160.671V181.589H148.326V171.142ZM144.148 195.835H131.803V185.388H144.148V195.835ZM131.803 171.142H144.148V181.589H131.803V171.142Z" fill="#754C29"/>
<path d="M193.147 146.639H132.373C128.954 146.639 126.295 149.298 126.295 152.717V155.757H199.414V152.717C199.224 149.298 196.375 146.639 193.147 146.639Z" fill="#F7931E"/>
<path d="M150.415 131.443C149.655 131.443 148.896 130.873 148.706 130.114C148.516 129.164 149.086 128.214 150.035 128.024C150.985 127.834 151.745 128.404 151.934 129.354C152.124 130.304 151.555 131.063 150.605 131.253C150.605 131.443 150.605 131.443 150.415 131.443ZM147.946 119.857C147.187 119.857 146.427 119.287 146.237 118.527C146.047 117.577 146.617 116.627 147.566 116.437C148.516 116.248 149.276 116.817 149.466 117.577C149.655 118.527 149.086 119.287 148.136 119.477C148.136 119.857 148.136 119.857 147.946 119.857ZM145.477 108.46C144.718 108.46 143.958 107.89 143.768 107.13C143.578 106.18 144.148 105.231 145.097 105.041C146.047 104.851 146.807 105.421 146.997 106.18C147.187 107.13 146.617 107.89 145.667 108.08C145.667 108.46 145.667 108.46 145.477 108.46ZM143.008 97.0629C142.249 97.0629 141.489 96.493 141.299 95.7332C141.109 94.7835 141.679 93.8338 142.628 93.6438C143.578 93.4539 144.338 94.0237 144.528 94.9734C144.718 95.9232 144.148 96.683 143.198 96.8729C143.198 97.0629 143.008 97.0629 143.008 97.0629ZM140.539 85.4761C139.78 85.4761 139.02 84.9062 138.83 84.1465C138.64 83.1967 139.21 82.247 140.16 82.0571C141.109 81.8671 141.869 82.4369 142.059 83.1967C142.249 84.1465 141.679 84.9062 140.729 85.0962C140.729 85.4761 140.539 85.4761 140.539 85.4761ZM138.07 74.0793C137.311 74.0793 136.551 73.5094 136.361 72.7496C136.171 71.7999 136.741 70.8502 137.691 70.6602C138.64 70.4703 139.4 71.0401 139.59 71.7999C139.78 72.7496 139.21 73.5094 138.26 73.6994C138.26 74.0793 138.07 74.0793 138.07 74.0793ZM135.602 62.6824C134.842 62.6824 134.082 62.1126 133.892 61.3528C133.702 60.4031 134.272 59.4533 135.222 59.2634C136.171 59.0734 136.931 59.6433 137.121 60.4031C137.311 61.3528 136.741 62.1126 135.791 62.3025C135.791 62.6824 135.602 62.6824 135.602 62.6824ZM132.943 51.0957C132.183 51.0957 131.423 50.5258 131.233 49.766C131.043 48.8163 131.613 47.8666 132.563 47.6766C133.512 47.4867 134.272 48.0565 134.462 49.0062C134.652 49.956 134.082 50.7158 133.133 50.9057C133.323 51.0957 133.133 51.0957 132.943 51.0957ZM130.474 39.6988C129.714 39.6988 128.954 39.129 128.764 38.3692C128.575 37.4195 129.144 36.4697 130.094 36.2798C131.043 36.0898 131.803 36.6597 131.993 37.4195C132.183 38.3692 131.613 39.129 130.664 39.3189C130.854 39.6988 130.664 39.6988 130.474 39.6988ZM128.005 28.302C127.245 28.302 126.485 27.7322 126.296 26.9724C126.106 26.0226 126.675 25.0729 127.625 24.883C128.575 24.693 129.334 25.2629 129.524 26.0226C129.714 26.9724 129.144 27.7322 128.195 27.9221C128.385 28.302 128.195 28.302 128.005 28.302ZM125.536 16.7152C124.776 16.7152 124.017 16.1454 123.827 15.3856C123.637 14.4359 124.206 13.4861 125.156 13.2962C126.106 13.1062 126.865 13.6761 127.055 14.6258C127.245 15.5756 126.675 16.3353 125.726 16.5253C125.726 16.7152 125.726 16.7152 125.536 16.7152ZM123.067 5.31841C122.307 5.31841 121.548 4.74857 121.358 3.98878C121.168 3.03905 121.738 2.08931 122.687 1.89936C123.637 1.70942 124.396 2.27926 124.586 3.03905C124.776 3.98878 124.206 4.74857 123.257 4.93852C123.257 5.31841 123.257 5.31841 123.067 5.31841Z" fill="#EF4223"/>
<path d="M127.815 126.505C127.245 126.505 126.675 126.125 126.296 125.555C125.916 124.795 126.106 123.656 126.865 123.276C127.625 122.896 128.575 123.086 129.144 123.845C129.524 124.605 129.334 125.745 128.385 126.125C128.385 126.505 128.195 126.505 127.815 126.505ZM122.117 116.248C121.548 116.248 120.978 115.868 120.598 115.298C120.218 114.538 120.408 113.398 121.168 113.018C121.927 112.639 122.877 112.829 123.447 113.588C123.827 114.348 123.637 115.488 122.877 115.868C122.687 116.248 122.497 116.248 122.117 116.248ZM116.42 105.99C115.85 105.99 115.28 105.611 114.9 105.231C114.521 104.471 114.711 103.331 115.47 102.951C116.23 102.571 117.179 102.761 117.749 103.521C118.129 104.281 117.939 105.421 117.179 105.801C116.99 105.99 116.8 105.99 116.42 105.99ZM110.722 95.7333C110.152 95.7333 109.583 95.3534 109.203 94.9735C108.823 94.2137 109.013 93.0741 109.773 92.6942C110.532 92.3143 111.482 92.5042 112.052 93.264C112.432 94.0238 112.242 95.1635 111.482 95.5434C111.292 95.7333 111.102 95.7333 110.722 95.7333ZM105.215 85.4762C104.645 85.4762 104.075 85.0963 103.695 84.5264C103.315 83.7667 103.505 82.627 104.265 82.2471C105.025 81.8672 105.974 82.0571 106.544 82.8169C106.924 83.5767 106.734 84.7164 105.974 85.0963C105.594 85.4762 105.405 85.4762 105.215 85.4762Z" fill="#EF4223"/>
<path d="M109.773 137.712C109.393 137.712 109.013 137.522 108.633 137.332C107.873 136.762 107.873 135.622 108.443 134.862C109.013 134.103 110.152 134.103 110.722 134.672C111.482 135.242 111.482 136.382 110.912 136.952C110.722 137.522 110.342 137.712 109.773 137.712ZM101.226 129.924C100.846 129.924 100.467 129.734 100.087 129.544C99.3271 128.974 99.3271 127.834 99.8969 127.075C100.467 126.315 101.606 126.315 102.176 126.885C102.936 127.454 102.936 128.594 102.366 129.164C101.986 129.734 101.606 129.924 101.226 129.924ZM92.4901 122.136C92.1103 122.136 91.7304 121.946 91.3506 121.756C90.5909 121.186 90.5909 120.047 91.1607 119.287C91.7304 118.527 92.8699 118.527 93.4397 119.097C94.1994 119.667 94.1993 120.806 93.6296 121.376C93.4397 121.946 92.8699 122.136 92.4901 122.136ZM83.7539 114.158C83.374 114.158 82.9942 113.968 82.6144 113.778C81.8547 113.208 81.8547 112.069 82.4244 111.309C82.9942 110.549 84.1337 110.549 84.7034 111.119C85.4631 111.689 85.4631 112.829 84.8934 113.398C84.7035 113.968 84.1337 114.158 83.7539 114.158ZM75.0176 106.37C74.6378 106.37 74.258 106.18 73.8781 105.99C73.1185 105.421 73.1185 104.281 73.6882 103.521C74.258 102.761 75.3975 102.761 75.9672 103.331C76.7269 103.901 76.7269 105.041 76.1571 105.611C75.9672 106.18 75.5874 106.37 75.0176 106.37ZM66.2814 98.3926C65.9016 98.3926 65.5217 98.2026 65.1419 98.0127C64.3822 97.4428 64.3822 96.3032 64.952 95.5434C65.5217 94.7836 66.6612 94.7836 67.231 95.3534C67.9907 95.9233 67.9907 97.0629 67.4209 97.6328C67.231 98.2026 66.8512 98.3926 66.2814 98.3926ZM57.7351 90.6047C57.3553 90.6047 56.9754 90.4148 56.5956 90.2249C55.8359 89.655 55.8359 88.5153 56.4057 87.7555C56.9754 86.9958 58.1149 86.9957 58.6847 87.5656C59.4444 88.1354 59.4444 89.2751 58.8746 89.845C58.4948 90.4148 58.1149 90.6047 57.7351 90.6047ZM48.9989 82.627C48.619 82.627 48.2392 82.437 47.8594 82.2471C47.0997 81.6772 47.0997 80.5376 47.6695 79.7778C48.2392 79.018 49.3787 79.018 49.9485 79.5878C50.7081 80.1577 50.7081 81.2973 50.1384 81.8672C49.9485 82.437 49.3787 82.627 48.9989 82.627ZM40.2627 74.8391C39.8828 74.8391 39.503 74.6492 39.1231 74.4592C38.3635 73.8894 38.3635 72.7497 38.9332 71.9899C39.503 71.2302 40.6425 71.2301 41.2122 71.8C41.9719 72.3698 41.9719 73.5095 41.4022 74.0794C41.2122 74.6492 40.6425 74.8391 40.2627 74.8391Z" fill="#EF4223"/>
<path d="M108.823 159.175C108.633 159.175 108.443 159.175 108.063 158.986C107.304 158.606 106.734 157.656 107.114 156.706C107.494 155.946 108.443 155.566 109.203 155.756C109.963 156.136 110.342 157.086 109.963 158.036C109.963 158.796 109.393 159.175 108.823 159.175ZM98.1876 154.237C97.9977 154.237 97.8078 154.237 97.4279 154.047C96.6683 153.667 96.0985 152.717 96.6683 151.768C97.0481 151.008 97.9977 150.628 98.7574 151.008C99.517 151.388 99.8969 152.337 99.517 153.287C99.3271 153.857 98.7574 154.237 98.1876 154.237ZM87.3623 149.488C87.1724 149.488 86.9825 149.488 86.6026 149.298C85.8429 148.918 85.2732 147.969 85.843 147.019C86.2228 146.259 87.1724 145.879 87.932 146.259C88.6917 146.639 89.0716 147.589 88.6917 148.538C88.6917 149.108 88.122 149.488 87.3623 149.488ZM76.7269 144.55C76.537 144.55 76.3471 144.55 75.9672 144.36C75.2075 143.98 74.6378 143.03 75.2075 142.08C75.5874 141.32 76.537 140.941 77.2966 141.32C78.0563 141.7 78.4361 142.65 78.0563 143.6C78.0563 144.17 77.4866 144.55 76.7269 144.55ZM66.0915 139.801C65.9016 139.801 65.7117 139.801 65.3318 139.611C64.5721 139.231 64.0024 138.281 64.5721 137.332C64.952 136.572 65.9016 136.192 66.6612 136.572C67.4209 136.952 67.8007 137.901 67.4209 138.851C67.231 139.421 66.6612 139.801 66.0915 139.801ZM55.4561 134.862C55.2662 134.862 55.0762 134.862 54.6964 134.672C53.9367 134.292 53.367 133.343 53.7468 132.393C54.1267 131.633 55.0762 131.063 55.8359 131.443C56.5956 131.823 56.9754 132.773 56.5956 133.723C56.5956 134.482 56.0258 134.862 55.4561 134.862ZM44.8207 129.924C44.6308 129.924 44.4408 129.924 44.061 129.734C43.3013 129.354 42.7316 128.404 43.1114 127.454C43.4913 126.694 44.4408 126.315 45.2005 126.694C45.9602 127.074 46.34 128.024 45.9602 128.974C45.9602 129.734 45.3904 129.924 44.8207 129.924ZM33.9954 125.175C33.8054 125.175 33.6155 125.175 33.2357 124.985C32.476 124.605 31.9063 123.655 32.2861 122.706C32.6659 121.946 33.6155 121.566 34.3752 121.946C35.1349 122.326 35.5147 123.275 35.1349 124.225C35.3248 124.795 34.755 125.175 33.9954 125.175ZM23.3599 120.236C23.17 120.236 22.9801 120.236 22.6003 120.046C21.8406 119.666 21.2709 118.717 21.6507 117.767C22.0305 117.007 22.9801 116.627 23.7398 117.007C24.4995 117.387 24.8793 118.337 24.4995 119.287C24.6894 119.856 24.1196 120.236 23.3599 120.236Z" fill="#EF4223"/>
<path d="M87.1724 171.522C87.1724 171.522 86.9825 171.522 86.7926 171.522C85.843 171.332 85.2732 170.572 85.4631 169.623C85.653 168.673 86.4127 168.103 87.3623 168.293C88.3119 168.483 88.8817 169.243 88.6917 170.193C88.6917 170.952 87.9321 171.522 87.1724 171.522ZM75.5874 169.433C75.5874 169.433 75.3975 169.433 75.2076 169.433C74.258 169.243 73.6882 168.483 73.8781 167.533C74.0681 166.584 74.8277 166.014 75.7773 166.204C76.7269 166.394 77.2967 167.153 77.1067 168.103C77.1067 168.863 76.537 169.433 75.5874 169.433ZM64.1923 167.343C64.1923 167.343 64.0024 167.343 63.8125 167.343C62.8629 167.153 62.2931 166.394 62.4831 165.444C62.673 164.494 63.4326 163.924 64.3822 164.114C65.3318 164.304 65.9016 165.064 65.7117 166.014C65.5217 166.774 64.952 167.343 64.1923 167.343ZM52.6073 165.444C52.6073 165.444 52.4174 165.444 52.2275 165.444C51.2779 165.254 50.7081 164.494 50.8981 163.544C51.088 162.595 51.8476 162.025 52.7972 162.215C53.7468 162.405 54.3166 163.165 54.1267 164.114C53.9367 164.874 53.367 165.444 52.6073 165.444ZM41.0223 163.354H40.8324C39.8828 163.165 39.3131 162.405 39.503 161.455C39.6929 160.505 40.4526 159.935 41.4022 160.125C42.3518 160.315 42.9215 161.075 42.7316 162.025C42.5417 162.785 41.782 163.354 41.0223 163.354ZM29.4373 161.265C29.4373 161.265 29.2474 161.265 29.0575 161.265C28.1079 161.075 27.5382 160.315 27.7281 159.366C27.918 158.416 28.6777 157.846 29.6273 158.036C30.5768 158.226 31.1466 158.986 30.9567 159.935C30.9567 160.695 30.197 161.265 29.4373 161.265ZM17.8523 159.176C17.8523 159.176 17.6624 159.176 17.4725 159.176C16.5229 158.986 15.9532 158.226 16.1431 157.276C16.333 156.326 17.0927 155.757 18.0423 155.947C18.9918 156.136 19.5616 156.896 19.3717 157.846C19.3717 158.606 18.8019 159.176 17.8523 159.176Z" fill="#EF4223"/>
<path d="M169.407 109.029C168.267 108.839 167.698 108.08 167.698 107.13C167.698 106.18 168.647 105.42 169.597 105.61C170.546 105.61 171.116 106.56 171.116 107.32C170.926 108.27 170.356 109.029 169.407 109.029ZM170.546 97.2527C170.356 97.2527 170.356 97.2527 170.546 97.2527C169.407 97.2527 168.837 96.303 168.837 95.5432C168.837 94.5934 169.787 93.8336 170.546 94.0236C171.496 94.0236 172.066 94.7834 172.066 95.7331C172.066 96.6829 171.306 97.2527 170.546 97.2527ZM171.496 85.6659C170.356 85.476 169.787 84.7162 169.787 83.7664C169.787 82.8167 170.736 82.0569 171.686 82.2469C172.635 82.2469 173.205 83.1966 173.205 83.9564C173.015 84.9061 172.445 85.6659 171.496 85.6659ZM172.635 73.8892C172.445 73.8892 172.445 73.8892 172.635 73.8892C171.496 73.8892 170.926 72.9395 170.926 72.1797C170.926 71.2299 171.876 70.4702 172.635 70.6601C173.585 70.6601 174.155 71.4199 174.155 72.3696C174.155 73.3194 173.395 73.8892 172.635 73.8892ZM173.585 62.3024C172.445 62.1125 171.876 61.3527 171.876 60.403C171.876 59.4532 172.825 58.6934 173.775 58.8834C174.724 58.8834 175.294 59.8331 175.294 60.5929C175.104 61.5426 174.535 62.3024 173.585 62.3024ZM174.724 50.5257C174.535 50.5257 174.535 50.5257 174.724 50.5257C173.585 50.3358 173.015 49.576 173.015 48.6262C173.015 47.6765 173.965 46.9167 174.914 47.1067C175.864 47.1067 176.434 48.0564 176.434 48.8162C176.244 49.9559 175.484 50.5257 174.724 50.5257ZM175.674 38.9389C174.535 38.749 173.965 37.9892 173.965 37.0395C173.965 36.0897 174.914 35.3299 175.864 35.5199C176.814 35.5199 177.383 36.4696 177.383 37.2294C177.193 38.1791 176.624 38.9389 175.674 38.9389ZM176.814 27.1622C176.624 27.1622 176.624 27.1622 176.814 27.1622C175.674 26.9723 175.104 26.2125 175.104 25.2627C175.104 24.313 176.054 23.5532 177.003 23.7432C177.953 23.7432 178.523 24.6929 178.523 25.4527C178.333 26.5924 177.573 27.1622 176.814 27.1622Z" fill="#EF4223"/>
<path d="M185.55 129.734C185.36 129.734 185.17 129.734 184.98 129.544C184.22 129.164 183.651 128.214 184.031 127.454C184.41 126.694 185.36 126.125 186.31 126.505C187.069 126.884 187.639 127.834 187.259 128.594C186.879 129.354 186.31 129.734 185.55 129.734ZM190.108 118.907C189.918 118.907 189.728 118.907 189.538 118.717C188.779 118.337 188.209 117.387 188.589 116.627C188.968 115.868 189.918 115.298 190.868 115.678C191.627 116.057 192.197 117.007 191.817 117.767C191.437 118.527 190.868 118.907 190.108 118.907ZM194.666 108.08C194.476 108.08 194.286 108.08 194.096 107.89C193.337 107.51 192.767 106.56 193.147 105.8C193.526 105.041 194.476 104.471 195.236 104.851C195.995 105.23 196.565 106.18 196.185 106.94C195.995 107.7 195.236 108.08 194.666 108.08ZM199.224 97.2527C199.034 97.2527 198.844 97.2527 198.654 97.0627C197.895 96.6828 197.325 95.7331 197.705 94.9733C198.084 94.2135 199.034 93.6437 199.794 94.0236C200.553 94.4035 201.123 95.3532 200.743 96.113C200.364 96.8728 199.794 97.2527 199.224 97.2527ZM203.592 86.4257C203.402 86.4257 203.212 86.4257 203.022 86.2358C202.263 85.8559 201.693 84.9061 202.073 84.1463C202.453 83.3866 203.402 82.8167 204.352 83.1966C205.111 83.5765 205.681 84.5262 205.301 85.286C204.922 86.0458 204.352 86.4257 203.592 86.4257ZM208.15 75.5987C207.96 75.5987 207.77 75.5987 207.58 75.4088C206.821 75.0289 206.251 74.0791 206.631 73.3194C207.011 72.5596 207.96 71.9897 208.91 72.3696C209.669 72.7495 210.239 73.6992 209.859 74.459C209.48 75.2188 208.91 75.5987 208.15 75.5987ZM212.708 64.7717C212.518 64.7717 212.328 64.7717 212.138 64.5818C211.379 64.2019 210.809 63.2522 211.189 62.4924C211.569 61.7326 212.518 61.1627 213.468 61.5426C214.228 61.9225 214.797 62.8723 214.417 63.632C214.038 64.3918 213.278 64.7717 212.708 64.7717ZM217.266 53.9447C217.076 53.9447 216.886 53.9447 216.696 53.7548C215.937 53.3749 215.367 52.4252 215.747 51.6654C216.127 50.9056 217.076 50.3358 218.026 50.7156C218.786 51.0955 219.355 52.0453 218.975 52.8051C218.406 53.5648 217.836 53.9447 217.266 53.9447ZM221.634 43.1178C221.444 43.1178 221.254 43.1178 221.065 42.9278C220.305 42.5479 219.735 41.5982 220.115 40.8384C220.495 40.0786 221.444 39.5088 222.204 39.8887C222.964 40.2686 223.533 41.2183 223.154 41.9781C222.964 42.7379 222.394 43.1178 221.634 43.1178ZM226.192 32.2908C226.002 32.2908 225.813 32.2908 225.623 32.1008C224.863 31.7209 224.293 30.7712 224.673 30.0114C225.053 29.2516 226.002 28.6818 226.952 29.0617C227.712 29.4416 228.281 30.3913 227.902 31.1511C227.522 31.9109 226.952 32.2908 226.192 32.2908ZM230.75 21.4638C230.56 21.4638 230.371 21.4638 230.181 21.2738C229.421 20.8939 228.851 19.9442 229.231 19.1844C229.611 18.4246 230.56 17.8548 231.51 18.2347C232.27 18.6146 232.839 19.5643 232.46 20.3241C232.08 21.0839 231.32 21.4638 230.75 21.4638Z" fill="#EF4223"/>
<path d="M220.115 115.298C219.735 115.298 219.355 115.108 219.165 114.918C218.406 114.348 218.216 113.398 218.785 112.639C219.355 111.879 220.495 111.689 221.064 112.259C221.824 112.829 222.014 113.778 221.444 114.538C221.064 115.108 220.685 115.298 220.115 115.298ZM227.332 106.18C226.952 106.18 226.572 105.99 226.382 105.801C225.622 105.231 225.433 104.281 226.002 103.521C226.572 102.761 227.712 102.571 228.281 103.141C229.041 103.711 229.231 104.661 228.661 105.421C228.471 105.801 227.901 106.18 227.332 106.18ZM234.738 96.873C234.359 96.873 233.979 96.6831 233.789 96.4931C233.029 95.9233 233.029 94.9735 233.599 94.2138C234.169 93.454 235.308 93.264 235.878 93.8339C236.638 94.4037 236.828 95.3534 236.258 96.1132C235.688 96.6831 235.118 96.873 234.738 96.873ZM241.955 87.7556C241.576 87.7556 241.196 87.5656 241.006 87.3757C240.246 86.8058 240.246 85.6661 240.816 85.0963C241.386 84.3365 242.525 84.1466 243.095 84.7164C243.855 85.2862 244.044 86.236 243.475 86.9958C242.905 87.5656 242.525 87.7556 241.955 87.7556ZM249.172 78.4481C248.792 78.4481 248.413 78.2582 248.223 78.0683C247.463 77.4984 247.463 76.5487 248.033 75.7889C248.603 75.0291 249.742 74.8392 250.312 75.409C251.071 75.9788 251.261 76.9286 250.692 77.6884C250.312 78.2582 249.742 78.4481 249.172 78.4481ZM256.579 69.3307C256.199 69.3307 255.819 69.1407 255.629 68.9508C254.87 68.381 254.87 67.2413 255.44 66.6714C256.009 65.9116 257.149 65.7217 257.719 66.2915C258.478 66.8614 258.668 67.8111 258.098 68.5709C257.529 69.1407 256.959 69.3307 256.579 69.3307Z" fill="#EF4223"/>
<path d="M215.177 149.298C214.607 149.298 214.038 149.108 213.848 148.538C213.278 147.779 213.468 146.829 214.227 146.259C214.987 145.689 216.127 145.879 216.506 146.639C217.076 147.399 216.886 148.349 216.127 148.918C215.747 149.108 215.557 149.298 215.177 149.298ZM224.863 142.65C224.293 142.65 223.723 142.46 223.533 141.89C222.964 141.131 223.154 140.181 223.913 139.611C224.673 139.041 225.812 139.231 226.192 139.991C226.572 140.751 226.572 141.7 225.812 142.27C225.623 142.65 225.243 142.65 224.863 142.65ZM234.549 136.002C233.979 136.002 233.409 135.812 233.219 135.242C232.65 134.482 232.839 133.533 233.599 132.963C234.359 132.393 235.498 132.583 235.878 133.343C236.448 134.103 236.258 135.052 235.498 135.622C235.308 136.002 234.929 136.002 234.549 136.002ZM244.424 129.544C243.855 129.544 243.285 129.354 243.095 128.784C242.525 128.024 242.715 127.074 243.475 126.505C244.234 125.935 245.374 126.125 245.754 126.885C246.324 127.644 246.134 128.594 245.374 129.164C244.994 129.354 244.614 129.544 244.424 129.544ZM254.11 122.896C253.54 122.896 252.971 122.706 252.781 122.136C252.211 121.376 252.401 120.426 253.161 119.856C253.92 119.287 255.06 119.477 255.44 120.236C256.009 120.996 255.819 121.946 255.06 122.516C254.68 122.896 254.3 122.896 254.11 122.896ZM263.796 116.437C263.226 116.437 262.657 116.247 262.467 115.678C261.897 114.918 262.087 113.968 262.846 113.398C263.606 112.828 264.746 113.018 265.125 113.778C265.695 114.538 265.505 115.488 264.746 116.058C264.366 116.247 263.986 116.437 263.796 116.437ZM273.482 109.789C272.912 109.789 272.342 109.599 272.152 109.03C271.583 108.27 271.773 107.32 272.532 106.75C273.292 106.18 274.431 106.37 274.811 107.13C275.381 107.89 275.191 108.84 274.431 109.409C274.052 109.599 273.862 109.789 273.482 109.789ZM283.168 103.141C282.598 103.141 282.028 102.951 281.838 102.381C281.268 101.622 281.458 100.672 282.218 100.102C282.978 99.5321 284.117 99.7221 284.497 100.482C285.067 101.242 284.877 102.191 284.117 102.761C283.737 103.141 283.548 103.141 283.168 103.141ZM292.853 96.6829C292.284 96.6829 291.714 96.493 291.524 95.9232C290.954 95.1634 291.144 94.2136 291.904 93.6438C292.664 93.0739 293.803 93.2639 294.183 94.0237C294.563 94.7835 294.563 95.7332 293.803 96.303C293.613 96.493 293.233 96.6829 292.853 96.6829ZM302.539 90.0348C301.97 90.0348 301.4 89.8448 301.21 89.275C300.64 88.5152 300.83 87.5655 301.59 86.9956C302.349 86.4258 303.489 86.6157 303.869 87.3755C304.438 88.1353 304.249 89.0851 303.489 89.6549C303.299 90.0348 302.919 90.0348 302.539 90.0348Z" fill="#EF4223"/>
<path d="M233.409 160.315C232.65 160.315 232.08 159.935 231.89 159.176C231.51 158.226 232.08 157.276 232.84 157.086C233.789 156.706 234.739 157.276 234.929 158.036C235.308 158.986 234.739 159.745 233.979 160.125C233.789 160.315 233.599 160.315 233.409 160.315ZM244.425 156.516C243.665 156.516 243.095 156.136 242.905 155.377C242.525 154.427 243.095 153.477 243.855 153.287C244.804 152.907 245.754 153.477 245.944 154.237C246.134 154.997 245.754 155.946 244.994 156.326C244.804 156.516 244.614 156.516 244.425 156.516ZM255.44 152.527C254.68 152.527 254.11 152.147 253.92 151.388C253.541 150.438 254.11 149.488 254.87 149.298C255.82 148.918 256.769 149.488 256.959 150.248C257.339 151.198 256.769 151.958 256.01 152.337C255.82 152.527 255.63 152.527 255.44 152.527ZM266.645 148.728C265.885 148.728 265.316 148.349 265.126 147.589C264.746 146.639 265.316 145.689 266.075 145.499C267.025 145.119 267.974 145.689 268.164 146.449C268.544 147.399 267.974 148.159 267.215 148.538C267.025 148.728 266.835 148.728 266.645 148.728ZM277.66 144.929C276.901 144.929 276.331 144.55 276.141 143.79C275.761 142.84 276.331 141.89 277.09 141.7C278.04 141.32 278.99 141.89 279.18 142.65C279.559 143.6 278.99 144.36 278.23 144.74C278.04 144.929 277.85 144.929 277.66 144.929ZM288.675 141.131C287.916 141.131 287.346 140.751 287.156 139.991C286.776 139.041 287.346 138.091 288.106 137.901C289.055 137.522 290.005 138.091 290.195 138.851C290.575 139.801 290.005 140.561 289.245 140.941C289.055 141.131 288.865 141.131 288.675 141.131Z" fill="#EF4223"/>
<path d="M213.468 181.399C212.708 181.399 211.948 180.83 211.759 179.88C211.759 178.93 212.328 178.17 213.278 178.17C214.227 178.17 214.987 178.74 215.177 179.69C215.177 180.64 214.607 181.399 213.658 181.399H213.468ZM225.053 180.26C224.293 180.26 223.533 179.69 223.344 178.74C223.344 177.79 223.913 177.031 224.863 177.031C225.812 177.031 226.572 177.6 226.762 178.55C226.762 179.5 226.192 180.26 225.243 180.26H225.053C225.243 180.26 225.243 180.26 225.053 180.26ZM236.828 179.31C236.068 179.31 235.308 178.74 235.118 177.79C235.118 176.841 235.688 176.081 236.638 176.081C237.587 176.081 238.347 176.651 238.537 177.6C238.537 178.55 237.967 179.31 237.018 179.31H236.828ZM248.413 178.36C247.653 178.36 246.893 177.79 246.703 176.841C246.703 175.891 247.273 175.131 248.223 175.131C249.172 175.131 249.932 175.701 250.122 176.651C250.122 177.6 249.552 178.36 248.603 178.36H248.413C248.603 178.36 248.603 178.36 248.413 178.36ZM260.188 177.221C259.428 177.221 258.668 176.651 258.478 175.701C258.478 174.751 259.048 173.991 259.998 173.991C260.947 173.991 261.707 174.561 261.897 175.511C261.897 176.461 261.327 177.221 260.378 177.221H260.188ZM271.773 176.271C271.013 176.271 270.253 175.701 270.063 174.751C270.063 173.802 270.633 173.042 271.583 173.042C272.532 173.042 273.292 173.612 273.482 174.561C273.482 175.511 272.912 176.271 271.963 176.271H271.773C271.963 176.271 271.963 176.271 271.773 176.271ZM283.548 175.131C282.788 175.131 282.028 174.561 281.838 173.612C281.838 172.662 282.408 171.902 283.358 171.902C284.307 171.902 285.067 172.472 285.257 173.422C285.257 174.371 284.687 175.131 283.737 175.131H283.548ZM295.132 174.181C294.373 174.181 293.613 173.612 293.423 172.662C293.423 171.712 293.993 170.952 294.943 170.952C295.892 170.952 296.652 171.522 296.842 172.472C296.842 173.422 296.272 174.181 295.322 174.181H295.132C295.322 174.181 295.322 174.181 295.132 174.181ZM306.907 173.042C306.148 173.042 305.388 172.472 305.198 171.522C305.198 170.572 305.768 169.813 306.717 169.813C307.667 169.813 308.427 170.382 308.617 171.332C308.617 172.282 308.047 173.042 307.097 173.042H306.907ZM318.492 172.092C317.733 172.092 316.973 171.522 316.783 170.572C316.783 169.623 317.353 168.863 318.302 168.863C319.252 168.863 320.012 169.433 320.202 170.382C320.202 171.332 319.632 172.092 318.682 172.092H318.492C318.682 172.092 318.682 172.092 318.492 172.092Z" fill="#EF4223"/>
<path d="M320.582 212.741C320.392 212.741 320.392 212.741 320.202 212.741C319.252 212.551 318.682 211.791 318.872 210.841C319.062 209.891 319.822 209.321 320.772 209.511C321.721 209.701 322.291 210.461 322.101 211.411C322.101 212.171 321.341 212.741 320.582 212.741ZM308.997 210.651C308.807 210.651 308.807 210.651 308.617 210.651C307.667 210.461 307.097 209.701 307.287 208.752C307.477 207.802 308.237 207.232 309.187 207.422C310.136 207.612 310.706 208.372 310.516 209.321C310.516 210.081 309.756 210.651 308.997 210.651ZM297.602 208.562H297.412C296.462 208.372 295.892 207.612 296.082 206.662C296.272 205.712 297.032 205.143 297.981 205.333C298.931 205.523 299.501 206.282 299.311 207.232C298.931 207.992 298.361 208.562 297.602 208.562ZM286.017 206.662C286.017 206.662 285.827 206.662 285.637 206.662C284.687 206.472 284.117 205.712 284.307 204.763C284.497 203.813 285.257 203.243 286.206 203.433C287.156 203.623 287.726 204.383 287.536 205.333C287.346 206.092 286.776 206.662 286.017 206.662ZM274.432 204.573C274.242 204.573 274.242 204.573 274.052 204.573C273.102 204.383 272.532 203.623 272.722 202.673C272.912 201.724 273.672 201.154 274.621 201.344C275.571 201.534 276.141 202.293 275.951 203.243C275.951 204.003 275.191 204.573 274.432 204.573ZM262.847 202.483H262.657C261.707 202.293 261.137 201.534 261.327 200.584C261.517 199.634 262.277 199.064 263.226 199.254C264.176 199.444 264.746 200.204 264.556 201.154C264.366 201.914 263.606 202.483 262.847 202.483ZM251.262 200.584C251.072 200.584 251.072 200.584 250.882 200.584C249.932 200.394 249.362 199.634 249.552 198.684C249.742 197.735 250.502 197.165 251.451 197.355C252.401 197.545 252.971 198.305 252.781 199.254C252.781 200.014 252.021 200.584 251.262 200.584ZM239.867 198.494C239.867 198.494 239.677 198.494 239.487 198.494C238.537 198.305 237.967 197.545 238.157 196.595C238.347 195.645 239.107 195.075 240.056 195.265C241.006 195.455 241.576 196.215 241.386 197.165C241.196 197.925 240.626 198.494 239.867 198.494Z" fill="#EF4223"/>
<path d="M280.129 240.093C279.939 240.093 279.749 240.093 279.369 239.903C278.61 239.523 278.23 238.573 278.61 237.624C278.99 236.864 279.939 236.484 280.889 236.864C281.648 237.244 282.028 238.194 281.648 239.143C281.459 239.713 280.889 240.093 280.129 240.093ZM269.494 235.154C269.304 235.154 269.114 235.154 268.734 234.964C267.974 234.585 267.595 233.635 267.974 232.685C268.354 231.925 269.304 231.545 270.253 231.925C271.013 232.305 271.393 233.255 271.013 234.205C270.823 234.774 270.253 235.154 269.494 235.154ZM259.048 230.216C258.858 230.216 258.668 230.216 258.289 230.026C257.529 229.646 257.149 228.696 257.529 227.746C257.909 226.797 258.858 226.607 259.808 226.987C260.568 227.367 260.947 228.316 260.568 229.266C260.188 229.836 259.618 230.216 259.048 230.216ZM248.413 225.087C248.223 225.087 248.033 225.087 247.653 224.897C246.893 224.517 246.514 223.568 246.893 222.618C247.273 221.668 248.223 221.478 249.172 221.858C249.932 222.238 250.502 223.188 250.122 224.137C249.552 224.707 248.983 225.087 248.413 225.087ZM237.777 220.149C237.587 220.149 237.398 220.149 237.018 219.959C236.258 219.579 235.878 218.629 236.258 217.679C236.638 216.919 237.587 216.54 238.537 216.919C239.297 217.299 239.677 218.249 239.297 219.199C238.917 219.769 238.347 220.149 237.777 220.149ZM227.142 215.21C226.952 215.21 226.762 215.21 226.382 215.02C225.623 214.64 225.243 213.69 225.623 212.741C226.002 211.981 226.952 211.601 227.902 211.981C228.661 212.361 229.041 213.31 228.661 214.26C228.281 214.83 227.712 215.21 227.142 215.21Z" fill="#EF4223"/>
<path d="M278.989 290.049C278.61 290.049 278.23 289.859 277.85 289.669C277.09 289.099 277.09 287.96 277.66 287.39C278.23 286.63 279.369 286.63 279.939 287.2C280.699 287.77 280.699 288.909 280.129 289.669C279.749 289.859 279.369 290.049 278.989 290.049ZM270.253 282.071C269.873 282.071 269.494 281.881 269.114 281.691C268.354 281.122 268.354 279.982 268.924 279.412C269.494 278.652 270.633 278.652 271.203 279.222C271.962 279.792 271.962 280.932 271.393 281.691C271.203 281.881 270.633 282.071 270.253 282.071ZM261.517 274.283C261.137 274.283 260.757 274.093 260.377 273.904C259.618 273.334 259.618 272.194 260.188 271.624C260.757 270.864 261.897 270.864 262.467 271.434C263.226 272.004 263.226 273.144 262.656 273.904C262.467 274.093 261.897 274.283 261.517 274.283ZM252.781 266.306C252.401 266.306 252.021 266.116 251.641 265.926C250.882 265.356 250.882 264.216 251.451 263.646C252.021 262.887 253.161 262.887 253.73 263.456C254.49 264.026 254.49 265.166 253.92 265.926C253.73 266.116 253.351 266.306 252.781 266.306ZM244.234 258.518C243.855 258.518 243.475 258.328 243.095 258.138C242.335 257.568 242.335 256.428 242.905 255.859C243.475 255.099 244.614 255.099 245.184 255.669C245.944 256.238 245.944 257.378 245.374 258.138C244.994 258.328 244.614 258.518 244.234 258.518ZM235.498 250.54C235.118 250.54 234.739 250.35 234.359 250.16C233.599 249.59 233.599 248.451 234.169 247.881C234.739 247.121 235.878 247.121 236.448 247.691C237.207 248.261 237.207 249.4 236.638 250.16C236.448 250.35 235.878 250.54 235.498 250.54ZM226.762 242.752C226.382 242.752 226.002 242.562 225.622 242.372C224.863 241.802 224.863 240.663 225.433 240.093C226.002 239.333 227.142 239.333 227.712 239.903C228.471 240.473 228.471 241.613 227.901 242.372C227.712 242.562 227.332 242.752 226.762 242.752ZM218.026 234.774C217.646 234.774 217.266 234.584 216.886 234.395C216.127 233.825 216.127 232.685 216.696 232.115C217.266 231.355 218.406 231.355 218.975 231.925C219.735 232.495 219.735 233.635 219.165 234.395C218.975 234.584 218.596 234.774 218.026 234.774ZM209.479 226.987C209.1 226.987 208.72 226.797 208.34 226.607C207.58 226.037 207.58 224.897 208.15 224.327C208.72 223.568 209.859 223.568 210.429 224.137C211.189 224.707 211.189 225.847 210.619 226.607C210.239 226.797 209.859 226.987 209.479 226.987Z" fill="#EF4223"/>
<path d="M237.967 310.753C237.398 310.753 236.828 310.563 236.638 309.994C236.258 309.234 236.448 308.094 237.208 307.714C237.967 307.334 239.107 307.524 239.487 308.284C239.866 309.044 239.677 310.184 238.917 310.563C238.537 310.563 238.157 310.753 237.967 310.753ZM231.89 300.686C231.32 300.686 230.75 300.496 230.56 299.926C230.181 299.167 230.371 298.027 231.13 297.647C231.89 297.267 233.029 297.457 233.409 298.217C233.789 298.977 233.599 300.116 232.839 300.496C232.46 300.496 232.27 300.686 231.89 300.686ZM225.813 290.619C225.243 290.619 224.673 290.429 224.483 289.859C223.913 289.099 224.293 287.96 225.053 287.58C225.813 287.01 226.952 287.39 227.332 288.15C227.902 288.909 227.522 290.049 226.762 290.429C226.572 290.429 226.192 290.619 225.813 290.619ZM219.925 280.552C219.355 280.552 218.786 280.362 218.596 279.792C218.216 279.032 218.406 277.893 219.165 277.513C219.925 277.133 221.065 277.323 221.444 278.082C221.824 278.842 221.634 279.982 220.875 280.362C220.495 280.362 220.115 280.552 219.925 280.552ZM213.848 270.485C213.278 270.485 212.708 270.295 212.518 269.725C212.138 268.965 212.328 267.825 213.088 267.445C213.848 267.066 214.987 267.255 215.367 268.015C215.747 268.775 215.557 269.915 214.797 270.295C214.417 270.295 214.228 270.485 213.848 270.485ZM207.77 260.417C207.201 260.417 206.631 260.227 206.441 259.658C205.871 258.898 206.251 257.758 207.011 257.378C207.77 256.808 208.91 257.188 209.29 257.948C209.669 258.708 209.48 259.848 208.72 260.227C208.53 260.227 208.15 260.417 207.77 260.417ZM201.883 250.35C201.313 250.35 200.743 250.16 200.553 249.59C200.174 248.831 200.364 247.691 201.123 247.311C201.883 246.931 203.022 247.121 203.402 247.881C203.782 248.641 203.592 249.78 202.832 250.16C202.453 250.16 202.073 250.35 201.883 250.35Z" fill="#EF4223"/>
<path d="M202.263 357.48C201.503 357.48 200.933 356.91 200.743 356.341C200.553 355.391 201.123 354.631 201.883 354.251C202.833 354.061 203.592 354.631 203.972 355.391C204.162 356.341 203.592 357.29 202.833 357.48C202.453 357.48 202.263 357.48 202.263 357.48ZM199.414 346.083C198.654 346.083 198.085 345.704 197.895 344.944C197.705 343.994 198.274 343.234 199.034 342.854C199.984 342.664 200.743 343.234 201.123 343.994C201.313 344.944 200.743 345.893 199.984 346.083C199.794 346.083 199.604 346.083 199.414 346.083ZM196.755 334.687C195.995 334.687 195.426 334.117 195.236 333.547C195.046 332.597 195.616 331.837 196.375 331.458C197.325 331.268 198.085 331.837 198.464 332.597C198.654 333.547 198.085 334.497 197.325 334.687C197.135 334.497 196.945 334.687 196.755 334.687ZM194.096 323.1C193.337 323.1 192.767 322.53 192.577 321.77C192.387 320.82 192.957 320.061 193.906 319.871C194.856 319.681 195.616 320.251 195.806 321.2C195.995 322.15 195.426 323.1 194.476 323.29C194.286 323.1 194.286 323.1 194.096 323.1ZM191.437 311.703C190.678 311.703 190.108 311.133 189.918 310.563C189.728 309.614 190.298 308.854 191.058 308.474C192.007 308.284 192.767 308.854 193.147 309.614C193.337 310.563 192.767 311.513 192.007 311.703C191.627 311.703 191.437 311.703 191.437 311.703ZM188.589 300.306C187.829 300.306 187.259 299.736 187.069 299.167C186.879 298.217 187.449 297.457 188.209 297.077C189.158 296.887 189.918 297.457 190.298 298.217C190.488 299.167 189.918 300.116 189.158 300.306C188.968 300.306 188.779 300.306 188.589 300.306ZM185.93 288.909C185.17 288.909 184.6 288.34 184.41 287.77C184.221 286.82 184.79 286.06 185.55 285.68C186.5 285.49 187.259 286.06 187.639 286.82C187.829 287.77 187.259 288.719 186.5 288.909C186.31 288.909 186.12 288.909 185.93 288.909ZM183.271 277.513C182.511 277.513 181.942 276.943 181.752 276.183C181.562 275.233 182.131 274.473 183.081 274.283C184.031 274.093 184.79 274.663 184.98 275.613C185.17 276.563 184.6 277.513 183.651 277.702C183.461 277.513 183.461 277.513 183.271 277.513ZM180.612 266.116C179.852 266.116 179.283 265.736 179.093 264.976C178.903 264.026 179.473 263.266 180.232 262.887C181.182 262.697 181.942 263.267 182.321 264.026C182.511 264.976 181.942 265.926 181.182 266.116C180.802 266.116 180.612 266.116 180.612 266.116ZM177.763 254.719C177.004 254.719 176.434 254.149 176.244 253.579C176.054 252.629 176.624 251.87 177.384 251.49C178.333 251.3 179.093 251.87 179.473 252.629C179.663 253.579 179.093 254.529 178.333 254.719C178.143 254.719 177.953 254.719 177.763 254.719ZM175.104 243.322C174.345 243.322 173.775 242.942 173.585 242.182C173.395 241.233 173.965 240.473 174.725 240.093C175.674 239.903 176.434 240.473 176.814 241.233C177.004 242.182 176.434 243.132 175.674 243.322C175.484 243.322 175.294 243.322 175.104 243.322Z" fill="#EF4223"/>
<path d="M150.225 324.999C150.035 324.999 150.035 324.999 150.225 324.999C149.086 324.999 148.516 324.05 148.516 323.1C148.516 322.15 149.465 321.39 150.415 321.58C151.365 321.58 151.934 322.34 151.934 323.29C151.744 324.24 150.985 324.999 150.225 324.999ZM151.175 313.223C150.035 313.223 149.465 312.273 149.465 311.323C149.465 310.373 150.415 309.614 151.365 309.804C152.314 309.804 152.884 310.563 152.884 311.513C152.694 312.653 152.124 313.223 151.175 313.223ZM152.314 301.636C152.124 301.636 152.124 301.636 152.314 301.636C151.175 301.636 150.605 300.686 150.605 299.736C150.605 298.787 151.555 298.027 152.504 298.217C153.454 298.217 154.023 298.977 154.023 299.926C153.834 300.876 153.074 301.636 152.314 301.636ZM153.264 289.859C153.264 289.859 153.074 289.859 153.264 289.859C152.124 289.669 151.555 288.909 151.555 287.96C151.555 287.01 152.504 286.25 153.454 286.44C154.403 286.44 154.973 287.39 154.973 288.15C154.783 289.289 154.023 289.859 153.264 289.859ZM154.403 278.272C154.213 278.272 154.213 278.272 154.403 278.272C153.264 278.272 152.694 277.323 152.694 276.373C152.694 275.423 153.644 274.663 154.593 274.853C155.543 274.853 156.113 275.613 156.113 276.563C155.923 277.513 155.163 278.272 154.403 278.272ZM155.353 266.496C154.213 266.496 153.644 265.546 153.644 264.596C153.644 263.646 154.593 262.887 155.543 263.077C156.492 263.077 157.062 263.836 157.062 264.786C156.872 265.926 156.303 266.496 155.353 266.496Z" fill="#EF4223"/>
<path d="M98.9474 337.726C98.7575 337.726 98.5675 337.726 98.3776 337.536C97.6179 337.156 97.0482 336.206 97.428 335.447C97.8079 334.687 98.7575 334.117 99.707 334.497C100.467 334.877 101.036 335.826 100.657 336.586C100.277 337.346 99.5171 337.726 98.9474 337.726ZM103.505 326.899C103.315 326.899 103.126 326.899 102.936 326.709C102.176 326.329 101.606 325.379 101.986 324.62C102.366 323.86 103.315 323.29 104.265 323.67C105.025 324.05 105.595 324.999 105.215 325.759C104.645 326.519 104.075 326.899 103.505 326.899ZM108.063 316.072C107.874 316.072 107.684 316.072 107.494 315.882C106.734 315.502 106.164 314.552 106.544 313.793C106.924 313.033 107.874 312.463 108.823 312.843C109.583 313.223 110.153 314.172 109.773 314.932C109.203 315.692 108.633 316.072 108.063 316.072ZM112.432 305.245C112.242 305.245 112.052 305.245 111.862 305.055C111.102 304.675 110.532 303.725 110.912 302.966C111.292 302.206 112.242 301.636 113.191 302.016C113.951 302.396 114.521 303.345 114.141 304.105C113.761 304.865 113.191 305.245 112.432 305.245ZM116.99 294.418C116.8 294.418 116.61 294.418 116.42 294.228C115.66 293.848 115.09 292.898 115.47 292.139C115.85 291.379 116.8 290.809 117.749 291.189C118.509 291.569 119.079 292.518 118.699 293.278C118.319 294.038 117.749 294.418 116.99 294.418ZM121.548 283.591C121.358 283.591 121.168 283.591 120.978 283.401C120.218 283.021 119.648 282.071 120.028 281.312C120.408 280.552 121.358 279.982 122.307 280.362C123.257 280.742 123.637 281.691 123.257 282.451C122.877 283.211 122.117 283.591 121.548 283.591ZM126.106 272.764C125.916 272.764 125.726 272.764 125.536 272.574C124.776 272.194 124.206 271.244 124.586 270.485C124.966 269.725 125.916 269.155 126.865 269.535C127.625 269.915 128.195 270.864 127.815 271.624C127.245 272.384 126.675 272.764 126.106 272.764ZM130.664 261.937C130.474 261.937 130.284 261.937 130.094 261.747C129.334 261.367 128.764 260.417 129.144 259.658C129.524 258.898 130.474 258.328 131.423 258.708C132.183 259.088 132.753 260.038 132.373 260.797C131.803 261.557 131.233 261.937 130.664 261.937ZM135.032 251.11C134.842 251.11 134.652 251.11 134.462 250.92C133.702 250.54 133.133 249.59 133.512 248.831C133.892 248.071 134.842 247.501 135.791 247.881C136.551 248.261 137.121 249.211 136.741 249.97C136.361 250.73 135.791 251.11 135.032 251.11ZM139.59 240.283C139.4 240.283 139.21 240.283 139.02 240.093C138.26 239.713 137.691 238.763 138.07 238.004C138.45 237.244 139.4 236.674 140.349 237.054C141.109 237.434 141.679 238.384 141.299 239.143C140.919 239.903 140.349 240.283 139.59 240.283Z" fill="#EF4223"/>
<path d="M74.6377 292.898C74.2578 292.898 73.878 292.708 73.6881 292.518C72.9284 291.949 72.9284 290.809 73.4982 290.239C74.0679 289.479 75.2074 289.289 75.7772 289.859C76.5369 290.429 76.7268 291.379 76.157 292.138C75.5873 292.518 75.2074 292.898 74.6377 292.898ZM82.0445 283.781C81.6646 283.781 81.2848 283.591 80.905 283.401C80.1453 282.831 80.1453 281.691 80.7151 281.122C81.2848 280.362 82.4243 280.172 82.9941 280.932C83.7537 281.501 83.7537 282.451 83.184 283.211C82.9941 283.591 82.6142 283.781 82.0445 283.781ZM89.4513 274.663C89.0714 274.663 88.6916 274.473 88.3118 274.283C87.5521 273.714 87.5521 272.574 88.1219 272.004C88.6916 271.244 89.8311 271.244 90.4009 271.814C91.1605 272.384 91.1605 273.334 90.5908 274.093C90.4009 274.473 90.021 274.663 89.4513 274.663ZM96.8581 265.546C96.4782 265.546 96.0984 265.356 95.7186 265.166C94.9589 264.596 94.9589 263.456 95.5287 262.887C96.0984 262.127 97.2379 262.127 97.8077 262.697C98.5673 263.267 98.5673 264.216 97.9976 264.976C97.8077 265.356 97.4278 265.546 96.8581 265.546ZM104.265 256.428C103.885 256.428 103.505 256.238 103.315 256.049C102.556 255.479 102.556 254.339 103.125 253.769C103.695 253.009 104.835 252.819 105.404 253.389C106.164 253.959 106.354 254.909 105.784 255.669C105.214 256.238 104.835 256.428 104.265 256.428ZM111.672 247.311C111.292 247.311 110.912 247.121 110.532 246.931C109.773 246.361 109.772 245.222 110.342 244.652C110.912 243.892 112.052 243.892 112.621 244.462C113.381 245.032 113.381 245.981 112.811 246.741C112.621 247.121 112.241 247.311 111.672 247.311Z" fill="#EF4223"/>
<path d="M30.9566 274.094C30.3868 274.094 29.8171 273.904 29.6272 273.334C29.0574 272.574 29.2473 271.624 30.007 271.054C30.7667 270.485 31.9062 270.674 32.286 271.434C32.8558 272.194 32.6659 273.144 31.9062 273.714C31.5264 273.904 31.3364 274.094 30.9566 274.094ZM40.6424 267.445C40.0727 267.445 39.5029 267.255 39.313 266.686C38.7432 265.926 38.9332 264.976 39.6928 264.406C40.4525 263.836 41.592 264.026 41.9718 264.786C42.5416 265.546 42.3517 266.496 41.592 267.065C41.2122 267.255 41.0223 267.445 40.6424 267.445ZM50.3282 260.797C49.7585 260.797 49.1887 260.607 48.9988 260.037C48.4291 259.278 48.619 258.328 49.3786 257.758C50.1383 257.188 51.2778 257.378 51.6577 258.138C52.2274 258.898 52.0375 259.847 51.2778 260.417C51.0879 260.797 50.7081 260.797 50.3282 260.797ZM60.014 254.339C59.4443 254.339 58.8745 254.149 58.6846 253.579C58.1149 252.819 58.3048 251.87 59.0645 251.3C59.8241 250.73 60.9636 250.92 61.3435 251.68C61.9132 252.44 61.7233 253.389 60.9636 253.959C60.7737 254.149 60.3939 254.339 60.014 254.339ZM69.8898 247.691C69.32 247.691 68.7503 247.501 68.5603 246.931C67.9906 246.171 68.1805 245.222 68.9402 244.652C69.6999 244.082 70.8394 244.272 71.2192 245.032C71.599 245.791 71.599 246.741 70.8394 247.311C70.4595 247.691 70.0797 247.691 69.8898 247.691ZM79.5756 241.043C79.0058 241.043 78.4361 240.853 78.2462 240.283C77.6764 239.523 77.8663 238.573 78.626 238.004C79.3857 237.434 80.5252 237.624 80.905 238.383C81.4748 239.143 81.2849 240.093 80.5252 240.663C80.1454 241.043 79.7655 241.043 79.5756 241.043ZM89.2614 234.585C88.6917 234.585 88.1219 234.395 87.932 233.825C87.3622 233.065 87.5521 232.115 88.3118 231.545C89.0715 230.976 90.211 231.165 90.5908 231.925C90.9707 232.685 90.9707 233.635 90.211 234.205C89.8312 234.395 89.4513 234.585 89.2614 234.585ZM98.9472 227.936C98.3775 227.936 97.8077 227.746 97.6178 227.177C97.048 226.417 97.238 225.467 97.9976 224.897C98.7573 224.327 99.8968 224.517 100.277 225.277C100.846 226.037 100.656 226.987 99.8968 227.556C99.517 227.936 99.3271 227.936 98.9472 227.936ZM108.633 221.478C108.063 221.478 107.494 221.288 107.304 220.718C106.734 219.959 106.924 219.009 107.683 218.439C108.443 217.869 109.583 218.059 109.962 218.819C110.532 219.579 110.342 220.528 109.583 221.098C109.203 221.288 109.013 221.478 108.633 221.478Z" fill="#EF4223"/>
<path d="M3.98831 197.735C3.03872 197.735 2.27905 197.165 2.27905 196.215C2.27905 195.266 2.84881 194.506 3.7984 194.506C4.74799 194.506 5.50766 195.076 5.50766 196.025C5.69758 196.975 4.9379 197.735 3.98831 197.735ZM15.5733 196.785C14.6237 196.785 13.864 196.215 13.864 195.266C13.864 194.316 14.4338 193.556 15.3834 193.556H15.5733C16.5229 193.556 17.2826 194.126 17.2826 195.076C17.4725 196.025 16.7128 196.785 15.5733 196.785C15.7632 196.785 15.7632 196.785 15.5733 196.785ZM27.3482 196.025C26.3986 196.025 25.639 195.455 25.639 194.506C25.639 193.556 26.2087 192.796 27.1583 192.796C28.1079 192.796 28.8676 193.366 28.8676 194.316C29.0575 195.076 28.2978 195.835 27.3482 196.025ZM39.1231 195.076C38.1735 195.076 37.4139 194.506 37.4139 193.556C37.4139 192.606 37.9836 191.846 38.9332 191.846C39.8828 191.846 40.6425 192.416 40.6425 193.366C40.8324 194.126 40.0727 194.886 39.1231 195.076ZM50.7081 194.126C49.7585 194.126 48.9989 193.556 48.9989 192.606C48.9989 191.657 49.5686 190.897 50.5182 190.897C51.4678 190.897 52.2275 191.467 52.2275 192.416C52.4174 193.176 51.8476 194.126 50.7081 194.126C50.898 194.126 50.7081 194.126 50.7081 194.126ZM62.483 193.176C61.5334 193.176 60.7738 192.606 60.7738 191.657C60.7738 190.707 61.3435 189.947 62.2931 189.947C63.2427 189.947 64.0024 190.517 64.0024 191.467C64.1923 192.226 63.4326 193.176 62.483 193.176ZM74.068 192.226C73.1184 192.226 72.3588 191.657 72.3588 190.707C72.3588 189.757 72.9285 188.997 73.8781 188.997C74.8277 188.997 75.5874 189.567 75.5874 190.517C75.7773 191.467 75.2075 192.226 74.068 192.226C74.2579 192.226 74.068 192.226 74.068 192.226ZM85.8429 191.277C84.8933 191.277 84.1337 190.707 84.1337 189.757C84.1337 188.807 84.7034 188.048 85.653 188.048C86.6026 188.048 87.3623 188.617 87.3623 189.567C87.5522 190.517 86.7925 191.277 85.8429 191.277ZM97.4279 190.517C96.4783 190.517 95.7187 189.947 95.7187 188.997C95.7187 188.048 96.2884 187.288 97.238 187.288C98.1876 187.288 98.9473 187.858 98.9473 188.807C99.1372 189.567 98.5674 190.327 97.4279 190.517C97.6178 190.517 97.6178 190.517 97.4279 190.517ZM109.203 189.567C108.253 189.567 107.494 188.997 107.494 188.048C107.494 187.098 108.063 186.338 109.013 186.338C109.963 186.338 110.722 186.908 110.722 187.858C110.912 188.617 110.152 189.377 109.203 189.567Z" fill="#EF4223"/>
<path d="M37.7938 228.126C37.0341 228.126 36.4644 227.746 36.2745 226.987C35.8946 226.037 36.4644 225.087 37.2241 224.897C38.1736 224.517 39.1232 225.087 39.3132 225.847C39.693 226.797 39.1232 227.557 38.3636 227.936C38.1736 228.126 37.9837 228.126 37.7938 228.126ZM48.8091 224.327C48.0494 224.327 47.4796 223.948 47.2897 223.188C46.9099 222.238 47.4796 221.288 48.2393 221.098C49.1889 220.718 50.1385 221.288 50.3284 222.048C50.7082 222.998 50.1385 223.758 49.3788 224.137C49.1889 224.327 48.999 224.327 48.8091 224.327ZM60.0142 220.528C59.2545 220.528 58.6848 220.149 58.4949 219.389C58.115 218.439 58.6848 217.489 59.4445 217.299C60.394 216.919 61.3436 217.489 61.5336 218.249C61.9134 219.199 61.3436 219.959 60.584 220.339C60.394 220.339 60.2041 220.528 60.0142 220.528ZM71.0295 216.54C70.2698 216.54 69.7 216.16 69.5101 215.4C69.1303 214.45 69.7 213.5 70.4597 213.31C71.4093 212.931 72.3589 213.5 72.5488 214.26C72.9286 215.21 72.3589 215.97 71.5992 216.35C71.4093 216.54 71.2194 216.54 71.0295 216.54ZM82.0447 212.741C81.285 212.741 80.7153 212.361 80.5253 211.601C80.1455 210.651 80.7153 209.701 81.4749 209.512C82.4245 209.132 83.3741 209.701 83.564 210.461C83.9439 211.411 83.3741 212.171 82.6144 212.551C82.4245 212.741 82.2346 212.741 82.0447 212.741ZM93.2498 208.942C92.4902 208.942 91.9204 208.562 91.7305 207.802C91.3507 206.852 91.9204 205.903 92.6801 205.713C93.6297 205.333 94.5793 205.903 94.7692 206.662C95.149 207.612 94.5793 208.372 93.8196 208.752C93.6297 208.942 93.4398 208.942 93.2498 208.942Z" fill="#EF4223"/>
<defs>
<radialGradient id="paint0_radial" cx="0" cy="0" r="1" gradientUnits="userSpaceOnUse" gradientTransform="translate(164.107 187.549) scale(87.537 87.5504)">
<stop offset="0.5109" stop-color="white"/>
<stop offset="1" stop-color="#FFFDE4"/>
</radialGradient>
</defs>
</svg>
