<svg width="209" height="200" viewBox="0 0 209 200" fill="none" xmlns="http://www.w3.org/2000/svg">
<circle cx="109" cy="100" r="100" fill="#F9FCFC"/>
<g clip-path="url(#clip0)">
<path d="M24.1172 154.596H135.883C147.48 154.596 157.243 145.595 157.642 134.101C157.651 133.817 157.656 133.532 157.656 133.246C157.656 119.71 146.591 108.737 132.942 108.737C132.933 108.737 132.924 108.738 132.914 108.738C132.93 108.376 132.942 108.013 132.942 107.647C132.942 94.1119 121.877 83.1391 108.228 83.1391C104.998 83.1391 101.912 83.7541 99.0841 84.8722C97.6103 85.4547 95.9338 84.8891 95.1513 83.5109C88.9897 72.6613 77.5144 65.1753 64.225 64.5294C42.9431 63.4947 24.8494 80.4559 24.7338 101.585C24.7259 102.993 24.7978 104.382 24.9441 105.749C25.1187 107.381 24.0113 108.873 22.3984 109.179C10.9775 111.339 2.34375 121.29 2.34375 133.245C2.34375 133.532 2.34875 133.817 2.35844 134.101C2.75656 145.595 12.5197 154.596 24.1172 154.596Z" fill="#DDEBFD"/>
<path d="M13.0235 115.429C14.6363 115.123 15.7438 113.631 15.5691 111.999C15.5538 111.857 15.5428 111.713 15.5294 111.571C13.0622 112.863 10.8438 114.557 8.96002 116.565C10.2656 116.077 11.6231 115.694 13.0235 115.429Z" fill="#BED9FD"/>
<path d="M132.942 108.737C132.933 108.737 132.924 108.738 132.914 108.738C132.93 108.376 132.942 108.013 132.942 107.647C132.942 94.1119 121.877 83.1391 108.228 83.1391C104.998 83.1391 101.912 83.7541 99.084 84.8722C97.6103 85.4547 95.9337 84.8891 95.1512 83.5109C88.9896 72.6613 77.5143 65.1753 64.2249 64.5294C53.8203 64.0234 44.1793 67.8206 37.0271 74.3019C42.4209 71.7681 48.4931 70.4703 54.8499 70.7794C68.1393 71.4253 79.6146 78.9113 85.7762 89.7609C86.5587 91.1391 88.2353 91.7047 89.709 91.1222C92.5375 90.0044 95.6228 89.3891 98.8531 89.3891C112.502 89.3891 123.567 100.362 123.567 113.897C123.567 114.263 123.555 114.626 123.539 114.988C123.549 114.988 123.558 114.987 123.567 114.987C137.216 114.987 148.281 125.96 148.281 139.495C148.281 139.782 148.276 140.067 148.267 140.351C148.093 145.355 146.144 149.885 143.042 153.407C151.249 150.602 157.329 143.12 157.642 134.101C157.651 133.817 157.656 133.532 157.656 133.245C157.656 119.71 146.591 108.737 132.942 108.737Z" fill="#2CCCD4"/>
<path d="M129.958 142.067H59.6683C57.122 142.067 55.0576 140.003 55.0576 137.457V84.3387C55.0576 81.7925 57.122 79.7281 59.6683 79.7281H129.958C132.504 79.7281 134.569 81.7925 134.569 84.3387V137.456C134.569 140.003 132.504 142.067 129.958 142.067Z" fill="#FFE07D"/>
<path d="M129.958 79.7281H120.583C123.129 79.7281 125.193 81.7925 125.193 84.3387V137.456C125.193 140.003 123.129 142.067 120.583 142.067H129.958C132.504 142.067 134.568 140.003 134.568 137.456V84.3391C134.568 81.7925 132.504 79.7281 129.958 79.7281Z" fill="#F7931E"/>
<path d="M139.514 144.558C139.743 143.737 139.868 142.874 139.868 141.98C139.868 136.684 135.574 132.39 130.277 132.39C127.522 132.39 125.04 133.553 123.291 135.413C121.032 129.204 115.078 124.769 108.087 124.769C100.774 124.769 94.5977 129.623 92.5967 136.285C90.6755 130.833 85.4823 126.925 79.3736 126.925C73.1545 126.925 67.8845 130.976 66.0498 136.582C64.3211 134.892 61.957 133.849 59.3483 133.849C54.0517 133.849 49.7583 138.143 49.7583 143.439C49.7583 143.818 49.7826 144.191 49.8255 144.558H139.514Z" fill="#DDEBFD"/>
<path d="M136.912 106.685V84.3387C136.912 80.504 133.792 77.3843 129.958 77.3843H93.8437C86.6743 68.2878 75.9368 62.7522 64.339 62.1884C53.6668 61.6706 43.4078 65.354 35.4522 72.5634C34.4931 73.4325 34.42 74.9147 35.289 75.874C36.1581 76.8331 37.6403 76.9062 38.5997 76.0368C45.6284 69.6678 54.6893 66.4134 64.1115 66.8706C73.0537 67.3053 81.4156 71.0872 87.6068 77.3847H59.6684C55.8337 77.3847 52.714 80.5043 52.714 84.339V133.48C52.714 133.495 52.7159 133.509 52.7162 133.524C49.5218 135.668 47.415 139.312 47.415 143.44C47.415 144.734 48.4643 145.783 49.7587 145.783C51.0531 145.783 52.1025 144.734 52.1025 143.44C52.1025 139.444 55.3531 136.193 59.3487 136.193C61.2512 136.193 63.0493 136.927 64.4118 138.258C64.9909 138.824 65.8209 139.051 66.6078 138.858C67.3943 138.666 68.0256 138.081 68.2775 137.311C69.8518 132.501 74.3112 129.269 79.3737 129.269C84.3175 129.269 88.7431 132.401 90.3862 137.064C90.7234 138.021 91.6447 138.651 92.6518 138.628C93.6659 138.604 94.5497 137.931 94.8412 136.959C96.5828 131.162 102.03 127.113 108.087 127.113C113.883 127.113 119.108 130.771 121.089 136.215C121.367 136.98 122.022 137.545 122.819 137.709C123.617 137.874 124.442 137.612 124.999 137.019C126.385 135.546 128.259 134.734 130.277 134.734C134.273 134.734 137.524 137.985 137.524 141.981C137.524 143.275 138.573 144.324 139.868 144.324C141.162 144.324 142.212 143.275 142.212 141.981C142.212 137.854 140.106 134.21 136.912 132.067V111.434C147.503 113.302 155.312 122.419 155.312 133.245C155.312 133.505 155.308 133.763 155.299 134.02C155.129 138.932 153.02 143.523 149.361 146.947C145.705 150.368 140.918 152.252 135.883 152.252H65.7865C64.4922 152.252 63.4428 153.302 63.4428 154.596C63.4428 155.89 64.4922 156.94 65.7865 156.94H135.883C142.112 156.94 148.036 154.607 152.563 150.37C157.135 146.092 159.77 140.343 159.984 134.181C159.994 133.871 160 133.559 160 133.245C160 119.849 150.145 108.61 136.912 106.685ZM94.8128 107.967L60.2968 82.0718H129.329L94.8128 107.967ZM130.277 130.046C128.113 130.046 125.995 130.645 124.159 131.74C120.898 126.066 114.777 122.425 108.087 122.425C101.672 122.425 95.7681 125.818 92.4262 131.078C89.3868 127.066 84.5859 124.581 79.3737 124.581C73.3456 124.581 67.9278 127.851 65.0815 132.969C63.3425 132.013 61.3818 131.505 59.3487 131.505C58.6856 131.505 58.0356 131.562 57.4015 131.667V85.7597L93.4062 112.772C93.8281 113.089 94.3215 113.242 94.8109 113.242C95.3081 113.242 95.7993 113.08 96.2084 112.777C96.2118 112.774 96.2159 112.775 96.2193 112.772L132.224 85.7597V130.208C131.591 130.103 130.941 130.046 130.277 130.046Z" fill="#204BB9"/>
<path d="M56.4116 152.252H24.1172C19.0819 152.252 14.2953 150.368 10.6394 146.947C6.98 143.523 4.87094 138.932 4.70094 134.02C4.69219 133.763 4.6875 133.505 4.6875 133.245C4.6875 122.624 12.3191 113.471 22.8337 111.482C25.6262 110.954 27.5769 108.326 27.2744 105.499C27.1362 104.21 27.07 102.898 27.0772 101.598C27.115 94.7012 29.2081 88.0278 33.1303 82.3C33.8616 81.2322 33.5887 79.7734 32.5206 79.0418C31.4525 78.3106 29.9941 78.5837 29.2625 79.6515C24.8094 86.155 22.4328 93.7353 22.3897 101.573C22.3816 103.047 22.4569 104.536 22.6134 105.998C22.6578 106.413 22.3719 106.799 21.9625 106.876C9.23656 109.283 0 120.373 0 133.245C0 133.559 0.005625 133.871 0.01625 134.182C0.229688 140.343 2.86469 146.092 7.43656 150.37C11.9641 154.607 17.8881 156.94 24.1172 156.94H56.4116C57.7059 156.94 58.7553 155.89 58.7553 154.596C58.7553 153.302 57.7059 152.252 56.4116 152.252Z" fill="#204BB9"/>
<path d="M108.154 68.9768C109.448 68.9768 110.498 67.9275 110.498 66.6331V57.4193C110.498 56.125 109.448 55.0756 108.154 55.0756C106.86 55.0756 105.81 56.125 105.81 57.4193V66.6331C105.81 67.9275 106.86 68.9768 108.154 68.9768Z" fill="#204BB9"/>
<path d="M129.8 68.9768C131.094 68.9768 132.143 67.9275 132.143 66.6331V57.4193C132.143 56.125 131.094 55.0756 129.8 55.0756C128.505 55.0756 127.456 56.125 127.456 57.4193V66.6331C127.456 67.9275 128.505 68.9768 129.8 68.9768Z" fill="#204BB9"/>
<path d="M118.977 68.9769C120.271 68.9769 121.321 67.9275 121.321 66.6331V37.4041C121.321 36.1097 120.271 35.0603 118.977 35.0603C117.683 35.0603 116.633 36.1097 116.633 37.4041V66.6331C116.633 67.9275 117.682 68.9769 118.977 68.9769Z" fill="#204BB9"/>
</g>
<defs>
<clipPath id="clip0">
<rect width="160" height="160" fill="white" transform="translate(0 16)"/>
</clipPath>
</defs>
</svg>
