<svg width="111" height="110" viewBox="0 0 111 110" fill="none" xmlns="http://www.w3.org/2000/svg">
<path d="M94.3985 32.3147C95.0455 32.9634 95.8957 33.2857 96.7466 33.2857C97.5976 33.2857 98.4495 32.9617 99.0973 32.3147L105.847 25.5639C107.141 24.2698 107.144 22.1633 105.847 20.8667L93.2856 8.30505C91.9874 7.00844 89.8826 7.01263 88.5885 8.30505L81.8377 15.055C80.5419 16.3516 80.5419 18.4581 81.8377 19.7539L82.9329 20.8491L79.9183 23.8628C73.9052 19.4593 66.8322 16.423 59.1523 15.2312V10.9998H64.9968C66.8288 10.9998 68.3193 9.50935 68.3193 7.67815V3.32169C68.3193 1.49048 66.8288 0 64.9968 0H38.6406C36.8094 0 35.319 1.49048 35.319 3.32169V7.67815C35.319 9.50935 36.8094 10.9998 38.6406 10.9998H44.4859V15.2312C21.6713 18.7695 4.15234 38.5418 4.15234 62.3332C4.15234 88.6163 25.536 110 51.8191 110C78.1014 110 99.4859 88.6163 99.4859 62.3332C99.4859 51.8319 96.0643 42.1186 90.2896 34.234L93.3033 31.2195L94.3985 32.3147ZM60.9878 27.5H71.9876C72.9997 27.5 73.8205 28.3216 73.8205 29.3337C73.8205 30.345 72.9997 31.1666 71.9876 31.1666H60.9878C59.9756 31.1666 59.154 30.345 59.154 29.3337C59.154 28.3216 59.9756 27.5 60.9878 27.5ZM46.3205 34.8332H57.3211C58.3333 34.8332 59.154 35.6548 59.154 36.6669C59.154 37.6791 58.3333 38.4998 57.3211 38.4998H46.3205C45.3092 38.4998 44.4876 37.6791 44.4876 36.6669C44.4876 35.6548 45.3092 34.8332 46.3205 34.8332ZM31.654 27.5H42.6539C43.666 27.5 44.4876 28.3216 44.4876 29.3337C44.4876 30.345 43.666 31.1666 42.6539 31.1666H31.654C30.6419 31.1666 29.8211 30.345 29.8211 29.3337C29.8211 28.3216 30.6419 27.5 31.654 27.5ZM42.6539 97.1664H31.654C30.6419 97.1664 29.8211 96.3457 29.8211 95.3336C29.8211 94.3214 30.6419 93.4998 31.654 93.4998H42.6539C43.666 93.4998 44.4876 94.3214 44.4876 95.3336C44.4876 96.3457 43.666 97.1664 42.6539 97.1664ZM57.3211 89.8332H46.3205C45.3092 89.8332 44.4876 89.0116 44.4876 88.0003C44.4876 86.9882 45.3092 86.1666 46.3205 86.1666H57.3211C58.3333 86.1666 59.154 86.9882 59.154 88.0003C59.154 89.0116 58.3333 89.8332 57.3211 89.8332ZM71.9876 97.1664H60.9878C59.9756 97.1664 59.154 96.3457 59.154 95.3336C59.154 94.3214 59.9756 93.4998 60.9878 93.4998H71.9876C72.9997 93.4998 73.8205 94.3214 73.8205 95.3336C73.8205 96.3457 72.9997 97.1664 71.9876 97.1664ZM90.3206 75.1575C90.3206 78.1956 87.8499 80.6663 84.8119 80.6663H18.8297C15.7925 80.6663 13.321 78.1956 13.321 75.1575V49.5089C13.321 46.4717 15.7925 44.0002 18.8297 44.0002H84.8119C87.8499 44.0002 90.3206 46.4717 90.3206 49.5089V75.1575Z" fill="#58595B"/>
<path d="M24.3208 55H29.8211V69.6664H24.3208V55Z" fill="#F7931E"/>
<path d="M38.9873 55H44.4876V69.6664H38.9873V55Z" fill="#F7931E"/>
<path d="M59.1541 55H64.6544V69.6664H59.1541V55Z" fill="#F7931E"/>
<path d="M73.8206 55H79.3209V69.6664H73.8206V55Z" fill="#F7931E"/>
<path d="M84.8119 47.6667H18.8297C17.8125 47.6667 16.9875 48.4934 16.9875 49.5089V75.1575C16.9875 76.173 17.8142 76.9996 18.8297 76.9996H84.8119C85.8273 76.9996 86.654 76.173 86.654 75.1575V49.5089C86.654 48.4934 85.8273 47.6667 84.8119 47.6667ZM33.4877 71.5001C33.4877 72.5123 32.6661 73.333 31.654 73.333H22.4879C21.4758 73.333 20.6542 72.5123 20.6542 71.5001V53.1662C20.6542 52.155 21.4758 51.3334 22.4879 51.3334H31.654C32.6661 51.3334 33.4877 52.155 33.4877 53.1662V71.5001ZM48.1542 71.5001C48.1542 72.5123 47.3326 73.333 46.3204 73.333H37.1543C36.1422 73.333 35.3206 72.5123 35.3206 71.5001V53.1662C35.3206 52.155 36.1422 51.3334 37.1543 51.3334H46.3204C47.3326 51.3334 48.1542 52.155 48.1542 53.1662V71.5001ZM68.3209 71.5001C68.3209 72.5123 67.4993 73.333 66.4872 73.333H57.3211C56.309 73.333 55.4874 72.5123 55.4874 71.5001V53.1662C55.4874 52.155 56.309 51.3334 57.3211 51.3334H66.4872C67.4993 51.3334 68.3209 52.155 68.3209 53.1662V71.5001ZM82.9874 71.5001C82.9874 72.5123 82.1658 73.333 81.1545 73.333H71.9875C70.9754 73.333 70.1538 72.5123 70.1538 71.5001V53.1662C70.1538 52.155 70.9754 51.3334 71.9875 51.3334H81.1545C82.1658 51.3334 82.9874 52.155 82.9874 53.1662V71.5001Z" fill="#F7931E"/>
</svg>
