<svg width="111" height="110" viewBox="0 0 111 110" fill="none" xmlns="http://www.w3.org/2000/svg">
<path d="M94.3603 31.5078C93.5527 23.5243 86.7923 17.2723 78.5992 17.2723C77.1355 17.2723 75.701 17.4696 74.3236 17.8543C73.8046 7.92149 65.5599 0 55.4999 0C45.4399 0 37.1952 7.92149 36.6762 17.8543C35.2988 17.4696 33.8643 17.2723 32.4006 17.2723C24.2075 17.2723 17.4471 23.5243 16.6395 31.5078C7.49788 33.0072 0.5 40.9633 0.5 50.5226C0.5 61.1846 9.14379 69.8589 19.7684 69.8589H20.4751C20.4415 70.1122 20.4061 70.3653 20.3782 70.6199C19.6844 76.9423 20.7468 83.3259 23.4504 89.0809C23.9252 90.0913 24.4458 91.071 25.0012 92.0245C26.3446 90.2795 28.0614 88.8379 30.0317 87.8181C29.772 87.333 29.52 86.8422 29.2839 86.3399C27.0847 81.6587 26.2204 76.4657 26.7848 71.3228C26.8387 70.8319 26.9094 70.3444 26.9887 69.8589H20.4751C21.276 63.8018 23.6618 58.0825 27.4089 53.2756C31.2993 48.2852 36.1227 44.5454 41.745 42.1596C45.8646 40.4114 50.319 39.4764 54.8047 39.3941V45.8379C51.1811 45.9185 47.5876 46.6816 44.2627 48.0927C39.661 50.0456 35.7008 53.1226 32.4921 57.2383C29.6257 60.915 27.7413 65.2526 26.9889 69.8589H83.9391C83.6257 68.1154 83.1444 66.3883 82.4866 64.7022C81.5389 62.2726 80.3362 60.0266 78.8938 57.9866C77.0749 59.0265 74.972 59.624 72.731 59.624C65.8601 59.624 60.2701 54.034 60.2701 47.1631C60.2701 40.2921 65.8601 34.7021 72.731 34.7021C79.6019 34.7021 85.1919 40.2921 85.1919 47.1631C85.1919 49.4305 84.58 51.5566 83.5174 53.3903C85.5483 56.0861 87.2151 59.0884 88.4912 62.3598C89.4454 64.8058 90.0996 67.3218 90.4674 69.8589H83.9391C85.2059 76.9042 83.6871 84.219 79.5602 90.2073C73.7944 98.5738 64.7661 103.318 55.0887 103.183V109.631C55.2296 109.632 55.3706 109.635 55.5113 109.635C67.1558 109.635 77.9588 103.889 84.8675 93.8648C89.7472 86.784 91.6776 78.2068 90.4676 69.8589H91.2316C101.856 69.8589 110.5 61.1846 110.5 50.5223C110.5 40.9631 103.502 33.0072 94.3603 31.5078Z" fill="#58595B"/>
<path d="M36.9175 109.98C41.7801 109.98 45.722 106.039 45.722 101.176C45.722 96.3134 41.7801 92.3715 36.9175 92.3715C32.0549 92.3715 28.113 96.3134 28.113 101.176C28.113 106.039 32.0549 109.98 36.9175 109.98Z" fill="#58595B"/>
<path d="M72.7312 53.3929C76.1722 53.3929 78.9617 50.6034 78.9617 47.1624C78.9617 43.7214 76.1722 40.9319 72.7312 40.9319C69.2902 40.9319 66.5007 43.7214 66.5007 47.1624C66.5007 50.6034 69.2902 53.3929 72.7312 53.3929Z" fill="#58595B"/>
</svg>
