<svg width="226" height="200" viewBox="0 0 226 200" fill="none" xmlns="http://www.w3.org/2000/svg">
<circle cx="126" cy="100" r="100" fill="#F2F5FB"/>
<g clip-path="url(#clip0)">
<path d="M150.006 153.86C147.502 156.363 143.444 156.363 140.942 153.86L99.649 112.568L108.713 103.504L150.006 144.796C152.509 147.299 152.509 151.357 150.006 153.86Z" fill="#6F737B"/>
<path d="M24.1172 94.9675H135.883C147.48 94.9675 157.243 85.9072 157.642 74.3375C157.651 74.0516 157.656 73.7647 157.656 73.4766C157.656 59.8519 146.591 48.8069 132.942 48.8069C132.933 48.8069 132.924 48.8075 132.914 48.8075C132.93 48.4435 132.942 48.0781 132.942 47.71C132.942 34.0853 121.877 23.0403 108.228 23.0403C103.976 23.0403 99.975 24.1131 96.4806 26.0009C90.7494 13.6969 78.5394 5.00844 64.2247 4.30813C42.9428 3.26657 24.8491 20.3394 24.7334 41.6081C24.72 44.0916 24.9509 46.5181 25.3984 48.8681C12.5241 49.721 2.34375 60.4088 2.34375 73.4763C2.34375 73.7644 2.34875 74.0516 2.35844 74.3372C2.75656 85.9072 12.5197 94.9675 24.1172 94.9675Z" fill="#DDEBFD"/>
<path d="M132.563 48.4147C132.554 48.4147 132.545 48.4153 132.535 48.4153C132.551 48.0513 132.563 47.686 132.563 47.3178C132.563 33.6931 121.498 22.6481 107.849 22.6481C103.597 22.6481 99.596 23.7209 96.1016 25.6088C90.3704 13.305 78.1604 4.61626 63.8457 3.91594C50.4307 3.25938 38.2847 9.80188 31.1075 20.0547C37.7088 15.4334 45.8266 12.8681 54.4707 13.2909C65.4197 13.8266 75.1372 19.0356 81.6663 26.9616C84.9244 30.9169 90.0091 32.9484 95.086 32.2531C96.1935 32.1016 97.3244 32.0231 98.4738 32.0231C112.893 32.0231 118.938 42.0238 121.447 49.5644C122.926 54.0113 126.412 57.5513 130.868 59.0041C140.757 62.2285 147.902 71.511 147.902 82.4594C147.902 82.7475 147.897 83.0347 147.887 83.3203C147.778 86.4885 146.963 89.466 145.604 92.1232C152.286 88.6707 156.988 81.9013 157.262 73.9453C157.272 73.6594 157.277 73.3725 157.277 73.0844C157.277 59.4597 146.212 48.4147 132.563 48.4147Z" fill="#2CCCD4"/>
<path d="M85.5203 120.783C102.867 120.783 116.929 106.721 116.929 89.3747C116.929 72.0283 102.867 57.9662 85.5203 57.9662C68.1739 57.9662 54.1118 72.0283 54.1118 89.3747C54.1118 106.721 68.1739 120.783 85.5203 120.783Z" fill="#C8C3CA"/>
<path d="M107.729 67.1656C100.401 59.8369 90.3515 56.8887 80.8328 58.3178C87.2453 59.2803 93.4175 62.2287 98.3544 67.1656C110.62 79.4312 110.62 99.3181 98.3544 111.584C93.4172 116.521 87.2453 119.469 80.8328 120.432C90.3515 121.861 100.401 118.912 107.729 111.584C119.995 99.3181 119.995 79.4316 107.729 67.1656Z" fill="#C7C7C7"/>
<path d="M85.5204 110.159C96.9995 110.159 106.305 100.854 106.305 89.3747C106.305 77.8956 96.9995 68.59 85.5204 68.59C74.0413 68.59 64.7357 77.8956 64.7357 89.3747C64.7357 100.854 74.0413 110.159 85.5204 110.159Z" fill="#FDFCFC"/>
<path d="M100.217 74.6778C94.9581 69.4187 87.5825 67.5715 80.8325 69.1275C84.5003 69.9731 87.984 71.82 90.8421 74.6778C98.959 82.7947 98.959 95.955 90.8421 104.072C87.9843 106.93 84.5006 108.777 80.8325 109.622C87.5825 111.178 94.9578 109.331 100.217 104.072C108.334 95.955 108.334 82.7947 100.217 74.6778Z" fill="#F1F1F1"/>
<path d="M118.435 97.3112H135.883C142.115 97.3112 148.041 94.9622 152.569 90.6975C157.137 86.3944 159.771 80.6128 159.984 74.4178C159.995 74.1053 160 73.7919 160 73.4765C160 59.3612 149.1 47.74 135.262 46.5616C134.657 32.1966 122.762 20.6966 108.228 20.6966C104.55 20.6966 100.899 21.4497 97.54 22.8891C90.9141 10.6034 78.3988 2.65468 64.3397 1.96687C52.0975 1.36968 40.4066 6.35874 32.2631 15.6597C31.4103 16.6334 31.5087 18.1141 32.4828 18.9669C33.4566 19.8194 34.9375 19.7209 35.79 18.7472C42.9847 10.5297 53.3056 6.11812 64.1106 6.64874C77.2213 7.29031 88.8106 15.0847 94.3566 26.9903C94.6294 27.5756 95.1312 28.0225 95.7444 28.2256C96.3572 28.4284 97.0269 28.37 97.595 28.0628C100.839 26.3103 104.516 25.3837 108.228 25.3837C120.563 25.3837 130.599 35.3991 130.599 47.7097C130.599 47.9944 130.591 48.3009 130.573 48.7044C130.545 49.3434 130.779 49.9659 131.221 50.4278C131.663 50.89 132.275 51.1509 132.914 51.1509C132.931 51.1509 132.951 51.1506 132.971 51.1503C145.293 51.1662 155.312 61.1756 155.312 73.4762C155.312 73.7378 155.308 73.9981 155.299 74.2569C155.129 79.2081 153.018 83.835 149.355 87.285C145.7 90.7278 140.915 92.6237 135.883 92.6237H119.101C120.03 82.9328 116.792 72.9141 109.387 65.5087C103.012 59.1337 94.5356 55.6228 85.5203 55.6228C76.5047 55.6228 68.0287 59.1337 61.6541 65.5087C55.2791 71.8834 51.7681 80.3594 51.7681 89.375C51.7681 90.4669 51.8206 91.5506 51.9225 92.6237H24.1172C19.0847 92.6237 14.3003 90.7278 10.645 87.285C6.98219 83.8353 4.87125 79.2081 4.70094 74.2575C4.69219 73.9984 4.6875 73.7378 4.6875 73.4765C4.6875 61.7641 13.8531 51.9819 25.5534 51.2069C26.2234 51.1625 26.8419 50.8331 27.2528 50.3022C27.6634 49.7712 27.8266 49.0897 27.7012 48.43C27.275 46.1909 27.065 43.9 27.0775 41.6212C27.1072 36.1859 28.3628 30.9725 30.8097 26.1259C31.3931 24.9703 30.9291 23.5606 29.7738 22.9772C28.6184 22.3944 27.2087 22.8578 26.625 24.0131C23.8484 29.5128 22.4234 35.4284 22.39 41.5953C22.3806 43.3378 22.4856 45.0859 22.7034 46.8187C9.78438 48.9119 0 60.1634 0 73.4762C0 73.7912 0.005625 74.105 0.01625 74.4178C0.229375 80.6125 2.8625 86.394 7.43094 90.6972C11.9591 94.9622 17.885 97.3109 24.1169 97.3109H52.7031C54.1381 103.292 57.1937 108.781 61.6534 113.241C68.0281 119.616 76.5041 123.127 85.5197 123.127C91.5384 123.127 97.3159 121.56 102.389 118.623L139.284 155.517C140.937 157.171 143.135 158.081 145.473 158.081C147.811 158.081 150.009 157.171 151.663 155.517C155.075 152.105 155.075 146.552 151.663 143.139L137.182 128.658C136.267 127.743 134.783 127.743 133.868 128.658C132.952 129.573 132.952 131.057 133.868 131.972L148.348 146.453C149.116 147.221 149.539 148.242 149.539 149.328C149.539 150.414 149.116 151.435 148.348 152.203C146.763 153.788 144.184 153.788 142.598 152.203L106.341 115.945C107.401 115.111 108.418 114.21 109.387 113.241C110.359 112.268 111.258 111.249 112.087 110.193L126.915 125.02C127.372 125.477 127.972 125.707 128.572 125.707C129.172 125.707 129.772 125.478 130.229 125.02C131.144 124.105 131.144 122.621 130.229 121.706L114.76 106.237C116.387 103.412 117.574 100.402 118.317 97.3056C118.357 97.3072 118.395 97.3112 118.435 97.3112ZM106.072 109.927C100.582 115.416 93.2838 118.439 85.5203 118.439C77.7569 118.439 70.4581 115.416 64.9684 109.927C59.4791 104.437 56.4556 97.1381 56.4556 89.3747C56.4556 81.6112 59.4791 74.3125 64.9684 68.8228C70.4578 63.3331 77.7569 60.31 85.5203 60.31C93.2838 60.31 100.582 63.3331 106.072 68.8228C117.404 80.1553 117.404 98.5944 106.072 109.927Z" fill="#204BB9"/>
<path d="M101.874 73.0203C92.8567 64.0025 78.1836 64.0025 69.1655 73.0203C60.1477 82.0381 60.1477 96.7113 69.1655 105.729C73.6745 110.238 79.597 112.493 85.5199 112.493C91.4427 112.493 97.3655 110.238 101.874 105.729C110.892 96.7113 110.892 82.0384 101.874 73.0203ZM98.5599 102.415C91.3695 109.605 79.6705 109.605 72.4802 102.415C65.2902 95.2247 65.2902 83.5253 72.4802 76.335C76.0758 72.7397 80.7971 70.9425 85.5202 70.9425C90.242 70.9425 94.9655 72.7403 98.5602 76.335C105.75 83.5253 105.75 95.2247 98.5599 102.415Z" fill="#204BB9"/>
</g>
<defs>
<clipPath id="clip0">
<rect width="160" height="160" fill="white"/>
</clipPath>
</defs>
</svg>
