<svg width="320" height="206" viewBox="0 0 320 206" fill="none" xmlns="http://www.w3.org/2000/svg">
<rect x="160" y="69.3427" width="44.7479" height="11.187" rx="5.59349" transform="rotate(-45 160 69.3427)" fill="#F7931E"/>
<circle cx="123.218" cy="96.5517" r="73.5632" fill="white"/>
<rect y="103.177" width="22.374" height="11.187" rx="5.59349" transform="rotate(-45 0 103.177)" fill="#F7931E"/>
<rect x="214.253" y="58.1196" width="22.374" height="11.187" rx="5.59349" transform="rotate(-45 214.253 58.1196)" fill="#F7931E"/>
<mask id="mask0" mask-type="alpha" maskUnits="userSpaceOnUse" x="103" y="0" width="217" height="206">
<path d="M103.908 21.3116C103.908 20.7998 104.323 20.385 104.835 20.385C105.348 20.385 105.763 20.7998 105.763 21.3116C105.763 21.8233 105.348 22.2382 104.835 22.2382C104.323 22.2382 103.908 21.8233 103.908 21.3116Z" fill="black"/>
<path d="M103.908 0.92659C103.908 0.414848 104.323 0 104.835 0C105.348 0 105.763 0.414848 105.763 0.92659C105.763 1.43833 105.348 1.85318 104.835 1.85318C104.323 1.85318 103.908 1.43833 103.908 0.92659Z" fill="black"/>
<path d="M114.11 11.1191C114.11 10.6073 114.525 10.1925 115.037 10.1925C115.549 10.1925 115.965 10.6073 115.965 11.1191C115.965 11.6308 115.549 12.0457 115.037 12.0457C114.525 12.0457 114.11 11.6308 114.11 11.1191Z" fill="black"/>
<path d="M124.312 21.3116C124.312 20.7998 124.727 20.385 125.239 20.385C125.751 20.385 126.166 20.7998 126.166 21.3116C126.166 21.8233 125.751 22.2382 125.239 22.2382C124.727 22.2382 124.312 21.8233 124.312 21.3116Z" fill="black"/>
<path d="M134.513 11.1191C134.513 10.6073 134.929 10.1925 135.441 10.1925C135.953 10.1925 136.368 10.6073 136.368 11.1191C136.368 11.6308 135.953 12.0457 135.441 12.0457C134.929 12.0457 134.513 11.6308 134.513 11.1191Z" fill="black"/>
<path d="M124.312 0.92659C124.312 0.414848 124.727 0 125.239 0C125.751 0 126.166 0.414848 126.166 0.92659C126.166 1.43833 125.751 1.85318 125.239 1.85318C124.727 1.85318 124.312 1.43833 124.312 0.92659Z" fill="black"/>
<path d="M144.715 21.3116C144.715 20.7998 145.13 20.385 145.643 20.385C146.155 20.385 146.57 20.7998 146.57 21.3116C146.57 21.8233 146.155 22.2382 145.643 22.2382C145.13 22.2382 144.715 21.8233 144.715 21.3116Z" fill="black"/>
<path d="M154.917 11.1191C154.917 10.6073 155.332 10.1925 155.844 10.1925C156.357 10.1925 156.772 10.6073 156.772 11.1191C156.772 11.6308 156.357 12.0457 155.844 12.0457C155.332 12.0457 154.917 11.6308 154.917 11.1191Z" fill="black"/>
<path d="M144.715 0.92659C144.715 0.414848 145.13 0 145.643 0C146.155 0 146.57 0.414848 146.57 0.92659C146.57 1.43833 146.155 1.85318 145.643 1.85318C145.13 1.85318 144.715 1.43833 144.715 0.92659Z" fill="black"/>
<path d="M165.119 21.3116C165.119 20.7998 165.534 20.385 166.046 20.385C166.558 20.385 166.974 20.7998 166.974 21.3116C166.974 21.8233 166.558 22.2382 166.046 22.2382C165.534 22.2382 165.119 21.8233 165.119 21.3116Z" fill="black"/>
<path d="M175.32 11.1191C175.32 10.6073 175.736 10.1925 176.248 10.1925C176.76 10.1925 177.175 10.6073 177.175 11.1191C177.175 11.6308 176.76 12.0457 176.248 12.0457C175.736 12.0457 175.32 11.6308 175.32 11.1191Z" fill="black"/>
<path d="M165.119 0.92659C165.119 0.414848 165.534 0 166.046 0C166.558 0 166.974 0.414848 166.974 0.92659C166.974 1.43833 166.558 1.85318 166.046 1.85318C165.534 1.85318 165.119 1.43833 165.119 0.92659Z" fill="black"/>
<path d="M185.522 21.3116C185.522 20.7998 185.937 20.385 186.45 20.385C186.962 20.385 187.377 20.7998 187.377 21.3116C187.377 21.8233 186.962 22.2382 186.45 22.2382C185.937 22.2382 185.522 21.8233 185.522 21.3116Z" fill="black"/>
<path d="M195.724 11.1191C195.724 10.6073 196.139 10.1925 196.651 10.1925C197.164 10.1925 197.579 10.6073 197.579 11.1191C197.579 11.6308 197.164 12.0457 196.651 12.0457C196.139 12.0457 195.724 11.6308 195.724 11.1191Z" fill="black"/>
<path d="M185.522 0.92659C185.522 0.414848 185.937 0 186.45 0C186.962 0 187.377 0.414848 187.377 0.92659C187.377 1.43833 186.962 1.85318 186.45 1.85318C185.937 1.85318 185.522 1.43833 185.522 0.92659Z" fill="black"/>
<path d="M205.926 21.3116C205.926 20.7998 206.341 20.385 206.853 20.385C207.365 20.385 207.781 20.7998 207.781 21.3116C207.781 21.8233 207.365 22.2382 206.853 22.2382C206.341 22.2382 205.926 21.8233 205.926 21.3116Z" fill="black"/>
<path d="M216.127 11.1191C216.127 10.6073 216.543 10.1925 217.055 10.1925C217.567 10.1925 217.982 10.6073 217.982 11.1191C217.982 11.6308 217.567 12.0457 217.055 12.0457C216.543 12.0457 216.127 11.6308 216.127 11.1191Z" fill="black"/>
<path d="M205.926 0.92659C205.926 0.414848 206.341 0 206.853 0C207.365 0 207.781 0.414848 207.781 0.92659C207.781 1.43833 207.365 1.85318 206.853 1.85318C206.341 1.85318 205.926 1.43833 205.926 0.92659Z" fill="black"/>
<path d="M226.329 21.3116C226.329 20.7998 226.744 20.385 227.257 20.385C227.769 20.385 228.184 20.7998 228.184 21.3116C228.184 21.8233 227.769 22.2382 227.257 22.2382C226.744 22.2382 226.329 21.8233 226.329 21.3116Z" fill="black"/>
<path d="M236.531 11.1191C236.531 10.6073 236.946 10.1925 237.458 10.1925C237.971 10.1925 238.386 10.6073 238.386 11.1191C238.386 11.6308 237.971 12.0457 237.458 12.0457C236.946 12.0457 236.531 11.6308 236.531 11.1191Z" fill="black"/>
<path d="M226.329 0.92659C226.329 0.414848 226.744 0 227.257 0C227.769 0 228.184 0.414848 228.184 0.92659C228.184 1.43833 227.769 1.85318 227.257 1.85318C226.744 1.85318 226.329 1.43833 226.329 0.92659Z" fill="black"/>
<path d="M246.733 21.3116C246.733 20.7998 247.148 20.385 247.66 20.385C248.172 20.385 248.588 20.7998 248.588 21.3116C248.588 21.8233 248.172 22.2382 247.66 22.2382C247.148 22.2382 246.733 21.8233 246.733 21.3116Z" fill="black"/>
<path d="M256.935 11.1191C256.935 10.6073 257.35 10.1925 257.862 10.1925C258.374 10.1925 258.789 10.6073 258.789 11.1191C258.789 11.6308 258.374 12.0457 257.862 12.0457C257.35 12.0457 256.935 11.6308 256.935 11.1191Z" fill="black"/>
<path d="M246.733 0.92659C246.733 0.414848 247.148 0 247.66 0C248.172 0 248.588 0.414848 248.588 0.92659C248.588 1.43833 248.172 1.85318 247.66 1.85318C247.148 1.85318 246.733 1.43833 246.733 0.92659Z" fill="black"/>
<path d="M267.136 21.3116C267.136 20.7998 267.552 20.385 268.064 20.385C268.576 20.385 268.991 20.7998 268.991 21.3116C268.991 21.8233 268.576 22.2382 268.064 22.2382C267.552 22.2382 267.136 21.8233 267.136 21.3116Z" fill="black"/>
<path d="M277.338 11.1191C277.338 10.6073 277.753 10.1925 278.266 10.1925C278.778 10.1925 279.193 10.6073 279.193 11.1191C279.193 11.6308 278.778 12.0457 278.266 12.0457C277.753 12.0457 277.338 11.6308 277.338 11.1191Z" fill="black"/>
<path d="M267.136 0.92659C267.136 0.414848 267.552 0 268.064 0C268.576 0 268.991 0.414848 268.991 0.92659C268.991 1.43833 268.576 1.85318 268.064 1.85318C267.552 1.85318 267.136 1.43833 267.136 0.92659Z" fill="black"/>
<path d="M287.54 21.3116C287.54 20.7998 287.955 20.385 288.467 20.385C288.979 20.385 289.395 20.7998 289.395 21.3116C289.395 21.8233 288.979 22.2382 288.467 22.2382C287.955 22.2382 287.54 21.8233 287.54 21.3116Z" fill="black"/>
<path d="M297.742 11.1191C297.742 10.6073 298.157 10.1925 298.669 10.1925C299.181 10.1925 299.596 10.6073 299.596 11.1191C299.596 11.6308 299.181 12.0457 298.669 12.0457C298.157 12.0457 297.742 11.6308 297.742 11.1191Z" fill="black"/>
<path d="M287.54 0.92659C287.54 0.414848 287.955 0 288.467 0C288.979 0 289.395 0.414848 289.395 0.92659C289.395 1.43833 288.979 1.85318 288.467 1.85318C287.955 1.85318 287.54 1.43833 287.54 0.92659Z" fill="black"/>
<path d="M307.943 21.3116C307.943 20.7998 308.359 20.385 308.871 20.385C309.383 20.385 309.798 20.7998 309.798 21.3116C309.798 21.8233 309.383 22.2382 308.871 22.2382C308.359 22.2382 307.943 21.8233 307.943 21.3116Z" fill="black"/>
<path d="M318.145 11.1191C318.145 10.6073 318.56 10.1925 319.073 10.1925C319.585 10.1925 320 10.6073 320 11.1191C320 11.6308 319.585 12.0457 319.073 12.0457C318.56 12.0457 318.145 11.6308 318.145 11.1191Z" fill="black"/>
<path d="M307.943 0.92659C307.943 0.414848 308.359 0 308.871 0C309.383 0 309.798 0.414848 309.798 0.92659C309.798 1.43833 309.383 1.85318 308.871 1.85318C308.359 1.85318 307.943 1.43833 307.943 0.92659Z" fill="black"/>
<path d="M114.11 31.5041C114.11 30.9923 114.525 30.5775 115.037 30.5775C115.549 30.5775 115.965 30.9923 115.965 31.5041C115.965 32.0158 115.549 32.4306 115.037 32.4306C114.525 32.4306 114.11 32.0158 114.11 31.5041Z" fill="black"/>
<path d="M103.908 41.6965C103.908 41.1848 104.323 40.77 104.835 40.77C105.348 40.77 105.763 41.1848 105.763 41.6965C105.763 42.2083 105.348 42.6231 104.835 42.6231C104.323 42.6231 103.908 42.2083 103.908 41.6965Z" fill="black"/>
<path d="M134.513 31.5041C134.513 30.9923 134.929 30.5775 135.441 30.5775C135.953 30.5775 136.368 30.9923 136.368 31.5041C136.368 32.0158 135.953 32.4306 135.441 32.4306C134.929 32.4306 134.513 32.0158 134.513 31.5041Z" fill="black"/>
<path d="M124.312 41.6965C124.312 41.1848 124.727 40.77 125.239 40.77C125.751 40.77 126.166 41.1848 126.166 41.6965C126.166 42.2083 125.751 42.6231 125.239 42.6231C124.727 42.6231 124.312 42.2083 124.312 41.6965Z" fill="black"/>
<path d="M154.917 31.5041C154.917 30.9923 155.332 30.5775 155.844 30.5775C156.357 30.5775 156.772 30.9923 156.772 31.5041C156.772 32.0158 156.357 32.4306 155.844 32.4306C155.332 32.4306 154.917 32.0158 154.917 31.5041Z" fill="black"/>
<path d="M144.715 41.6965C144.715 41.1848 145.13 40.77 145.643 40.77C146.155 40.77 146.57 41.1848 146.57 41.6965C146.57 42.2083 146.155 42.6231 145.643 42.6231C145.13 42.6231 144.715 42.2083 144.715 41.6965Z" fill="black"/>
<path d="M175.32 31.5041C175.32 30.9923 175.736 30.5775 176.248 30.5775C176.76 30.5775 177.175 30.9923 177.175 31.5041C177.175 32.0158 176.76 32.4306 176.248 32.4306C175.736 32.4306 175.32 32.0158 175.32 31.5041Z" fill="black"/>
<path d="M165.119 41.6965C165.119 41.1848 165.534 40.77 166.046 40.77C166.558 40.77 166.974 41.1848 166.974 41.6965C166.974 42.2083 166.558 42.6231 166.046 42.6231C165.534 42.6231 165.119 42.2083 165.119 41.6965Z" fill="black"/>
<path d="M195.724 31.5041C195.724 30.9923 196.139 30.5775 196.651 30.5775C197.164 30.5775 197.579 30.9923 197.579 31.5041C197.579 32.0158 197.164 32.4306 196.651 32.4306C196.139 32.4306 195.724 32.0158 195.724 31.5041Z" fill="black"/>
<path d="M185.522 41.6965C185.522 41.1848 185.937 40.77 186.45 40.77C186.962 40.77 187.377 41.1848 187.377 41.6965C187.377 42.2083 186.962 42.6231 186.45 42.6231C185.937 42.6231 185.522 42.2083 185.522 41.6965Z" fill="black"/>
<path d="M216.127 31.5041C216.127 30.9923 216.543 30.5775 217.055 30.5775C217.567 30.5775 217.982 30.9923 217.982 31.5041C217.982 32.0158 217.567 32.4306 217.055 32.4306C216.543 32.4306 216.127 32.0158 216.127 31.5041Z" fill="black"/>
<path d="M205.926 41.6965C205.926 41.1848 206.341 40.77 206.853 40.77C207.365 40.77 207.781 41.1848 207.781 41.6965C207.781 42.2083 207.365 42.6231 206.853 42.6231C206.341 42.6231 205.926 42.2083 205.926 41.6965Z" fill="black"/>
<path d="M236.531 31.5041C236.531 30.9923 236.946 30.5775 237.458 30.5775C237.971 30.5775 238.386 30.9923 238.386 31.5041C238.386 32.0158 237.971 32.4306 237.458 32.4306C236.946 32.4306 236.531 32.0158 236.531 31.5041Z" fill="black"/>
<path d="M226.329 41.6965C226.329 41.1848 226.744 40.77 227.257 40.77C227.769 40.77 228.184 41.1848 228.184 41.6965C228.184 42.2083 227.769 42.6231 227.257 42.6231C226.744 42.6231 226.329 42.2083 226.329 41.6965Z" fill="black"/>
<path d="M256.935 31.5041C256.935 30.9923 257.35 30.5775 257.862 30.5775C258.374 30.5775 258.789 30.9923 258.789 31.5041C258.789 32.0158 258.374 32.4306 257.862 32.4306C257.35 32.4306 256.935 32.0158 256.935 31.5041Z" fill="black"/>
<path d="M246.733 41.6965C246.733 41.1848 247.148 40.77 247.66 40.77C248.172 40.77 248.588 41.1848 248.588 41.6965C248.588 42.2083 248.172 42.6231 247.66 42.6231C247.148 42.6231 246.733 42.2083 246.733 41.6965Z" fill="black"/>
<path d="M277.338 31.5041C277.338 30.9923 277.753 30.5775 278.266 30.5775C278.778 30.5775 279.193 30.9923 279.193 31.5041C279.193 32.0158 278.778 32.4306 278.266 32.4306C277.753 32.4306 277.338 32.0158 277.338 31.5041Z" fill="black"/>
<path d="M267.136 41.6965C267.136 41.1848 267.552 40.77 268.064 40.77C268.576 40.77 268.991 41.1848 268.991 41.6965C268.991 42.2083 268.576 42.6231 268.064 42.6231C267.552 42.6231 267.136 42.2083 267.136 41.6965Z" fill="black"/>
<path d="M297.742 31.5041C297.742 30.9923 298.157 30.5775 298.669 30.5775C299.181 30.5775 299.596 30.9923 299.596 31.5041C299.596 32.0158 299.181 32.4306 298.669 32.4306C298.157 32.4306 297.742 32.0158 297.742 31.5041Z" fill="black"/>
<path d="M287.54 41.6965C287.54 41.1848 287.955 40.77 288.467 40.77C288.979 40.77 289.395 41.1848 289.395 41.6965C289.395 42.2083 288.979 42.6231 288.467 42.6231C287.955 42.6231 287.54 42.2083 287.54 41.6965Z" fill="black"/>
<path d="M318.145 31.5041C318.145 30.9923 318.56 30.5775 319.073 30.5775C319.585 30.5775 320 30.9923 320 31.5041C320 32.0158 319.585 32.4306 319.073 32.4306C318.56 32.4306 318.145 32.0158 318.145 31.5041Z" fill="black"/>
<path d="M307.943 41.6965C307.943 41.1848 308.359 40.77 308.871 40.77C309.383 40.77 309.798 41.1848 309.798 41.6965C309.798 42.2083 309.383 42.6231 308.871 42.6231C308.359 42.6231 307.943 42.2083 307.943 41.6965Z" fill="black"/>
<path d="M114.11 51.889C114.11 51.3773 114.525 50.9624 115.037 50.9624C115.549 50.9624 115.965 51.3773 115.965 51.889C115.965 52.4008 115.549 52.8156 115.037 52.8156C114.525 52.8156 114.11 52.4008 114.11 51.889Z" fill="black"/>
<path d="M103.908 62.0815C103.908 61.5698 104.323 61.1549 104.835 61.1549C105.348 61.1549 105.763 61.5698 105.763 62.0815C105.763 62.5933 105.348 63.0081 104.835 63.0081C104.323 63.0081 103.908 62.5933 103.908 62.0815Z" fill="black"/>
<path d="M134.513 51.889C134.513 51.3773 134.929 50.9624 135.441 50.9624C135.953 50.9624 136.368 51.3773 136.368 51.889C136.368 52.4008 135.953 52.8156 135.441 52.8156C134.929 52.8156 134.513 52.4008 134.513 51.889Z" fill="black"/>
<path d="M124.312 62.0815C124.312 61.5698 124.727 61.1549 125.239 61.1549C125.751 61.1549 126.166 61.5698 126.166 62.0815C126.166 62.5933 125.751 63.0081 125.239 63.0081C124.727 63.0081 124.312 62.5933 124.312 62.0815Z" fill="black"/>
<path d="M154.917 51.889C154.917 51.3773 155.332 50.9624 155.844 50.9624C156.357 50.9624 156.772 51.3773 156.772 51.889C156.772 52.4008 156.357 52.8156 155.844 52.8156C155.332 52.8156 154.917 52.4008 154.917 51.889Z" fill="black"/>
<path d="M144.715 62.0815C144.715 61.5698 145.13 61.1549 145.643 61.1549C146.155 61.1549 146.57 61.5698 146.57 62.0815C146.57 62.5933 146.155 63.0081 145.643 63.0081C145.13 63.0081 144.715 62.5933 144.715 62.0815Z" fill="black"/>
<path d="M175.32 51.889C175.32 51.3773 175.736 50.9624 176.248 50.9624C176.76 50.9624 177.175 51.3773 177.175 51.889C177.175 52.4008 176.76 52.8156 176.248 52.8156C175.736 52.8156 175.32 52.4008 175.32 51.889Z" fill="black"/>
<path d="M165.119 62.0815C165.119 61.5698 165.534 61.1549 166.046 61.1549C166.558 61.1549 166.974 61.5698 166.974 62.0815C166.974 62.5933 166.558 63.0081 166.046 63.0081C165.534 63.0081 165.119 62.5933 165.119 62.0815Z" fill="black"/>
<path d="M195.724 51.889C195.724 51.3773 196.139 50.9624 196.651 50.9624C197.164 50.9624 197.579 51.3773 197.579 51.889C197.579 52.4008 197.164 52.8156 196.651 52.8156C196.139 52.8156 195.724 52.4008 195.724 51.889Z" fill="black"/>
<path d="M185.522 62.0815C185.522 61.5698 185.937 61.1549 186.45 61.1549C186.962 61.1549 187.377 61.5698 187.377 62.0815C187.377 62.5933 186.962 63.0081 186.45 63.0081C185.937 63.0081 185.522 62.5933 185.522 62.0815Z" fill="black"/>
<path d="M216.127 51.889C216.127 51.3773 216.543 50.9624 217.055 50.9624C217.567 50.9624 217.982 51.3773 217.982 51.889C217.982 52.4008 217.567 52.8156 217.055 52.8156C216.543 52.8156 216.127 52.4008 216.127 51.889Z" fill="black"/>
<path d="M205.926 62.0815C205.926 61.5698 206.341 61.1549 206.853 61.1549C207.365 61.1549 207.781 61.5698 207.781 62.0815C207.781 62.5933 207.365 63.0081 206.853 63.0081C206.341 63.0081 205.926 62.5933 205.926 62.0815Z" fill="black"/>
<path d="M236.531 51.889C236.531 51.3773 236.946 50.9624 237.458 50.9624C237.971 50.9624 238.386 51.3773 238.386 51.889C238.386 52.4008 237.971 52.8156 237.458 52.8156C236.946 52.8156 236.531 52.4008 236.531 51.889Z" fill="black"/>
<path d="M226.329 62.0815C226.329 61.5698 226.744 61.1549 227.257 61.1549C227.769 61.1549 228.184 61.5698 228.184 62.0815C228.184 62.5933 227.769 63.0081 227.257 63.0081C226.744 63.0081 226.329 62.5933 226.329 62.0815Z" fill="black"/>
<path d="M256.935 51.889C256.935 51.3773 257.35 50.9624 257.862 50.9624C258.374 50.9624 258.789 51.3773 258.789 51.889C258.789 52.4008 258.374 52.8156 257.862 52.8156C257.35 52.8156 256.935 52.4008 256.935 51.889Z" fill="black"/>
<path d="M246.733 62.0815C246.733 61.5698 247.148 61.1549 247.66 61.1549C248.172 61.1549 248.588 61.5698 248.588 62.0815C248.588 62.5933 248.172 63.0081 247.66 63.0081C247.148 63.0081 246.733 62.5933 246.733 62.0815Z" fill="black"/>
<path d="M277.338 51.889C277.338 51.3773 277.753 50.9624 278.266 50.9624C278.778 50.9624 279.193 51.3773 279.193 51.889C279.193 52.4008 278.778 52.8156 278.266 52.8156C277.753 52.8156 277.338 52.4008 277.338 51.889Z" fill="black"/>
<path d="M267.136 62.0815C267.136 61.5698 267.552 61.1549 268.064 61.1549C268.576 61.1549 268.991 61.5698 268.991 62.0815C268.991 62.5933 268.576 63.0081 268.064 63.0081C267.552 63.0081 267.136 62.5933 267.136 62.0815Z" fill="black"/>
<path d="M297.742 51.889C297.742 51.3773 298.157 50.9624 298.669 50.9624C299.181 50.9624 299.596 51.3773 299.596 51.889C299.596 52.4008 299.181 52.8156 298.669 52.8156C298.157 52.8156 297.742 52.4008 297.742 51.889Z" fill="black"/>
<path d="M287.54 62.0815C287.54 61.5698 287.955 61.1549 288.467 61.1549C288.979 61.1549 289.395 61.5698 289.395 62.0815C289.395 62.5933 288.979 63.0081 288.467 63.0081C287.955 63.0081 287.54 62.5933 287.54 62.0815Z" fill="black"/>
<path d="M318.145 51.889C318.145 51.3773 318.56 50.9624 319.073 50.9624C319.585 50.9624 320 51.3773 320 51.889C320 52.4008 319.585 52.8156 319.073 52.8156C318.56 52.8156 318.145 52.4008 318.145 51.889Z" fill="black"/>
<path d="M307.943 62.0815C307.943 61.5698 308.359 61.1549 308.871 61.1549C309.383 61.1549 309.798 61.5698 309.798 62.0815C309.798 62.5933 309.383 63.0081 308.871 63.0081C308.359 63.0081 307.943 62.5933 307.943 62.0815Z" fill="black"/>
<path d="M114.11 72.274C114.11 71.7623 114.525 71.3474 115.037 71.3474C115.549 71.3474 115.965 71.7623 115.965 72.274C115.965 72.7857 115.549 73.2006 115.037 73.2006C114.525 73.2006 114.11 72.7857 114.11 72.274Z" fill="black"/>
<path d="M103.908 82.4665C103.908 81.9548 104.323 81.5399 104.835 81.5399C105.348 81.5399 105.763 81.9548 105.763 82.4665C105.763 82.9782 105.348 83.3931 104.835 83.3931C104.323 83.3931 103.908 82.9782 103.908 82.4665Z" fill="black"/>
<path d="M134.513 72.274C134.513 71.7623 134.929 71.3474 135.441 71.3474C135.953 71.3474 136.368 71.7623 136.368 72.274C136.368 72.7857 135.953 73.2006 135.441 73.2006C134.929 73.2006 134.513 72.7857 134.513 72.274Z" fill="black"/>
<path d="M124.312 82.4665C124.312 81.9548 124.727 81.5399 125.239 81.5399C125.751 81.5399 126.166 81.9548 126.166 82.4665C126.166 82.9782 125.751 83.3931 125.239 83.3931C124.727 83.3931 124.312 82.9782 124.312 82.4665Z" fill="black"/>
<path d="M154.917 72.274C154.917 71.7623 155.332 71.3474 155.844 71.3474C156.357 71.3474 156.772 71.7623 156.772 72.274C156.772 72.7857 156.357 73.2006 155.844 73.2006C155.332 73.2006 154.917 72.7857 154.917 72.274Z" fill="black"/>
<path d="M144.715 82.4665C144.715 81.9548 145.13 81.5399 145.643 81.5399C146.155 81.5399 146.57 81.9548 146.57 82.4665C146.57 82.9782 146.155 83.3931 145.643 83.3931C145.13 83.3931 144.715 82.9782 144.715 82.4665Z" fill="black"/>
<path d="M175.32 72.274C175.32 71.7623 175.736 71.3474 176.248 71.3474C176.76 71.3474 177.175 71.7623 177.175 72.274C177.175 72.7857 176.76 73.2006 176.248 73.2006C175.736 73.2006 175.32 72.7857 175.32 72.274Z" fill="black"/>
<path d="M165.119 82.4665C165.119 81.9548 165.534 81.5399 166.046 81.5399C166.558 81.5399 166.974 81.9548 166.974 82.4665C166.974 82.9782 166.558 83.3931 166.046 83.3931C165.534 83.3931 165.119 82.9782 165.119 82.4665Z" fill="black"/>
<path d="M195.724 72.274C195.724 71.7623 196.139 71.3474 196.651 71.3474C197.164 71.3474 197.579 71.7623 197.579 72.274C197.579 72.7857 197.164 73.2006 196.651 73.2006C196.139 73.2006 195.724 72.7857 195.724 72.274Z" fill="black"/>
<path d="M185.522 82.4665C185.522 81.9548 185.937 81.5399 186.45 81.5399C186.962 81.5399 187.377 81.9548 187.377 82.4665C187.377 82.9782 186.962 83.3931 186.45 83.3931C185.937 83.3931 185.522 82.9782 185.522 82.4665Z" fill="black"/>
<path d="M216.127 72.274C216.127 71.7623 216.543 71.3474 217.055 71.3474C217.567 71.3474 217.982 71.7623 217.982 72.274C217.982 72.7857 217.567 73.2006 217.055 73.2006C216.543 73.2006 216.127 72.7857 216.127 72.274Z" fill="black"/>
<path d="M205.926 82.4665C205.926 81.9548 206.341 81.5399 206.853 81.5399C207.365 81.5399 207.781 81.9548 207.781 82.4665C207.781 82.9782 207.365 83.3931 206.853 83.3931C206.341 83.3931 205.926 82.9782 205.926 82.4665Z" fill="black"/>
<path d="M236.531 72.274C236.531 71.7623 236.946 71.3474 237.458 71.3474C237.971 71.3474 238.386 71.7623 238.386 72.274C238.386 72.7857 237.971 73.2006 237.458 73.2006C236.946 73.2006 236.531 72.7857 236.531 72.274Z" fill="black"/>
<path d="M226.329 82.4665C226.329 81.9548 226.744 81.5399 227.257 81.5399C227.769 81.5399 228.184 81.9548 228.184 82.4665C228.184 82.9782 227.769 83.3931 227.257 83.3931C226.744 83.3931 226.329 82.9782 226.329 82.4665Z" fill="black"/>
<path d="M256.935 72.274C256.935 71.7623 257.35 71.3474 257.862 71.3474C258.374 71.3474 258.789 71.7623 258.789 72.274C258.789 72.7857 258.374 73.2006 257.862 73.2006C257.35 73.2006 256.935 72.7857 256.935 72.274Z" fill="black"/>
<path d="M246.733 82.4665C246.733 81.9548 247.148 81.5399 247.66 81.5399C248.172 81.5399 248.588 81.9548 248.588 82.4665C248.588 82.9782 248.172 83.3931 247.66 83.3931C247.148 83.3931 246.733 82.9782 246.733 82.4665Z" fill="black"/>
<path d="M277.338 72.274C277.338 71.7623 277.753 71.3474 278.266 71.3474C278.778 71.3474 279.193 71.7623 279.193 72.274C279.193 72.7857 278.778 73.2006 278.266 73.2006C277.753 73.2006 277.338 72.7857 277.338 72.274Z" fill="black"/>
<path d="M267.136 82.4665C267.136 81.9548 267.552 81.5399 268.064 81.5399C268.576 81.5399 268.991 81.9548 268.991 82.4665C268.991 82.9782 268.576 83.3931 268.064 83.3931C267.552 83.3931 267.136 82.9782 267.136 82.4665Z" fill="black"/>
<path d="M297.742 72.274C297.742 71.7623 298.157 71.3474 298.669 71.3474C299.181 71.3474 299.596 71.7623 299.596 72.274C299.596 72.7857 299.181 73.2006 298.669 73.2006C298.157 73.2006 297.742 72.7857 297.742 72.274Z" fill="black"/>
<path d="M287.54 82.4665C287.54 81.9548 287.955 81.5399 288.467 81.5399C288.979 81.5399 289.395 81.9548 289.395 82.4665C289.395 82.9782 288.979 83.3931 288.467 83.3931C287.955 83.3931 287.54 82.9782 287.54 82.4665Z" fill="black"/>
<path d="M318.145 72.274C318.145 71.7623 318.56 71.3474 319.073 71.3474C319.585 71.3474 320 71.7623 320 72.274C320 72.7857 319.585 73.2006 319.073 73.2006C318.56 73.2006 318.145 72.7857 318.145 72.274Z" fill="black"/>
<path d="M307.943 82.4665C307.943 81.9548 308.359 81.5399 308.871 81.5399C309.383 81.5399 309.798 81.9548 309.798 82.4665C309.798 82.9782 309.383 83.3931 308.871 83.3931C308.359 83.3931 307.943 82.9782 307.943 82.4665Z" fill="black"/>
<path d="M114.11 92.659C114.11 92.1472 114.525 91.7324 115.037 91.7324C115.549 91.7324 115.965 92.1472 115.965 92.659C115.965 93.1707 115.549 93.5856 115.037 93.5856C114.525 93.5856 114.11 93.1707 114.11 92.659Z" fill="black"/>
<path d="M103.908 102.851C103.908 102.34 104.323 101.925 104.835 101.925C105.348 101.925 105.763 102.34 105.763 102.851C105.763 103.363 105.348 103.778 104.835 103.778C104.323 103.778 103.908 103.363 103.908 102.851Z" fill="black"/>
<path d="M134.513 92.659C134.513 92.1472 134.929 91.7324 135.441 91.7324C135.953 91.7324 136.368 92.1472 136.368 92.659C136.368 93.1707 135.953 93.5856 135.441 93.5856C134.929 93.5856 134.513 93.1707 134.513 92.659Z" fill="black"/>
<path d="M124.312 102.851C124.312 102.34 124.727 101.925 125.239 101.925C125.751 101.925 126.166 102.34 126.166 102.851C126.166 103.363 125.751 103.778 125.239 103.778C124.727 103.778 124.312 103.363 124.312 102.851Z" fill="black"/>
<path d="M154.917 92.659C154.917 92.1472 155.332 91.7324 155.844 91.7324C156.357 91.7324 156.772 92.1472 156.772 92.659C156.772 93.1707 156.357 93.5856 155.844 93.5856C155.332 93.5856 154.917 93.1707 154.917 92.659Z" fill="black"/>
<path d="M144.715 102.851C144.715 102.34 145.13 101.925 145.643 101.925C146.155 101.925 146.57 102.34 146.57 102.851C146.57 103.363 146.155 103.778 145.643 103.778C145.13 103.778 144.715 103.363 144.715 102.851Z" fill="black"/>
<path d="M175.32 92.659C175.32 92.1472 175.736 91.7324 176.248 91.7324C176.76 91.7324 177.175 92.1472 177.175 92.659C177.175 93.1707 176.76 93.5856 176.248 93.5856C175.736 93.5856 175.32 93.1707 175.32 92.659Z" fill="black"/>
<path d="M165.119 102.851C165.119 102.34 165.534 101.925 166.046 101.925C166.558 101.925 166.974 102.34 166.974 102.851C166.974 103.363 166.558 103.778 166.046 103.778C165.534 103.778 165.119 103.363 165.119 102.851Z" fill="black"/>
<path d="M195.724 92.659C195.724 92.1472 196.139 91.7324 196.651 91.7324C197.164 91.7324 197.579 92.1472 197.579 92.659C197.579 93.1707 197.164 93.5856 196.651 93.5856C196.139 93.5856 195.724 93.1707 195.724 92.659Z" fill="black"/>
<path d="M185.522 102.851C185.522 102.34 185.937 101.925 186.45 101.925C186.962 101.925 187.377 102.34 187.377 102.851C187.377 103.363 186.962 103.778 186.45 103.778C185.937 103.778 185.522 103.363 185.522 102.851Z" fill="black"/>
<path d="M216.127 92.659C216.127 92.1472 216.543 91.7324 217.055 91.7324C217.567 91.7324 217.982 92.1472 217.982 92.659C217.982 93.1707 217.567 93.5856 217.055 93.5856C216.543 93.5856 216.127 93.1707 216.127 92.659Z" fill="black"/>
<path d="M205.926 102.851C205.926 102.34 206.341 101.925 206.853 101.925C207.365 101.925 207.781 102.34 207.781 102.851C207.781 103.363 207.365 103.778 206.853 103.778C206.341 103.778 205.926 103.363 205.926 102.851Z" fill="black"/>
<path d="M236.531 92.659C236.531 92.1472 236.946 91.7324 237.458 91.7324C237.971 91.7324 238.386 92.1472 238.386 92.659C238.386 93.1707 237.971 93.5856 237.458 93.5856C236.946 93.5856 236.531 93.1707 236.531 92.659Z" fill="black"/>
<path d="M226.329 102.851C226.329 102.34 226.744 101.925 227.257 101.925C227.769 101.925 228.184 102.34 228.184 102.851C228.184 103.363 227.769 103.778 227.257 103.778C226.744 103.778 226.329 103.363 226.329 102.851Z" fill="black"/>
<path d="M256.935 92.659C256.935 92.1472 257.35 91.7324 257.862 91.7324C258.374 91.7324 258.789 92.1472 258.789 92.659C258.789 93.1707 258.374 93.5856 257.862 93.5856C257.35 93.5856 256.935 93.1707 256.935 92.659Z" fill="black"/>
<path d="M246.733 102.851C246.733 102.34 247.148 101.925 247.66 101.925C248.172 101.925 248.588 102.34 248.588 102.851C248.588 103.363 248.172 103.778 247.66 103.778C247.148 103.778 246.733 103.363 246.733 102.851Z" fill="black"/>
<path d="M277.338 92.659C277.338 92.1472 277.753 91.7324 278.266 91.7324C278.778 91.7324 279.193 92.1472 279.193 92.659C279.193 93.1707 278.778 93.5856 278.266 93.5856C277.753 93.5856 277.338 93.1707 277.338 92.659Z" fill="black"/>
<path d="M267.136 102.851C267.136 102.34 267.552 101.925 268.064 101.925C268.576 101.925 268.991 102.34 268.991 102.851C268.991 103.363 268.576 103.778 268.064 103.778C267.552 103.778 267.136 103.363 267.136 102.851Z" fill="black"/>
<path d="M297.742 92.659C297.742 92.1472 298.157 91.7324 298.669 91.7324C299.181 91.7324 299.596 92.1472 299.596 92.659C299.596 93.1707 299.181 93.5856 298.669 93.5856C298.157 93.5856 297.742 93.1707 297.742 92.659Z" fill="black"/>
<path d="M287.54 102.851C287.54 102.34 287.955 101.925 288.467 101.925C288.979 101.925 289.395 102.34 289.395 102.851C289.395 103.363 288.979 103.778 288.467 103.778C287.955 103.778 287.54 103.363 287.54 102.851Z" fill="black"/>
<path d="M318.145 92.659C318.145 92.1472 318.56 91.7324 319.073 91.7324C319.585 91.7324 320 92.1472 320 92.659C320 93.1707 319.585 93.5856 319.073 93.5856C318.56 93.5856 318.145 93.1707 318.145 92.659Z" fill="black"/>
<path d="M307.943 102.851C307.943 102.34 308.359 101.925 308.871 101.925C309.383 101.925 309.798 102.34 309.798 102.851C309.798 103.363 309.383 103.778 308.871 103.778C308.359 103.778 307.943 103.363 307.943 102.851Z" fill="black"/>
<path d="M114.11 113.044C114.11 112.532 114.525 112.117 115.037 112.117C115.549 112.117 115.965 112.532 115.965 113.044C115.965 113.556 115.549 113.971 115.037 113.971C114.525 113.971 114.11 113.556 114.11 113.044Z" fill="black"/>
<path d="M103.908 123.236C103.908 122.725 104.323 122.31 104.835 122.31C105.348 122.31 105.763 122.725 105.763 123.236C105.763 123.748 105.348 124.163 104.835 124.163C104.323 124.163 103.908 123.748 103.908 123.236Z" fill="black"/>
<path d="M134.513 113.044C134.513 112.532 134.929 112.117 135.441 112.117C135.953 112.117 136.368 112.532 136.368 113.044C136.368 113.556 135.953 113.971 135.441 113.971C134.929 113.971 134.513 113.556 134.513 113.044Z" fill="black"/>
<path d="M124.312 123.236C124.312 122.725 124.727 122.31 125.239 122.31C125.751 122.31 126.166 122.725 126.166 123.236C126.166 123.748 125.751 124.163 125.239 124.163C124.727 124.163 124.312 123.748 124.312 123.236Z" fill="black"/>
<path d="M154.917 113.044C154.917 112.532 155.332 112.117 155.844 112.117C156.357 112.117 156.772 112.532 156.772 113.044C156.772 113.556 156.357 113.971 155.844 113.971C155.332 113.971 154.917 113.556 154.917 113.044Z" fill="black"/>
<path d="M144.715 123.236C144.715 122.725 145.13 122.31 145.643 122.31C146.155 122.31 146.57 122.725 146.57 123.236C146.57 123.748 146.155 124.163 145.643 124.163C145.13 124.163 144.715 123.748 144.715 123.236Z" fill="black"/>
<path d="M175.32 113.044C175.32 112.532 175.736 112.117 176.248 112.117C176.76 112.117 177.175 112.532 177.175 113.044C177.175 113.556 176.76 113.971 176.248 113.971C175.736 113.971 175.32 113.556 175.32 113.044Z" fill="black"/>
<path d="M165.119 123.236C165.119 122.725 165.534 122.31 166.046 122.31C166.558 122.31 166.974 122.725 166.974 123.236C166.974 123.748 166.558 124.163 166.046 124.163C165.534 124.163 165.119 123.748 165.119 123.236Z" fill="black"/>
<path d="M195.724 113.044C195.724 112.532 196.139 112.117 196.651 112.117C197.164 112.117 197.579 112.532 197.579 113.044C197.579 113.556 197.164 113.971 196.651 113.971C196.139 113.971 195.724 113.556 195.724 113.044Z" fill="black"/>
<path d="M185.522 123.236C185.522 122.725 185.937 122.31 186.45 122.31C186.962 122.31 187.377 122.725 187.377 123.236C187.377 123.748 186.962 124.163 186.45 124.163C185.937 124.163 185.522 123.748 185.522 123.236Z" fill="black"/>
<path d="M216.127 113.044C216.127 112.532 216.543 112.117 217.055 112.117C217.567 112.117 217.982 112.532 217.982 113.044C217.982 113.556 217.567 113.971 217.055 113.971C216.543 113.971 216.127 113.556 216.127 113.044Z" fill="black"/>
<path d="M205.926 123.236C205.926 122.725 206.341 122.31 206.853 122.31C207.365 122.31 207.781 122.725 207.781 123.236C207.781 123.748 207.365 124.163 206.853 124.163C206.341 124.163 205.926 123.748 205.926 123.236Z" fill="black"/>
<path d="M236.531 113.044C236.531 112.532 236.946 112.117 237.458 112.117C237.971 112.117 238.386 112.532 238.386 113.044C238.386 113.556 237.971 113.971 237.458 113.971C236.946 113.971 236.531 113.556 236.531 113.044Z" fill="black"/>
<path d="M226.329 123.236C226.329 122.725 226.744 122.31 227.257 122.31C227.769 122.31 228.184 122.725 228.184 123.236C228.184 123.748 227.769 124.163 227.257 124.163C226.744 124.163 226.329 123.748 226.329 123.236Z" fill="black"/>
<path d="M256.935 113.044C256.935 112.532 257.35 112.117 257.862 112.117C258.374 112.117 258.789 112.532 258.789 113.044C258.789 113.556 258.374 113.971 257.862 113.971C257.35 113.971 256.935 113.556 256.935 113.044Z" fill="black"/>
<path d="M246.733 123.236C246.733 122.725 247.148 122.31 247.66 122.31C248.172 122.31 248.588 122.725 248.588 123.236C248.588 123.748 248.172 124.163 247.66 124.163C247.148 124.163 246.733 123.748 246.733 123.236Z" fill="black"/>
<path d="M277.338 113.044C277.338 112.532 277.753 112.117 278.266 112.117C278.778 112.117 279.193 112.532 279.193 113.044C279.193 113.556 278.778 113.971 278.266 113.971C277.753 113.971 277.338 113.556 277.338 113.044Z" fill="black"/>
<path d="M267.136 123.236C267.136 122.725 267.552 122.31 268.064 122.31C268.576 122.31 268.991 122.725 268.991 123.236C268.991 123.748 268.576 124.163 268.064 124.163C267.552 124.163 267.136 123.748 267.136 123.236Z" fill="black"/>
<path d="M297.742 113.044C297.742 112.532 298.157 112.117 298.669 112.117C299.181 112.117 299.596 112.532 299.596 113.044C299.596 113.556 299.181 113.971 298.669 113.971C298.157 113.971 297.742 113.556 297.742 113.044Z" fill="black"/>
<path d="M287.54 123.236C287.54 122.725 287.955 122.31 288.467 122.31C288.979 122.31 289.395 122.725 289.395 123.236C289.395 123.748 288.979 124.163 288.467 124.163C287.955 124.163 287.54 123.748 287.54 123.236Z" fill="black"/>
<path d="M318.145 113.044C318.145 112.532 318.56 112.117 319.073 112.117C319.585 112.117 320 112.532 320 113.044C320 113.556 319.585 113.971 319.073 113.971C318.56 113.971 318.145 113.556 318.145 113.044Z" fill="black"/>
<path d="M307.943 123.236C307.943 122.725 308.359 122.31 308.871 122.31C309.383 122.31 309.798 122.725 309.798 123.236C309.798 123.748 309.383 124.163 308.871 124.163C308.359 124.163 307.943 123.748 307.943 123.236Z" fill="black"/>
<path d="M114.11 133.429C114.11 132.917 114.525 132.502 115.037 132.502C115.549 132.502 115.965 132.917 115.965 133.429C115.965 133.941 115.549 134.356 115.037 134.356C114.525 134.356 114.11 133.941 114.11 133.429Z" fill="black"/>
<path d="M103.908 143.621C103.908 143.11 104.323 142.695 104.835 142.695C105.348 142.695 105.763 143.11 105.763 143.621C105.763 144.133 105.348 144.548 104.835 144.548C104.323 144.548 103.908 144.133 103.908 143.621Z" fill="black"/>
<path d="M134.513 133.429C134.513 132.917 134.929 132.502 135.441 132.502C135.953 132.502 136.368 132.917 136.368 133.429C136.368 133.941 135.953 134.356 135.441 134.356C134.929 134.356 134.513 133.941 134.513 133.429Z" fill="black"/>
<path d="M124.312 143.621C124.312 143.11 124.727 142.695 125.239 142.695C125.751 142.695 126.166 143.11 126.166 143.621C126.166 144.133 125.751 144.548 125.239 144.548C124.727 144.548 124.312 144.133 124.312 143.621Z" fill="black"/>
<path d="M154.917 133.429C154.917 132.917 155.332 132.502 155.844 132.502C156.357 132.502 156.772 132.917 156.772 133.429C156.772 133.941 156.357 134.356 155.844 134.356C155.332 134.356 154.917 133.941 154.917 133.429Z" fill="black"/>
<path d="M144.715 143.621C144.715 143.11 145.13 142.695 145.643 142.695C146.155 142.695 146.57 143.11 146.57 143.621C146.57 144.133 146.155 144.548 145.643 144.548C145.13 144.548 144.715 144.133 144.715 143.621Z" fill="black"/>
<path d="M175.32 133.429C175.32 132.917 175.736 132.502 176.248 132.502C176.76 132.502 177.175 132.917 177.175 133.429C177.175 133.941 176.76 134.356 176.248 134.356C175.736 134.356 175.32 133.941 175.32 133.429Z" fill="black"/>
<path d="M165.119 143.621C165.119 143.11 165.534 142.695 166.046 142.695C166.558 142.695 166.974 143.11 166.974 143.621C166.974 144.133 166.558 144.548 166.046 144.548C165.534 144.548 165.119 144.133 165.119 143.621Z" fill="black"/>
<path d="M195.724 133.429C195.724 132.917 196.139 132.502 196.651 132.502C197.164 132.502 197.579 132.917 197.579 133.429C197.579 133.941 197.164 134.356 196.651 134.356C196.139 134.356 195.724 133.941 195.724 133.429Z" fill="black"/>
<path d="M185.522 143.621C185.522 143.11 185.937 142.695 186.45 142.695C186.962 142.695 187.377 143.11 187.377 143.621C187.377 144.133 186.962 144.548 186.45 144.548C185.937 144.548 185.522 144.133 185.522 143.621Z" fill="black"/>
<path d="M216.127 133.429C216.127 132.917 216.543 132.502 217.055 132.502C217.567 132.502 217.982 132.917 217.982 133.429C217.982 133.941 217.567 134.356 217.055 134.356C216.543 134.356 216.127 133.941 216.127 133.429Z" fill="black"/>
<path d="M205.926 143.621C205.926 143.11 206.341 142.695 206.853 142.695C207.365 142.695 207.781 143.11 207.781 143.621C207.781 144.133 207.365 144.548 206.853 144.548C206.341 144.548 205.926 144.133 205.926 143.621Z" fill="black"/>
<path d="M236.531 133.429C236.531 132.917 236.946 132.502 237.458 132.502C237.971 132.502 238.386 132.917 238.386 133.429C238.386 133.941 237.971 134.356 237.458 134.356C236.946 134.356 236.531 133.941 236.531 133.429Z" fill="black"/>
<path d="M226.329 143.621C226.329 143.11 226.744 142.695 227.257 142.695C227.769 142.695 228.184 143.11 228.184 143.621C228.184 144.133 227.769 144.548 227.257 144.548C226.744 144.548 226.329 144.133 226.329 143.621Z" fill="black"/>
<path d="M256.935 133.429C256.935 132.917 257.35 132.502 257.862 132.502C258.374 132.502 258.789 132.917 258.789 133.429C258.789 133.941 258.374 134.356 257.862 134.356C257.35 134.356 256.935 133.941 256.935 133.429Z" fill="black"/>
<path d="M246.733 143.621C246.733 143.11 247.148 142.695 247.66 142.695C248.172 142.695 248.588 143.11 248.588 143.621C248.588 144.133 248.172 144.548 247.66 144.548C247.148 144.548 246.733 144.133 246.733 143.621Z" fill="black"/>
<path d="M277.338 133.429C277.338 132.917 277.753 132.502 278.266 132.502C278.778 132.502 279.193 132.917 279.193 133.429C279.193 133.941 278.778 134.356 278.266 134.356C277.753 134.356 277.338 133.941 277.338 133.429Z" fill="black"/>
<path d="M267.136 143.621C267.136 143.11 267.552 142.695 268.064 142.695C268.576 142.695 268.991 143.11 268.991 143.621C268.991 144.133 268.576 144.548 268.064 144.548C267.552 144.548 267.136 144.133 267.136 143.621Z" fill="black"/>
<path d="M297.742 133.429C297.742 132.917 298.157 132.502 298.669 132.502C299.181 132.502 299.596 132.917 299.596 133.429C299.596 133.941 299.181 134.356 298.669 134.356C298.157 134.356 297.742 133.941 297.742 133.429Z" fill="black"/>
<path d="M287.54 143.621C287.54 143.11 287.955 142.695 288.467 142.695C288.979 142.695 289.395 143.11 289.395 143.621C289.395 144.133 288.979 144.548 288.467 144.548C287.955 144.548 287.54 144.133 287.54 143.621Z" fill="black"/>
<path d="M318.145 133.429C318.145 132.917 318.56 132.502 319.073 132.502C319.585 132.502 320 132.917 320 133.429C320 133.941 319.585 134.356 319.073 134.356C318.56 134.356 318.145 133.941 318.145 133.429Z" fill="black"/>
<path d="M307.943 143.621C307.943 143.11 308.359 142.695 308.871 142.695C309.383 142.695 309.798 143.11 309.798 143.621C309.798 144.133 309.383 144.548 308.871 144.548C308.359 144.548 307.943 144.133 307.943 143.621Z" fill="black"/>
<path d="M114.11 153.814C114.11 153.302 114.525 152.887 115.037 152.887C115.549 152.887 115.965 153.302 115.965 153.814C115.965 154.326 115.549 154.74 115.037 154.74C114.525 154.74 114.11 154.326 114.11 153.814Z" fill="black"/>
<path d="M103.908 164.006C103.908 163.495 104.323 163.08 104.835 163.08C105.348 163.08 105.763 163.495 105.763 164.006C105.763 164.518 105.348 164.933 104.835 164.933C104.323 164.933 103.908 164.518 103.908 164.006Z" fill="black"/>
<path d="M134.513 153.814C134.513 153.302 134.929 152.887 135.441 152.887C135.953 152.887 136.368 153.302 136.368 153.814C136.368 154.326 135.953 154.74 135.441 154.74C134.929 154.74 134.513 154.326 134.513 153.814Z" fill="black"/>
<path d="M124.312 164.006C124.312 163.495 124.727 163.08 125.239 163.08C125.751 163.08 126.166 163.495 126.166 164.006C126.166 164.518 125.751 164.933 125.239 164.933C124.727 164.933 124.312 164.518 124.312 164.006Z" fill="black"/>
<path d="M154.917 153.814C154.917 153.302 155.332 152.887 155.844 152.887C156.357 152.887 156.772 153.302 156.772 153.814C156.772 154.326 156.357 154.74 155.844 154.74C155.332 154.74 154.917 154.326 154.917 153.814Z" fill="black"/>
<path d="M144.715 164.006C144.715 163.495 145.13 163.08 145.643 163.08C146.155 163.08 146.57 163.495 146.57 164.006C146.57 164.518 146.155 164.933 145.643 164.933C145.13 164.933 144.715 164.518 144.715 164.006Z" fill="black"/>
<path d="M175.32 153.814C175.32 153.302 175.736 152.887 176.248 152.887C176.76 152.887 177.175 153.302 177.175 153.814C177.175 154.326 176.76 154.74 176.248 154.74C175.736 154.74 175.32 154.326 175.32 153.814Z" fill="black"/>
<path d="M165.119 164.006C165.119 163.495 165.534 163.08 166.046 163.08C166.558 163.08 166.974 163.495 166.974 164.006C166.974 164.518 166.558 164.933 166.046 164.933C165.534 164.933 165.119 164.518 165.119 164.006Z" fill="black"/>
<path d="M195.724 153.814C195.724 153.302 196.139 152.887 196.651 152.887C197.164 152.887 197.579 153.302 197.579 153.814C197.579 154.326 197.164 154.74 196.651 154.74C196.139 154.74 195.724 154.326 195.724 153.814Z" fill="black"/>
<path d="M185.522 164.006C185.522 163.495 185.937 163.08 186.45 163.08C186.962 163.08 187.377 163.495 187.377 164.006C187.377 164.518 186.962 164.933 186.45 164.933C185.937 164.933 185.522 164.518 185.522 164.006Z" fill="black"/>
<path d="M216.127 153.814C216.127 153.302 216.543 152.887 217.055 152.887C217.567 152.887 217.982 153.302 217.982 153.814C217.982 154.326 217.567 154.74 217.055 154.74C216.543 154.74 216.127 154.326 216.127 153.814Z" fill="black"/>
<path d="M205.926 164.006C205.926 163.495 206.341 163.08 206.853 163.08C207.365 163.08 207.781 163.495 207.781 164.006C207.781 164.518 207.365 164.933 206.853 164.933C206.341 164.933 205.926 164.518 205.926 164.006Z" fill="black"/>
<path d="M236.531 153.814C236.531 153.302 236.946 152.887 237.458 152.887C237.971 152.887 238.386 153.302 238.386 153.814C238.386 154.326 237.971 154.74 237.458 154.74C236.946 154.74 236.531 154.326 236.531 153.814Z" fill="black"/>
<path d="M226.329 164.006C226.329 163.495 226.744 163.08 227.257 163.08C227.769 163.08 228.184 163.495 228.184 164.006C228.184 164.518 227.769 164.933 227.257 164.933C226.744 164.933 226.329 164.518 226.329 164.006Z" fill="black"/>
<path d="M256.935 153.814C256.935 153.302 257.35 152.887 257.862 152.887C258.374 152.887 258.789 153.302 258.789 153.814C258.789 154.326 258.374 154.74 257.862 154.74C257.35 154.74 256.935 154.326 256.935 153.814Z" fill="black"/>
<path d="M246.733 164.006C246.733 163.495 247.148 163.08 247.66 163.08C248.172 163.08 248.588 163.495 248.588 164.006C248.588 164.518 248.172 164.933 247.66 164.933C247.148 164.933 246.733 164.518 246.733 164.006Z" fill="black"/>
<path d="M277.338 153.814C277.338 153.302 277.753 152.887 278.266 152.887C278.778 152.887 279.193 153.302 279.193 153.814C279.193 154.326 278.778 154.74 278.266 154.74C277.753 154.74 277.338 154.326 277.338 153.814Z" fill="black"/>
<path d="M267.136 164.006C267.136 163.495 267.552 163.08 268.064 163.08C268.576 163.08 268.991 163.495 268.991 164.006C268.991 164.518 268.576 164.933 268.064 164.933C267.552 164.933 267.136 164.518 267.136 164.006Z" fill="black"/>
<path d="M297.742 153.814C297.742 153.302 298.157 152.887 298.669 152.887C299.181 152.887 299.596 153.302 299.596 153.814C299.596 154.326 299.181 154.74 298.669 154.74C298.157 154.74 297.742 154.326 297.742 153.814Z" fill="black"/>
<path d="M287.54 164.006C287.54 163.495 287.955 163.08 288.467 163.08C288.979 163.08 289.395 163.495 289.395 164.006C289.395 164.518 288.979 164.933 288.467 164.933C287.955 164.933 287.54 164.518 287.54 164.006Z" fill="black"/>
<path d="M318.145 153.814C318.145 153.302 318.56 152.887 319.073 152.887C319.585 152.887 320 153.302 320 153.814C320 154.326 319.585 154.74 319.073 154.74C318.56 154.74 318.145 154.326 318.145 153.814Z" fill="black"/>
<path d="M307.943 164.006C307.943 163.495 308.359 163.08 308.871 163.08C309.383 163.08 309.798 163.495 309.798 164.006C309.798 164.518 309.383 164.933 308.871 164.933C308.359 164.933 307.943 164.518 307.943 164.006Z" fill="black"/>
<path d="M114.11 174.199C114.11 173.687 114.525 173.272 115.037 173.272C115.549 173.272 115.965 173.687 115.965 174.199C115.965 174.711 115.549 175.125 115.037 175.125C114.525 175.125 114.11 174.711 114.11 174.199Z" fill="black"/>
<path d="M103.908 184.391C103.908 183.88 104.323 183.465 104.835 183.465C105.348 183.465 105.763 183.88 105.763 184.391C105.763 184.903 105.348 185.318 104.835 185.318C104.323 185.318 103.908 184.903 103.908 184.391Z" fill="black"/>
<path d="M134.513 174.199C134.513 173.687 134.929 173.272 135.441 173.272C135.953 173.272 136.368 173.687 136.368 174.199C136.368 174.711 135.953 175.125 135.441 175.125C134.929 175.125 134.513 174.711 134.513 174.199Z" fill="black"/>
<path d="M124.312 184.391C124.312 183.88 124.727 183.465 125.239 183.465C125.751 183.465 126.166 183.88 126.166 184.391C126.166 184.903 125.751 185.318 125.239 185.318C124.727 185.318 124.312 184.903 124.312 184.391Z" fill="black"/>
<path d="M154.917 174.199C154.917 173.687 155.332 173.272 155.844 173.272C156.357 173.272 156.772 173.687 156.772 174.199C156.772 174.711 156.357 175.125 155.844 175.125C155.332 175.125 154.917 174.711 154.917 174.199Z" fill="black"/>
<path d="M144.715 184.391C144.715 183.88 145.13 183.465 145.643 183.465C146.155 183.465 146.57 183.88 146.57 184.391C146.57 184.903 146.155 185.318 145.643 185.318C145.13 185.318 144.715 184.903 144.715 184.391Z" fill="black"/>
<path d="M175.32 174.199C175.32 173.687 175.736 173.272 176.248 173.272C176.76 173.272 177.175 173.687 177.175 174.199C177.175 174.711 176.76 175.125 176.248 175.125C175.736 175.125 175.32 174.711 175.32 174.199Z" fill="black"/>
<path d="M165.119 184.391C165.119 183.88 165.534 183.465 166.046 183.465C166.558 183.465 166.974 183.88 166.974 184.391C166.974 184.903 166.558 185.318 166.046 185.318C165.534 185.318 165.119 184.903 165.119 184.391Z" fill="black"/>
<path d="M195.724 174.199C195.724 173.687 196.139 173.272 196.651 173.272C197.164 173.272 197.579 173.687 197.579 174.199C197.579 174.711 197.164 175.125 196.651 175.125C196.139 175.125 195.724 174.711 195.724 174.199Z" fill="black"/>
<path d="M185.522 184.391C185.522 183.88 185.937 183.465 186.45 183.465C186.962 183.465 187.377 183.88 187.377 184.391C187.377 184.903 186.962 185.318 186.45 185.318C185.937 185.318 185.522 184.903 185.522 184.391Z" fill="black"/>
<path d="M216.127 174.199C216.127 173.687 216.543 173.272 217.055 173.272C217.567 173.272 217.982 173.687 217.982 174.199C217.982 174.711 217.567 175.125 217.055 175.125C216.543 175.125 216.127 174.711 216.127 174.199Z" fill="black"/>
<path d="M205.926 184.391C205.926 183.88 206.341 183.465 206.853 183.465C207.365 183.465 207.781 183.88 207.781 184.391C207.781 184.903 207.365 185.318 206.853 185.318C206.341 185.318 205.926 184.903 205.926 184.391Z" fill="black"/>
<path d="M236.531 174.199C236.531 173.687 236.946 173.272 237.458 173.272C237.971 173.272 238.386 173.687 238.386 174.199C238.386 174.711 237.971 175.125 237.458 175.125C236.946 175.125 236.531 174.711 236.531 174.199Z" fill="black"/>
<path d="M226.329 184.391C226.329 183.88 226.744 183.465 227.257 183.465C227.769 183.465 228.184 183.88 228.184 184.391C228.184 184.903 227.769 185.318 227.257 185.318C226.744 185.318 226.329 184.903 226.329 184.391Z" fill="black"/>
<path d="M256.935 174.199C256.935 173.687 257.35 173.272 257.862 173.272C258.374 173.272 258.789 173.687 258.789 174.199C258.789 174.711 258.374 175.125 257.862 175.125C257.35 175.125 256.935 174.711 256.935 174.199Z" fill="black"/>
<path d="M246.733 184.391C246.733 183.88 247.148 183.465 247.66 183.465C248.172 183.465 248.588 183.88 248.588 184.391C248.588 184.903 248.172 185.318 247.66 185.318C247.148 185.318 246.733 184.903 246.733 184.391Z" fill="black"/>
<path d="M277.338 174.199C277.338 173.687 277.753 173.272 278.266 173.272C278.778 173.272 279.193 173.687 279.193 174.199C279.193 174.711 278.778 175.125 278.266 175.125C277.753 175.125 277.338 174.711 277.338 174.199Z" fill="black"/>
<path d="M267.136 184.391C267.136 183.88 267.552 183.465 268.064 183.465C268.576 183.465 268.991 183.88 268.991 184.391C268.991 184.903 268.576 185.318 268.064 185.318C267.552 185.318 267.136 184.903 267.136 184.391Z" fill="black"/>
<path d="M297.742 174.199C297.742 173.687 298.157 173.272 298.669 173.272C299.181 173.272 299.596 173.687 299.596 174.199C299.596 174.711 299.181 175.125 298.669 175.125C298.157 175.125 297.742 174.711 297.742 174.199Z" fill="black"/>
<path d="M287.54 184.391C287.54 183.88 287.955 183.465 288.467 183.465C288.979 183.465 289.395 183.88 289.395 184.391C289.395 184.903 288.979 185.318 288.467 185.318C287.955 185.318 287.54 184.903 287.54 184.391Z" fill="black"/>
<path d="M318.145 174.199C318.145 173.687 318.56 173.272 319.073 173.272C319.585 173.272 320 173.687 320 174.199C320 174.711 319.585 175.125 319.073 175.125C318.56 175.125 318.145 174.711 318.145 174.199Z" fill="black"/>
<path d="M307.943 184.391C307.943 183.88 308.359 183.465 308.871 183.465C309.383 183.465 309.798 183.88 309.798 184.391C309.798 184.903 309.383 185.318 308.871 185.318C308.359 185.318 307.943 184.903 307.943 184.391Z" fill="black"/>
<path d="M114.11 194.584C114.11 194.072 114.525 193.657 115.037 193.657C115.549 193.657 115.965 194.072 115.965 194.584C115.965 195.096 115.549 195.51 115.037 195.51C114.525 195.51 114.11 195.096 114.11 194.584Z" fill="black"/>
<path d="M103.908 204.776C103.908 204.265 104.323 203.85 104.835 203.85C105.348 203.85 105.763 204.265 105.763 204.776C105.763 205.288 105.348 205.703 104.835 205.703C104.323 205.703 103.908 205.288 103.908 204.776Z" fill="black"/>
<path d="M134.513 194.584C134.513 194.072 134.929 193.657 135.441 193.657C135.953 193.657 136.368 194.072 136.368 194.584C136.368 195.096 135.953 195.51 135.441 195.51C134.929 195.51 134.513 195.096 134.513 194.584Z" fill="black"/>
<path d="M124.312 204.776C124.312 204.265 124.727 203.85 125.239 203.85C125.751 203.85 126.166 204.265 126.166 204.776C126.166 205.288 125.751 205.703 125.239 205.703C124.727 205.703 124.312 205.288 124.312 204.776Z" fill="black"/>
<path d="M154.917 194.584C154.917 194.072 155.332 193.657 155.844 193.657C156.357 193.657 156.772 194.072 156.772 194.584C156.772 195.096 156.357 195.51 155.844 195.51C155.332 195.51 154.917 195.096 154.917 194.584Z" fill="black"/>
<path d="M144.715 204.776C144.715 204.265 145.13 203.85 145.643 203.85C146.155 203.85 146.57 204.265 146.57 204.776C146.57 205.288 146.155 205.703 145.643 205.703C145.13 205.703 144.715 205.288 144.715 204.776Z" fill="black"/>
<path d="M175.32 194.584C175.32 194.072 175.736 193.657 176.248 193.657C176.76 193.657 177.175 194.072 177.175 194.584C177.175 195.096 176.76 195.51 176.248 195.51C175.736 195.51 175.32 195.096 175.32 194.584Z" fill="black"/>
<path d="M165.119 204.776C165.119 204.265 165.534 203.85 166.046 203.85C166.558 203.85 166.974 204.265 166.974 204.776C166.974 205.288 166.558 205.703 166.046 205.703C165.534 205.703 165.119 205.288 165.119 204.776Z" fill="black"/>
<path d="M195.724 194.584C195.724 194.072 196.139 193.657 196.651 193.657C197.164 193.657 197.579 194.072 197.579 194.584C197.579 195.096 197.164 195.51 196.651 195.51C196.139 195.51 195.724 195.096 195.724 194.584Z" fill="black"/>
<path d="M185.522 204.776C185.522 204.265 185.937 203.85 186.45 203.85C186.962 203.85 187.377 204.265 187.377 204.776C187.377 205.288 186.962 205.703 186.45 205.703C185.937 205.703 185.522 205.288 185.522 204.776Z" fill="black"/>
<path d="M216.127 194.584C216.127 194.072 216.543 193.657 217.055 193.657C217.567 193.657 217.982 194.072 217.982 194.584C217.982 195.096 217.567 195.51 217.055 195.51C216.543 195.51 216.127 195.096 216.127 194.584Z" fill="black"/>
<path d="M205.926 204.776C205.926 204.265 206.341 203.85 206.853 203.85C207.365 203.85 207.781 204.265 207.781 204.776C207.781 205.288 207.365 205.703 206.853 205.703C206.341 205.703 205.926 205.288 205.926 204.776Z" fill="black"/>
<path d="M236.531 194.584C236.531 194.072 236.946 193.657 237.458 193.657C237.971 193.657 238.386 194.072 238.386 194.584C238.386 195.096 237.971 195.51 237.458 195.51C236.946 195.51 236.531 195.096 236.531 194.584Z" fill="black"/>
<path d="M226.329 204.776C226.329 204.265 226.744 203.85 227.257 203.85C227.769 203.85 228.184 204.265 228.184 204.776C228.184 205.288 227.769 205.703 227.257 205.703C226.744 205.703 226.329 205.288 226.329 204.776Z" fill="black"/>
<path d="M256.935 194.584C256.935 194.072 257.35 193.657 257.862 193.657C258.374 193.657 258.789 194.072 258.789 194.584C258.789 195.096 258.374 195.51 257.862 195.51C257.35 195.51 256.935 195.096 256.935 194.584Z" fill="black"/>
<path d="M246.733 204.776C246.733 204.265 247.148 203.85 247.66 203.85C248.172 203.85 248.588 204.265 248.588 204.776C248.588 205.288 248.172 205.703 247.66 205.703C247.148 205.703 246.733 205.288 246.733 204.776Z" fill="black"/>
<path d="M277.338 194.584C277.338 194.072 277.753 193.657 278.266 193.657C278.778 193.657 279.193 194.072 279.193 194.584C279.193 195.096 278.778 195.51 278.266 195.51C277.753 195.51 277.338 195.096 277.338 194.584Z" fill="black"/>
<path d="M267.136 204.776C267.136 204.265 267.552 203.85 268.064 203.85C268.576 203.85 268.991 204.265 268.991 204.776C268.991 205.288 268.576 205.703 268.064 205.703C267.552 205.703 267.136 205.288 267.136 204.776Z" fill="black"/>
<path d="M297.742 194.584C297.742 194.072 298.157 193.657 298.669 193.657C299.181 193.657 299.596 194.072 299.596 194.584C299.596 195.096 299.181 195.51 298.669 195.51C298.157 195.51 297.742 195.096 297.742 194.584Z" fill="black"/>
<path d="M287.54 204.776C287.54 204.265 287.955 203.85 288.467 203.85C288.979 203.85 289.395 204.265 289.395 204.776C289.395 205.288 288.979 205.703 288.467 205.703C287.955 205.703 287.54 205.288 287.54 204.776Z" fill="black"/>
<path d="M318.145 194.584C318.145 194.072 318.56 193.657 319.073 193.657C319.585 193.657 320 194.072 320 194.584C320 195.096 319.585 195.51 319.073 195.51C318.56 195.51 318.145 195.096 318.145 194.584Z" fill="black"/>
<path d="M307.943 204.776C307.943 204.265 308.359 203.85 308.871 203.85C309.383 203.85 309.798 204.265 309.798 204.776C309.798 205.288 309.383 205.703 308.871 205.703C308.359 205.703 307.943 205.288 307.943 204.776Z" fill="black"/>
</mask>
<g mask="url(#mask0)">
<circle cx="191.777" cy="105.475" r="76.3218" fill="#DCB1DC"/>
</g>
<g clip-path="url(#clip0)">
<path d="M28.2929 176.552C27.6163 176.552 26.9548 176.282 26.4657 175.779C25.7844 175.079 25.5655 174.048 25.9044 173.131L37.6374 141.126C29.8546 128.897 25.7483 114.782 25.7483 100.231C25.7483 58.1471 59.9866 23.91 102.069 23.91C144.153 23.91 178.39 58.1471 178.39 100.231C178.39 142.314 144.153 176.552 102.069 176.552C87.9932 176.552 74.2688 172.682 62.2936 165.356L29.0965 176.422C28.8344 176.509 28.5631 176.552 28.2929 176.552ZM62.6243 160.021C63.103 160.021 63.5758 160.155 63.9857 160.415C75.3856 167.645 88.5534 171.464 102.069 171.464C141.347 171.464 173.302 139.508 173.302 100.231C173.302 60.9537 141.347 28.998 102.069 28.998C62.792 28.998 30.8375 60.9537 30.8375 100.231C30.8375 114.215 34.8995 127.765 42.588 139.412C43.0328 140.086 43.1295 140.93 42.8523 141.688L32.4982 169.924L61.8184 160.153C62.0828 160.064 62.353 160.021 62.6243 160.021Z" fill="#4C4760"/>
<path d="M165.671 102.774C164.266 102.774 163.126 101.635 163.126 100.231C163.126 86.3936 157.914 72.5132 148.453 61.154C147.553 60.0756 147.699 58.4708 148.778 57.5694C149.857 56.6716 151.462 56.8171 152.36 57.8955C162.585 70.17 168.214 85.2058 168.214 100.231C168.214 101.635 167.075 102.774 165.671 102.774Z" fill="#4C4760"/>
<path d="M142.775 54.4382C142.197 54.4382 141.617 54.2425 141.141 53.8431C136.821 50.2177 132.84 47.4239 128.973 45.2997C127.742 44.6231 127.291 43.0765 127.966 41.8479C128.64 40.6193 130.187 40.1639 131.42 40.8406C135.584 43.1243 139.834 46.1044 144.413 49.9452C145.489 50.8489 145.629 52.4537 144.726 53.5298C144.22 54.1284 143.5 54.4382 142.775 54.4382Z" fill="#4C4760"/>
<path d="M119.878 41.7174C119.614 41.7174 119.347 41.6744 119.079 41.5882C113.042 39.5967 107.911 39.181 102.065 39.1717C100.66 39.1693 99.5213 38.0292 99.5236 36.6247C99.5283 35.2226 100.668 34.086 102.069 34.086H102.073C109.569 34.0964 114.958 34.8721 120.675 36.7575C122.008 37.1977 122.733 38.6371 122.292 39.9706C121.942 41.0408 120.947 41.7174 119.878 41.7174Z" fill="#4C4760"/>
<path d="M132.711 133.333C132.369 133.333 132.027 133.253 131.712 133.089L110.804 122.251L89.8962 133.089C89.1541 133.475 88.2576 133.399 87.5897 132.894C86.9188 132.389 86.5909 131.544 86.7444 130.716L90.919 107.799L74.1912 90.5708C73.5975 89.9591 73.405 89.0574 73.6988 88.2551C73.9896 87.4508 74.7126 86.8899 75.556 86.8128L98.4381 84.7101L108.845 63.6554C109.588 62.1532 112.022 62.1532 112.765 63.6554L123.172 84.7101L146.054 86.8128C146.898 86.8899 147.621 87.4528 147.912 88.2551C148.204 89.0595 148.011 89.9612 147.419 90.5708L130.691 107.799L134.866 130.716C135.018 131.547 134.689 132.391 134.021 132.894C133.633 133.184 133.173 133.333 132.711 133.333ZM110.804 117.545C111.146 117.545 111.49 117.627 111.804 117.789L129.749 127.091L126.174 107.468C126.044 106.759 126.266 106.03 126.765 105.513L141.05 90.799L121.556 89.0067C120.8 88.9357 120.134 88.4773 119.795 87.7896L110.804 69.5981L101.812 87.7926C101.472 88.4793 100.806 88.9377 100.051 89.0087L80.555 90.801L94.841 105.516C95.3404 106.03 95.5611 106.761 95.4327 107.47L91.8567 127.094L109.803 117.791C110.119 117.627 110.463 117.545 110.804 117.545Z" fill="#F7931E"/>
<path d="M110.804 117.545C111.146 117.545 111.49 117.627 111.804 117.789L129.749 127.091L126.174 107.468C126.044 106.759 126.266 106.03 126.765 105.513L141.05 90.799L121.556 89.0067C120.8 88.9357 120.134 88.4773 119.795 87.7896L110.804 69.5981L101.812 87.7926C101.472 88.4793 100.806 88.9377 100.051 89.0087L80.555 90.801L94.841 105.516C95.3404 106.03 95.5611 106.761 95.4327 107.47L91.8567 127.094L109.803 117.791C110.119 117.627 110.463 117.545 110.804 117.545Z" fill="#F7931E"/>
<path d="M124.435 135.172C124.093 135.172 123.751 135.094 123.436 134.931L102.528 124.234L81.6203 134.931C80.8782 135.312 79.9817 135.238 79.3138 134.739C78.643 134.241 78.315 133.407 78.4685 132.589L82.6432 109.969L65.9153 92.9652C65.3216 92.3615 65.1291 91.4715 65.4229 90.6796C65.7137 89.8857 66.4368 89.3321 67.2801 89.256L90.1622 87.1807L100.569 66.3994C101.312 64.9167 103.746 64.9167 104.489 66.3994L114.897 87.1807L137.779 89.256C138.622 89.3321 139.345 89.8877 139.636 90.6796C139.928 91.4735 139.735 92.3635 139.143 92.9652L122.416 109.969L126.59 132.589C126.742 133.41 126.413 134.243 125.745 134.739C125.357 135.025 124.898 135.172 124.435 135.172ZM102.528 119.589C102.87 119.589 103.214 119.67 103.528 119.83L121.473 129.011L117.898 109.643C117.769 108.943 117.99 108.223 118.49 107.714L132.775 93.1905L113.28 91.4215C112.524 91.3514 111.858 90.8989 111.519 90.2201L102.528 72.2649L93.5357 90.2231C93.1957 90.9009 92.5299 91.3534 91.7747 91.4235L72.2791 93.1925L86.5652 107.717C87.0646 108.223 87.2852 108.945 87.1568 109.645L83.5808 129.014L101.527 119.832C101.843 119.67 102.187 119.589 102.528 119.589Z" fill="#4C4760"/>
</g>
<rect x="5.51724" y="138.308" width="44.7479" height="11.187" rx="5.59349" transform="rotate(-45 5.51724 138.308)" fill="#F7931E"/>
<defs>
<clipPath id="clip0">
<rect width="152.644" height="152.644" fill="white" transform="translate(25.7471 23.908)"/>
</clipPath>
</defs>
</svg>
