<svg width="300" height="212" viewBox="0 0 300 212" fill="none" xmlns="http://www.w3.org/2000/svg">
<circle cx="98.7461" cy="99.449" r="75.2351" fill="white"/>
<rect x="142.947" y="119.584" width="45.7649" height="11.4412" rx="5.72062" transform="rotate(-45 142.947 119.584)" fill="#F7931E"/>
<g clip-path="url(#clip0)">
<path d="M78.5285 146.562C74.2276 146.562 70.7276 144.073 70.7276 141.015V135.467C70.7276 132.409 74.2276 129.92 78.5285 129.92C82.8293 129.92 86.3293 132.409 86.3293 135.467V141.015C86.3293 144.073 82.8293 146.562 78.5285 146.562ZM78.5285 133.618C77.0931 133.618 75.9282 134.447 75.9282 135.467V141.015C75.9282 142.035 77.0931 142.864 78.5285 142.864C79.9638 142.864 81.1287 142.035 81.1287 141.015V135.467C81.1287 134.447 79.9638 133.618 78.5285 133.618Z" fill="#90278E"/>
<path d="M78.5285 133.618C77.0931 133.618 75.9282 134.447 75.9282 135.467V141.015C75.9282 142.035 77.0931 142.864 78.5285 142.864C79.9638 142.864 81.1287 142.035 81.1287 141.015V135.467C81.1287 134.447 79.9638 133.618 78.5285 133.618Z" fill="#90278E"/>
<path d="M78.0084 122.715C73.7075 122.715 70.2075 119.215 70.2075 114.914V109.638C70.2075 101.021 74.472 92.4789 80.8193 88.3861C82.3378 87.4058 83.2323 85.7364 83.2063 83.9292C83.1699 81.1911 80.6321 78.4686 78.0838 78.4348C76.755 78.4348 75.5199 78.9652 74.5422 79.9299C73.4397 81.0195 72.8078 82.5042 72.8078 84.0098C72.8078 88.3106 69.3078 91.8106 65.007 91.8106C60.7061 91.8106 57.2061 88.3106 57.2061 84.0098C57.2061 78.3594 59.5334 72.8234 63.5898 68.8241C67.5033 64.9601 72.6258 62.8331 78.0162 62.8331H78.3048C89.2624 62.9917 98.6546 72.5529 98.8106 83.716C98.912 90.9343 95.347 97.5806 89.278 101.497C87.398 102.708 85.8092 106.437 85.8092 109.638V114.914C85.8092 119.218 82.3092 122.715 78.0084 122.715ZM78.0214 73.2342C83.5418 73.3096 88.3315 78.2736 88.4095 83.859C88.4615 87.4682 86.6777 90.7939 83.6432 92.7571C78.7157 95.9321 75.4081 102.716 75.4081 109.638V114.914C75.4081 116.349 76.573 117.514 78.0084 117.514C79.4437 117.514 80.6087 116.349 80.6087 114.914V109.638C80.6087 105.296 82.6161 99.6037 86.4593 97.1256C91.0124 94.1899 93.6855 89.2051 93.6101 83.7888C93.493 75.3665 86.4489 68.1507 78.2294 68.0337C74.004 68.0337 70.1763 69.6276 67.2406 72.5269C64.1697 75.5563 62.4067 79.7401 62.4067 84.0098C62.4067 85.4451 63.5716 86.6101 65.007 86.6101C66.4423 86.6101 67.6073 85.4451 67.6073 84.0098C67.6073 81.1261 68.8034 78.2892 70.8914 76.2297C72.8494 74.2977 75.3821 73.2342 78.0214 73.2342Z" fill="#4C4760"/>
<path d="M78.0084 174.645C76.573 174.645 75.4081 173.483 75.4081 172.045C75.4081 170.607 76.573 169.445 78.0084 169.445C112.418 169.445 140.415 141.447 140.415 107.038C140.415 72.6284 112.418 44.6312 78.0084 44.6312C43.5963 44.6312 15.6017 72.6284 15.6017 107.038C15.6017 108.476 14.4367 109.638 13.0014 109.638C11.566 109.638 10.4011 108.476 10.4011 107.038C10.4011 69.7577 40.7308 39.4306 78.0084 39.4306C115.286 39.4306 145.616 69.7577 145.616 107.038C145.616 144.318 115.286 174.645 78.0084 174.645Z" fill="#4C4760"/>
<path d="M2.60051 185.046C1.90883 185.046 1.23276 184.771 0.733507 184.256C0.0366316 183.541 -0.186993 182.488 0.158845 181.551L12.1513 148.84C4.19708 136.338 0.00022761 121.914 0.00022761 107.038C0.00022761 64.024 34.9948 29.0295 78.0086 29.0295C121.022 29.0295 156.017 64.024 156.017 107.038C156.017 150.052 121.022 185.046 78.0086 185.046C63.6213 185.046 49.5902 181.091 37.3533 173.605L3.4222 184.911C3.15437 185.002 2.87614 185.046 2.60051 185.046ZM37.6913 168.15C38.1801 168.15 38.6638 168.287 39.085 168.553C50.7317 175.94 64.1933 179.846 78.0086 179.846C118.154 179.846 150.816 147.184 150.816 107.038C150.816 66.8922 118.154 34.23 78.0086 34.23C37.8629 34.23 5.20079 66.8922 5.20079 107.038C5.20079 121.334 9.35343 135.181 17.2115 147.082C17.6665 147.771 17.7679 148.635 17.4819 149.409L6.89877 178.273L36.867 168.285C37.1374 168.194 37.4131 168.15 37.6913 168.15Z" fill="#4C4760"/>
</g>
<rect x="105.051" y="61.3904" width="45.7649" height="11.4412" rx="5.72062" transform="rotate(-45 105.051 61.3904)" fill="#F7931E"/>
<rect x="145.616" y="45.21" width="22.8825" height="11.4412" rx="5.72062" transform="rotate(-45 145.616 45.21)" fill="#F7931E"/>
<mask id="mask0" mask-type="alpha" maskUnits="userSpaceOnUse" x="78" y="0" width="222" height="212">
<path d="M78.9969 22.4988C78.9969 21.9754 79.4215 21.5511 79.9454 21.5511C80.4692 21.5511 80.8939 21.9754 80.8939 22.4988C80.8939 23.0222 80.4692 23.4464 79.9454 23.4464C79.4215 23.4464 78.9969 23.0222 78.9969 22.4988Z" fill="black"/>
<path d="M78.9969 1.65053C78.9969 1.12716 79.4215 0.702881 79.9454 0.702881C80.4692 0.702881 80.8939 1.12716 80.8939 1.65053C80.8939 2.1739 80.4692 2.59818 79.9454 2.59818C79.4215 2.59818 78.9969 2.1739 78.9969 1.65053Z" fill="black"/>
<path d="M89.4305 12.0747C89.4305 11.5513 89.8551 11.127 90.379 11.127C90.9028 11.127 91.3275 11.5513 91.3275 12.0747C91.3275 12.598 90.9028 13.0223 90.379 13.0223C89.8551 13.0223 89.4305 12.598 89.4305 12.0747Z" fill="black"/>
<path d="M99.8641 22.4988C99.8641 21.9754 100.289 21.5511 100.813 21.5511C101.336 21.5511 101.761 21.9754 101.761 22.4988C101.761 23.0222 101.336 23.4464 100.813 23.4464C100.289 23.4464 99.8641 23.0222 99.8641 22.4988Z" fill="black"/>
<path d="M110.298 12.0747C110.298 11.5513 110.722 11.127 111.246 11.127C111.77 11.127 112.195 11.5513 112.195 12.0747C112.195 12.598 111.77 13.0223 111.246 13.0223C110.722 13.0223 110.298 12.598 110.298 12.0747Z" fill="black"/>
<path d="M99.8641 1.65053C99.8641 1.12716 100.289 0.702881 100.813 0.702881C101.336 0.702881 101.761 1.12716 101.761 1.65053C101.761 2.1739 101.336 2.59818 100.813 2.59818C100.289 2.59818 99.8641 2.1739 99.8641 1.65053Z" fill="black"/>
<path d="M120.731 22.4988C120.731 21.9754 121.156 21.5511 121.68 21.5511C122.204 21.5511 122.628 21.9754 122.628 22.4988C122.628 23.0222 122.204 23.4464 121.68 23.4464C121.156 23.4464 120.731 23.0222 120.731 22.4988Z" fill="black"/>
<path d="M131.165 12.0747C131.165 11.5513 131.59 11.127 132.113 11.127C132.637 11.127 133.062 11.5513 133.062 12.0747C133.062 12.598 132.637 13.0223 132.113 13.0223C131.59 13.0223 131.165 12.598 131.165 12.0747Z" fill="black"/>
<path d="M120.731 1.65053C120.731 1.12716 121.156 0.702881 121.68 0.702881C122.204 0.702881 122.628 1.12716 122.628 1.65053C122.628 2.1739 122.204 2.59818 121.68 2.59818C121.156 2.59818 120.731 2.1739 120.731 1.65053Z" fill="black"/>
<path d="M141.599 22.4988C141.599 21.9754 142.023 21.5511 142.547 21.5511C143.071 21.5511 143.496 21.9754 143.496 22.4988C143.496 23.0222 143.071 23.4464 142.547 23.4464C142.023 23.4464 141.599 23.0222 141.599 22.4988Z" fill="black"/>
<path d="M152.032 12.0747C152.032 11.5513 152.457 11.127 152.981 11.127C153.505 11.127 153.929 11.5513 153.929 12.0747C153.929 12.598 153.505 13.0223 152.981 13.0223C152.457 13.0223 152.032 12.598 152.032 12.0747Z" fill="black"/>
<path d="M141.599 1.65053C141.599 1.12716 142.023 0.702881 142.547 0.702881C143.071 0.702881 143.496 1.12716 143.496 1.65053C143.496 2.1739 143.071 2.59818 142.547 2.59818C142.023 2.59818 141.599 2.1739 141.599 1.65053Z" fill="black"/>
<path d="M162.466 22.4988C162.466 21.9754 162.891 21.5511 163.414 21.5511C163.938 21.5511 164.363 21.9754 164.363 22.4988C164.363 23.0222 163.938 23.4464 163.414 23.4464C162.891 23.4464 162.466 23.0222 162.466 22.4988Z" fill="black"/>
<path d="M172.899 12.0747C172.899 11.5513 173.324 11.127 173.848 11.127C174.372 11.127 174.797 11.5513 174.797 12.0747C174.797 12.598 174.372 13.0223 173.848 13.0223C173.324 13.0223 172.899 12.598 172.899 12.0747Z" fill="black"/>
<path d="M162.466 1.65053C162.466 1.12716 162.891 0.702881 163.414 0.702881C163.938 0.702881 164.363 1.12716 164.363 1.65053C164.363 2.1739 163.938 2.59818 163.414 2.59818C162.891 2.59818 162.466 2.1739 162.466 1.65053Z" fill="black"/>
<path d="M183.333 22.4988C183.333 21.9754 183.758 21.5511 184.282 21.5511C184.805 21.5511 185.23 21.9754 185.23 22.4988C185.23 23.0222 184.805 23.4464 184.282 23.4464C183.758 23.4464 183.333 23.0222 183.333 22.4988Z" fill="black"/>
<path d="M193.767 12.0747C193.767 11.5513 194.191 11.127 194.715 11.127C195.239 11.127 195.664 11.5513 195.664 12.0747C195.664 12.598 195.239 13.0223 194.715 13.0223C194.191 13.0223 193.767 12.598 193.767 12.0747Z" fill="black"/>
<path d="M183.333 1.65053C183.333 1.12716 183.758 0.702881 184.282 0.702881C184.805 0.702881 185.23 1.12716 185.23 1.65053C185.23 2.1739 184.805 2.59818 184.282 2.59818C183.758 2.59818 183.333 2.1739 183.333 1.65053Z" fill="black"/>
<path d="M204.2 22.4988C204.2 21.9754 204.625 21.5511 205.149 21.5511C205.673 21.5511 206.097 21.9754 206.097 22.4988C206.097 23.0222 205.673 23.4464 205.149 23.4464C204.625 23.4464 204.2 23.0222 204.2 22.4988Z" fill="black"/>
<path d="M214.634 12.0747C214.634 11.5513 215.059 11.127 215.582 11.127C216.106 11.127 216.531 11.5513 216.531 12.0747C216.531 12.598 216.106 13.0223 215.582 13.0223C215.059 13.0223 214.634 12.598 214.634 12.0747Z" fill="black"/>
<path d="M204.2 1.65053C204.2 1.12716 204.625 0.702881 205.149 0.702881C205.673 0.702881 206.097 1.12716 206.097 1.65053C206.097 2.1739 205.673 2.59818 205.149 2.59818C204.625 2.59818 204.2 2.1739 204.2 1.65053Z" fill="black"/>
<path d="M225.068 22.4988C225.068 21.9754 225.492 21.5511 226.016 21.5511C226.54 21.5511 226.965 21.9754 226.965 22.4988C226.965 23.0222 226.54 23.4464 226.016 23.4464C225.492 23.4464 225.068 23.0222 225.068 22.4988Z" fill="black"/>
<path d="M235.501 12.0747C235.501 11.5513 235.926 11.127 236.45 11.127C236.974 11.127 237.398 11.5513 237.398 12.0747C237.398 12.598 236.974 13.0223 236.45 13.0223C235.926 13.0223 235.501 12.598 235.501 12.0747Z" fill="black"/>
<path d="M225.068 1.65053C225.068 1.12716 225.492 0.702881 226.016 0.702881C226.54 0.702881 226.965 1.12716 226.965 1.65053C226.965 2.1739 226.54 2.59818 226.016 2.59818C225.492 2.59818 225.068 2.1739 225.068 1.65053Z" fill="black"/>
<path d="M245.935 22.4988C245.935 21.9754 246.36 21.5511 246.883 21.5511C247.407 21.5511 247.832 21.9754 247.832 22.4988C247.832 23.0222 247.407 23.4464 246.883 23.4464C246.36 23.4464 245.935 23.0222 245.935 22.4988Z" fill="black"/>
<path d="M256.368 12.0747C256.368 11.5513 256.793 11.127 257.317 11.127C257.841 11.127 258.265 11.5513 258.265 12.0747C258.265 12.598 257.841 13.0223 257.317 13.0223C256.793 13.0223 256.368 12.598 256.368 12.0747Z" fill="black"/>
<path d="M245.935 1.65053C245.935 1.12716 246.36 0.702881 246.883 0.702881C247.407 0.702881 247.832 1.12716 247.832 1.65053C247.832 2.1739 247.407 2.59818 246.883 2.59818C246.36 2.59818 245.935 2.1739 245.935 1.65053Z" fill="black"/>
<path d="M266.802 22.4988C266.802 21.9754 267.227 21.5511 267.751 21.5511C268.274 21.5511 268.699 21.9754 268.699 22.4988C268.699 23.0222 268.274 23.4464 267.751 23.4464C267.227 23.4464 266.802 23.0222 266.802 22.4988Z" fill="black"/>
<path d="M277.236 12.0747C277.236 11.5513 277.66 11.127 278.184 11.127C278.708 11.127 279.133 11.5513 279.133 12.0747C279.133 12.598 278.708 13.0223 278.184 13.0223C277.66 13.0223 277.236 12.598 277.236 12.0747Z" fill="black"/>
<path d="M266.802 1.65053C266.802 1.12716 267.227 0.702881 267.751 0.702881C268.274 0.702881 268.699 1.12716 268.699 1.65053C268.699 2.1739 268.274 2.59818 267.751 2.59818C267.227 2.59818 266.802 2.1739 266.802 1.65053Z" fill="black"/>
<path d="M287.669 22.4988C287.669 21.9754 288.094 21.5511 288.618 21.5511C289.142 21.5511 289.566 21.9754 289.566 22.4988C289.566 23.0222 289.142 23.4464 288.618 23.4464C288.094 23.4464 287.669 23.0222 287.669 22.4988Z" fill="black"/>
<path d="M298.103 12.0747C298.103 11.5513 298.528 11.127 299.051 11.127C299.575 11.127 300 11.5513 300 12.0747C300 12.598 299.575 13.0223 299.051 13.0223C298.528 13.0223 298.103 12.598 298.103 12.0747Z" fill="black"/>
<path d="M287.669 1.65053C287.669 1.12716 288.094 0.702881 288.618 0.702881C289.142 0.702881 289.566 1.12716 289.566 1.65053C289.566 2.1739 289.142 2.59818 288.618 2.59818C288.094 2.59818 287.669 2.1739 287.669 1.65053Z" fill="black"/>
<path d="M89.4305 32.9229C89.4305 32.3996 89.8551 31.9753 90.379 31.9753C90.9028 31.9753 91.3275 32.3996 91.3275 32.9229C91.3275 33.4463 90.9028 33.8706 90.379 33.8706C89.8551 33.8706 89.4305 33.4463 89.4305 32.9229Z" fill="black"/>
<path d="M78.9969 43.3471C78.9969 42.8237 79.4215 42.3994 79.9454 42.3994C80.4692 42.3994 80.8939 42.8237 80.8939 43.3471C80.8939 43.8704 80.4692 44.2947 79.9454 44.2947C79.4215 44.2947 78.9969 43.8704 78.9969 43.3471Z" fill="black"/>
<path d="M110.298 32.9229C110.298 32.3996 110.722 31.9753 111.246 31.9753C111.77 31.9753 112.195 32.3996 112.195 32.9229C112.195 33.4463 111.77 33.8706 111.246 33.8706C110.722 33.8706 110.298 33.4463 110.298 32.9229Z" fill="black"/>
<path d="M99.8641 43.3471C99.8641 42.8237 100.289 42.3994 100.813 42.3994C101.336 42.3994 101.761 42.8237 101.761 43.3471C101.761 43.8704 101.336 44.2947 100.813 44.2947C100.289 44.2947 99.8641 43.8704 99.8641 43.3471Z" fill="black"/>
<path d="M131.165 32.9229C131.165 32.3996 131.59 31.9753 132.113 31.9753C132.637 31.9753 133.062 32.3996 133.062 32.9229C133.062 33.4463 132.637 33.8706 132.113 33.8706C131.59 33.8706 131.165 33.4463 131.165 32.9229Z" fill="black"/>
<path d="M120.731 43.3471C120.731 42.8237 121.156 42.3994 121.68 42.3994C122.204 42.3994 122.628 42.8237 122.628 43.3471C122.628 43.8704 122.204 44.2947 121.68 44.2947C121.156 44.2947 120.731 43.8704 120.731 43.3471Z" fill="black"/>
<path d="M152.032 32.9229C152.032 32.3996 152.457 31.9753 152.981 31.9753C153.505 31.9753 153.929 32.3996 153.929 32.9229C153.929 33.4463 153.505 33.8706 152.981 33.8706C152.457 33.8706 152.032 33.4463 152.032 32.9229Z" fill="black"/>
<path d="M141.599 43.3471C141.599 42.8237 142.023 42.3994 142.547 42.3994C143.071 42.3994 143.496 42.8237 143.496 43.3471C143.496 43.8704 143.071 44.2947 142.547 44.2947C142.023 44.2947 141.599 43.8704 141.599 43.3471Z" fill="black"/>
<path d="M172.899 32.9229C172.899 32.3996 173.324 31.9753 173.848 31.9753C174.372 31.9753 174.797 32.3996 174.797 32.9229C174.797 33.4463 174.372 33.8706 173.848 33.8706C173.324 33.8706 172.899 33.4463 172.899 32.9229Z" fill="black"/>
<path d="M162.466 43.3471C162.466 42.8237 162.891 42.3994 163.414 42.3994C163.938 42.3994 164.363 42.8237 164.363 43.3471C164.363 43.8704 163.938 44.2947 163.414 44.2947C162.891 44.2947 162.466 43.8704 162.466 43.3471Z" fill="black"/>
<path d="M193.767 32.9229C193.767 32.3996 194.191 31.9753 194.715 31.9753C195.239 31.9753 195.664 32.3996 195.664 32.9229C195.664 33.4463 195.239 33.8706 194.715 33.8706C194.191 33.8706 193.767 33.4463 193.767 32.9229Z" fill="black"/>
<path d="M183.333 43.3471C183.333 42.8237 183.758 42.3994 184.282 42.3994C184.805 42.3994 185.23 42.8237 185.23 43.3471C185.23 43.8704 184.805 44.2947 184.282 44.2947C183.758 44.2947 183.333 43.8704 183.333 43.3471Z" fill="black"/>
<path d="M214.634 32.9229C214.634 32.3996 215.059 31.9753 215.582 31.9753C216.106 31.9753 216.531 32.3996 216.531 32.9229C216.531 33.4463 216.106 33.8706 215.582 33.8706C215.059 33.8706 214.634 33.4463 214.634 32.9229Z" fill="black"/>
<path d="M204.2 43.3471C204.2 42.8237 204.625 42.3994 205.149 42.3994C205.673 42.3994 206.097 42.8237 206.097 43.3471C206.097 43.8704 205.673 44.2947 205.149 44.2947C204.625 44.2947 204.2 43.8704 204.2 43.3471Z" fill="black"/>
<path d="M235.501 32.9229C235.501 32.3996 235.926 31.9753 236.45 31.9753C236.974 31.9753 237.398 32.3996 237.398 32.9229C237.398 33.4463 236.974 33.8706 236.45 33.8706C235.926 33.8706 235.501 33.4463 235.501 32.9229Z" fill="black"/>
<path d="M225.068 43.3471C225.068 42.8237 225.492 42.3994 226.016 42.3994C226.54 42.3994 226.965 42.8237 226.965 43.3471C226.965 43.8704 226.54 44.2947 226.016 44.2947C225.492 44.2947 225.068 43.8704 225.068 43.3471Z" fill="black"/>
<path d="M256.368 32.9229C256.368 32.3996 256.793 31.9753 257.317 31.9753C257.841 31.9753 258.265 32.3996 258.265 32.9229C258.265 33.4463 257.841 33.8706 257.317 33.8706C256.793 33.8706 256.368 33.4463 256.368 32.9229Z" fill="black"/>
<path d="M245.935 43.3471C245.935 42.8237 246.36 42.3994 246.883 42.3994C247.407 42.3994 247.832 42.8237 247.832 43.3471C247.832 43.8704 247.407 44.2947 246.883 44.2947C246.36 44.2947 245.935 43.8704 245.935 43.3471Z" fill="black"/>
<path d="M277.236 32.9229C277.236 32.3996 277.66 31.9753 278.184 31.9753C278.708 31.9753 279.133 32.3996 279.133 32.9229C279.133 33.4463 278.708 33.8706 278.184 33.8706C277.66 33.8706 277.236 33.4463 277.236 32.9229Z" fill="black"/>
<path d="M266.802 43.3471C266.802 42.8237 267.227 42.3994 267.751 42.3994C268.274 42.3994 268.699 42.8237 268.699 43.3471C268.699 43.8704 268.274 44.2947 267.751 44.2947C267.227 44.2947 266.802 43.8704 266.802 43.3471Z" fill="black"/>
<path d="M298.103 32.9229C298.103 32.3996 298.528 31.9753 299.051 31.9753C299.575 31.9753 300 32.3996 300 32.9229C300 33.4463 299.575 33.8706 299.051 33.8706C298.528 33.8706 298.103 33.4463 298.103 32.9229Z" fill="black"/>
<path d="M287.669 43.3471C287.669 42.8237 288.094 42.3994 288.618 42.3994C289.142 42.3994 289.566 42.8237 289.566 43.3471C289.566 43.8704 289.142 44.2947 288.618 44.2947C288.094 44.2947 287.669 43.8704 287.669 43.3471Z" fill="black"/>
<path d="M89.4305 53.7712C89.4305 53.2478 89.8551 52.8236 90.379 52.8236C90.9028 52.8236 91.3275 53.2478 91.3275 53.7712C91.3275 54.2946 90.9028 54.7188 90.379 54.7188C89.8551 54.7188 89.4305 54.2946 89.4305 53.7712Z" fill="black"/>
<path d="M78.9969 64.1953C78.9969 63.672 79.4215 63.2477 79.9454 63.2477C80.4692 63.2477 80.8939 63.672 80.8939 64.1953C80.8939 64.7187 80.4692 65.143 79.9454 65.143C79.4215 65.143 78.9969 64.7187 78.9969 64.1953Z" fill="black"/>
<path d="M110.298 53.7712C110.298 53.2478 110.722 52.8236 111.246 52.8236C111.77 52.8236 112.195 53.2478 112.195 53.7712C112.195 54.2946 111.77 54.7188 111.246 54.7188C110.722 54.7188 110.298 54.2946 110.298 53.7712Z" fill="black"/>
<path d="M99.8641 64.1953C99.8641 63.672 100.289 63.2477 100.813 63.2477C101.336 63.2477 101.761 63.672 101.761 64.1953C101.761 64.7187 101.336 65.143 100.813 65.143C100.289 65.143 99.8641 64.7187 99.8641 64.1953Z" fill="black"/>
<path d="M131.165 53.7712C131.165 53.2478 131.59 52.8236 132.113 52.8236C132.637 52.8236 133.062 53.2478 133.062 53.7712C133.062 54.2946 132.637 54.7188 132.113 54.7188C131.59 54.7188 131.165 54.2946 131.165 53.7712Z" fill="black"/>
<path d="M120.731 64.1953C120.731 63.672 121.156 63.2477 121.68 63.2477C122.204 63.2477 122.628 63.672 122.628 64.1953C122.628 64.7187 122.204 65.143 121.68 65.143C121.156 65.143 120.731 64.7187 120.731 64.1953Z" fill="black"/>
<path d="M152.032 53.7712C152.032 53.2478 152.457 52.8236 152.981 52.8236C153.505 52.8236 153.929 53.2478 153.929 53.7712C153.929 54.2946 153.505 54.7188 152.981 54.7188C152.457 54.7188 152.032 54.2946 152.032 53.7712Z" fill="black"/>
<path d="M141.599 64.1953C141.599 63.672 142.023 63.2477 142.547 63.2477C143.071 63.2477 143.496 63.672 143.496 64.1953C143.496 64.7187 143.071 65.143 142.547 65.143C142.023 65.143 141.599 64.7187 141.599 64.1953Z" fill="black"/>
<path d="M172.899 53.7712C172.899 53.2478 173.324 52.8236 173.848 52.8236C174.372 52.8236 174.797 53.2478 174.797 53.7712C174.797 54.2946 174.372 54.7188 173.848 54.7188C173.324 54.7188 172.899 54.2946 172.899 53.7712Z" fill="black"/>
<path d="M162.466 64.1953C162.466 63.672 162.891 63.2477 163.414 63.2477C163.938 63.2477 164.363 63.672 164.363 64.1953C164.363 64.7187 163.938 65.143 163.414 65.143C162.891 65.143 162.466 64.7187 162.466 64.1953Z" fill="black"/>
<path d="M193.767 53.7712C193.767 53.2478 194.191 52.8236 194.715 52.8236C195.239 52.8236 195.664 53.2478 195.664 53.7712C195.664 54.2946 195.239 54.7188 194.715 54.7188C194.191 54.7188 193.767 54.2946 193.767 53.7712Z" fill="black"/>
<path d="M183.333 64.1953C183.333 63.672 183.758 63.2477 184.282 63.2477C184.805 63.2477 185.23 63.672 185.23 64.1953C185.23 64.7187 184.805 65.143 184.282 65.143C183.758 65.143 183.333 64.7187 183.333 64.1953Z" fill="black"/>
<path d="M214.634 53.7712C214.634 53.2478 215.059 52.8236 215.582 52.8236C216.106 52.8236 216.531 53.2478 216.531 53.7712C216.531 54.2946 216.106 54.7188 215.582 54.7188C215.059 54.7188 214.634 54.2946 214.634 53.7712Z" fill="black"/>
<path d="M204.2 64.1953C204.2 63.672 204.625 63.2477 205.149 63.2477C205.673 63.2477 206.097 63.672 206.097 64.1953C206.097 64.7187 205.673 65.143 205.149 65.143C204.625 65.143 204.2 64.7187 204.2 64.1953Z" fill="black"/>
<path d="M235.501 53.7712C235.501 53.2478 235.926 52.8236 236.45 52.8236C236.974 52.8236 237.398 53.2478 237.398 53.7712C237.398 54.2946 236.974 54.7188 236.45 54.7188C235.926 54.7188 235.501 54.2946 235.501 53.7712Z" fill="black"/>
<path d="M225.068 64.1953C225.068 63.672 225.492 63.2477 226.016 63.2477C226.54 63.2477 226.965 63.672 226.965 64.1953C226.965 64.7187 226.54 65.143 226.016 65.143C225.492 65.143 225.068 64.7187 225.068 64.1953Z" fill="black"/>
<path d="M256.368 53.7712C256.368 53.2478 256.793 52.8236 257.317 52.8236C257.841 52.8236 258.265 53.2478 258.265 53.7712C258.265 54.2946 257.841 54.7188 257.317 54.7188C256.793 54.7188 256.368 54.2946 256.368 53.7712Z" fill="black"/>
<path d="M245.935 64.1953C245.935 63.672 246.36 63.2477 246.883 63.2477C247.407 63.2477 247.832 63.672 247.832 64.1953C247.832 64.7187 247.407 65.143 246.883 65.143C246.36 65.143 245.935 64.7187 245.935 64.1953Z" fill="black"/>
<path d="M277.236 53.7712C277.236 53.2478 277.66 52.8236 278.184 52.8236C278.708 52.8236 279.133 53.2478 279.133 53.7712C279.133 54.2946 278.708 54.7188 278.184 54.7188C277.66 54.7188 277.236 54.2946 277.236 53.7712Z" fill="black"/>
<path d="M266.802 64.1953C266.802 63.672 267.227 63.2477 267.751 63.2477C268.274 63.2477 268.699 63.672 268.699 64.1953C268.699 64.7187 268.274 65.143 267.751 65.143C267.227 65.143 266.802 64.7187 266.802 64.1953Z" fill="black"/>
<path d="M298.103 53.7712C298.103 53.2478 298.528 52.8236 299.051 52.8236C299.575 52.8236 300 53.2478 300 53.7712C300 54.2946 299.575 54.7188 299.051 54.7188C298.528 54.7188 298.103 54.2946 298.103 53.7712Z" fill="black"/>
<path d="M287.669 64.1953C287.669 63.672 288.094 63.2477 288.618 63.2477C289.142 63.2477 289.566 63.672 289.566 64.1953C289.566 64.7187 289.142 65.143 288.618 65.143C288.094 65.143 287.669 64.7187 287.669 64.1953Z" fill="black"/>
<path d="M89.4305 74.6195C89.4305 74.0961 89.8551 73.6718 90.379 73.6718C90.9028 73.6718 91.3275 74.0961 91.3275 74.6195C91.3275 75.1428 90.9028 75.5671 90.379 75.5671C89.8551 75.5671 89.4305 75.1428 89.4305 74.6195Z" fill="black"/>
<path d="M78.9969 85.0436C78.9969 84.5202 79.4215 84.096 79.9454 84.096C80.4692 84.096 80.8939 84.5202 80.8939 85.0436C80.8939 85.567 80.4692 85.9913 79.9454 85.9913C79.4215 85.9913 78.9969 85.567 78.9969 85.0436Z" fill="black"/>
<path d="M110.298 74.6195C110.298 74.0961 110.722 73.6718 111.246 73.6718C111.77 73.6718 112.195 74.0961 112.195 74.6195C112.195 75.1428 111.77 75.5671 111.246 75.5671C110.722 75.5671 110.298 75.1428 110.298 74.6195Z" fill="black"/>
<path d="M99.8641 85.0436C99.8641 84.5202 100.289 84.096 100.813 84.096C101.336 84.096 101.761 84.5202 101.761 85.0436C101.761 85.567 101.336 85.9913 100.813 85.9913C100.289 85.9913 99.8641 85.567 99.8641 85.0436Z" fill="black"/>
<path d="M131.165 74.6195C131.165 74.0961 131.59 73.6718 132.113 73.6718C132.637 73.6718 133.062 74.0961 133.062 74.6195C133.062 75.1428 132.637 75.5671 132.113 75.5671C131.59 75.5671 131.165 75.1428 131.165 74.6195Z" fill="black"/>
<path d="M120.731 85.0436C120.731 84.5202 121.156 84.096 121.68 84.096C122.204 84.096 122.628 84.5202 122.628 85.0436C122.628 85.567 122.204 85.9913 121.68 85.9913C121.156 85.9913 120.731 85.567 120.731 85.0436Z" fill="black"/>
<path d="M152.032 74.6195C152.032 74.0961 152.457 73.6718 152.981 73.6718C153.505 73.6718 153.929 74.0961 153.929 74.6195C153.929 75.1428 153.505 75.5671 152.981 75.5671C152.457 75.5671 152.032 75.1428 152.032 74.6195Z" fill="black"/>
<path d="M141.599 85.0436C141.599 84.5202 142.023 84.096 142.547 84.096C143.071 84.096 143.496 84.5202 143.496 85.0436C143.496 85.567 143.071 85.9913 142.547 85.9913C142.023 85.9913 141.599 85.567 141.599 85.0436Z" fill="black"/>
<path d="M172.899 74.6195C172.899 74.0961 173.324 73.6718 173.848 73.6718C174.372 73.6718 174.797 74.0961 174.797 74.6195C174.797 75.1428 174.372 75.5671 173.848 75.5671C173.324 75.5671 172.899 75.1428 172.899 74.6195Z" fill="black"/>
<path d="M162.466 85.0436C162.466 84.5202 162.891 84.096 163.414 84.096C163.938 84.096 164.363 84.5202 164.363 85.0436C164.363 85.567 163.938 85.9913 163.414 85.9913C162.891 85.9913 162.466 85.567 162.466 85.0436Z" fill="black"/>
<path d="M193.767 74.6195C193.767 74.0961 194.191 73.6718 194.715 73.6718C195.239 73.6718 195.664 74.0961 195.664 74.6195C195.664 75.1428 195.239 75.5671 194.715 75.5671C194.191 75.5671 193.767 75.1428 193.767 74.6195Z" fill="black"/>
<path d="M183.333 85.0436C183.333 84.5202 183.758 84.096 184.282 84.096C184.805 84.096 185.23 84.5202 185.23 85.0436C185.23 85.567 184.805 85.9913 184.282 85.9913C183.758 85.9913 183.333 85.567 183.333 85.0436Z" fill="black"/>
<path d="M214.634 74.6195C214.634 74.0961 215.059 73.6718 215.582 73.6718C216.106 73.6718 216.531 74.0961 216.531 74.6195C216.531 75.1428 216.106 75.5671 215.582 75.5671C215.059 75.5671 214.634 75.1428 214.634 74.6195Z" fill="black"/>
<path d="M204.2 85.0436C204.2 84.5202 204.625 84.096 205.149 84.096C205.673 84.096 206.097 84.5202 206.097 85.0436C206.097 85.567 205.673 85.9913 205.149 85.9913C204.625 85.9913 204.2 85.567 204.2 85.0436Z" fill="black"/>
<path d="M235.501 74.6195C235.501 74.0961 235.926 73.6718 236.45 73.6718C236.974 73.6718 237.398 74.0961 237.398 74.6195C237.398 75.1428 236.974 75.5671 236.45 75.5671C235.926 75.5671 235.501 75.1428 235.501 74.6195Z" fill="black"/>
<path d="M225.068 85.0436C225.068 84.5202 225.492 84.096 226.016 84.096C226.54 84.096 226.965 84.5202 226.965 85.0436C226.965 85.567 226.54 85.9913 226.016 85.9913C225.492 85.9913 225.068 85.567 225.068 85.0436Z" fill="black"/>
<path d="M256.368 74.6195C256.368 74.0961 256.793 73.6718 257.317 73.6718C257.841 73.6718 258.265 74.0961 258.265 74.6195C258.265 75.1428 257.841 75.5671 257.317 75.5671C256.793 75.5671 256.368 75.1428 256.368 74.6195Z" fill="black"/>
<path d="M245.935 85.0436C245.935 84.5202 246.36 84.096 246.883 84.096C247.407 84.096 247.832 84.5202 247.832 85.0436C247.832 85.567 247.407 85.9913 246.883 85.9913C246.36 85.9913 245.935 85.567 245.935 85.0436Z" fill="black"/>
<path d="M277.236 74.6195C277.236 74.0961 277.66 73.6718 278.184 73.6718C278.708 73.6718 279.133 74.0961 279.133 74.6195C279.133 75.1428 278.708 75.5671 278.184 75.5671C277.66 75.5671 277.236 75.1428 277.236 74.6195Z" fill="black"/>
<path d="M266.802 85.0436C266.802 84.5202 267.227 84.096 267.751 84.096C268.274 84.096 268.699 84.5202 268.699 85.0436C268.699 85.567 268.274 85.9913 267.751 85.9913C267.227 85.9913 266.802 85.567 266.802 85.0436Z" fill="black"/>
<path d="M298.103 74.6195C298.103 74.0961 298.528 73.6718 299.051 73.6718C299.575 73.6718 300 74.0961 300 74.6195C300 75.1428 299.575 75.5671 299.051 75.5671C298.528 75.5671 298.103 75.1428 298.103 74.6195Z" fill="black"/>
<path d="M287.669 85.0436C287.669 84.5202 288.094 84.096 288.618 84.096C289.142 84.096 289.566 84.5202 289.566 85.0436C289.566 85.567 289.142 85.9913 288.618 85.9913C288.094 85.9913 287.669 85.567 287.669 85.0436Z" fill="black"/>
<path d="M89.4305 95.4677C89.4305 94.9444 89.8551 94.5201 90.379 94.5201C90.9028 94.5201 91.3275 94.9444 91.3275 95.4677C91.3275 95.9911 90.9028 96.4154 90.379 96.4154C89.8551 96.4154 89.4305 95.9911 89.4305 95.4677Z" fill="black"/>
<path d="M78.9969 105.892C78.9969 105.368 79.4215 104.944 79.9454 104.944C80.4692 104.944 80.8939 105.368 80.8939 105.892C80.8939 106.415 80.4692 106.84 79.9454 106.84C79.4215 106.84 78.9969 106.415 78.9969 105.892Z" fill="black"/>
<path d="M110.298 95.4677C110.298 94.9444 110.722 94.5201 111.246 94.5201C111.77 94.5201 112.195 94.9444 112.195 95.4677C112.195 95.9911 111.77 96.4154 111.246 96.4154C110.722 96.4154 110.298 95.9911 110.298 95.4677Z" fill="black"/>
<path d="M99.8641 105.892C99.8641 105.368 100.289 104.944 100.813 104.944C101.336 104.944 101.761 105.368 101.761 105.892C101.761 106.415 101.336 106.84 100.813 106.84C100.289 106.84 99.8641 106.415 99.8641 105.892Z" fill="black"/>
<path d="M131.165 95.4677C131.165 94.9444 131.59 94.5201 132.113 94.5201C132.637 94.5201 133.062 94.9444 133.062 95.4677C133.062 95.9911 132.637 96.4154 132.113 96.4154C131.59 96.4154 131.165 95.9911 131.165 95.4677Z" fill="black"/>
<path d="M120.731 105.892C120.731 105.368 121.156 104.944 121.68 104.944C122.204 104.944 122.628 105.368 122.628 105.892C122.628 106.415 122.204 106.84 121.68 106.84C121.156 106.84 120.731 106.415 120.731 105.892Z" fill="black"/>
<path d="M152.032 95.4677C152.032 94.9444 152.457 94.5201 152.981 94.5201C153.505 94.5201 153.929 94.9444 153.929 95.4677C153.929 95.9911 153.505 96.4154 152.981 96.4154C152.457 96.4154 152.032 95.9911 152.032 95.4677Z" fill="black"/>
<path d="M141.599 105.892C141.599 105.368 142.023 104.944 142.547 104.944C143.071 104.944 143.496 105.368 143.496 105.892C143.496 106.415 143.071 106.84 142.547 106.84C142.023 106.84 141.599 106.415 141.599 105.892Z" fill="black"/>
<path d="M172.899 95.4677C172.899 94.9444 173.324 94.5201 173.848 94.5201C174.372 94.5201 174.797 94.9444 174.797 95.4677C174.797 95.9911 174.372 96.4154 173.848 96.4154C173.324 96.4154 172.899 95.9911 172.899 95.4677Z" fill="black"/>
<path d="M162.466 105.892C162.466 105.368 162.891 104.944 163.414 104.944C163.938 104.944 164.363 105.368 164.363 105.892C164.363 106.415 163.938 106.84 163.414 106.84C162.891 106.84 162.466 106.415 162.466 105.892Z" fill="black"/>
<path d="M193.767 95.4677C193.767 94.9444 194.191 94.5201 194.715 94.5201C195.239 94.5201 195.664 94.9444 195.664 95.4677C195.664 95.9911 195.239 96.4154 194.715 96.4154C194.191 96.4154 193.767 95.9911 193.767 95.4677Z" fill="black"/>
<path d="M183.333 105.892C183.333 105.368 183.758 104.944 184.282 104.944C184.805 104.944 185.23 105.368 185.23 105.892C185.23 106.415 184.805 106.84 184.282 106.84C183.758 106.84 183.333 106.415 183.333 105.892Z" fill="black"/>
<path d="M214.634 95.4677C214.634 94.9444 215.059 94.5201 215.582 94.5201C216.106 94.5201 216.531 94.9444 216.531 95.4677C216.531 95.9911 216.106 96.4154 215.582 96.4154C215.059 96.4154 214.634 95.9911 214.634 95.4677Z" fill="black"/>
<path d="M204.2 105.892C204.2 105.368 204.625 104.944 205.149 104.944C205.673 104.944 206.097 105.368 206.097 105.892C206.097 106.415 205.673 106.84 205.149 106.84C204.625 106.84 204.2 106.415 204.2 105.892Z" fill="black"/>
<path d="M235.501 95.4677C235.501 94.9444 235.926 94.5201 236.45 94.5201C236.974 94.5201 237.398 94.9444 237.398 95.4677C237.398 95.9911 236.974 96.4154 236.45 96.4154C235.926 96.4154 235.501 95.9911 235.501 95.4677Z" fill="black"/>
<path d="M225.068 105.892C225.068 105.368 225.492 104.944 226.016 104.944C226.54 104.944 226.965 105.368 226.965 105.892C226.965 106.415 226.54 106.84 226.016 106.84C225.492 106.84 225.068 106.415 225.068 105.892Z" fill="black"/>
<path d="M256.368 95.4677C256.368 94.9444 256.793 94.5201 257.317 94.5201C257.841 94.5201 258.265 94.9444 258.265 95.4677C258.265 95.9911 257.841 96.4154 257.317 96.4154C256.793 96.4154 256.368 95.9911 256.368 95.4677Z" fill="black"/>
<path d="M245.935 105.892C245.935 105.368 246.36 104.944 246.883 104.944C247.407 104.944 247.832 105.368 247.832 105.892C247.832 106.415 247.407 106.84 246.883 106.84C246.36 106.84 245.935 106.415 245.935 105.892Z" fill="black"/>
<path d="M277.236 95.4677C277.236 94.9444 277.66 94.5201 278.184 94.5201C278.708 94.5201 279.133 94.9444 279.133 95.4677C279.133 95.9911 278.708 96.4154 278.184 96.4154C277.66 96.4154 277.236 95.9911 277.236 95.4677Z" fill="black"/>
<path d="M266.802 105.892C266.802 105.368 267.227 104.944 267.751 104.944C268.274 104.944 268.699 105.368 268.699 105.892C268.699 106.415 268.274 106.84 267.751 106.84C267.227 106.84 266.802 106.415 266.802 105.892Z" fill="black"/>
<path d="M298.103 95.4677C298.103 94.9444 298.528 94.5201 299.051 94.5201C299.575 94.5201 300 94.9444 300 95.4677C300 95.9911 299.575 96.4154 299.051 96.4154C298.528 96.4154 298.103 95.9911 298.103 95.4677Z" fill="black"/>
<path d="M287.669 105.892C287.669 105.368 288.094 104.944 288.618 104.944C289.142 104.944 289.566 105.368 289.566 105.892C289.566 106.415 289.142 106.84 288.618 106.84C288.094 106.84 287.669 106.415 287.669 105.892Z" fill="black"/>
<path d="M89.4305 116.316C89.4305 115.793 89.8551 115.368 90.379 115.368C90.9028 115.368 91.3275 115.793 91.3275 116.316C91.3275 116.839 90.9028 117.264 90.379 117.264C89.8551 117.264 89.4305 116.839 89.4305 116.316Z" fill="black"/>
<path d="M78.9969 126.74C78.9969 126.217 79.4215 125.792 79.9454 125.792C80.4692 125.792 80.8939 126.217 80.8939 126.74C80.8939 127.264 80.4692 127.688 79.9454 127.688C79.4215 127.688 78.9969 127.264 78.9969 126.74Z" fill="black"/>
<path d="M110.298 116.316C110.298 115.793 110.722 115.368 111.246 115.368C111.77 115.368 112.195 115.793 112.195 116.316C112.195 116.839 111.77 117.264 111.246 117.264C110.722 117.264 110.298 116.839 110.298 116.316Z" fill="black"/>
<path d="M99.8641 126.74C99.8641 126.217 100.289 125.792 100.813 125.792C101.336 125.792 101.761 126.217 101.761 126.74C101.761 127.264 101.336 127.688 100.813 127.688C100.289 127.688 99.8641 127.264 99.8641 126.74Z" fill="black"/>
<path d="M131.165 116.316C131.165 115.793 131.59 115.368 132.113 115.368C132.637 115.368 133.062 115.793 133.062 116.316C133.062 116.839 132.637 117.264 132.113 117.264C131.59 117.264 131.165 116.839 131.165 116.316Z" fill="black"/>
<path d="M120.731 126.74C120.731 126.217 121.156 125.792 121.68 125.792C122.204 125.792 122.628 126.217 122.628 126.74C122.628 127.264 122.204 127.688 121.68 127.688C121.156 127.688 120.731 127.264 120.731 126.74Z" fill="black"/>
<path d="M152.032 116.316C152.032 115.793 152.457 115.368 152.981 115.368C153.505 115.368 153.929 115.793 153.929 116.316C153.929 116.839 153.505 117.264 152.981 117.264C152.457 117.264 152.032 116.839 152.032 116.316Z" fill="black"/>
<path d="M141.599 126.74C141.599 126.217 142.023 125.792 142.547 125.792C143.071 125.792 143.496 126.217 143.496 126.74C143.496 127.264 143.071 127.688 142.547 127.688C142.023 127.688 141.599 127.264 141.599 126.74Z" fill="black"/>
<path d="M172.899 116.316C172.899 115.793 173.324 115.368 173.848 115.368C174.372 115.368 174.797 115.793 174.797 116.316C174.797 116.839 174.372 117.264 173.848 117.264C173.324 117.264 172.899 116.839 172.899 116.316Z" fill="black"/>
<path d="M162.466 126.74C162.466 126.217 162.891 125.792 163.414 125.792C163.938 125.792 164.363 126.217 164.363 126.74C164.363 127.264 163.938 127.688 163.414 127.688C162.891 127.688 162.466 127.264 162.466 126.74Z" fill="black"/>
<path d="M193.767 116.316C193.767 115.793 194.191 115.368 194.715 115.368C195.239 115.368 195.664 115.793 195.664 116.316C195.664 116.839 195.239 117.264 194.715 117.264C194.191 117.264 193.767 116.839 193.767 116.316Z" fill="black"/>
<path d="M183.333 126.74C183.333 126.217 183.758 125.792 184.282 125.792C184.805 125.792 185.23 126.217 185.23 126.74C185.23 127.264 184.805 127.688 184.282 127.688C183.758 127.688 183.333 127.264 183.333 126.74Z" fill="black"/>
<path d="M214.634 116.316C214.634 115.793 215.059 115.368 215.582 115.368C216.106 115.368 216.531 115.793 216.531 116.316C216.531 116.839 216.106 117.264 215.582 117.264C215.059 117.264 214.634 116.839 214.634 116.316Z" fill="black"/>
<path d="M204.2 126.74C204.2 126.217 204.625 125.792 205.149 125.792C205.673 125.792 206.097 126.217 206.097 126.74C206.097 127.264 205.673 127.688 205.149 127.688C204.625 127.688 204.2 127.264 204.2 126.74Z" fill="black"/>
<path d="M235.501 116.316C235.501 115.793 235.926 115.368 236.45 115.368C236.974 115.368 237.398 115.793 237.398 116.316C237.398 116.839 236.974 117.264 236.45 117.264C235.926 117.264 235.501 116.839 235.501 116.316Z" fill="black"/>
<path d="M225.068 126.74C225.068 126.217 225.492 125.792 226.016 125.792C226.54 125.792 226.965 126.217 226.965 126.74C226.965 127.264 226.54 127.688 226.016 127.688C225.492 127.688 225.068 127.264 225.068 126.74Z" fill="black"/>
<path d="M256.368 116.316C256.368 115.793 256.793 115.368 257.317 115.368C257.841 115.368 258.265 115.793 258.265 116.316C258.265 116.839 257.841 117.264 257.317 117.264C256.793 117.264 256.368 116.839 256.368 116.316Z" fill="black"/>
<path d="M245.935 126.74C245.935 126.217 246.36 125.792 246.883 125.792C247.407 125.792 247.832 126.217 247.832 126.74C247.832 127.264 247.407 127.688 246.883 127.688C246.36 127.688 245.935 127.264 245.935 126.74Z" fill="black"/>
<path d="M277.236 116.316C277.236 115.793 277.66 115.368 278.184 115.368C278.708 115.368 279.133 115.793 279.133 116.316C279.133 116.839 278.708 117.264 278.184 117.264C277.66 117.264 277.236 116.839 277.236 116.316Z" fill="black"/>
<path d="M266.802 126.74C266.802 126.217 267.227 125.792 267.751 125.792C268.274 125.792 268.699 126.217 268.699 126.74C268.699 127.264 268.274 127.688 267.751 127.688C267.227 127.688 266.802 127.264 266.802 126.74Z" fill="black"/>
<path d="M298.103 116.316C298.103 115.793 298.528 115.368 299.051 115.368C299.575 115.368 300 115.793 300 116.316C300 116.839 299.575 117.264 299.051 117.264C298.528 117.264 298.103 116.839 298.103 116.316Z" fill="black"/>
<path d="M287.669 126.74C287.669 126.217 288.094 125.792 288.618 125.792C289.142 125.792 289.566 126.217 289.566 126.74C289.566 127.264 289.142 127.688 288.618 127.688C288.094 127.688 287.669 127.264 287.669 126.74Z" fill="black"/>
<path d="M89.4305 137.164C89.4305 136.641 89.8551 136.217 90.379 136.217C90.9028 136.217 91.3275 136.641 91.3275 137.164C91.3275 137.688 90.9028 138.112 90.379 138.112C89.8551 138.112 89.4305 137.688 89.4305 137.164Z" fill="black"/>
<path d="M78.9969 147.588C78.9969 147.065 79.4215 146.641 79.9454 146.641C80.4692 146.641 80.8939 147.065 80.8939 147.588C80.8939 148.112 80.4692 148.536 79.9454 148.536C79.4215 148.536 78.9969 148.112 78.9969 147.588Z" fill="black"/>
<path d="M110.298 137.164C110.298 136.641 110.722 136.217 111.246 136.217C111.77 136.217 112.195 136.641 112.195 137.164C112.195 137.688 111.77 138.112 111.246 138.112C110.722 138.112 110.298 137.688 110.298 137.164Z" fill="black"/>
<path d="M99.8641 147.588C99.8641 147.065 100.289 146.641 100.813 146.641C101.336 146.641 101.761 147.065 101.761 147.588C101.761 148.112 101.336 148.536 100.813 148.536C100.289 148.536 99.8641 148.112 99.8641 147.588Z" fill="black"/>
<path d="M131.165 137.164C131.165 136.641 131.59 136.217 132.113 136.217C132.637 136.217 133.062 136.641 133.062 137.164C133.062 137.688 132.637 138.112 132.113 138.112C131.59 138.112 131.165 137.688 131.165 137.164Z" fill="black"/>
<path d="M120.731 147.588C120.731 147.065 121.156 146.641 121.68 146.641C122.204 146.641 122.628 147.065 122.628 147.588C122.628 148.112 122.204 148.536 121.68 148.536C121.156 148.536 120.731 148.112 120.731 147.588Z" fill="black"/>
<path d="M152.032 137.164C152.032 136.641 152.457 136.217 152.981 136.217C153.505 136.217 153.929 136.641 153.929 137.164C153.929 137.688 153.505 138.112 152.981 138.112C152.457 138.112 152.032 137.688 152.032 137.164Z" fill="black"/>
<path d="M141.599 147.588C141.599 147.065 142.023 146.641 142.547 146.641C143.071 146.641 143.496 147.065 143.496 147.588C143.496 148.112 143.071 148.536 142.547 148.536C142.023 148.536 141.599 148.112 141.599 147.588Z" fill="black"/>
<path d="M172.899 137.164C172.899 136.641 173.324 136.217 173.848 136.217C174.372 136.217 174.797 136.641 174.797 137.164C174.797 137.688 174.372 138.112 173.848 138.112C173.324 138.112 172.899 137.688 172.899 137.164Z" fill="black"/>
<path d="M162.466 147.588C162.466 147.065 162.891 146.641 163.414 146.641C163.938 146.641 164.363 147.065 164.363 147.588C164.363 148.112 163.938 148.536 163.414 148.536C162.891 148.536 162.466 148.112 162.466 147.588Z" fill="black"/>
<path d="M193.767 137.164C193.767 136.641 194.191 136.217 194.715 136.217C195.239 136.217 195.664 136.641 195.664 137.164C195.664 137.688 195.239 138.112 194.715 138.112C194.191 138.112 193.767 137.688 193.767 137.164Z" fill="black"/>
<path d="M183.333 147.588C183.333 147.065 183.758 146.641 184.282 146.641C184.805 146.641 185.23 147.065 185.23 147.588C185.23 148.112 184.805 148.536 184.282 148.536C183.758 148.536 183.333 148.112 183.333 147.588Z" fill="black"/>
<path d="M214.634 137.164C214.634 136.641 215.059 136.217 215.582 136.217C216.106 136.217 216.531 136.641 216.531 137.164C216.531 137.688 216.106 138.112 215.582 138.112C215.059 138.112 214.634 137.688 214.634 137.164Z" fill="black"/>
<path d="M204.2 147.588C204.2 147.065 204.625 146.641 205.149 146.641C205.673 146.641 206.097 147.065 206.097 147.588C206.097 148.112 205.673 148.536 205.149 148.536C204.625 148.536 204.2 148.112 204.2 147.588Z" fill="black"/>
<path d="M235.501 137.164C235.501 136.641 235.926 136.217 236.45 136.217C236.974 136.217 237.398 136.641 237.398 137.164C237.398 137.688 236.974 138.112 236.45 138.112C235.926 138.112 235.501 137.688 235.501 137.164Z" fill="black"/>
<path d="M225.068 147.588C225.068 147.065 225.492 146.641 226.016 146.641C226.54 146.641 226.965 147.065 226.965 147.588C226.965 148.112 226.54 148.536 226.016 148.536C225.492 148.536 225.068 148.112 225.068 147.588Z" fill="black"/>
<path d="M256.368 137.164C256.368 136.641 256.793 136.217 257.317 136.217C257.841 136.217 258.265 136.641 258.265 137.164C258.265 137.688 257.841 138.112 257.317 138.112C256.793 138.112 256.368 137.688 256.368 137.164Z" fill="black"/>
<path d="M245.935 147.588C245.935 147.065 246.36 146.641 246.883 146.641C247.407 146.641 247.832 147.065 247.832 147.588C247.832 148.112 247.407 148.536 246.883 148.536C246.36 148.536 245.935 148.112 245.935 147.588Z" fill="black"/>
<path d="M277.236 137.164C277.236 136.641 277.66 136.217 278.184 136.217C278.708 136.217 279.133 136.641 279.133 137.164C279.133 137.688 278.708 138.112 278.184 138.112C277.66 138.112 277.236 137.688 277.236 137.164Z" fill="black"/>
<path d="M266.802 147.588C266.802 147.065 267.227 146.641 267.751 146.641C268.274 146.641 268.699 147.065 268.699 147.588C268.699 148.112 268.274 148.536 267.751 148.536C267.227 148.536 266.802 148.112 266.802 147.588Z" fill="black"/>
<path d="M298.103 137.164C298.103 136.641 298.528 136.217 299.051 136.217C299.575 136.217 300 136.641 300 137.164C300 137.688 299.575 138.112 299.051 138.112C298.528 138.112 298.103 137.688 298.103 137.164Z" fill="black"/>
<path d="M287.669 147.588C287.669 147.065 288.094 146.641 288.618 146.641C289.142 146.641 289.566 147.065 289.566 147.588C289.566 148.112 289.142 148.536 288.618 148.536C288.094 148.536 287.669 148.112 287.669 147.588Z" fill="black"/>
<path d="M89.4305 158.013C89.4305 157.489 89.8551 157.065 90.379 157.065C90.9028 157.065 91.3275 157.489 91.3275 158.013C91.3275 158.536 90.9028 158.96 90.379 158.96C89.8551 158.96 89.4305 158.536 89.4305 158.013Z" fill="black"/>
<path d="M78.9969 168.437C78.9969 167.913 79.4215 167.489 79.9454 167.489C80.4692 167.489 80.8939 167.913 80.8939 168.437C80.8939 168.96 80.4692 169.384 79.9454 169.384C79.4215 169.384 78.9969 168.96 78.9969 168.437Z" fill="black"/>
<path d="M110.298 158.013C110.298 157.489 110.722 157.065 111.246 157.065C111.77 157.065 112.195 157.489 112.195 158.013C112.195 158.536 111.77 158.96 111.246 158.96C110.722 158.96 110.298 158.536 110.298 158.013Z" fill="black"/>
<path d="M99.8641 168.437C99.8641 167.913 100.289 167.489 100.813 167.489C101.336 167.489 101.761 167.913 101.761 168.437C101.761 168.96 101.336 169.384 100.813 169.384C100.289 169.384 99.8641 168.96 99.8641 168.437Z" fill="black"/>
<path d="M131.165 158.013C131.165 157.489 131.59 157.065 132.113 157.065C132.637 157.065 133.062 157.489 133.062 158.013C133.062 158.536 132.637 158.96 132.113 158.96C131.59 158.96 131.165 158.536 131.165 158.013Z" fill="black"/>
<path d="M120.731 168.437C120.731 167.913 121.156 167.489 121.68 167.489C122.204 167.489 122.628 167.913 122.628 168.437C122.628 168.96 122.204 169.384 121.68 169.384C121.156 169.384 120.731 168.96 120.731 168.437Z" fill="black"/>
<path d="M152.032 158.013C152.032 157.489 152.457 157.065 152.981 157.065C153.505 157.065 153.929 157.489 153.929 158.013C153.929 158.536 153.505 158.96 152.981 158.96C152.457 158.96 152.032 158.536 152.032 158.013Z" fill="black"/>
<path d="M141.599 168.437C141.599 167.913 142.023 167.489 142.547 167.489C143.071 167.489 143.496 167.913 143.496 168.437C143.496 168.96 143.071 169.384 142.547 169.384C142.023 169.384 141.599 168.96 141.599 168.437Z" fill="black"/>
<path d="M172.899 158.013C172.899 157.489 173.324 157.065 173.848 157.065C174.372 157.065 174.797 157.489 174.797 158.013C174.797 158.536 174.372 158.96 173.848 158.96C173.324 158.96 172.899 158.536 172.899 158.013Z" fill="black"/>
<path d="M162.466 168.437C162.466 167.913 162.891 167.489 163.414 167.489C163.938 167.489 164.363 167.913 164.363 168.437C164.363 168.96 163.938 169.384 163.414 169.384C162.891 169.384 162.466 168.96 162.466 168.437Z" fill="black"/>
<path d="M193.767 158.013C193.767 157.489 194.191 157.065 194.715 157.065C195.239 157.065 195.664 157.489 195.664 158.013C195.664 158.536 195.239 158.96 194.715 158.96C194.191 158.96 193.767 158.536 193.767 158.013Z" fill="black"/>
<path d="M183.333 168.437C183.333 167.913 183.758 167.489 184.282 167.489C184.805 167.489 185.23 167.913 185.23 168.437C185.23 168.96 184.805 169.384 184.282 169.384C183.758 169.384 183.333 168.96 183.333 168.437Z" fill="black"/>
<path d="M214.634 158.013C214.634 157.489 215.059 157.065 215.582 157.065C216.106 157.065 216.531 157.489 216.531 158.013C216.531 158.536 216.106 158.96 215.582 158.96C215.059 158.96 214.634 158.536 214.634 158.013Z" fill="black"/>
<path d="M204.2 168.437C204.2 167.913 204.625 167.489 205.149 167.489C205.673 167.489 206.097 167.913 206.097 168.437C206.097 168.96 205.673 169.384 205.149 169.384C204.625 169.384 204.2 168.96 204.2 168.437Z" fill="black"/>
<path d="M235.501 158.013C235.501 157.489 235.926 157.065 236.45 157.065C236.974 157.065 237.398 157.489 237.398 158.013C237.398 158.536 236.974 158.96 236.45 158.96C235.926 158.96 235.501 158.536 235.501 158.013Z" fill="black"/>
<path d="M225.068 168.437C225.068 167.913 225.492 167.489 226.016 167.489C226.54 167.489 226.965 167.913 226.965 168.437C226.965 168.96 226.54 169.384 226.016 169.384C225.492 169.384 225.068 168.96 225.068 168.437Z" fill="black"/>
<path d="M256.368 158.013C256.368 157.489 256.793 157.065 257.317 157.065C257.841 157.065 258.265 157.489 258.265 158.013C258.265 158.536 257.841 158.96 257.317 158.96C256.793 158.96 256.368 158.536 256.368 158.013Z" fill="black"/>
<path d="M245.935 168.437C245.935 167.913 246.36 167.489 246.883 167.489C247.407 167.489 247.832 167.913 247.832 168.437C247.832 168.96 247.407 169.384 246.883 169.384C246.36 169.384 245.935 168.96 245.935 168.437Z" fill="black"/>
<path d="M277.236 158.013C277.236 157.489 277.66 157.065 278.184 157.065C278.708 157.065 279.133 157.489 279.133 158.013C279.133 158.536 278.708 158.96 278.184 158.96C277.66 158.96 277.236 158.536 277.236 158.013Z" fill="black"/>
<path d="M266.802 168.437C266.802 167.913 267.227 167.489 267.751 167.489C268.274 167.489 268.699 167.913 268.699 168.437C268.699 168.96 268.274 169.384 267.751 169.384C267.227 169.384 266.802 168.96 266.802 168.437Z" fill="black"/>
<path d="M298.103 158.013C298.103 157.489 298.528 157.065 299.051 157.065C299.575 157.065 300 157.489 300 158.013C300 158.536 299.575 158.96 299.051 158.96C298.528 158.96 298.103 158.536 298.103 158.013Z" fill="black"/>
<path d="M287.669 168.437C287.669 167.913 288.094 167.489 288.618 167.489C289.142 167.489 289.566 167.913 289.566 168.437C289.566 168.96 289.142 169.384 288.618 169.384C288.094 169.384 287.669 168.96 287.669 168.437Z" fill="black"/>
<path d="M89.4305 178.861C89.4305 178.337 89.8551 177.913 90.379 177.913C90.9028 177.913 91.3275 178.337 91.3275 178.861C91.3275 179.384 90.9028 179.808 90.379 179.808C89.8551 179.808 89.4305 179.384 89.4305 178.861Z" fill="black"/>
<path d="M78.9969 189.285C78.9969 188.762 79.4215 188.337 79.9454 188.337C80.4692 188.337 80.8939 188.762 80.8939 189.285C80.8939 189.808 80.4692 190.233 79.9454 190.233C79.4215 190.233 78.9969 189.808 78.9969 189.285Z" fill="black"/>
<path d="M110.298 178.861C110.298 178.337 110.722 177.913 111.246 177.913C111.77 177.913 112.195 178.337 112.195 178.861C112.195 179.384 111.77 179.808 111.246 179.808C110.722 179.808 110.298 179.384 110.298 178.861Z" fill="black"/>
<path d="M99.8641 189.285C99.8641 188.762 100.289 188.337 100.813 188.337C101.336 188.337 101.761 188.762 101.761 189.285C101.761 189.808 101.336 190.233 100.813 190.233C100.289 190.233 99.8641 189.808 99.8641 189.285Z" fill="black"/>
<path d="M131.165 178.861C131.165 178.337 131.59 177.913 132.113 177.913C132.637 177.913 133.062 178.337 133.062 178.861C133.062 179.384 132.637 179.808 132.113 179.808C131.59 179.808 131.165 179.384 131.165 178.861Z" fill="black"/>
<path d="M120.731 189.285C120.731 188.762 121.156 188.337 121.68 188.337C122.204 188.337 122.628 188.762 122.628 189.285C122.628 189.808 122.204 190.233 121.68 190.233C121.156 190.233 120.731 189.808 120.731 189.285Z" fill="black"/>
<path d="M152.032 178.861C152.032 178.337 152.457 177.913 152.981 177.913C153.505 177.913 153.929 178.337 153.929 178.861C153.929 179.384 153.505 179.808 152.981 179.808C152.457 179.808 152.032 179.384 152.032 178.861Z" fill="black"/>
<path d="M141.599 189.285C141.599 188.762 142.023 188.337 142.547 188.337C143.071 188.337 143.496 188.762 143.496 189.285C143.496 189.808 143.071 190.233 142.547 190.233C142.023 190.233 141.599 189.808 141.599 189.285Z" fill="black"/>
<path d="M172.899 178.861C172.899 178.337 173.324 177.913 173.848 177.913C174.372 177.913 174.797 178.337 174.797 178.861C174.797 179.384 174.372 179.808 173.848 179.808C173.324 179.808 172.899 179.384 172.899 178.861Z" fill="black"/>
<path d="M162.466 189.285C162.466 188.762 162.891 188.337 163.414 188.337C163.938 188.337 164.363 188.762 164.363 189.285C164.363 189.808 163.938 190.233 163.414 190.233C162.891 190.233 162.466 189.808 162.466 189.285Z" fill="black"/>
<path d="M193.767 178.861C193.767 178.337 194.191 177.913 194.715 177.913C195.239 177.913 195.664 178.337 195.664 178.861C195.664 179.384 195.239 179.808 194.715 179.808C194.191 179.808 193.767 179.384 193.767 178.861Z" fill="black"/>
<path d="M183.333 189.285C183.333 188.762 183.758 188.337 184.282 188.337C184.805 188.337 185.23 188.762 185.23 189.285C185.23 189.808 184.805 190.233 184.282 190.233C183.758 190.233 183.333 189.808 183.333 189.285Z" fill="black"/>
<path d="M214.634 178.861C214.634 178.337 215.059 177.913 215.582 177.913C216.106 177.913 216.531 178.337 216.531 178.861C216.531 179.384 216.106 179.808 215.582 179.808C215.059 179.808 214.634 179.384 214.634 178.861Z" fill="black"/>
<path d="M204.2 189.285C204.2 188.762 204.625 188.337 205.149 188.337C205.673 188.337 206.097 188.762 206.097 189.285C206.097 189.808 205.673 190.233 205.149 190.233C204.625 190.233 204.2 189.808 204.2 189.285Z" fill="black"/>
<path d="M235.501 178.861C235.501 178.337 235.926 177.913 236.45 177.913C236.974 177.913 237.398 178.337 237.398 178.861C237.398 179.384 236.974 179.808 236.45 179.808C235.926 179.808 235.501 179.384 235.501 178.861Z" fill="black"/>
<path d="M225.068 189.285C225.068 188.762 225.492 188.337 226.016 188.337C226.54 188.337 226.965 188.762 226.965 189.285C226.965 189.808 226.54 190.233 226.016 190.233C225.492 190.233 225.068 189.808 225.068 189.285Z" fill="black"/>
<path d="M256.368 178.861C256.368 178.337 256.793 177.913 257.317 177.913C257.841 177.913 258.265 178.337 258.265 178.861C258.265 179.384 257.841 179.808 257.317 179.808C256.793 179.808 256.368 179.384 256.368 178.861Z" fill="black"/>
<path d="M245.935 189.285C245.935 188.762 246.36 188.337 246.883 188.337C247.407 188.337 247.832 188.762 247.832 189.285C247.832 189.808 247.407 190.233 246.883 190.233C246.36 190.233 245.935 189.808 245.935 189.285Z" fill="black"/>
<path d="M277.236 178.861C277.236 178.337 277.66 177.913 278.184 177.913C278.708 177.913 279.133 178.337 279.133 178.861C279.133 179.384 278.708 179.808 278.184 179.808C277.66 179.808 277.236 179.384 277.236 178.861Z" fill="black"/>
<path d="M266.802 189.285C266.802 188.762 267.227 188.337 267.751 188.337C268.274 188.337 268.699 188.762 268.699 189.285C268.699 189.808 268.274 190.233 267.751 190.233C267.227 190.233 266.802 189.808 266.802 189.285Z" fill="black"/>
<path d="M298.103 178.861C298.103 178.337 298.528 177.913 299.051 177.913C299.575 177.913 300 178.337 300 178.861C300 179.384 299.575 179.808 299.051 179.808C298.528 179.808 298.103 179.384 298.103 178.861Z" fill="black"/>
<path d="M287.669 189.285C287.669 188.762 288.094 188.337 288.618 188.337C289.142 188.337 289.566 188.762 289.566 189.285C289.566 189.808 289.142 190.233 288.618 190.233C288.094 190.233 287.669 189.808 287.669 189.285Z" fill="black"/>
<path d="M89.4305 199.709C89.4305 199.186 89.8551 198.761 90.379 198.761C90.9028 198.761 91.3275 199.186 91.3275 199.709C91.3275 200.232 90.9028 200.657 90.379 200.657C89.8551 200.657 89.4305 200.232 89.4305 199.709Z" fill="black"/>
<path d="M78.9969 210.133C78.9969 209.61 79.4215 209.186 79.9454 209.186C80.4692 209.186 80.8939 209.61 80.8939 210.133C80.8939 210.657 80.4692 211.081 79.9454 211.081C79.4215 211.081 78.9969 210.657 78.9969 210.133Z" fill="black"/>
<path d="M110.298 199.709C110.298 199.186 110.722 198.761 111.246 198.761C111.77 198.761 112.195 199.186 112.195 199.709C112.195 200.232 111.77 200.657 111.246 200.657C110.722 200.657 110.298 200.232 110.298 199.709Z" fill="black"/>
<path d="M99.8641 210.133C99.8641 209.61 100.289 209.186 100.813 209.186C101.336 209.186 101.761 209.61 101.761 210.133C101.761 210.657 101.336 211.081 100.813 211.081C100.289 211.081 99.8641 210.657 99.8641 210.133Z" fill="black"/>
<path d="M131.165 199.709C131.165 199.186 131.59 198.761 132.113 198.761C132.637 198.761 133.062 199.186 133.062 199.709C133.062 200.232 132.637 200.657 132.113 200.657C131.59 200.657 131.165 200.232 131.165 199.709Z" fill="black"/>
<path d="M120.731 210.133C120.731 209.61 121.156 209.186 121.68 209.186C122.204 209.186 122.628 209.61 122.628 210.133C122.628 210.657 122.204 211.081 121.68 211.081C121.156 211.081 120.731 210.657 120.731 210.133Z" fill="black"/>
<path d="M152.032 199.709C152.032 199.186 152.457 198.761 152.981 198.761C153.505 198.761 153.929 199.186 153.929 199.709C153.929 200.232 153.505 200.657 152.981 200.657C152.457 200.657 152.032 200.232 152.032 199.709Z" fill="black"/>
<path d="M141.599 210.133C141.599 209.61 142.023 209.186 142.547 209.186C143.071 209.186 143.496 209.61 143.496 210.133C143.496 210.657 143.071 211.081 142.547 211.081C142.023 211.081 141.599 210.657 141.599 210.133Z" fill="black"/>
<path d="M172.899 199.709C172.899 199.186 173.324 198.761 173.848 198.761C174.372 198.761 174.797 199.186 174.797 199.709C174.797 200.232 174.372 200.657 173.848 200.657C173.324 200.657 172.899 200.232 172.899 199.709Z" fill="black"/>
<path d="M162.466 210.133C162.466 209.61 162.891 209.186 163.414 209.186C163.938 209.186 164.363 209.61 164.363 210.133C164.363 210.657 163.938 211.081 163.414 211.081C162.891 211.081 162.466 210.657 162.466 210.133Z" fill="black"/>
<path d="M193.767 199.709C193.767 199.186 194.191 198.761 194.715 198.761C195.239 198.761 195.664 199.186 195.664 199.709C195.664 200.232 195.239 200.657 194.715 200.657C194.191 200.657 193.767 200.232 193.767 199.709Z" fill="black"/>
<path d="M183.333 210.133C183.333 209.61 183.758 209.186 184.282 209.186C184.805 209.186 185.23 209.61 185.23 210.133C185.23 210.657 184.805 211.081 184.282 211.081C183.758 211.081 183.333 210.657 183.333 210.133Z" fill="black"/>
<path d="M214.634 199.709C214.634 199.186 215.059 198.761 215.582 198.761C216.106 198.761 216.531 199.186 216.531 199.709C216.531 200.232 216.106 200.657 215.582 200.657C215.059 200.657 214.634 200.232 214.634 199.709Z" fill="black"/>
<path d="M204.2 210.133C204.2 209.61 204.625 209.186 205.149 209.186C205.673 209.186 206.097 209.61 206.097 210.133C206.097 210.657 205.673 211.081 205.149 211.081C204.625 211.081 204.2 210.657 204.2 210.133Z" fill="black"/>
<path d="M235.501 199.709C235.501 199.186 235.926 198.761 236.45 198.761C236.974 198.761 237.398 199.186 237.398 199.709C237.398 200.232 236.974 200.657 236.45 200.657C235.926 200.657 235.501 200.232 235.501 199.709Z" fill="black"/>
<path d="M225.068 210.133C225.068 209.61 225.492 209.186 226.016 209.186C226.54 209.186 226.965 209.61 226.965 210.133C226.965 210.657 226.54 211.081 226.016 211.081C225.492 211.081 225.068 210.657 225.068 210.133Z" fill="black"/>
<path d="M256.368 199.709C256.368 199.186 256.793 198.761 257.317 198.761C257.841 198.761 258.265 199.186 258.265 199.709C258.265 200.232 257.841 200.657 257.317 200.657C256.793 200.657 256.368 200.232 256.368 199.709Z" fill="black"/>
<path d="M245.935 210.133C245.935 209.61 246.36 209.186 246.883 209.186C247.407 209.186 247.832 209.61 247.832 210.133C247.832 210.657 247.407 211.081 246.883 211.081C246.36 211.081 245.935 210.657 245.935 210.133Z" fill="black"/>
<path d="M277.236 199.709C277.236 199.186 277.66 198.761 278.184 198.761C278.708 198.761 279.133 199.186 279.133 199.709C279.133 200.232 278.708 200.657 278.184 200.657C277.66 200.657 277.236 200.232 277.236 199.709Z" fill="black"/>
<path d="M266.802 210.133C266.802 209.61 267.227 209.186 267.751 209.186C268.274 209.186 268.699 209.61 268.699 210.133C268.699 210.657 268.274 211.081 267.751 211.081C267.227 211.081 266.802 210.657 266.802 210.133Z" fill="black"/>
<path d="M298.103 199.709C298.103 199.186 298.528 198.761 299.051 198.761C299.575 198.761 300 199.186 300 199.709C300 200.232 299.575 200.657 299.051 200.657C298.528 200.657 298.103 200.232 298.103 199.709Z" fill="black"/>
<path d="M287.669 210.133C287.669 209.61 288.094 209.186 288.618 209.186C289.142 209.186 289.566 209.61 289.566 210.133C289.566 210.657 289.142 211.081 288.618 211.081C288.094 211.081 287.669 210.657 287.669 210.133Z" fill="black"/>
</mask>
<g mask="url(#mask0)">
<circle cx="168.862" cy="108.575" r="78.0564" fill="#DCB1DC"/>
</g>
<defs>
<clipPath id="clip0">
<rect width="156.017" height="156.017" fill="white" transform="translate(0 29.0295)"/>
</clipPath>
</defs>
</svg>
