<?xml version="1.0" encoding="utf-8"?>
<!-- Generator: Adobe Illustrator 24.1.3, SVG Export Plug-In . SVG Version: 6.00 Build 0)  -->
<svg version="1.1" id="Слой_1" xmlns="http://www.w3.org/2000/svg" xmlns:xlink="http://www.w3.org/1999/xlink" x="0px" y="0px"
	 width="503px" height="500px" viewBox="0 0 503 500" enable-background="new 0 0 503 500" xml:space="preserve">
<linearGradient id="SVGID_1_" gradientUnits="userSpaceOnUse" x1="-0.3407" y1="252.0217" x2="502.6321" y2="252.0217" gradientTransform="matrix(1 0 0 -1 0 502)">
	<stop  offset="0" style="stop-color:#EF4223"/>
	<stop  offset="1.000000e-04" style="stop-color:#EF4323"/>
	<stop  offset="1" style="stop-color:#F7931E"/>
</linearGradient>
<path fill="url(#SVGID_1_)" d="M209.2,110.1c1.6-0.5,2.6-1.6,3.1-2.6l21-47.8l29.4,43.1c1,1,2.1,2.1,3.7,2.1s2.6-0.5,4.2-1.6
	L308.3,67l10.5,51.4c0.5,1.6,1,2.6,2.6,3.1c1,0.5,2.6,1,4.2,0.5l49.3-19.2l-10,51.4c0,1.6,0,3.1,1,4.2c1,1,2.1,1.6,3.7,2.1L422,161
	l-29.4,43.6c-1,1-1,2.6-0.5,4.2c0.5,1.6,1.6,2.6,2.6,3.1l48.2,20.8l-44,29.1c-1,1-2.1,2.1-2.1,3.6s0.5,2.6,1.6,3.6l36.7,37.4
	l-51.9,10.4c-1.6,0.5-2.6,1-3.1,2.6c-0.5,1-0.5,2.6,0,4.2l19.4,48.8l-51.9-9.9c-1.6,0-3.1,0-4.2,1c-1,1-1.6,2.1-2.1,3.6l-1,52.5
	l-43-29.1c-1-1-2.6-1-4.2-0.5c-1.6,0.5-2.6,1.6-3.1,2.6l-21,47.8l-29.4-43.6c-1-1-2.1-2.1-3.7-2.1s-2.6,0.5-4.2,1.6L194,432.6
	l-10.5-51.4c-0.5-1.6-1-2.6-2.6-3.1c-1-0.5-2.6-0.5-4.2,0l-49.3,19.2l10-51.4c0.5-1.6,0-3.1-1-4.2c-1-1-2.1-1.6-3.7-1.6l-52.9-1
	l29.4-43.6c0.5-1,1-2.6,0.5-4.2c-0.5-1.6-1.6-2.6-2.6-3.1l-48.2-20.8l44-29.1c1-1,2.1-2.1,2.1-3.6c0-1.6-0.5-2.6-1.6-4.2l-36.7-37.4
	l51.9-10.4c1.6-0.5,2.6-1,3.1-2.6c0.5-1,1-2.6,0-4.2l-19.4-48.8l51.9,9.9c1.6,0,3.1,0,4.2-1c1-1,1.6-2.1,1.6-3.6l1-51.9l44,29.1
	c1,0.5,1.6,1,2.6,1C208.2,110.6,208.7,110.1,209.2,110.1z M250.1,0c-1.6,0.5-2.6,1.6-3.1,2.6l-15.7,36.4L208.7,6.2
	c-1.6-2.1-4.7-2.6-6.8-1s-2.6,4.7-1.6,6.8L226,49.8l-21,48.3L161,69l0.5-45.7c0-2.6-2.1-4.7-4.7-5.2c-1,0-2.1,0.5-3.1,1
	c-1,1-1.6,2.1-1.6,3.6l-0.5,39.5L118,40.5c-2.1-1.6-5.2-1-6.8,1.6c-1.6,2.1-1,5.2,1.6,6.8l38.8,25.4l-1,53l-52.4-9.9L81.3,74.8
	c-1-2.6-3.7-3.6-6.3-2.6c-1,0.5-2.1,1-2.6,2.1c-0.5,1-1,2.6,0,4.2l14.7,36.9l-39.3-7.8c-2.6-0.5-5.2,1-5.8,3.6
	c-0.5,2.6,1,5.2,3.7,5.7l45.6,8.8l19.4,48.8l-51.9,10.4l-32-32.7c-2.1-2.1-5.2-2.1-6.8,0c-1,1-1.6,2.1-1.6,3.1
	c0,1.6,0.5,2.6,1.6,4.2L47.8,188l-39.3,7.8c-2.6,0.5-4.2,3.1-3.7,5.7c0.5,2.6,3.1,4.2,5.8,3.6l45.1-9.3l37.2,37.9l-44,29.6
	L6.3,245.1c-2.6-1-5.2,0-6.3,2.6c-0.5,1-0.5,2.1,0,3.1c0.5,1.6,1.6,2.6,2.6,3.1l36.7,15.6l-33,22.3c-3.7,1.6-4.2,4.2-2.6,6.8
	c1.6,2.1,4.7,2.6,6.8,1.6l38.3-25.4l48.8,20.8l-29.4,44.1l-46.1-0.5c-2.6,0-4.7,2.1-5.2,4.7c0,1,0.5,2.1,1,3.1c1,0.5,2.6,1,4.2,1
	l39.8,0.5l-22,33.2c-1.6,2.1-1,5.2,1.6,6.8c2.1,1.6,5.2,1,6.8-1.6L74,348.5l53.5,1l-10,51.9l-43,16.6c-2.6,1-3.7,3.6-2.6,6.2
	c1,2.6,3.7,3.6,6.3,2.6l37.2-14.5l-8.4,39.5c-0.5,2.6,1,5.2,3.7,5.7c2.6,0.5,5.2-1,5.8-3.6l8.9-45.2l49.3-19.2l10.5,51.4l-33,31.7
	c-2.1,2.1-2.1,5.2,0,6.8c2.1,2.1,5.2,2.1,6.8,0l28.8-27.5l7.9,39c0.5,2.6,3.1,4.2,5.8,3.6c2.6-0.5,4.2-3.1,3.7-5.7l-9.4-45.2
	l38.3-36.9l29.9,43.6l-17.8,43.1c-1,2.6,0,5.2,2.6,6.2c2.6,1,5.2,0,6.3-2.6l15.7-36.4l22.5,32.7c1.6,2.1,4.7,2.6,6.8,1.6
	c2.1-1.6,2.6-4.7,1.6-6.8l-25.7-37.9l21-48.3l44.6,29.1l-0.5,45.7c0,2.6,2.1,4.7,4.7,5.2c2.6,0,4.7-2.1,5.2-4.7l0.5-39.5l33.5,21.8
	c2.1,1.6,5.2,1,6.8-1.6c1.6-2.1,1-5.2-1.6-6.8l-39.3-25.4l1-53l52.4,9.9l16.8,42.6c1,2.6,3.7,3.6,6.3,2.6c2.6-1,3.7-3.6,2.6-6.2
	l-14.7-36.9l39.3,7.8c2.6,0.5,5.2-1,5.8-3.6c0.5-2.6-1-5.2-3.7-5.7l-45.6-8.8l-19.4-48.8l51.9-10.4l32,32.7c2.1,2.1,5.2,2.1,6.8,0
	c2.1-2.1,2.1-5.2,0-6.8l-27.8-28.6l39.3-7.8c2.6-0.5,4.2-3.1,3.7-5.7c-0.5-2.6-3.1-4.2-5.8-3.6l-45.1,9.3l-37.2-37.9l44-29.6
	l42.5,18.2c2.6,1,5.2,0,6.3-2.6c1-2.6,0-5.2-2.6-6.2l-36.7-15.6l33-22.3c2.1-1.6,2.6-4.7,1.6-6.8c-1.6-2.1-4.7-2.6-6.8-1.6
	l-38.3,25.4l-48.8-20.8l29.9-44.1l46.1,0.5c2.6,0,4.7-2.1,5.2-4.7c0-2.6-2.1-4.7-4.7-5.2l-39.8-0.5l22-33.2c1.6-2.1,1-5.2-1.6-6.8
	c-2.1-1.6-5.2-1-6.8,1.6l-25.7,38.4l-53.5-1l10-51.9l43-16.6c2.6-1,3.7-3.6,2.6-6.2c-0.5-1-1-2.1-2.1-2.6c-1-0.5-2.6-1-4.2,0
	l-37.2,14.5l7.9-39c0.5-2.6-1-5.2-3.7-5.7c-2.6-0.5-5.2,1-5.8,3.6l-8.9,45.2l-49.3,19.2l-10.5-51.9l33-31.2c2.1-2.1,2.1-5.2,0-6.8
	c-1-1-2.1-1.6-3.1-1.6c-1.6,0-2.6,0.5-3.7,1.6L314,48.3l-7.9-39c-0.5-2.6-3.1-4.2-5.8-3.6s-4.2,3.1-3.7,5.7l9.4,44.7l-38.3,36.9
	L238,49.3l18.3-42.1c1-2.6,0-5.2-2.6-6.2c-0.5-1-1.6-1-2.1-1C251.1,0,250.6,0,250.1,0z"/>
</svg>
