<svg width="374" height="97" viewBox="0 0 374 97" fill="none" xmlns="http://www.w3.org/2000/svg">
<g clip-path="url(#clip0)">
<path d="M40.2 21.2C40.5 21.1 40.7 20.9 40.8 20.7L44.8 11.5L50.4 19.8C50.6 20 50.8 20.2 51.1 20.2C51.4 20.2 51.6 20.1 51.9 19.9L59.1 12.9L61.1 22.8C61.2 23.1 61.3 23.3 61.6 23.4C61.8 23.5 62.1 23.6 62.4 23.5L71.8 19.8L69.9 29.7C69.9 30 69.9 30.3 70.1 30.5C70.3 30.7 70.5 30.8 70.8 30.9L80.8 31L75.2 39.4C75 39.6 75 39.9 75.1 40.2C75.2 40.5 75.4 40.7 75.6 40.8L84.8 44.8L76.4 50.4C76.2 50.6 76 50.8 76 51.1C76 51.4 76.1 51.6 76.3 51.8L83.3 59L73.4 61C73.1 61.1 72.9 61.2 72.8 61.5C72.7 61.7 72.7 62 72.8 62.3L76.5 71.7L66.6 69.8C66.3 69.8 66 69.8 65.8 70C65.6 70.2 65.5 70.4 65.4 70.7L65.2 80.8L57 75.2C56.8 75 56.5 75 56.2 75.1C55.9 75.2 55.7 75.4 55.6 75.6L51.6 84.8L46 76.4C45.8 76.2 45.6 76 45.3 76C45 76 44.8 76.1 44.5 76.3L37.3 83.3L35.3 73.4C35.2 73.1 35.1 72.9 34.8 72.8C34.6 72.7 34.3 72.7 34 72.8L24.6 76.5L26.5 66.6C26.6 66.3 26.5 66 26.3 65.8C26.1 65.6 25.9 65.5 25.6 65.5L15.5 65.3L21.1 56.9C21.2 56.7 21.3 56.4 21.2 56.1C21.1 55.8 20.9 55.6 20.7 55.5L11.5 51.5L19.9 45.9C20.1 45.7 20.3 45.5 20.3 45.2C20.3 44.9 20.2 44.7 20 44.4L13 37.2L22.9 35.2C23.2 35.1 23.4 35 23.5 34.7C23.6 34.5 23.7 34.2 23.5 33.9L19.8 24.5L29.7 26.4C30 26.4 30.3 26.4 30.5 26.2C30.7 26 30.8 25.8 30.8 25.5L31 15.5L39.4 21.1C39.6 21.2 39.7 21.3 39.9 21.3C40 21.3 40.1 21.2 40.2 21.2ZM48 0C47.7 0.1 47.5 0.3 47.4 0.5L44.4 7.5L40.1 1.2C39.8 0.8 39.2 0.7 38.8 1C38.4 1.3 38.3 1.9 38.5 2.3L43.4 9.6L39.4 18.9L31 13.3L31.1 4.5C31.1 4 30.7 3.6 30.2 3.5C30 3.5 29.8 3.6 29.6 3.7C29.4 3.9 29.3 4.1 29.3 4.4L29.2 12L22.8 7.8C22.4 7.5 21.8 7.6 21.5 8.1C21.2 8.5 21.3 9.1 21.8 9.4L29.2 14.3L29 24.5L19 22.6L15.8 14.4C15.6 13.9 15.1 13.7 14.6 13.9C14.4 14 14.2 14.1 14.1 14.3C14 14.5 13.9 14.8 14.1 15.1L16.9 22.2L9.39997 20.7C8.89997 20.6 8.39998 20.9 8.29998 21.4C8.19998 21.9 8.49998 22.4 8.99998 22.5L17.7 24.2L21.4 33.6L11.5 35.6L5.39998 29.3C4.99998 28.9 4.39998 28.9 4.09998 29.3C3.89998 29.5 3.79998 29.7 3.79998 29.9C3.79998 30.2 3.89998 30.4 4.09998 30.7L9.39997 36.2L1.89998 37.7C1.39998 37.8 1.09998 38.3 1.19998 38.8C1.29998 39.3 1.79998 39.6 2.29998 39.5L10.9 37.7L18 45L9.59998 50.7L1.49998 47.2C0.999976 47 0.499976 47.2 0.299976 47.7C0.199976 47.9 0.199976 48.1 0.299976 48.3C0.399976 48.6 0.599976 48.8 0.799976 48.9L7.79998 51.9L1.49998 56.2C0.799976 56.5 0.699976 57 0.999976 57.5C1.29998 57.9 1.89998 58 2.29998 57.8L9.59998 52.9L18.9 56.9L13.3 65.4L4.49998 65.3C3.99998 65.3 3.59998 65.7 3.49998 66.2C3.49998 66.4 3.59998 66.6 3.69998 66.8C3.89998 66.9 4.19998 67 4.49998 67L12.1 67.1L7.89998 73.5C7.59998 73.9 7.69998 74.5 8.19998 74.8C8.59998 75.1 9.19998 75 9.49998 74.5L14.4 67.1L24.6 67.3L22.7 77.3L14.5 80.5C14 80.7 13.8 81.2 14 81.7C14.2 82.2 14.7 82.4 15.2 82.2L22.3 79.4L20.7 87C20.6 87.5 20.9 88 21.4 88.1C21.9 88.2 22.4 87.9 22.5 87.4L24.2 78.7L33.6 75L35.6 84.9L29.3 91C28.9 91.4 28.9 92 29.3 92.3C29.7 92.7 30.3 92.7 30.6 92.3L36.1 87L37.6 94.5C37.7 95 38.2 95.3 38.7 95.2C39.2 95.1 39.5 94.6 39.4 94.1L37.6 85.4L44.9 78.3L50.6 86.7L47.2 95C47 95.5 47.2 96 47.7 96.2C48.2 96.4 48.7 96.2 48.9 95.7L51.9 88.7L56.2 95C56.5 95.4 57.1 95.5 57.5 95.3C57.9 95 58 94.4 57.8 94L52.9 86.7L56.9 77.4L65.4 83L65.3 91.8C65.3 92.3 65.7 92.7 66.2 92.8C66.7 92.8 67.1 92.4 67.2 91.9L67.3 84.3L73.7 88.5C74.1 88.8 74.7 88.7 75 88.2C75.3 87.8 75.2 87.2 74.7 86.9L67.2 82L67.4 71.8L77.4 73.7L80.6 81.9C80.8 82.4 81.3 82.6 81.8 82.4C82.3 82.2 82.5 81.7 82.3 81.2L79.5 74.1L87 75.6C87.5 75.7 88 75.4 88.1 74.9C88.2 74.4 87.9 73.9 87.4 73.8L78.7 72.1L75 62.7L84.9 60.7L91 67C91.4 67.4 92 67.4 92.3 67C92.7 66.6 92.7 66 92.3 65.7L87 60.2L94.5 58.7C95 58.6 95.3 58.1 95.2 57.6C95.1 57.1 94.6 56.8 94.1 56.9L85.5 58.7L78.4 51.4L86.8 45.7L94.9 49.2C95.4 49.4 95.9 49.2 96.1 48.7C96.3 48.2 96.1 47.7 95.6 47.5L88.6 44.5L94.9 40.2C95.3 39.9 95.4 39.3 95.2 38.9C94.9 38.5 94.3 38.4 93.9 38.6L86.6 43.5L77.3 39.5L83 31L91.8 31.1C92.3 31.1 92.7 30.7 92.8 30.2C92.8 29.7 92.4 29.3 91.9 29.2L84.3 29.1L88.5 22.7C88.8 22.3 88.7 21.7 88.2 21.4C87.8 21.1 87.2 21.2 86.9 21.7L82 29.1L71.8 28.9L73.7 18.9L81.9 15.7C82.4 15.5 82.6 15 82.4 14.5C82.3 14.3 82.2 14.1 82 14C81.8 13.9 81.5 13.8 81.2 14L74.1 16.8L75.6 9.3C75.7 8.8 75.4 8.3 74.9 8.2C74.4 8.1 73.9 8.4 73.8 8.9L72.1 17.6L62.7 21.3L60.7 11.3L67 5.3C67.4 4.9 67.4 4.3 67 4C66.8 3.8 66.6 3.7 66.4 3.7C66.1 3.7 65.9 3.8 65.7 4L60.2 9.3L58.7 1.8C58.6 1.3 58.1 1 57.6 1.1C57.1 1.2 56.8 1.7 56.9 2.2L58.7 10.8L51.4 17.9L45.7 9.5L49.2 1.4C49.4 0.9 49.2 0.4 48.7 0.2C48.6 0 48.4 0 48.3 0C48.2 0 48.1 0 48 0Z" fill="url(#paint0_linear)"/>
<path d="M194.3 29.9001C192.6 29.9001 191.3 31.3001 191.3 32.9001V51.8001C191.1 60.0001 186.3 63.9001 179.7 64.1001C173.1 63.9001 168.3 60.0001 168.1 51.8001V32.9001C168.1 31.2001 166.7 29.9001 165.1 29.9001C163.4 29.9001 162.1 31.3001 162.1 32.9001V51.8001C162.1 57.3001 164 62.0001 167.3 65.2001C170.6 68.4001 175 70.1001 179.8 70.1001C184.5 70.1001 189 68.4001 192.2 65.2001C195.5 62.0001 197.4 57.3001 197.4 51.8001V32.9001C197.4 31.2001 196 29.9001 194.3 29.9001ZM241.6 29.9001C239.9 29.9001 238.6 31.3001 238.6 32.9001V66.4001C238.6 68.1001 240 69.4001 241.6 69.4001C243.3 69.4001 244.6 68.0001 244.6 66.4001V32.9001C244.6 31.2001 243.2 29.9001 241.6 29.9001ZM271.3 29.1001C266.6 29.1001 262.1 30.8001 258.8 34.0001C255.5 37.2001 253.6 41.9001 253.6 47.4001V66.3001C253.6 68.0001 255 69.3001 256.6 69.3001C258.3 69.3001 259.6 67.9001 259.6 66.3001V47.5001C259.7 39.3001 264.5 35.4001 271.2 35.2001C277.8 35.4001 282.6 39.3001 282.8 47.5001V66.4001C282.8 68.1001 284.2 69.4001 285.8 69.4001C287.5 69.4001 288.8 68.0001 288.8 66.4001V47.4001C288.8 41.9001 286.9 37.2001 283.6 34.0001C280.5 30.8001 276 29.1001 271.3 29.1001ZM227 29.3001C226.4 29.2001 225.1 29.1001 224.2 29.1001C219.9 29.1001 215.8 30.5001 212.6 33.2001V32.8001C212.6 31.1001 211.2 29.8001 209.6 29.8001C207.9 29.8001 206.6 31.2001 206.6 32.8001V66.3001C206.6 67.7001 207.6 68.9001 208.9 69.2001C209.1 69.3001 209.4 69.3001 209.6 69.3001C209.7 69.3001 209.8 69.3001 209.9 69.3001C211 69.2001 212 68.5001 212.4 67.5001C212.6 67.1001 212.6 66.7001 212.6 66.3001V47.5001C212.7 39.3001 217.5 35.4001 224.2 35.2001C224.9 35.2001 225.5 35.3001 226.2 35.4001C226.3 35.4001 226.5 35.4001 226.6 35.5001C226.7 35.5001 226.8 35.5001 226.9 35.5001C228.6 35.5001 230 34.1001 230 32.4001C229.9 30.1001 227.6 29.5001 227 29.3001ZM327.3 30.8001C326.1 29.6001 324.2 29.6001 323 30.7001L304 46.9001V47.0001V32.9001C304 31.2001 302.6 29.9001 301 29.9001C299.3 29.9001 298 31.3001 298 32.9001V66.4001C298 68.1001 299.4 69.4001 301 69.4001C302.7 69.4001 304 68.0001 304 66.4001V52.3001L323 68.5001C324.2 69.7001 326.1 69.6001 327.3 68.4001C328.5 67.2001 328.5 65.3001 327.3 64.1001L310 49.6001L327.3 35.0001C328.5 33.9001 328.5 32.0001 327.3 30.8001ZM353.1 29.1001C341.8 29.1001 332.6 38.3001 332.6 49.6001C332.6 60.9001 341.8 70.1001 353.1 70.1001C364.4 70.1001 373.6 60.9001 373.6 49.6001C373.6 38.3001 364.4 29.1001 353.1 29.1001ZM353.1 64.1001C345.1 64.1001 338.6 57.6001 338.6 49.6001C338.6 41.6001 345.1 35.1001 353.1 35.1001C361.1 35.1001 367.5 41.6001 367.6 49.6001C367.5 57.6001 361 64.1001 353.1 64.1001ZM149.9 29.9001C148.2 29.9001 146.9 31.3001 146.9 32.9001V35.1001C143.2 31.4001 138.1 29.1001 132.4 29.1001C121.1 29.1001 111.9 38.3001 111.9 49.6001C111.9 60.9001 121.1 70.1001 132.4 70.1001C138 70.1001 143.1 67.8001 146.9 64.1001V66.3001C146.9 68.0001 148.3 69.3001 149.9 69.3001C151.6 69.3001 152.9 67.9001 152.9 66.3001V32.9001C152.9 31.2001 151.6 29.9001 149.9 29.9001ZM132.4 64.1001C124.4 64.1001 117.9 57.6001 117.9 49.6001C117.9 41.6001 124.4 35.1001 132.4 35.1001C140.4 35.1001 146.8 41.6001 146.9 49.6001C146.9 57.6001 140.4 64.1001 132.4 64.1001Z" fill="#754C29"/>
</g>
<defs>
<linearGradient id="paint0_linear" x1="0.224976" y1="48.1383" x2="96.1766" y2="48.1383" gradientUnits="userSpaceOnUse">
<stop stop-color="#EF4223"/>
<stop offset="0.0001" stop-color="#EF4323"/>
<stop offset="1" stop-color="#F7931E"/>
</linearGradient>
<clipPath id="clip0">
<path d="M0 0H373.6V96.4H0V0Z" fill="white"/>
</clipPath>
</defs>
</svg>
