<svg width="398" height="75" viewBox="0 0 398 75" fill="none" xmlns="http://www.w3.org/2000/svg">
<path fill-rule="evenodd" clip-rule="evenodd" d="M117.922 21.6183C117.774 19.4007 115.872 17.6465 113.548 17.6465C111.128 17.6465 109.166 19.5496 109.166 21.8972V68.5402C109.166 70.8878 111.128 72.7909 113.548 72.7909C115.969 72.7909 117.931 70.8878 117.931 68.5402V55.0396C121.453 57.5332 125.794 59.0049 130.489 59.0049C142.264 59.0049 151.81 49.7465 151.81 38.3257C151.81 26.9049 142.264 17.6465 130.489 17.6465C125.79 17.6465 121.446 19.1207 117.922 21.6183ZM143.045 38.3257C143.045 45.0513 137.423 50.5034 130.489 50.5034C123.554 50.5034 117.933 45.0513 117.933 38.3257C117.933 31.6001 123.554 26.1479 130.489 26.1479C137.423 26.1479 143.045 31.6001 143.045 38.3257Z" fill="#4B485F"/>
<path fill-rule="evenodd" clip-rule="evenodd" d="M303.072 17.6465C305.493 17.6465 307.455 19.5496 307.455 21.8972V68.5402C307.455 70.8878 305.493 72.7909 303.072 72.7909C300.652 72.7909 298.689 70.8878 298.689 68.5402V21.8972C298.689 19.5496 300.652 17.6465 303.072 17.6465Z" fill="#4B485F"/>
<path fill-rule="evenodd" clip-rule="evenodd" d="M210.324 21.8972C210.324 19.5496 208.362 17.6465 205.941 17.6465C203.521 17.6465 201.559 19.5496 201.559 21.8972V52.4564C201.559 52.5534 201.562 52.6496 201.569 52.7449C201.913 63.8729 211.323 72.7911 222.88 72.7911C234.656 72.7911 244.202 63.5327 244.202 52.1119C244.202 40.6912 234.656 31.4328 222.88 31.4328C218.186 31.4328 213.846 32.904 210.324 35.397V21.8972ZM235.436 52.1119C235.436 58.8375 229.815 64.2897 222.88 64.2897C215.946 64.2897 210.324 58.8375 210.324 52.1119C210.324 45.3864 215.946 39.9342 222.88 39.9342C229.815 39.9342 235.436 45.3864 235.436 52.1119Z" fill="#4B485F"/>
<path fill-rule="evenodd" clip-rule="evenodd" d="M257.705 21.8972C257.705 19.5496 255.743 17.6465 253.322 17.6465C250.902 17.6465 248.939 19.5496 248.939 21.8972V52.4564C248.939 52.5528 248.943 52.6485 248.949 52.7433C249.293 63.872 258.703 72.7911 270.261 72.7911C282.037 72.7911 291.583 63.5327 291.583 52.1119C291.583 40.6912 282.037 31.4328 270.261 31.4328C265.567 31.4328 261.227 32.9041 257.705 35.3971V21.8972ZM282.817 52.1119C282.817 58.8375 277.196 64.2897 270.261 64.2897C263.327 64.2897 257.705 58.8375 257.705 52.1119C257.705 45.3864 263.327 39.9342 270.261 39.9342C277.196 39.9342 282.817 45.3864 282.817 52.1119Z" fill="#4B485F"/>
<path fill-rule="evenodd" clip-rule="evenodd" d="M322.426 49.307C323.803 43.9464 328.564 40.2309 334.225 40.2309C339.858 40.2309 344.599 44.0724 346.003 49.307H322.426ZM322.637 56.6596C324.145 61.3918 328.343 64.4048 334.225 64.3637C335.874 64.3637 336.986 64.3547 338.223 64.1419C339.414 63.937 340.871 63.5112 342.926 62.5148C345.091 61.4649 347.723 62.316 348.806 64.4158C349.888 66.5155 349.011 69.0688 346.846 70.1187C344.162 71.42 341.903 72.143 339.754 72.5126C337.703 72.8656 335.892 72.8654 334.338 72.8652L334.225 72.8652C322.646 72.8652 313.259 64.2329 313.259 52.5306C313.259 40.8283 322.646 31.7295 334.225 31.7295C345.804 31.7295 355.191 40.8283 355.191 52.5306C355.191 54.8705 353.242 56.6476 350.832 56.6593C350.824 56.6594 350.816 56.6595 350.808 56.6595L322.637 56.6596Z" fill="#4B485F"/>
<path fill-rule="evenodd" clip-rule="evenodd" d="M163.169 49.307C164.547 43.9464 169.307 40.2309 174.969 40.2309C180.601 40.2309 185.343 44.0724 186.747 49.307H163.169ZM163.381 56.6596C164.888 61.3918 169.087 64.4048 174.969 64.3637C176.617 64.3637 177.73 64.3547 178.967 64.1419C180.158 63.937 181.614 63.5112 183.669 62.5148C185.834 61.4649 188.467 62.316 189.549 64.4158C190.632 66.5155 189.754 69.0688 187.589 70.1187C184.906 71.42 182.646 72.143 180.498 72.5126C178.446 72.8656 176.636 72.8654 175.082 72.8652L174.969 72.8652C163.389 72.8652 154.002 64.2329 154.002 52.5306C154.002 40.8283 163.389 31.7295 174.969 31.7295C186.548 31.7295 195.935 40.8283 195.935 52.5306C195.935 54.8705 193.986 56.6476 191.576 56.6593C191.568 56.6594 191.56 56.6595 191.552 56.6595L163.381 56.6596Z" fill="#4B485F"/>
<path d="M386.209 48.644C392.381 48.644 397.385 53.0698 397.385 59.9203C397.385 66.7709 391.61 72.3243 385.193 72.3243H364.873C362.629 72.3243 360.809 70.616 360.809 68.1249C360.809 65.6338 362.629 63.7699 364.873 63.7699H375.414H384.872C387.76 63.7699 389.204 61.8276 389.204 59.9592C389.204 58.0909 387.76 55.9931 384.872 55.9931H371.878C365.706 55.9931 360.809 50.7118 360.809 43.8613C360.809 37.0108 366.669 31.7295 372.841 31.7295H391.035C393.279 31.7295 395.099 33.7489 395.099 36.24C395.099 38.7311 393.279 40.284 391.035 40.284H372.841C370.434 40.284 368.509 42.4615 368.509 44.5612C368.509 46.6609 370.434 48.644 372.841 48.644H386.209Z" fill="#4B485F"/>
<path fill-rule="evenodd" clip-rule="evenodd" d="M0 5.73479C0 2.81106 2.44376 0.440918 5.45829 0.440918L74.1417 0.440918C77.1562 0.440918 79.6 2.81106 79.6 5.73479C79.6 8.65851 77.1562 11.0287 74.1417 11.0287L5.45829 11.0287C2.44376 11.0287 0 8.65851 0 5.73479Z" fill="#F6921E"/>
<path fill-rule="evenodd" clip-rule="evenodd" d="M0 23.3813C0 20.4575 2.44376 18.0874 5.45829 18.0874L74.1417 18.0874C77.1562 18.0874 79.6 20.4575 79.6 23.3813C79.6 26.305 77.1562 28.6751 74.1417 28.6751L5.45829 28.6751C2.44376 28.6751 0 26.305 0 23.3813Z" fill="#00994E"/>
<path fill-rule="evenodd" clip-rule="evenodd" d="M5.45829 35.7329C2.44376 35.7329 0 38.1031 0 41.0268C0 43.9505 2.44376 46.3207 5.45829 46.3207H34.1144V67.4965C34.1144 70.4202 36.5581 72.7904 39.5726 72.7904C42.5872 72.7904 45.0309 70.4202 45.0309 67.4965V46.3207H74.1417C77.1562 46.3207 79.6 43.9505 79.6 41.0268C79.6 38.1031 77.1562 35.7329 74.1417 35.7329H5.45829Z" fill="#90278E"/>
</svg>
