<svg width="32" height="30" viewBox="0 0 32 30" fill="none" xmlns="http://www.w3.org/2000/svg">
<path fill-rule="evenodd" clip-rule="evenodd" d="M0 2.19512C0 0.982789 0.982415 0 2.19429 0L29.8057 0C31.0176 0 32 0.982789 32 2.19512C32 3.40745 31.0176 4.39024 29.8057 4.39024L2.19429 4.39024C0.982415 4.39024 0 3.40745 0 2.19512Z" fill="#F6921E"/>
<path fill-rule="evenodd" clip-rule="evenodd" d="M0 9.51226C0 8.29993 0.982415 7.31714 2.19429 7.31714L29.8057 7.31714C31.0176 7.31714 32 8.29993 32 9.51226C32 10.7246 31.0176 11.7074 29.8057 11.7074L2.19429 11.7074C0.982415 11.7074 0 10.7246 0 9.51226Z" fill="#00994E"/>
<path fill-rule="evenodd" clip-rule="evenodd" d="M2.19429 14.634C0.982415 14.634 0 15.6168 0 16.8292C0 18.0415 0.982415 19.0243 2.19429 19.0243H13.7141V27.8042C13.7141 29.0165 14.6965 29.9993 15.9084 29.9993C17.1202 29.9993 18.1026 29.0165 18.1026 27.8042V19.0243H29.8057C31.0176 19.0243 32 18.0415 32 16.8292C32 15.6168 31.0176 14.634 29.8057 14.634H2.19429Z" fill="#90278E"/>
</svg>
