<svg width="200" height="199" viewBox="0 0 200 199" fill="none" xmlns="http://www.w3.org/2000/svg">
<path d="M200 93.88C200 136.38 165.605 170.831 123.176 170.831C80.7452 170.831 46.3503 136.38 46.3503 93.88C46.3503 51.3818 80.7452 16.9308 123.176 16.9308C165.605 16.9308 200 51.3818 200 93.88Z" fill="url(#paint0_linear)"/>
<path d="M200 93.8779C200 136.378 165.607 170.834 123.176 170.834C80.7449 170.834 46.3523 136.378 46.3523 93.8779C46.3523 91.6629 46.4462 89.4702 46.6318 87.2999C49.9657 126.714 82.9586 157.667 123.176 157.667C163.396 157.667 196.386 126.714 199.723 87.2999C199.908 89.4702 200 91.6629 200 93.8779Z" fill="#EF4323"/>
<path d="M110.151 73.7903L125.023 82.6243L130.384 57.5079L141.956 37.7504C142.789 36.0296 143.359 34.2685 143.689 32.5065C144.049 30.5984 144.126 28.6909 143.95 26.8252L112.658 17.4842C111.127 18.5159 108.512 19.6073 106.731 21.0942C106.634 21.1755 106.54 21.2572 106.444 21.3384C100.293 26.6811 97.3779 36.0759 96.4381 39.7242C96.2229 40.5622 96.7075 41.4172 97.5336 41.6638L102.78 43.2298L99.442 56.5268C99.1908 57.3708 99.6656 58.2608 100.506 58.5196L114.128 58.2008L110.151 73.7903Z" fill="#FED2A4"/>
<path d="M141.957 37.7503L132.04 57.8467C131.639 58.659 130.609 58.922 129.869 58.4006L120.591 51.8619C120.028 51.4641 119.78 50.7498 119.977 50.0889L125.761 30.6479L120.597 29.1065C120.228 28.9964 119.928 28.7645 119.728 28.4678C119.467 28.0831 119.376 27.5889 119.519 27.1087L121.706 19.7576L143.904 26.3838C144.338 30.1054 143.76 34.0227 141.957 37.7503Z" fill="#91633C"/>
<path d="M143.797 30.7143L108.102 20.0593C103.503 18.6865 100.887 13.8395 102.257 9.23373L104.547 1.53924C104.799 0.689493 105.692 0.205313 106.541 0.458724L137.493 9.69814C144.711 11.8527 148.818 19.4602 146.667 26.6893L145.791 29.6338C145.539 30.4835 144.646 30.9677 143.797 30.7143Z" fill="#754C29"/>
<path d="M114.034 47.2231C113.494 49.0384 112.406 50.358 110.798 51.1416C107.779 52.6169 103.694 51.7253 101.676 51.1228C101.12 50.957 100.722 50.8132 100.544 50.7452L101.216 48.4862C101.246 48.4952 101.277 48.5063 101.308 48.5186C101.315 48.5208 101.71 48.6729 102.345 48.8624C102.901 49.0283 103.637 49.222 104.462 49.3683C106.674 49.762 108.511 49.6423 109.772 49.0246C110.776 48.5333 111.432 47.7239 111.782 46.5502C111.967 45.928 112.621 45.5733 113.243 45.7589C113.867 45.945 114.219 46.6004 114.034 47.2231Z" fill="#FFBD86"/>
<path d="M109.727 31.5959C110.827 31.9243 111.63 32.8327 111.822 33.9673C111.93 34.6081 111.499 35.216 110.859 35.3243C110.219 35.4332 109.613 35.0012 109.505 34.3604C109.472 34.1694 109.337 33.9354 109.056 33.8514C108.774 33.7673 108.534 33.8893 108.402 34.0314C107.961 34.5084 107.218 34.5372 106.742 34.0952C106.265 33.6537 106.237 32.9087 106.678 32.4319C107.459 31.5876 108.626 31.2674 109.727 31.5959Z" fill="#754C29"/>
<path d="M74.3449 156.052C81.8777 130.089 91.0616 112.325 96.2109 90.5573L108.931 111.03L111.263 177.83L74.3449 156.052Z" fill="white"/>
<path d="M21.8152 77.0042C23.4311 78.843 30.1085 83.8788 32.3668 86.5704L43.9724 83.5143C40.5139 80.736 33.0625 74.6077 30.9247 72.3211C28.2525 69.4629 25.5116 60.0398 24.0501 57.3717C22.5886 54.7036 21.3779 54.5135 20.2925 55.5626C19.2072 56.6116 22.1616 62.2577 20.5179 63.6763C18.8742 65.095 5.61308 57.6789 3.39243 56.3396C1.17179 55.0004 2.19707 59.3814 2.71135 61.5198C3.22563 63.6582 19.7954 74.7057 21.8152 77.0042Z" fill="#FED2A4"/>
<path d="M22.4609 79.5162L29.0637 66.6115C64.1477 103.218 98.0355 65.4423 116.646 69.4294C131.746 72.6645 132.764 71.9786 137.378 85.8725C149.044 132.481 146.137 169.974 144.514 189.307C87.8581 186.7 82.8615 172.818 87.9013 154.734C92.9412 136.65 96.98 123.77 97.9953 111.674C97.9953 111.674 71.2025 118.931 55.8931 112.936C40.5837 106.94 29.2651 89.9444 22.4609 79.5162Z" fill="#754C29"/>
<path d="M12.383 21.468C12.476 21.4371 12.5379 21.3752 12.5689 21.3134L13.808 18.4685L15.5427 21.0351C15.6046 21.0969 15.6666 21.1588 15.7595 21.1588C15.8524 21.1588 15.9144 21.1278 16.0073 21.066L18.2377 18.9014L18.8572 21.9627C18.8882 22.0555 18.9192 22.1174 19.0121 22.1483C19.0741 22.1792 19.167 22.2101 19.2599 22.1792L22.1717 21.0351L21.5832 24.0964C21.5832 24.1892 21.5832 24.282 21.6451 24.3438C21.7071 24.4056 21.769 24.4366 21.862 24.4675L24.9597 24.4984L23.225 27.0959C23.163 27.1578 23.163 27.2505 23.194 27.3433C23.225 27.4361 23.2869 27.4979 23.3489 27.5288L26.1987 28.7658L23.5967 30.4974C23.5347 30.5593 23.4728 30.6211 23.4728 30.7139C23.4728 30.8067 23.5038 30.8685 23.5657 30.9304L25.7341 33.1568L22.6674 33.7752C22.5744 33.8062 22.5125 33.8371 22.4815 33.9299C22.4505 33.9917 22.4505 34.0845 22.4815 34.1772L23.6277 37.084L20.5609 36.4965C20.468 36.4965 20.3751 36.4965 20.3131 36.5583C20.2512 36.6201 20.2202 36.682 20.1892 36.7748L20.1273 39.898L17.5872 38.1663C17.5252 38.1044 17.4323 38.1044 17.3393 38.1354C17.2464 38.1663 17.1845 38.2281 17.1535 38.29L15.9144 41.1349L14.1797 38.5374C14.1177 38.4755 14.0558 38.4137 13.9629 38.4137C13.8699 38.4137 13.808 38.4446 13.715 38.5064L11.4847 40.671L10.8652 37.6097C10.8342 37.5169 10.8032 37.4551 10.7103 37.4241C10.6483 37.3932 10.5554 37.3932 10.4625 37.4241L7.55063 38.5683L8.13919 35.5069C8.17017 35.4142 8.13919 35.3214 8.07724 35.2595C8.01528 35.1977 7.95333 35.1668 7.8604 35.1668L4.73173 35.1049L6.46644 32.5074C6.49741 32.4456 6.52839 32.3528 6.49741 32.26C6.46644 32.1673 6.40448 32.1054 6.34253 32.0745L3.49265 30.8376L6.09471 29.1059C6.15667 29.0441 6.21862 28.9822 6.21862 28.8895C6.21862 28.7967 6.18764 28.7348 6.12569 28.6421L3.9573 26.4156L7.02402 25.7972C7.11695 25.7662 7.17891 25.7353 7.20988 25.6426C7.24086 25.5807 7.27184 25.4879 7.20988 25.3952L6.06374 22.4884L9.13045 23.076C9.22338 23.076 9.31631 23.076 9.37827 23.0141C9.44022 22.9523 9.4712 22.8904 9.4712 22.7977L9.53315 19.7054L12.1352 21.4371C12.1972 21.468 12.2281 21.4989 12.2901 21.4989C12.3211 21.4989 12.3521 21.468 12.383 21.468ZM14.7992 14.9124C14.7063 14.9433 14.6443 15.0051 14.6134 15.067L13.6841 17.2316L12.3521 15.2834C12.2591 15.1597 12.0733 15.1288 11.9494 15.2216C11.8254 15.3143 11.7945 15.4999 11.8564 15.6236L13.3743 17.8809L12.1352 20.7568L9.53315 19.0251L9.56413 16.3039C9.56413 16.1493 9.44022 16.0256 9.28534 15.9947C9.22338 15.9947 9.16143 16.0256 9.09948 16.0565C9.03752 16.1183 9.00655 16.1802 9.00655 16.273L8.97557 18.6231L6.99304 17.3243C6.86914 17.2316 6.68327 17.2625 6.59034 17.4171C6.49741 17.5408 6.52839 17.7263 6.68327 17.8191L8.97557 19.3343L8.91361 22.4884L5.81592 21.9009L4.82466 19.3652C4.7627 19.2106 4.60782 19.1488 4.45294 19.2106C4.39098 19.2415 4.32903 19.2725 4.29805 19.3343C4.26707 19.3962 4.2361 19.4889 4.29805 19.5817L5.1654 21.7772L2.84213 21.3134C2.68725 21.2824 2.53236 21.3752 2.50139 21.5298C2.47041 21.6844 2.56334 21.8391 2.71823 21.87L5.41322 22.3957L6.55937 25.3024L3.49265 25.9209L1.60306 23.9727C1.47915 23.849 1.29329 23.849 1.20036 23.9727C1.1384 24.0346 1.10743 24.0964 1.10743 24.1583C1.10743 24.251 1.1384 24.3129 1.20036 24.4056L2.84213 26.1064L0.518864 26.5702C0.363979 26.6012 0.271048 26.7558 0.302025 26.9104C0.333002 27.065 0.487887 27.1578 0.642771 27.1269L3.30679 26.5702L5.50615 28.8276L2.90409 30.5902L0.394956 29.5079C0.240071 29.4461 0.0851866 29.5079 0.0232327 29.6625C-0.00774423 29.7244 -0.00774423 29.7862 0.0232327 29.8481C0.0542096 29.9408 0.116164 30.0027 0.178117 30.0336L2.3465 30.9613L0.394956 32.291C0.178117 32.3837 0.14714 32.5383 0.240071 32.693C0.333002 32.8166 0.518864 32.8476 0.642771 32.7857L2.90409 31.2705L5.78494 32.5074L4.05023 35.1359L1.32426 35.1049C1.16938 35.1049 1.04547 35.2286 1.01449 35.3832C1.01449 35.4451 1.04547 35.5069 1.07645 35.5688C1.1384 35.5997 1.23133 35.6306 1.32426 35.6306L3.67851 35.6615L2.37748 37.6406C2.28455 37.7643 2.31553 37.9498 2.47041 38.0426C2.59432 38.1354 2.78018 38.1044 2.87311 37.9498L4.39098 35.6615L7.55063 35.7234L6.96207 38.8157L4.42196 39.8052C4.26707 39.867 4.20512 40.0217 4.26707 40.1763C4.32903 40.3309 4.48391 40.3927 4.6388 40.3309L6.83816 39.465L6.34253 41.8152C6.31155 41.9698 6.40448 42.1244 6.55937 42.1553C6.71425 42.1862 6.86914 42.0935 6.90011 41.9389L7.42672 39.2486L10.3386 38.1044L10.9581 41.1658L9.00655 43.0521C8.88264 43.1758 8.88264 43.3613 9.00655 43.4541C9.13045 43.5778 9.31631 43.5778 9.40925 43.4541L11.113 41.8152L11.5776 44.1344C11.6086 44.289 11.7635 44.3818 11.9184 44.3508C12.0733 44.3199 12.1662 44.1653 12.1352 44.0107L11.5776 41.3204L13.8389 39.1249L15.6046 41.7224L14.5514 44.289C14.4895 44.4436 14.5514 44.5982 14.7063 44.6601C14.8612 44.7219 15.0161 44.6601 15.078 44.5055L16.0073 42.3409L17.3393 44.289C17.4323 44.4127 17.6181 44.4436 17.742 44.3818C17.8659 44.289 17.8969 44.1035 17.835 43.9798L16.3171 41.7224L17.5562 38.8466L20.1892 40.5783L20.1582 43.2995C20.1582 43.4541 20.2822 43.5778 20.437 43.6087C20.5919 43.6087 20.7158 43.485 20.7468 43.3304L20.7778 40.9803L22.7603 42.279C22.8842 42.3718 23.0701 42.3409 23.163 42.1862C23.2559 42.0626 23.225 41.877 23.0701 41.7843L20.7468 40.269L20.8088 37.1149L23.9065 37.7024L24.8977 40.2381C24.9597 40.3927 25.1146 40.4546 25.2694 40.3927C25.4243 40.3309 25.4863 40.1763 25.4243 40.0217L24.557 37.8261L26.8802 38.29C27.0351 38.3209 27.19 38.2281 27.221 38.0735C27.252 37.9189 27.159 37.7643 27.0041 37.7334L24.3092 37.2077L23.163 34.3009L26.2297 33.6825L28.1193 35.6306C28.2432 35.7543 28.4291 35.7543 28.522 35.6306C28.6459 35.5069 28.6459 35.3214 28.522 35.2286L26.8802 33.5279L29.2035 33.064C29.3584 33.0331 29.4513 32.8785 29.4203 32.7239C29.3894 32.5693 29.2345 32.4765 29.0796 32.5074L26.4156 33.064L24.2162 30.8067L26.8183 29.0441L29.3274 30.1264C29.4823 30.1882 29.6372 30.1264 29.6991 29.9717C29.7611 29.8171 29.6991 29.6625 29.5443 29.6007L27.3759 28.673L29.3274 27.3433C29.4513 27.2505 29.4823 27.065 29.4203 26.9413C29.3274 26.8176 29.1416 26.7867 29.0176 26.8485L26.7563 28.3638L23.8755 27.1269L25.6412 24.4984L28.3671 24.5293C28.522 24.5293 28.6459 24.4056 28.6769 24.251C28.6769 24.0964 28.553 23.9727 28.3981 23.9418L26.0439 23.9109L27.3449 21.9318C27.4378 21.8081 27.4068 21.6226 27.252 21.5298C27.1281 21.4371 26.9422 21.468 26.8493 21.6226L25.3314 23.9109L22.1717 23.849L22.7603 20.7568L25.3004 19.7672C25.4553 19.7054 25.5173 19.5508 25.4553 19.3962C25.4243 19.3343 25.3933 19.2725 25.3314 19.2415C25.2694 19.2106 25.1765 19.1797 25.0836 19.2415L22.8842 20.1074L23.3489 17.7882C23.3798 17.6336 23.2869 17.4789 23.132 17.448C22.9771 17.4171 22.8223 17.5099 22.7913 17.6645L22.2647 20.3548L19.3528 21.4989L18.7333 18.4066L20.6849 16.5513C20.8088 16.4276 20.8088 16.242 20.6849 16.1493C20.6229 16.0874 20.5609 16.0565 20.499 16.0565C20.4061 16.0565 20.3441 16.0874 20.2822 16.1493L18.5784 17.7882L18.1138 15.469C18.0828 15.3143 17.9279 15.2216 17.773 15.2525C17.6181 15.2834 17.5252 15.438 17.5562 15.5927L18.1138 18.252L15.8524 20.4475L14.0868 17.85L15.171 15.3453C15.2329 15.1907 15.171 15.036 15.0161 14.9742C14.9851 14.9124 14.9231 14.9124 14.8922 14.9124C14.8612 14.9124 14.8302 14.9124 14.7992 14.9124Z" fill="url(#paint1_linear)"/>
<path d="M175.452 152.279C175.062 151.889 174.283 151.889 173.893 152.279C173.503 152.67 173.503 153.45 173.893 153.97C174.153 154.23 174.413 154.36 174.673 154.36C174.933 154.36 175.192 154.23 175.452 153.97C175.972 153.45 175.972 152.8 175.452 152.279Z" fill="white"/>
<path d="M164.017 142.395C164.407 142.004 164.407 141.224 164.017 140.834C163.627 140.444 162.847 140.444 162.458 140.834C162.068 141.224 162.068 142.004 162.458 142.525C162.718 142.785 162.977 142.915 163.237 142.915C163.497 142.785 163.757 142.655 164.017 142.395Z" fill="white"/>
<path d="M152.582 130.949C152.972 130.559 152.972 129.778 152.582 129.388C152.192 128.998 151.412 128.998 151.023 129.388C150.633 129.778 150.633 130.559 151.023 131.079C151.282 131.339 151.542 131.469 151.802 131.469C152.062 131.469 152.322 131.079 152.582 130.949Z" fill="white"/>
<path d="M158.299 136.672C158.689 136.281 158.689 135.501 158.299 135.111C157.91 134.721 157.13 134.721 156.74 135.111C156.35 135.501 156.35 136.281 156.74 136.802C157 137.062 157.26 137.062 157.52 137.062C157.78 137.062 158.04 136.932 158.299 136.672Z" fill="white"/>
<path d="M169.735 148.117C170.124 147.727 170.124 146.947 169.735 146.557C169.345 146.166 168.565 146.166 168.175 146.557C167.785 146.947 167.785 147.727 168.175 148.248C168.435 148.508 168.695 148.638 168.955 148.638C169.215 148.508 169.605 148.378 169.735 148.117Z" fill="white"/>
<path d="M181.169 158.002C180.779 157.612 180 157.612 179.61 158.002C179.22 158.392 179.22 159.173 179.61 159.693C179.87 159.953 180.13 160.083 180.39 160.083C180.65 160.083 180.909 159.953 181.169 159.693C181.689 159.173 181.689 158.522 181.169 158.002Z" fill="white"/>
<path d="M174.152 129.258C173.633 128.738 172.983 128.738 172.463 129.258C172.073 129.648 172.073 130.429 172.463 130.949C172.723 131.209 172.983 131.339 173.243 131.339C173.503 131.339 173.762 131.209 174.022 130.949C174.672 130.429 174.672 129.778 174.152 129.258Z" fill="white"/>
<path d="M180.13 136.932C180.52 136.542 180.52 135.761 180.13 135.371C179.74 134.981 178.961 134.981 178.571 135.371C178.181 135.761 178.181 136.542 178.571 137.062C178.831 137.322 179.09 137.452 179.35 137.452C179.61 137.452 180 137.062 180.13 136.932Z" fill="white"/>
<path d="M186.107 141.224C185.717 140.834 184.938 140.834 184.548 141.224C184.158 141.614 184.158 142.394 184.548 142.915C184.808 143.175 185.068 143.305 185.327 143.305C185.587 143.305 185.847 143.175 186.107 142.915C186.627 142.394 186.627 141.744 186.107 141.224Z" fill="white"/>
<path d="M192.085 147.207C191.695 146.817 190.915 146.817 190.526 147.207C190.136 147.597 190.136 148.377 190.526 148.898C190.785 149.158 191.045 149.288 191.305 149.288C191.565 149.288 191.825 149.158 192.085 148.898C192.605 148.377 192.605 147.727 192.085 147.207Z" fill="white"/>
<path d="M153.492 152.019C153.102 151.629 152.322 151.629 151.932 152.019C151.542 152.409 151.542 153.19 151.932 153.71C152.192 153.97 152.452 154.1 152.712 154.1C152.972 154.1 153.232 153.97 153.492 153.71C154.011 153.19 154.011 152.539 153.492 152.019Z" fill="white"/>
<path d="M147.775 146.296C147.385 145.906 146.605 145.906 146.215 146.296C145.825 146.686 145.825 147.467 146.215 147.987C146.475 148.247 146.735 148.377 146.995 148.377C147.255 148.377 147.515 148.247 147.775 147.987C148.294 147.467 148.294 146.817 147.775 146.296Z" fill="white"/>
<path d="M159.209 157.612C158.819 157.222 158.04 157.222 157.65 157.612C157.26 158.002 157.26 158.783 157.65 159.303C157.91 159.563 158.17 159.693 158.429 159.693C158.689 159.693 158.949 159.563 159.209 159.303C159.599 158.913 159.599 158.132 159.209 157.612Z" fill="white"/>
<path d="M130.752 129.258C130.362 128.868 129.582 128.868 129.192 129.258C128.802 129.648 128.802 130.429 129.192 130.949C129.452 131.209 129.712 131.339 129.972 131.339C130.232 131.339 130.492 131.209 130.752 130.949C131.271 130.429 131.271 129.778 130.752 129.258Z" fill="white"/>
<path d="M142.057 140.574C141.667 140.183 140.887 140.183 140.497 140.574C140.107 140.964 140.107 141.744 140.497 142.264C140.757 142.525 141.017 142.525 141.277 142.525C141.537 142.525 141.927 142.395 142.057 142.134C142.576 141.874 142.576 141.094 142.057 140.574Z" fill="white"/>
<path d="M170.514 169.058C170.124 168.667 169.344 168.667 168.954 169.058C168.565 169.448 168.565 170.228 168.954 170.748C169.214 171.008 169.474 171.008 169.734 171.008C169.994 171.008 170.384 170.878 170.514 170.618C171.034 170.228 171.034 169.448 170.514 169.058Z" fill="white"/>
<path d="M164.797 163.335C164.407 162.944 163.627 162.944 163.237 163.335C162.847 163.725 162.847 164.505 163.237 165.025C163.497 165.285 163.757 165.416 164.017 165.416C164.277 165.416 164.537 165.285 164.797 165.025C165.316 164.505 165.316 163.855 164.797 163.335Z" fill="white"/>
<path d="M136.469 134.981C136.079 134.591 135.299 134.591 134.91 134.981C134.52 135.371 134.52 136.151 134.91 136.672C135.169 136.932 135.429 137.062 135.689 137.062C135.949 137.062 136.209 136.932 136.469 136.672C136.989 136.151 136.989 135.501 136.469 134.981Z" fill="white"/>
<path d="M158.17 125.226C158.689 124.706 158.689 124.056 158.3 123.535C158.04 123.275 157.78 123.145 157.52 123.145C157.26 123.145 157 123.275 156.74 123.405C156.35 123.795 156.221 124.576 156.74 125.096C157.13 125.616 157.78 125.616 158.17 125.226Z" fill="white"/>
<path d="M174.672 105.977C174.412 105.977 174.023 106.107 173.893 106.367C173.503 106.757 173.373 107.537 173.893 108.058C174.282 108.448 175.062 108.578 175.452 108.058C175.842 107.667 175.842 106.887 175.452 106.497C175.322 106.107 174.932 105.977 174.672 105.977Z" fill="white"/>
<path d="M180.39 100.254C180.13 100.254 179.74 100.384 179.61 100.644C179.22 101.034 179.09 101.815 179.61 102.335C180 102.725 180.78 102.855 181.169 102.335C181.559 101.945 181.559 101.164 181.169 100.774C181.04 100.254 180.78 100.254 180.39 100.254Z" fill="white"/>
<path d="M164.017 119.373C164.537 118.853 164.537 118.203 164.017 117.682C163.757 117.422 163.497 117.292 163.237 117.292C162.977 117.292 162.588 117.422 162.458 117.682C162.068 118.073 161.938 118.853 162.458 119.373C162.847 119.894 163.497 119.894 164.017 119.373Z" fill="white"/>
<path d="M169.734 113.651C170.254 113.13 170.254 112.48 169.734 111.96C169.475 111.7 169.215 111.57 168.955 111.57C168.695 111.57 168.435 111.7 168.175 111.96C167.785 112.35 167.655 113.13 168.175 113.651C168.565 114.041 169.215 114.171 169.734 113.651Z" fill="white"/>
<path d="M185.328 117.032C185.068 117.032 184.808 117.162 184.548 117.422C184.158 117.812 184.028 118.593 184.548 119.113C184.938 119.503 185.718 119.633 186.107 119.113C186.497 118.723 186.497 117.942 186.107 117.552C185.977 117.032 185.588 117.032 185.328 117.032Z" fill="white"/>
<path d="M192.085 113C192.605 112.48 192.605 111.829 192.085 111.309C191.825 111.049 191.565 110.919 191.305 110.919C191.045 110.919 190.786 111.049 190.526 111.309C190.136 111.699 190.006 112.48 190.526 113C190.916 113.39 191.695 113.39 192.085 113Z" fill="white"/>
<path d="M180.13 124.966C180.649 124.446 180.649 123.795 180.13 123.275C179.87 123.015 179.61 122.885 179.35 122.885C179.09 122.885 178.83 123.015 178.57 123.275C178.181 123.665 178.051 124.446 178.57 124.966C178.96 125.356 179.74 125.356 180.13 124.966Z" fill="white"/>
<path d="M169.735 89.1982C169.475 89.1982 169.215 89.3283 168.955 89.4584C168.565 89.8486 168.435 90.6289 168.955 91.1492C169.345 91.5394 170.124 91.6694 170.514 91.1492C170.904 90.759 171.034 89.9786 170.514 89.5884C170.384 89.3283 169.994 89.1982 169.735 89.1982Z" fill="white"/>
<path d="M158.429 100.514C158.169 100.514 157.779 100.644 157.649 100.904C157.26 101.294 157.13 102.075 157.649 102.595C158.039 102.985 158.819 103.115 159.209 102.595C159.599 102.205 159.599 101.424 159.209 101.034C158.949 100.644 158.689 100.514 158.429 100.514Z" fill="white"/>
<path d="M164.017 94.9213C163.757 94.9213 163.497 95.0513 163.237 95.3115C162.847 95.7017 162.717 96.482 163.237 97.0023C163.627 97.3925 164.407 97.5225 164.796 97.0023C165.186 96.6121 165.186 95.8317 164.796 95.4415C164.666 94.9213 164.407 94.9213 164.017 94.9213Z" fill="white"/>
<path d="M152.712 106.237C152.452 106.237 152.062 106.367 151.932 106.627C151.542 107.017 151.412 107.797 151.932 108.318C152.322 108.708 153.102 108.838 153.492 108.318C153.881 107.928 153.881 107.147 153.492 106.757C153.232 106.367 152.972 106.237 152.712 106.237Z" fill="white"/>
<path d="M146.994 111.96C146.734 111.96 146.475 112.09 146.215 112.35C145.825 112.74 145.695 113.52 146.215 114.041C146.604 114.431 147.384 114.561 147.774 114.041C148.164 113.65 148.164 112.87 147.774 112.48C147.644 111.96 147.384 111.96 146.994 111.96Z" fill="white"/>
<path d="M135.689 123.275C135.429 123.275 135.04 123.405 134.91 123.666C134.52 124.056 134.39 124.836 134.91 125.356C135.3 125.747 136.079 125.877 136.469 125.356C136.859 124.966 136.859 124.186 136.469 123.796C136.209 123.405 135.949 123.275 135.689 123.275Z" fill="white"/>
<path d="M141.407 117.552C141.147 117.552 140.887 117.683 140.627 117.813C140.237 118.203 140.107 118.983 140.627 119.503C141.017 119.894 141.796 120.024 142.186 119.503C142.576 119.113 142.706 118.333 142.186 117.943C141.926 117.683 141.667 117.552 141.407 117.552Z" fill="white"/>
<defs>
<linearGradient id="paint0_linear" x1="46.3503" y1="93.881" x2="200" y2="93.881" gradientUnits="userSpaceOnUse">
<stop stop-color="#EF4223"/>
<stop offset="0.0001" stop-color="#EF4323"/>
<stop offset="1" stop-color="#F7931E"/>
</linearGradient>
<linearGradient id="paint1_linear" x1="0" y1="29.7981" x2="29.7229" y2="29.7981" gradientUnits="userSpaceOnUse">
<stop stop-color="#EF4223"/>
<stop offset="0.0001" stop-color="#EF4323"/>
<stop offset="1" stop-color="#F7931E"/>
</linearGradient>
</defs>
</svg>
