<svg width="416" height="396" viewBox="0 0 416 396" fill="none" xmlns="http://www.w3.org/2000/svg">
<mask id="mask0" mask-type="alpha" maskUnits="userSpaceOnUse" x="0" y="0" width="416" height="396">
<path d="M0 41.027C0 40.0419 0.799354 39.2432 1.78541 39.2432C2.77146 39.2432 3.57082 40.0419 3.57082 41.027C3.57082 42.0122 2.77146 42.8108 1.78541 42.8108C0.799354 42.8108 0 42.0122 0 41.027Z" fill="black"/>
<path d="M0 1.78378C0 0.798627 0.799354 0 1.78541 0C2.77146 0 3.57082 0.798627 3.57082 1.78378C3.57082 2.76894 2.77146 3.56757 1.78541 3.56757C0.799354 3.56757 0 2.76894 0 1.78378Z" fill="black"/>
<path d="M19.6395 21.4054C19.6395 20.4202 20.4388 19.6216 21.4249 19.6216C22.4109 19.6216 23.2103 20.4202 23.2103 21.4054C23.2103 22.3906 22.4109 23.1892 21.4249 23.1892C20.4388 23.1892 19.6395 22.3906 19.6395 21.4054Z" fill="black"/>
<path d="M39.279 41.027C39.279 40.0419 40.0783 39.2432 41.0644 39.2432C42.0504 39.2432 42.8498 40.0419 42.8498 41.027C42.8498 42.0122 42.0504 42.8108 41.0644 42.8108C40.0783 42.8108 39.279 42.0122 39.279 41.027Z" fill="black"/>
<path d="M58.9185 21.4054C58.9185 20.4202 59.7178 19.6216 60.7039 19.6216C61.6899 19.6216 62.4893 20.4202 62.4893 21.4054C62.4893 22.3906 61.6899 23.1892 60.7039 23.1892C59.7178 23.1892 58.9185 22.3906 58.9185 21.4054Z" fill="black"/>
<path d="M39.279 1.78378C39.279 0.798627 40.0783 0 41.0644 0C42.0504 0 42.8498 0.798627 42.8498 1.78378C42.8498 2.76894 42.0504 3.56757 41.0644 3.56757C40.0783 3.56757 39.279 2.76894 39.279 1.78378Z" fill="black"/>
<path d="M78.5579 41.027C78.5579 40.0419 79.3573 39.2432 80.3434 39.2432C81.3294 39.2432 82.1288 40.0419 82.1288 41.027C82.1288 42.0122 81.3294 42.8108 80.3434 42.8108C79.3573 42.8108 78.5579 42.0122 78.5579 41.027Z" fill="black"/>
<path d="M98.1974 21.4054C98.1974 20.4202 98.9968 19.6216 99.9828 19.6216C100.969 19.6216 101.768 20.4202 101.768 21.4054C101.768 22.3906 100.969 23.1892 99.9828 23.1892C98.9968 23.1892 98.1974 22.3906 98.1974 21.4054Z" fill="black"/>
<path d="M78.5579 1.78378C78.5579 0.798627 79.3573 0 80.3434 0C81.3294 0 82.1288 0.798627 82.1288 1.78378C82.1288 2.76894 81.3294 3.56757 80.3434 3.56757C79.3573 3.56757 78.5579 2.76894 78.5579 1.78378Z" fill="black"/>
<path d="M117.837 41.027C117.837 40.0419 118.636 39.2432 119.622 39.2432C120.608 39.2432 121.408 40.0419 121.408 41.027C121.408 42.0122 120.608 42.8108 119.622 42.8108C118.636 42.8108 117.837 42.0122 117.837 41.027Z" fill="black"/>
<path d="M137.476 21.4054C137.476 20.4202 138.276 19.6216 139.262 19.6216C140.248 19.6216 141.047 20.4202 141.047 21.4054C141.047 22.3906 140.248 23.1892 139.262 23.1892C138.276 23.1892 137.476 22.3906 137.476 21.4054Z" fill="black"/>
<path d="M117.837 1.78378C117.837 0.798627 118.636 0 119.622 0C120.608 0 121.408 0.798627 121.408 1.78378C121.408 2.76894 120.608 3.56757 119.622 3.56757C118.636 3.56757 117.837 2.76894 117.837 1.78378Z" fill="black"/>
<path d="M157.116 41.027C157.116 40.0419 157.915 39.2432 158.901 39.2432C159.887 39.2432 160.687 40.0419 160.687 41.027C160.687 42.0122 159.887 42.8108 158.901 42.8108C157.915 42.8108 157.116 42.0122 157.116 41.027Z" fill="black"/>
<path d="M176.755 21.4054C176.755 20.4202 177.555 19.6216 178.541 19.6216C179.527 19.6216 180.326 20.4202 180.326 21.4054C180.326 22.3906 179.527 23.1892 178.541 23.1892C177.555 23.1892 176.755 22.3906 176.755 21.4054Z" fill="black"/>
<path d="M157.116 1.78378C157.116 0.798627 157.915 0 158.901 0C159.887 0 160.687 0.798627 160.687 1.78378C160.687 2.76894 159.887 3.56757 158.901 3.56757C157.915 3.56757 157.116 2.76894 157.116 1.78378Z" fill="black"/>
<path d="M196.395 41.027C196.395 40.0419 197.194 39.2432 198.18 39.2432C199.166 39.2432 199.966 40.0419 199.966 41.027C199.966 42.0122 199.166 42.8108 198.18 42.8108C197.194 42.8108 196.395 42.0122 196.395 41.027Z" fill="black"/>
<path d="M216.034 21.4054C216.034 20.4202 216.834 19.6216 217.82 19.6216C218.806 19.6216 219.605 20.4202 219.605 21.4054C219.605 22.3906 218.806 23.1892 217.82 23.1892C216.834 23.1892 216.034 22.3906 216.034 21.4054Z" fill="black"/>
<path d="M196.395 1.78378C196.395 0.798627 197.194 0 198.18 0C199.166 0 199.966 0.798627 199.966 1.78378C199.966 2.76894 199.166 3.56757 198.18 3.56757C197.194 3.56757 196.395 2.76894 196.395 1.78378Z" fill="black"/>
<path d="M235.674 41.027C235.674 40.0419 236.473 39.2432 237.459 39.2432C238.445 39.2432 239.245 40.0419 239.245 41.027C239.245 42.0122 238.445 42.8108 237.459 42.8108C236.473 42.8108 235.674 42.0122 235.674 41.027Z" fill="black"/>
<path d="M255.313 21.4054C255.313 20.4202 256.113 19.6216 257.099 19.6216C258.085 19.6216 258.884 20.4202 258.884 21.4054C258.884 22.3906 258.085 23.1892 257.099 23.1892C256.113 23.1892 255.313 22.3906 255.313 21.4054Z" fill="black"/>
<path d="M235.674 1.78378C235.674 0.798627 236.473 0 237.459 0C238.445 0 239.245 0.798627 239.245 1.78378C239.245 2.76894 238.445 3.56757 237.459 3.56757C236.473 3.56757 235.674 2.76894 235.674 1.78378Z" fill="black"/>
<path d="M274.953 41.027C274.953 40.0419 275.752 39.2432 276.738 39.2432C277.724 39.2432 278.524 40.0419 278.524 41.027C278.524 42.0122 277.724 42.8108 276.738 42.8108C275.752 42.8108 274.953 42.0122 274.953 41.027Z" fill="black"/>
<path d="M294.592 21.4054C294.592 20.4202 295.392 19.6216 296.378 19.6216C297.364 19.6216 298.163 20.4202 298.163 21.4054C298.163 22.3906 297.364 23.1892 296.378 23.1892C295.392 23.1892 294.592 22.3906 294.592 21.4054Z" fill="black"/>
<path d="M274.953 1.78378C274.953 0.798627 275.752 0 276.738 0C277.724 0 278.524 0.798627 278.524 1.78378C278.524 2.76894 277.724 3.56757 276.738 3.56757C275.752 3.56757 274.953 2.76894 274.953 1.78378Z" fill="black"/>
<path d="M314.232 41.027C314.232 40.0419 315.031 39.2432 316.017 39.2432C317.003 39.2432 317.803 40.0419 317.803 41.027C317.803 42.0122 317.003 42.8108 316.017 42.8108C315.031 42.8108 314.232 42.0122 314.232 41.027Z" fill="black"/>
<path d="M333.871 21.4054C333.871 20.4202 334.671 19.6216 335.657 19.6216C336.643 19.6216 337.442 20.4202 337.442 21.4054C337.442 22.3906 336.643 23.1892 335.657 23.1892C334.671 23.1892 333.871 22.3906 333.871 21.4054Z" fill="black"/>
<path d="M314.232 1.78378C314.232 0.798627 315.031 0 316.017 0C317.003 0 317.803 0.798627 317.803 1.78378C317.803 2.76894 317.003 3.56757 316.017 3.56757C315.031 3.56757 314.232 2.76894 314.232 1.78378Z" fill="black"/>
<path d="M353.511 41.027C353.511 40.0419 354.31 39.2432 355.296 39.2432C356.282 39.2432 357.082 40.0419 357.082 41.027C357.082 42.0122 356.282 42.8108 355.296 42.8108C354.31 42.8108 353.511 42.0122 353.511 41.027Z" fill="black"/>
<path d="M373.15 21.4054C373.15 20.4202 373.95 19.6216 374.936 19.6216C375.922 19.6216 376.721 20.4202 376.721 21.4054C376.721 22.3906 375.922 23.1892 374.936 23.1892C373.95 23.1892 373.15 22.3906 373.15 21.4054Z" fill="black"/>
<path d="M353.511 1.78378C353.511 0.798627 354.31 0 355.296 0C356.282 0 357.082 0.798627 357.082 1.78378C357.082 2.76894 356.282 3.56757 355.296 3.56757C354.31 3.56757 353.511 2.76894 353.511 1.78378Z" fill="black"/>
<path d="M392.79 41.027C392.79 40.0419 393.589 39.2432 394.575 39.2432C395.561 39.2432 396.361 40.0419 396.361 41.027C396.361 42.0122 395.561 42.8108 394.575 42.8108C393.589 42.8108 392.79 42.0122 392.79 41.027Z" fill="black"/>
<path d="M412.429 21.4054C412.429 20.4202 413.229 19.6216 414.215 19.6216C415.201 19.6216 416 20.4202 416 21.4054C416 22.3906 415.201 23.1892 414.215 23.1892C413.229 23.1892 412.429 22.3906 412.429 21.4054Z" fill="black"/>
<path d="M392.79 1.78378C392.79 0.798627 393.589 0 394.575 0C395.561 0 396.361 0.798627 396.361 1.78378C396.361 2.76894 395.561 3.56757 394.575 3.56757C393.589 3.56757 392.79 2.76894 392.79 1.78378Z" fill="black"/>
<path d="M19.6395 60.6486C19.6395 59.6635 20.4388 58.8649 21.4249 58.8649C22.4109 58.8649 23.2103 59.6635 23.2103 60.6486C23.2103 61.6338 22.4109 62.4324 21.4249 62.4324C20.4388 62.4324 19.6395 61.6338 19.6395 60.6486Z" fill="black"/>
<path d="M0 80.2703C0 79.2851 0.799354 78.4865 1.78541 78.4865C2.77146 78.4865 3.57082 79.2851 3.57082 80.2703C3.57082 81.2554 2.77146 82.0541 1.78541 82.0541C0.799354 82.0541 0 81.2554 0 80.2703Z" fill="black"/>
<path d="M58.9185 60.6486C58.9185 59.6635 59.7178 58.8649 60.7039 58.8649C61.6899 58.8649 62.4893 59.6635 62.4893 60.6486C62.4893 61.6338 61.6899 62.4324 60.7039 62.4324C59.7178 62.4324 58.9185 61.6338 58.9185 60.6486Z" fill="black"/>
<path d="M39.279 80.2703C39.279 79.2851 40.0783 78.4865 41.0644 78.4865C42.0504 78.4865 42.8498 79.2851 42.8498 80.2703C42.8498 81.2554 42.0504 82.0541 41.0644 82.0541C40.0783 82.0541 39.279 81.2554 39.279 80.2703Z" fill="black"/>
<path d="M98.1974 60.6486C98.1974 59.6635 98.9968 58.8649 99.9828 58.8649C100.969 58.8649 101.768 59.6635 101.768 60.6486C101.768 61.6338 100.969 62.4324 99.9828 62.4324C98.9968 62.4324 98.1974 61.6338 98.1974 60.6486Z" fill="black"/>
<path d="M78.5579 80.2703C78.5579 79.2851 79.3573 78.4865 80.3434 78.4865C81.3294 78.4865 82.1288 79.2851 82.1288 80.2703C82.1288 81.2554 81.3294 82.0541 80.3434 82.0541C79.3573 82.0541 78.5579 81.2554 78.5579 80.2703Z" fill="black"/>
<path d="M137.476 60.6486C137.476 59.6635 138.276 58.8649 139.262 58.8649C140.248 58.8649 141.047 59.6635 141.047 60.6486C141.047 61.6338 140.248 62.4324 139.262 62.4324C138.276 62.4324 137.476 61.6338 137.476 60.6486Z" fill="black"/>
<path d="M117.837 80.2703C117.837 79.2851 118.636 78.4865 119.622 78.4865C120.608 78.4865 121.408 79.2851 121.408 80.2703C121.408 81.2554 120.608 82.0541 119.622 82.0541C118.636 82.0541 117.837 81.2554 117.837 80.2703Z" fill="black"/>
<path d="M176.755 60.6486C176.755 59.6635 177.555 58.8649 178.541 58.8649C179.527 58.8649 180.326 59.6635 180.326 60.6486C180.326 61.6338 179.527 62.4324 178.541 62.4324C177.555 62.4324 176.755 61.6338 176.755 60.6486Z" fill="black"/>
<path d="M157.116 80.2703C157.116 79.2851 157.915 78.4865 158.901 78.4865C159.887 78.4865 160.687 79.2851 160.687 80.2703C160.687 81.2554 159.887 82.0541 158.901 82.0541C157.915 82.0541 157.116 81.2554 157.116 80.2703Z" fill="black"/>
<path d="M216.034 60.6486C216.034 59.6635 216.834 58.8649 217.82 58.8649C218.806 58.8649 219.605 59.6635 219.605 60.6486C219.605 61.6338 218.806 62.4324 217.82 62.4324C216.834 62.4324 216.034 61.6338 216.034 60.6486Z" fill="black"/>
<path d="M196.395 80.2703C196.395 79.2851 197.194 78.4865 198.18 78.4865C199.166 78.4865 199.966 79.2851 199.966 80.2703C199.966 81.2554 199.166 82.0541 198.18 82.0541C197.194 82.0541 196.395 81.2554 196.395 80.2703Z" fill="black"/>
<path d="M255.313 60.6486C255.313 59.6635 256.113 58.8649 257.099 58.8649C258.085 58.8649 258.884 59.6635 258.884 60.6486C258.884 61.6338 258.085 62.4324 257.099 62.4324C256.113 62.4324 255.313 61.6338 255.313 60.6486Z" fill="black"/>
<path d="M235.674 80.2703C235.674 79.2851 236.473 78.4865 237.459 78.4865C238.445 78.4865 239.245 79.2851 239.245 80.2703C239.245 81.2554 238.445 82.0541 237.459 82.0541C236.473 82.0541 235.674 81.2554 235.674 80.2703Z" fill="black"/>
<path d="M294.592 60.6486C294.592 59.6635 295.392 58.8649 296.378 58.8649C297.364 58.8649 298.163 59.6635 298.163 60.6486C298.163 61.6338 297.364 62.4324 296.378 62.4324C295.392 62.4324 294.592 61.6338 294.592 60.6486Z" fill="black"/>
<path d="M274.953 80.2703C274.953 79.2851 275.752 78.4865 276.738 78.4865C277.724 78.4865 278.524 79.2851 278.524 80.2703C278.524 81.2554 277.724 82.0541 276.738 82.0541C275.752 82.0541 274.953 81.2554 274.953 80.2703Z" fill="black"/>
<path d="M333.871 60.6486C333.871 59.6635 334.671 58.8649 335.657 58.8649C336.643 58.8649 337.442 59.6635 337.442 60.6486C337.442 61.6338 336.643 62.4324 335.657 62.4324C334.671 62.4324 333.871 61.6338 333.871 60.6486Z" fill="black"/>
<path d="M314.232 80.2703C314.232 79.2851 315.031 78.4865 316.017 78.4865C317.003 78.4865 317.803 79.2851 317.803 80.2703C317.803 81.2554 317.003 82.0541 316.017 82.0541C315.031 82.0541 314.232 81.2554 314.232 80.2703Z" fill="black"/>
<path d="M373.15 60.6486C373.15 59.6635 373.95 58.8649 374.936 58.8649C375.922 58.8649 376.721 59.6635 376.721 60.6486C376.721 61.6338 375.922 62.4324 374.936 62.4324C373.95 62.4324 373.15 61.6338 373.15 60.6486Z" fill="black"/>
<path d="M353.511 80.2703C353.511 79.2851 354.31 78.4865 355.296 78.4865C356.282 78.4865 357.082 79.2851 357.082 80.2703C357.082 81.2554 356.282 82.0541 355.296 82.0541C354.31 82.0541 353.511 81.2554 353.511 80.2703Z" fill="black"/>
<path d="M412.429 60.6486C412.429 59.6635 413.229 58.8649 414.215 58.8649C415.201 58.8649 416 59.6635 416 60.6486C416 61.6338 415.201 62.4324 414.215 62.4324C413.229 62.4324 412.429 61.6338 412.429 60.6486Z" fill="black"/>
<path d="M392.79 80.2703C392.79 79.2851 393.589 78.4865 394.575 78.4865C395.561 78.4865 396.361 79.2851 396.361 80.2703C396.361 81.2554 395.561 82.0541 394.575 82.0541C393.589 82.0541 392.79 81.2554 392.79 80.2703Z" fill="black"/>
<path d="M19.6395 99.8919C19.6395 98.9067 20.4388 98.1081 21.4249 98.1081C22.4109 98.1081 23.2103 98.9067 23.2103 99.8919C23.2103 100.877 22.4109 101.676 21.4249 101.676C20.4388 101.676 19.6395 100.877 19.6395 99.8919Z" fill="black"/>
<path d="M0 119.514C0 118.528 0.799354 117.73 1.78541 117.73C2.77146 117.73 3.57082 118.528 3.57082 119.514C3.57082 120.499 2.77146 121.297 1.78541 121.297C0.799354 121.297 0 120.499 0 119.514Z" fill="black"/>
<path d="M58.9185 99.8919C58.9185 98.9067 59.7178 98.1081 60.7039 98.1081C61.6899 98.1081 62.4893 98.9067 62.4893 99.8919C62.4893 100.877 61.6899 101.676 60.7039 101.676C59.7178 101.676 58.9185 100.877 58.9185 99.8919Z" fill="black"/>
<path d="M39.279 119.514C39.279 118.528 40.0783 117.73 41.0644 117.73C42.0504 117.73 42.8498 118.528 42.8498 119.514C42.8498 120.499 42.0504 121.297 41.0644 121.297C40.0783 121.297 39.279 120.499 39.279 119.514Z" fill="black"/>
<path d="M98.1974 99.8919C98.1974 98.9067 98.9968 98.1081 99.9828 98.1081C100.969 98.1081 101.768 98.9067 101.768 99.8919C101.768 100.877 100.969 101.676 99.9828 101.676C98.9968 101.676 98.1974 100.877 98.1974 99.8919Z" fill="black"/>
<path d="M78.5579 119.514C78.5579 118.528 79.3573 117.73 80.3434 117.73C81.3294 117.73 82.1288 118.528 82.1288 119.514C82.1288 120.499 81.3294 121.297 80.3434 121.297C79.3573 121.297 78.5579 120.499 78.5579 119.514Z" fill="black"/>
<path d="M137.476 99.8919C137.476 98.9067 138.276 98.1081 139.262 98.1081C140.248 98.1081 141.047 98.9067 141.047 99.8919C141.047 100.877 140.248 101.676 139.262 101.676C138.276 101.676 137.476 100.877 137.476 99.8919Z" fill="black"/>
<path d="M117.837 119.514C117.837 118.528 118.636 117.73 119.622 117.73C120.608 117.73 121.408 118.528 121.408 119.514C121.408 120.499 120.608 121.297 119.622 121.297C118.636 121.297 117.837 120.499 117.837 119.514Z" fill="black"/>
<path d="M176.755 99.8919C176.755 98.9067 177.555 98.1081 178.541 98.1081C179.527 98.1081 180.326 98.9067 180.326 99.8919C180.326 100.877 179.527 101.676 178.541 101.676C177.555 101.676 176.755 100.877 176.755 99.8919Z" fill="black"/>
<path d="M157.116 119.514C157.116 118.528 157.915 117.73 158.901 117.73C159.887 117.73 160.687 118.528 160.687 119.514C160.687 120.499 159.887 121.297 158.901 121.297C157.915 121.297 157.116 120.499 157.116 119.514Z" fill="black"/>
<path d="M216.034 99.8919C216.034 98.9067 216.834 98.1081 217.82 98.1081C218.806 98.1081 219.605 98.9067 219.605 99.8919C219.605 100.877 218.806 101.676 217.82 101.676C216.834 101.676 216.034 100.877 216.034 99.8919Z" fill="black"/>
<path d="M196.395 119.514C196.395 118.528 197.194 117.73 198.18 117.73C199.166 117.73 199.966 118.528 199.966 119.514C199.966 120.499 199.166 121.297 198.18 121.297C197.194 121.297 196.395 120.499 196.395 119.514Z" fill="black"/>
<path d="M255.313 99.8919C255.313 98.9067 256.113 98.1081 257.099 98.1081C258.085 98.1081 258.884 98.9067 258.884 99.8919C258.884 100.877 258.085 101.676 257.099 101.676C256.113 101.676 255.313 100.877 255.313 99.8919Z" fill="black"/>
<path d="M235.674 119.514C235.674 118.528 236.473 117.73 237.459 117.73C238.445 117.73 239.245 118.528 239.245 119.514C239.245 120.499 238.445 121.297 237.459 121.297C236.473 121.297 235.674 120.499 235.674 119.514Z" fill="black"/>
<path d="M294.592 99.8919C294.592 98.9067 295.392 98.1081 296.378 98.1081C297.364 98.1081 298.163 98.9067 298.163 99.8919C298.163 100.877 297.364 101.676 296.378 101.676C295.392 101.676 294.592 100.877 294.592 99.8919Z" fill="black"/>
<path d="M274.953 119.514C274.953 118.528 275.752 117.73 276.738 117.73C277.724 117.73 278.524 118.528 278.524 119.514C278.524 120.499 277.724 121.297 276.738 121.297C275.752 121.297 274.953 120.499 274.953 119.514Z" fill="black"/>
<path d="M333.871 99.8919C333.871 98.9067 334.671 98.1081 335.657 98.1081C336.643 98.1081 337.442 98.9067 337.442 99.8919C337.442 100.877 336.643 101.676 335.657 101.676C334.671 101.676 333.871 100.877 333.871 99.8919Z" fill="black"/>
<path d="M314.232 119.514C314.232 118.528 315.031 117.73 316.017 117.73C317.003 117.73 317.803 118.528 317.803 119.514C317.803 120.499 317.003 121.297 316.017 121.297C315.031 121.297 314.232 120.499 314.232 119.514Z" fill="black"/>
<path d="M373.15 99.8919C373.15 98.9067 373.95 98.1081 374.936 98.1081C375.922 98.1081 376.721 98.9067 376.721 99.8919C376.721 100.877 375.922 101.676 374.936 101.676C373.95 101.676 373.15 100.877 373.15 99.8919Z" fill="black"/>
<path d="M353.511 119.514C353.511 118.528 354.31 117.73 355.296 117.73C356.282 117.73 357.082 118.528 357.082 119.514C357.082 120.499 356.282 121.297 355.296 121.297C354.31 121.297 353.511 120.499 353.511 119.514Z" fill="black"/>
<path d="M412.429 99.8919C412.429 98.9067 413.229 98.1081 414.215 98.1081C415.201 98.1081 416 98.9067 416 99.8919C416 100.877 415.201 101.676 414.215 101.676C413.229 101.676 412.429 100.877 412.429 99.8919Z" fill="black"/>
<path d="M392.79 119.514C392.79 118.528 393.589 117.73 394.575 117.73C395.561 117.73 396.361 118.528 396.361 119.514C396.361 120.499 395.561 121.297 394.575 121.297C393.589 121.297 392.79 120.499 392.79 119.514Z" fill="black"/>
<path d="M19.6395 139.135C19.6395 138.15 20.4388 137.351 21.4249 137.351C22.4109 137.351 23.2103 138.15 23.2103 139.135C23.2103 140.12 22.4109 140.919 21.4249 140.919C20.4388 140.919 19.6395 140.12 19.6395 139.135Z" fill="black"/>
<path d="M0 158.757C0 157.772 0.799354 156.973 1.78541 156.973C2.77146 156.973 3.57082 157.772 3.57082 158.757C3.57082 159.742 2.77146 160.541 1.78541 160.541C0.799354 160.541 0 159.742 0 158.757Z" fill="black"/>
<path d="M58.9185 139.135C58.9185 138.15 59.7178 137.351 60.7039 137.351C61.6899 137.351 62.4893 138.15 62.4893 139.135C62.4893 140.12 61.6899 140.919 60.7039 140.919C59.7178 140.919 58.9185 140.12 58.9185 139.135Z" fill="black"/>
<path d="M39.279 158.757C39.279 157.772 40.0783 156.973 41.0644 156.973C42.0504 156.973 42.8498 157.772 42.8498 158.757C42.8498 159.742 42.0504 160.541 41.0644 160.541C40.0783 160.541 39.279 159.742 39.279 158.757Z" fill="black"/>
<path d="M98.1974 139.135C98.1974 138.15 98.9968 137.351 99.9828 137.351C100.969 137.351 101.768 138.15 101.768 139.135C101.768 140.12 100.969 140.919 99.9828 140.919C98.9968 140.919 98.1974 140.12 98.1974 139.135Z" fill="black"/>
<path d="M78.5579 158.757C78.5579 157.772 79.3573 156.973 80.3434 156.973C81.3294 156.973 82.1288 157.772 82.1288 158.757C82.1288 159.742 81.3294 160.541 80.3434 160.541C79.3573 160.541 78.5579 159.742 78.5579 158.757Z" fill="black"/>
<path d="M137.476 139.135C137.476 138.15 138.276 137.351 139.262 137.351C140.248 137.351 141.047 138.15 141.047 139.135C141.047 140.12 140.248 140.919 139.262 140.919C138.276 140.919 137.476 140.12 137.476 139.135Z" fill="black"/>
<path d="M117.837 158.757C117.837 157.772 118.636 156.973 119.622 156.973C120.608 156.973 121.408 157.772 121.408 158.757C121.408 159.742 120.608 160.541 119.622 160.541C118.636 160.541 117.837 159.742 117.837 158.757Z" fill="black"/>
<path d="M176.755 139.135C176.755 138.15 177.555 137.351 178.541 137.351C179.527 137.351 180.326 138.15 180.326 139.135C180.326 140.12 179.527 140.919 178.541 140.919C177.555 140.919 176.755 140.12 176.755 139.135Z" fill="black"/>
<path d="M157.116 158.757C157.116 157.772 157.915 156.973 158.901 156.973C159.887 156.973 160.687 157.772 160.687 158.757C160.687 159.742 159.887 160.541 158.901 160.541C157.915 160.541 157.116 159.742 157.116 158.757Z" fill="black"/>
<path d="M216.034 139.135C216.034 138.15 216.834 137.351 217.82 137.351C218.806 137.351 219.605 138.15 219.605 139.135C219.605 140.12 218.806 140.919 217.82 140.919C216.834 140.919 216.034 140.12 216.034 139.135Z" fill="black"/>
<path d="M196.395 158.757C196.395 157.772 197.194 156.973 198.18 156.973C199.166 156.973 199.966 157.772 199.966 158.757C199.966 159.742 199.166 160.541 198.18 160.541C197.194 160.541 196.395 159.742 196.395 158.757Z" fill="black"/>
<path d="M255.313 139.135C255.313 138.15 256.113 137.351 257.099 137.351C258.085 137.351 258.884 138.15 258.884 139.135C258.884 140.12 258.085 140.919 257.099 140.919C256.113 140.919 255.313 140.12 255.313 139.135Z" fill="black"/>
<path d="M235.674 158.757C235.674 157.772 236.473 156.973 237.459 156.973C238.445 156.973 239.245 157.772 239.245 158.757C239.245 159.742 238.445 160.541 237.459 160.541C236.473 160.541 235.674 159.742 235.674 158.757Z" fill="black"/>
<path d="M294.592 139.135C294.592 138.15 295.392 137.351 296.378 137.351C297.364 137.351 298.163 138.15 298.163 139.135C298.163 140.12 297.364 140.919 296.378 140.919C295.392 140.919 294.592 140.12 294.592 139.135Z" fill="black"/>
<path d="M274.953 158.757C274.953 157.772 275.752 156.973 276.738 156.973C277.724 156.973 278.524 157.772 278.524 158.757C278.524 159.742 277.724 160.541 276.738 160.541C275.752 160.541 274.953 159.742 274.953 158.757Z" fill="black"/>
<path d="M333.871 139.135C333.871 138.15 334.671 137.351 335.657 137.351C336.643 137.351 337.442 138.15 337.442 139.135C337.442 140.12 336.643 140.919 335.657 140.919C334.671 140.919 333.871 140.12 333.871 139.135Z" fill="black"/>
<path d="M314.232 158.757C314.232 157.772 315.031 156.973 316.017 156.973C317.003 156.973 317.803 157.772 317.803 158.757C317.803 159.742 317.003 160.541 316.017 160.541C315.031 160.541 314.232 159.742 314.232 158.757Z" fill="black"/>
<path d="M373.15 139.135C373.15 138.15 373.95 137.351 374.936 137.351C375.922 137.351 376.721 138.15 376.721 139.135C376.721 140.12 375.922 140.919 374.936 140.919C373.95 140.919 373.15 140.12 373.15 139.135Z" fill="black"/>
<path d="M353.511 158.757C353.511 157.772 354.31 156.973 355.296 156.973C356.282 156.973 357.082 157.772 357.082 158.757C357.082 159.742 356.282 160.541 355.296 160.541C354.31 160.541 353.511 159.742 353.511 158.757Z" fill="black"/>
<path d="M412.429 139.135C412.429 138.15 413.229 137.351 414.215 137.351C415.201 137.351 416 138.15 416 139.135C416 140.12 415.201 140.919 414.215 140.919C413.229 140.919 412.429 140.12 412.429 139.135Z" fill="black"/>
<path d="M392.79 158.757C392.79 157.772 393.589 156.973 394.575 156.973C395.561 156.973 396.361 157.772 396.361 158.757C396.361 159.742 395.561 160.541 394.575 160.541C393.589 160.541 392.79 159.742 392.79 158.757Z" fill="black"/>
<path d="M19.6395 178.378C19.6395 177.393 20.4388 176.595 21.4249 176.595C22.4109 176.595 23.2103 177.393 23.2103 178.378C23.2103 179.364 22.4109 180.162 21.4249 180.162C20.4388 180.162 19.6395 179.364 19.6395 178.378Z" fill="black"/>
<path d="M0 198C0 197.015 0.799354 196.216 1.78541 196.216C2.77146 196.216 3.57082 197.015 3.57082 198C3.57082 198.985 2.77146 199.784 1.78541 199.784C0.799354 199.784 0 198.985 0 198Z" fill="black"/>
<path d="M58.9185 178.378C58.9185 177.393 59.7178 176.595 60.7039 176.595C61.6899 176.595 62.4893 177.393 62.4893 178.378C62.4893 179.364 61.6899 180.162 60.7039 180.162C59.7178 180.162 58.9185 179.364 58.9185 178.378Z" fill="black"/>
<path d="M39.279 198C39.279 197.015 40.0783 196.216 41.0644 196.216C42.0504 196.216 42.8498 197.015 42.8498 198C42.8498 198.985 42.0504 199.784 41.0644 199.784C40.0783 199.784 39.279 198.985 39.279 198Z" fill="black"/>
<path d="M98.1974 178.378C98.1974 177.393 98.9968 176.595 99.9828 176.595C100.969 176.595 101.768 177.393 101.768 178.378C101.768 179.364 100.969 180.162 99.9828 180.162C98.9968 180.162 98.1974 179.364 98.1974 178.378Z" fill="black"/>
<path d="M78.5579 198C78.5579 197.015 79.3573 196.216 80.3434 196.216C81.3294 196.216 82.1288 197.015 82.1288 198C82.1288 198.985 81.3294 199.784 80.3434 199.784C79.3573 199.784 78.5579 198.985 78.5579 198Z" fill="black"/>
<path d="M137.476 178.378C137.476 177.393 138.276 176.595 139.262 176.595C140.248 176.595 141.047 177.393 141.047 178.378C141.047 179.364 140.248 180.162 139.262 180.162C138.276 180.162 137.476 179.364 137.476 178.378Z" fill="black"/>
<path d="M117.837 198C117.837 197.015 118.636 196.216 119.622 196.216C120.608 196.216 121.408 197.015 121.408 198C121.408 198.985 120.608 199.784 119.622 199.784C118.636 199.784 117.837 198.985 117.837 198Z" fill="black"/>
<path d="M176.755 178.378C176.755 177.393 177.555 176.595 178.541 176.595C179.527 176.595 180.326 177.393 180.326 178.378C180.326 179.364 179.527 180.162 178.541 180.162C177.555 180.162 176.755 179.364 176.755 178.378Z" fill="black"/>
<path d="M157.116 198C157.116 197.015 157.915 196.216 158.901 196.216C159.887 196.216 160.687 197.015 160.687 198C160.687 198.985 159.887 199.784 158.901 199.784C157.915 199.784 157.116 198.985 157.116 198Z" fill="black"/>
<path d="M216.034 178.378C216.034 177.393 216.834 176.595 217.82 176.595C218.806 176.595 219.605 177.393 219.605 178.378C219.605 179.364 218.806 180.162 217.82 180.162C216.834 180.162 216.034 179.364 216.034 178.378Z" fill="black"/>
<path d="M196.395 198C196.395 197.015 197.194 196.216 198.18 196.216C199.166 196.216 199.966 197.015 199.966 198C199.966 198.985 199.166 199.784 198.18 199.784C197.194 199.784 196.395 198.985 196.395 198Z" fill="black"/>
<path d="M255.313 178.378C255.313 177.393 256.113 176.595 257.099 176.595C258.085 176.595 258.884 177.393 258.884 178.378C258.884 179.364 258.085 180.162 257.099 180.162C256.113 180.162 255.313 179.364 255.313 178.378Z" fill="black"/>
<path d="M235.674 198C235.674 197.015 236.473 196.216 237.459 196.216C238.445 196.216 239.245 197.015 239.245 198C239.245 198.985 238.445 199.784 237.459 199.784C236.473 199.784 235.674 198.985 235.674 198Z" fill="black"/>
<path d="M294.592 178.378C294.592 177.393 295.392 176.595 296.378 176.595C297.364 176.595 298.163 177.393 298.163 178.378C298.163 179.364 297.364 180.162 296.378 180.162C295.392 180.162 294.592 179.364 294.592 178.378Z" fill="black"/>
<path d="M274.953 198C274.953 197.015 275.752 196.216 276.738 196.216C277.724 196.216 278.524 197.015 278.524 198C278.524 198.985 277.724 199.784 276.738 199.784C275.752 199.784 274.953 198.985 274.953 198Z" fill="black"/>
<path d="M333.871 178.378C333.871 177.393 334.671 176.595 335.657 176.595C336.643 176.595 337.442 177.393 337.442 178.378C337.442 179.364 336.643 180.162 335.657 180.162C334.671 180.162 333.871 179.364 333.871 178.378Z" fill="black"/>
<path d="M314.232 198C314.232 197.015 315.031 196.216 316.017 196.216C317.003 196.216 317.803 197.015 317.803 198C317.803 198.985 317.003 199.784 316.017 199.784C315.031 199.784 314.232 198.985 314.232 198Z" fill="black"/>
<path d="M373.15 178.378C373.15 177.393 373.95 176.595 374.936 176.595C375.922 176.595 376.721 177.393 376.721 178.378C376.721 179.364 375.922 180.162 374.936 180.162C373.95 180.162 373.15 179.364 373.15 178.378Z" fill="black"/>
<path d="M353.511 198C353.511 197.015 354.31 196.216 355.296 196.216C356.282 196.216 357.082 197.015 357.082 198C357.082 198.985 356.282 199.784 355.296 199.784C354.31 199.784 353.511 198.985 353.511 198Z" fill="black"/>
<path d="M412.429 178.378C412.429 177.393 413.229 176.595 414.215 176.595C415.201 176.595 416 177.393 416 178.378C416 179.364 415.201 180.162 414.215 180.162C413.229 180.162 412.429 179.364 412.429 178.378Z" fill="black"/>
<path d="M392.79 198C392.79 197.015 393.589 196.216 394.575 196.216C395.561 196.216 396.361 197.015 396.361 198C396.361 198.985 395.561 199.784 394.575 199.784C393.589 199.784 392.79 198.985 392.79 198Z" fill="black"/>
<path d="M19.6395 217.622C19.6395 216.636 20.4388 215.838 21.4249 215.838C22.4109 215.838 23.2103 216.636 23.2103 217.622C23.2103 218.607 22.4109 219.405 21.4249 219.405C20.4388 219.405 19.6395 218.607 19.6395 217.622Z" fill="black"/>
<path d="M0 237.243C0 236.258 0.799354 235.459 1.78541 235.459C2.77146 235.459 3.57082 236.258 3.57082 237.243C3.57082 238.228 2.77146 239.027 1.78541 239.027C0.799354 239.027 0 238.228 0 237.243Z" fill="black"/>
<path d="M58.9185 217.622C58.9185 216.636 59.7178 215.838 60.7039 215.838C61.6899 215.838 62.4893 216.636 62.4893 217.622C62.4893 218.607 61.6899 219.405 60.7039 219.405C59.7178 219.405 58.9185 218.607 58.9185 217.622Z" fill="black"/>
<path d="M39.279 237.243C39.279 236.258 40.0783 235.459 41.0644 235.459C42.0504 235.459 42.8498 236.258 42.8498 237.243C42.8498 238.228 42.0504 239.027 41.0644 239.027C40.0783 239.027 39.279 238.228 39.279 237.243Z" fill="black"/>
<path d="M98.1974 217.622C98.1974 216.636 98.9968 215.838 99.9828 215.838C100.969 215.838 101.768 216.636 101.768 217.622C101.768 218.607 100.969 219.405 99.9828 219.405C98.9968 219.405 98.1974 218.607 98.1974 217.622Z" fill="black"/>
<path d="M78.5579 237.243C78.5579 236.258 79.3573 235.459 80.3434 235.459C81.3294 235.459 82.1288 236.258 82.1288 237.243C82.1288 238.228 81.3294 239.027 80.3434 239.027C79.3573 239.027 78.5579 238.228 78.5579 237.243Z" fill="black"/>
<path d="M137.476 217.622C137.476 216.636 138.276 215.838 139.262 215.838C140.248 215.838 141.047 216.636 141.047 217.622C141.047 218.607 140.248 219.405 139.262 219.405C138.276 219.405 137.476 218.607 137.476 217.622Z" fill="black"/>
<path d="M117.837 237.243C117.837 236.258 118.636 235.459 119.622 235.459C120.608 235.459 121.408 236.258 121.408 237.243C121.408 238.228 120.608 239.027 119.622 239.027C118.636 239.027 117.837 238.228 117.837 237.243Z" fill="black"/>
<path d="M176.755 217.622C176.755 216.636 177.555 215.838 178.541 215.838C179.527 215.838 180.326 216.636 180.326 217.622C180.326 218.607 179.527 219.405 178.541 219.405C177.555 219.405 176.755 218.607 176.755 217.622Z" fill="black"/>
<path d="M157.116 237.243C157.116 236.258 157.915 235.459 158.901 235.459C159.887 235.459 160.687 236.258 160.687 237.243C160.687 238.228 159.887 239.027 158.901 239.027C157.915 239.027 157.116 238.228 157.116 237.243Z" fill="black"/>
<path d="M216.034 217.622C216.034 216.636 216.834 215.838 217.82 215.838C218.806 215.838 219.605 216.636 219.605 217.622C219.605 218.607 218.806 219.405 217.82 219.405C216.834 219.405 216.034 218.607 216.034 217.622Z" fill="black"/>
<path d="M196.395 237.243C196.395 236.258 197.194 235.459 198.18 235.459C199.166 235.459 199.966 236.258 199.966 237.243C199.966 238.228 199.166 239.027 198.18 239.027C197.194 239.027 196.395 238.228 196.395 237.243Z" fill="black"/>
<path d="M255.313 217.622C255.313 216.636 256.113 215.838 257.099 215.838C258.085 215.838 258.884 216.636 258.884 217.622C258.884 218.607 258.085 219.405 257.099 219.405C256.113 219.405 255.313 218.607 255.313 217.622Z" fill="black"/>
<path d="M235.674 237.243C235.674 236.258 236.473 235.459 237.459 235.459C238.445 235.459 239.245 236.258 239.245 237.243C239.245 238.228 238.445 239.027 237.459 239.027C236.473 239.027 235.674 238.228 235.674 237.243Z" fill="black"/>
<path d="M294.592 217.622C294.592 216.636 295.392 215.838 296.378 215.838C297.364 215.838 298.163 216.636 298.163 217.622C298.163 218.607 297.364 219.405 296.378 219.405C295.392 219.405 294.592 218.607 294.592 217.622Z" fill="black"/>
<path d="M274.953 237.243C274.953 236.258 275.752 235.459 276.738 235.459C277.724 235.459 278.524 236.258 278.524 237.243C278.524 238.228 277.724 239.027 276.738 239.027C275.752 239.027 274.953 238.228 274.953 237.243Z" fill="black"/>
<path d="M333.871 217.622C333.871 216.636 334.671 215.838 335.657 215.838C336.643 215.838 337.442 216.636 337.442 217.622C337.442 218.607 336.643 219.405 335.657 219.405C334.671 219.405 333.871 218.607 333.871 217.622Z" fill="black"/>
<path d="M314.232 237.243C314.232 236.258 315.031 235.459 316.017 235.459C317.003 235.459 317.803 236.258 317.803 237.243C317.803 238.228 317.003 239.027 316.017 239.027C315.031 239.027 314.232 238.228 314.232 237.243Z" fill="black"/>
<path d="M373.15 217.622C373.15 216.636 373.95 215.838 374.936 215.838C375.922 215.838 376.721 216.636 376.721 217.622C376.721 218.607 375.922 219.405 374.936 219.405C373.95 219.405 373.15 218.607 373.15 217.622Z" fill="black"/>
<path d="M353.511 237.243C353.511 236.258 354.31 235.459 355.296 235.459C356.282 235.459 357.082 236.258 357.082 237.243C357.082 238.228 356.282 239.027 355.296 239.027C354.31 239.027 353.511 238.228 353.511 237.243Z" fill="black"/>
<path d="M412.429 217.622C412.429 216.636 413.229 215.838 414.215 215.838C415.201 215.838 416 216.636 416 217.622C416 218.607 415.201 219.405 414.215 219.405C413.229 219.405 412.429 218.607 412.429 217.622Z" fill="black"/>
<path d="M392.79 237.243C392.79 236.258 393.589 235.459 394.575 235.459C395.561 235.459 396.361 236.258 396.361 237.243C396.361 238.228 395.561 239.027 394.575 239.027C393.589 239.027 392.79 238.228 392.79 237.243Z" fill="black"/>
<path d="M19.6395 256.865C19.6395 255.88 20.4388 255.081 21.4249 255.081C22.4109 255.081 23.2103 255.88 23.2103 256.865C23.2103 257.85 22.4109 258.649 21.4249 258.649C20.4388 258.649 19.6395 257.85 19.6395 256.865Z" fill="black"/>
<path d="M0 276.486C0 275.501 0.799354 274.703 1.78541 274.703C2.77146 274.703 3.57082 275.501 3.57082 276.486C3.57082 277.472 2.77146 278.27 1.78541 278.27C0.799354 278.27 0 277.472 0 276.486Z" fill="black"/>
<path d="M58.9185 256.865C58.9185 255.88 59.7178 255.081 60.7039 255.081C61.6899 255.081 62.4893 255.88 62.4893 256.865C62.4893 257.85 61.6899 258.649 60.7039 258.649C59.7178 258.649 58.9185 257.85 58.9185 256.865Z" fill="black"/>
<path d="M39.279 276.486C39.279 275.501 40.0783 274.703 41.0644 274.703C42.0504 274.703 42.8498 275.501 42.8498 276.486C42.8498 277.472 42.0504 278.27 41.0644 278.27C40.0783 278.27 39.279 277.472 39.279 276.486Z" fill="black"/>
<path d="M98.1974 256.865C98.1974 255.88 98.9968 255.081 99.9828 255.081C100.969 255.081 101.768 255.88 101.768 256.865C101.768 257.85 100.969 258.649 99.9828 258.649C98.9968 258.649 98.1974 257.85 98.1974 256.865Z" fill="black"/>
<path d="M78.5579 276.486C78.5579 275.501 79.3573 274.703 80.3434 274.703C81.3294 274.703 82.1288 275.501 82.1288 276.486C82.1288 277.472 81.3294 278.27 80.3434 278.27C79.3573 278.27 78.5579 277.472 78.5579 276.486Z" fill="black"/>
<path d="M137.476 256.865C137.476 255.88 138.276 255.081 139.262 255.081C140.248 255.081 141.047 255.88 141.047 256.865C141.047 257.85 140.248 258.649 139.262 258.649C138.276 258.649 137.476 257.85 137.476 256.865Z" fill="black"/>
<path d="M117.837 276.486C117.837 275.501 118.636 274.703 119.622 274.703C120.608 274.703 121.408 275.501 121.408 276.486C121.408 277.472 120.608 278.27 119.622 278.27C118.636 278.27 117.837 277.472 117.837 276.486Z" fill="black"/>
<path d="M176.755 256.865C176.755 255.88 177.555 255.081 178.541 255.081C179.527 255.081 180.326 255.88 180.326 256.865C180.326 257.85 179.527 258.649 178.541 258.649C177.555 258.649 176.755 257.85 176.755 256.865Z" fill="black"/>
<path d="M157.116 276.486C157.116 275.501 157.915 274.703 158.901 274.703C159.887 274.703 160.687 275.501 160.687 276.486C160.687 277.472 159.887 278.27 158.901 278.27C157.915 278.27 157.116 277.472 157.116 276.486Z" fill="black"/>
<path d="M216.034 256.865C216.034 255.88 216.834 255.081 217.82 255.081C218.806 255.081 219.605 255.88 219.605 256.865C219.605 257.85 218.806 258.649 217.82 258.649C216.834 258.649 216.034 257.85 216.034 256.865Z" fill="black"/>
<path d="M196.395 276.486C196.395 275.501 197.194 274.703 198.18 274.703C199.166 274.703 199.966 275.501 199.966 276.486C199.966 277.472 199.166 278.27 198.18 278.27C197.194 278.27 196.395 277.472 196.395 276.486Z" fill="black"/>
<path d="M255.313 256.865C255.313 255.88 256.113 255.081 257.099 255.081C258.085 255.081 258.884 255.88 258.884 256.865C258.884 257.85 258.085 258.649 257.099 258.649C256.113 258.649 255.313 257.85 255.313 256.865Z" fill="black"/>
<path d="M235.674 276.486C235.674 275.501 236.473 274.703 237.459 274.703C238.445 274.703 239.245 275.501 239.245 276.486C239.245 277.472 238.445 278.27 237.459 278.27C236.473 278.27 235.674 277.472 235.674 276.486Z" fill="black"/>
<path d="M294.592 256.865C294.592 255.88 295.392 255.081 296.378 255.081C297.364 255.081 298.163 255.88 298.163 256.865C298.163 257.85 297.364 258.649 296.378 258.649C295.392 258.649 294.592 257.85 294.592 256.865Z" fill="black"/>
<path d="M274.953 276.486C274.953 275.501 275.752 274.703 276.738 274.703C277.724 274.703 278.524 275.501 278.524 276.486C278.524 277.472 277.724 278.27 276.738 278.27C275.752 278.27 274.953 277.472 274.953 276.486Z" fill="black"/>
<path d="M333.871 256.865C333.871 255.88 334.671 255.081 335.657 255.081C336.643 255.081 337.442 255.88 337.442 256.865C337.442 257.85 336.643 258.649 335.657 258.649C334.671 258.649 333.871 257.85 333.871 256.865Z" fill="black"/>
<path d="M314.232 276.486C314.232 275.501 315.031 274.703 316.017 274.703C317.003 274.703 317.803 275.501 317.803 276.486C317.803 277.472 317.003 278.27 316.017 278.27C315.031 278.27 314.232 277.472 314.232 276.486Z" fill="black"/>
<path d="M373.15 256.865C373.15 255.88 373.95 255.081 374.936 255.081C375.922 255.081 376.721 255.88 376.721 256.865C376.721 257.85 375.922 258.649 374.936 258.649C373.95 258.649 373.15 257.85 373.15 256.865Z" fill="black"/>
<path d="M353.511 276.486C353.511 275.501 354.31 274.703 355.296 274.703C356.282 274.703 357.082 275.501 357.082 276.486C357.082 277.472 356.282 278.27 355.296 278.27C354.31 278.27 353.511 277.472 353.511 276.486Z" fill="black"/>
<path d="M412.429 256.865C412.429 255.88 413.229 255.081 414.215 255.081C415.201 255.081 416 255.88 416 256.865C416 257.85 415.201 258.649 414.215 258.649C413.229 258.649 412.429 257.85 412.429 256.865Z" fill="black"/>
<path d="M392.79 276.486C392.79 275.501 393.589 274.703 394.575 274.703C395.561 274.703 396.361 275.501 396.361 276.486C396.361 277.472 395.561 278.27 394.575 278.27C393.589 278.27 392.79 277.472 392.79 276.486Z" fill="black"/>
<path d="M19.6395 296.108C19.6395 295.123 20.4388 294.324 21.4249 294.324C22.4109 294.324 23.2103 295.123 23.2103 296.108C23.2103 297.093 22.4109 297.892 21.4249 297.892C20.4388 297.892 19.6395 297.093 19.6395 296.108Z" fill="black"/>
<path d="M0 315.73C0 314.745 0.799354 313.946 1.78541 313.946C2.77146 313.946 3.57082 314.745 3.57082 315.73C3.57082 316.715 2.77146 317.514 1.78541 317.514C0.799354 317.514 0 316.715 0 315.73Z" fill="black"/>
<path d="M58.9185 296.108C58.9185 295.123 59.7178 294.324 60.7039 294.324C61.6899 294.324 62.4893 295.123 62.4893 296.108C62.4893 297.093 61.6899 297.892 60.7039 297.892C59.7178 297.892 58.9185 297.093 58.9185 296.108Z" fill="black"/>
<path d="M39.279 315.73C39.279 314.745 40.0783 313.946 41.0644 313.946C42.0504 313.946 42.8498 314.745 42.8498 315.73C42.8498 316.715 42.0504 317.514 41.0644 317.514C40.0783 317.514 39.279 316.715 39.279 315.73Z" fill="black"/>
<path d="M98.1974 296.108C98.1974 295.123 98.9968 294.324 99.9828 294.324C100.969 294.324 101.768 295.123 101.768 296.108C101.768 297.093 100.969 297.892 99.9828 297.892C98.9968 297.892 98.1974 297.093 98.1974 296.108Z" fill="black"/>
<path d="M78.5579 315.73C78.5579 314.745 79.3573 313.946 80.3434 313.946C81.3294 313.946 82.1288 314.745 82.1288 315.73C82.1288 316.715 81.3294 317.514 80.3434 317.514C79.3573 317.514 78.5579 316.715 78.5579 315.73Z" fill="black"/>
<path d="M137.476 296.108C137.476 295.123 138.276 294.324 139.262 294.324C140.248 294.324 141.047 295.123 141.047 296.108C141.047 297.093 140.248 297.892 139.262 297.892C138.276 297.892 137.476 297.093 137.476 296.108Z" fill="black"/>
<path d="M117.837 315.73C117.837 314.745 118.636 313.946 119.622 313.946C120.608 313.946 121.408 314.745 121.408 315.73C121.408 316.715 120.608 317.514 119.622 317.514C118.636 317.514 117.837 316.715 117.837 315.73Z" fill="black"/>
<path d="M176.755 296.108C176.755 295.123 177.555 294.324 178.541 294.324C179.527 294.324 180.326 295.123 180.326 296.108C180.326 297.093 179.527 297.892 178.541 297.892C177.555 297.892 176.755 297.093 176.755 296.108Z" fill="black"/>
<path d="M157.116 315.73C157.116 314.745 157.915 313.946 158.901 313.946C159.887 313.946 160.687 314.745 160.687 315.73C160.687 316.715 159.887 317.514 158.901 317.514C157.915 317.514 157.116 316.715 157.116 315.73Z" fill="black"/>
<path d="M216.034 296.108C216.034 295.123 216.834 294.324 217.82 294.324C218.806 294.324 219.605 295.123 219.605 296.108C219.605 297.093 218.806 297.892 217.82 297.892C216.834 297.892 216.034 297.093 216.034 296.108Z" fill="black"/>
<path d="M196.395 315.73C196.395 314.745 197.194 313.946 198.18 313.946C199.166 313.946 199.966 314.745 199.966 315.73C199.966 316.715 199.166 317.514 198.18 317.514C197.194 317.514 196.395 316.715 196.395 315.73Z" fill="black"/>
<path d="M255.313 296.108C255.313 295.123 256.113 294.324 257.099 294.324C258.085 294.324 258.884 295.123 258.884 296.108C258.884 297.093 258.085 297.892 257.099 297.892C256.113 297.892 255.313 297.093 255.313 296.108Z" fill="black"/>
<path d="M235.674 315.73C235.674 314.745 236.473 313.946 237.459 313.946C238.445 313.946 239.245 314.745 239.245 315.73C239.245 316.715 238.445 317.514 237.459 317.514C236.473 317.514 235.674 316.715 235.674 315.73Z" fill="black"/>
<path d="M294.592 296.108C294.592 295.123 295.392 294.324 296.378 294.324C297.364 294.324 298.163 295.123 298.163 296.108C298.163 297.093 297.364 297.892 296.378 297.892C295.392 297.892 294.592 297.093 294.592 296.108Z" fill="black"/>
<path d="M274.953 315.73C274.953 314.745 275.752 313.946 276.738 313.946C277.724 313.946 278.524 314.745 278.524 315.73C278.524 316.715 277.724 317.514 276.738 317.514C275.752 317.514 274.953 316.715 274.953 315.73Z" fill="black"/>
<path d="M333.871 296.108C333.871 295.123 334.671 294.324 335.657 294.324C336.643 294.324 337.442 295.123 337.442 296.108C337.442 297.093 336.643 297.892 335.657 297.892C334.671 297.892 333.871 297.093 333.871 296.108Z" fill="black"/>
<path d="M314.232 315.73C314.232 314.745 315.031 313.946 316.017 313.946C317.003 313.946 317.803 314.745 317.803 315.73C317.803 316.715 317.003 317.514 316.017 317.514C315.031 317.514 314.232 316.715 314.232 315.73Z" fill="black"/>
<path d="M373.15 296.108C373.15 295.123 373.95 294.324 374.936 294.324C375.922 294.324 376.721 295.123 376.721 296.108C376.721 297.093 375.922 297.892 374.936 297.892C373.95 297.892 373.15 297.093 373.15 296.108Z" fill="black"/>
<path d="M353.511 315.73C353.511 314.745 354.31 313.946 355.296 313.946C356.282 313.946 357.082 314.745 357.082 315.73C357.082 316.715 356.282 317.514 355.296 317.514C354.31 317.514 353.511 316.715 353.511 315.73Z" fill="black"/>
<path d="M412.429 296.108C412.429 295.123 413.229 294.324 414.215 294.324C415.201 294.324 416 295.123 416 296.108C416 297.093 415.201 297.892 414.215 297.892C413.229 297.892 412.429 297.093 412.429 296.108Z" fill="black"/>
<path d="M392.79 315.73C392.79 314.745 393.589 313.946 394.575 313.946C395.561 313.946 396.361 314.745 396.361 315.73C396.361 316.715 395.561 317.514 394.575 317.514C393.589 317.514 392.79 316.715 392.79 315.73Z" fill="black"/>
<path d="M19.6395 335.351C19.6395 334.366 20.4388 333.568 21.4249 333.568C22.4109 333.568 23.2103 334.366 23.2103 335.351C23.2103 336.337 22.4109 337.135 21.4249 337.135C20.4388 337.135 19.6395 336.337 19.6395 335.351Z" fill="black"/>
<path d="M0 354.973C0 353.988 0.799354 353.189 1.78541 353.189C2.77146 353.189 3.57082 353.988 3.57082 354.973C3.57082 355.958 2.77146 356.757 1.78541 356.757C0.799354 356.757 0 355.958 0 354.973Z" fill="black"/>
<path d="M58.9185 335.351C58.9185 334.366 59.7178 333.568 60.7039 333.568C61.6899 333.568 62.4893 334.366 62.4893 335.351C62.4893 336.337 61.6899 337.135 60.7039 337.135C59.7178 337.135 58.9185 336.337 58.9185 335.351Z" fill="black"/>
<path d="M39.279 354.973C39.279 353.988 40.0783 353.189 41.0644 353.189C42.0504 353.189 42.8498 353.988 42.8498 354.973C42.8498 355.958 42.0504 356.757 41.0644 356.757C40.0783 356.757 39.279 355.958 39.279 354.973Z" fill="black"/>
<path d="M98.1974 335.351C98.1974 334.366 98.9968 333.568 99.9828 333.568C100.969 333.568 101.768 334.366 101.768 335.351C101.768 336.337 100.969 337.135 99.9828 337.135C98.9968 337.135 98.1974 336.337 98.1974 335.351Z" fill="black"/>
<path d="M78.5579 354.973C78.5579 353.988 79.3573 353.189 80.3434 353.189C81.3294 353.189 82.1288 353.988 82.1288 354.973C82.1288 355.958 81.3294 356.757 80.3434 356.757C79.3573 356.757 78.5579 355.958 78.5579 354.973Z" fill="black"/>
<path d="M137.476 335.351C137.476 334.366 138.276 333.568 139.262 333.568C140.248 333.568 141.047 334.366 141.047 335.351C141.047 336.337 140.248 337.135 139.262 337.135C138.276 337.135 137.476 336.337 137.476 335.351Z" fill="black"/>
<path d="M117.837 354.973C117.837 353.988 118.636 353.189 119.622 353.189C120.608 353.189 121.408 353.988 121.408 354.973C121.408 355.958 120.608 356.757 119.622 356.757C118.636 356.757 117.837 355.958 117.837 354.973Z" fill="black"/>
<path d="M176.755 335.351C176.755 334.366 177.555 333.568 178.541 333.568C179.527 333.568 180.326 334.366 180.326 335.351C180.326 336.337 179.527 337.135 178.541 337.135C177.555 337.135 176.755 336.337 176.755 335.351Z" fill="black"/>
<path d="M157.116 354.973C157.116 353.988 157.915 353.189 158.901 353.189C159.887 353.189 160.687 353.988 160.687 354.973C160.687 355.958 159.887 356.757 158.901 356.757C157.915 356.757 157.116 355.958 157.116 354.973Z" fill="black"/>
<path d="M216.034 335.351C216.034 334.366 216.834 333.568 217.82 333.568C218.806 333.568 219.605 334.366 219.605 335.351C219.605 336.337 218.806 337.135 217.82 337.135C216.834 337.135 216.034 336.337 216.034 335.351Z" fill="black"/>
<path d="M196.395 354.973C196.395 353.988 197.194 353.189 198.18 353.189C199.166 353.189 199.966 353.988 199.966 354.973C199.966 355.958 199.166 356.757 198.18 356.757C197.194 356.757 196.395 355.958 196.395 354.973Z" fill="black"/>
<path d="M255.313 335.351C255.313 334.366 256.113 333.568 257.099 333.568C258.085 333.568 258.884 334.366 258.884 335.351C258.884 336.337 258.085 337.135 257.099 337.135C256.113 337.135 255.313 336.337 255.313 335.351Z" fill="black"/>
<path d="M235.674 354.973C235.674 353.988 236.473 353.189 237.459 353.189C238.445 353.189 239.245 353.988 239.245 354.973C239.245 355.958 238.445 356.757 237.459 356.757C236.473 356.757 235.674 355.958 235.674 354.973Z" fill="black"/>
<path d="M294.592 335.351C294.592 334.366 295.392 333.568 296.378 333.568C297.364 333.568 298.163 334.366 298.163 335.351C298.163 336.337 297.364 337.135 296.378 337.135C295.392 337.135 294.592 336.337 294.592 335.351Z" fill="black"/>
<path d="M274.953 354.973C274.953 353.988 275.752 353.189 276.738 353.189C277.724 353.189 278.524 353.988 278.524 354.973C278.524 355.958 277.724 356.757 276.738 356.757C275.752 356.757 274.953 355.958 274.953 354.973Z" fill="black"/>
<path d="M333.871 335.351C333.871 334.366 334.671 333.568 335.657 333.568C336.643 333.568 337.442 334.366 337.442 335.351C337.442 336.337 336.643 337.135 335.657 337.135C334.671 337.135 333.871 336.337 333.871 335.351Z" fill="black"/>
<path d="M314.232 354.973C314.232 353.988 315.031 353.189 316.017 353.189C317.003 353.189 317.803 353.988 317.803 354.973C317.803 355.958 317.003 356.757 316.017 356.757C315.031 356.757 314.232 355.958 314.232 354.973Z" fill="black"/>
<path d="M373.15 335.351C373.15 334.366 373.95 333.568 374.936 333.568C375.922 333.568 376.721 334.366 376.721 335.351C376.721 336.337 375.922 337.135 374.936 337.135C373.95 337.135 373.15 336.337 373.15 335.351Z" fill="black"/>
<path d="M353.511 354.973C353.511 353.988 354.31 353.189 355.296 353.189C356.282 353.189 357.082 353.988 357.082 354.973C357.082 355.958 356.282 356.757 355.296 356.757C354.31 356.757 353.511 355.958 353.511 354.973Z" fill="black"/>
<path d="M412.429 335.351C412.429 334.366 413.229 333.568 414.215 333.568C415.201 333.568 416 334.366 416 335.351C416 336.337 415.201 337.135 414.215 337.135C413.229 337.135 412.429 336.337 412.429 335.351Z" fill="black"/>
<path d="M392.79 354.973C392.79 353.988 393.589 353.189 394.575 353.189C395.561 353.189 396.361 353.988 396.361 354.973C396.361 355.958 395.561 356.757 394.575 356.757C393.589 356.757 392.79 355.958 392.79 354.973Z" fill="black"/>
<path d="M19.6395 374.595C19.6395 373.609 20.4388 372.811 21.4249 372.811C22.4109 372.811 23.2103 373.609 23.2103 374.595C23.2103 375.58 22.4109 376.378 21.4249 376.378C20.4388 376.378 19.6395 375.58 19.6395 374.595Z" fill="black"/>
<path d="M0 394.216C0 393.231 0.799354 392.432 1.78541 392.432C2.77146 392.432 3.57082 393.231 3.57082 394.216C3.57082 395.201 2.77146 396 1.78541 396C0.799354 396 0 395.201 0 394.216Z" fill="black"/>
<path d="M58.9185 374.595C58.9185 373.609 59.7178 372.811 60.7039 372.811C61.6899 372.811 62.4893 373.609 62.4893 374.595C62.4893 375.58 61.6899 376.378 60.7039 376.378C59.7178 376.378 58.9185 375.58 58.9185 374.595Z" fill="black"/>
<path d="M39.279 394.216C39.279 393.231 40.0783 392.432 41.0644 392.432C42.0504 392.432 42.8498 393.231 42.8498 394.216C42.8498 395.201 42.0504 396 41.0644 396C40.0783 396 39.279 395.201 39.279 394.216Z" fill="black"/>
<path d="M98.1974 374.595C98.1974 373.609 98.9968 372.811 99.9828 372.811C100.969 372.811 101.768 373.609 101.768 374.595C101.768 375.58 100.969 376.378 99.9828 376.378C98.9968 376.378 98.1974 375.58 98.1974 374.595Z" fill="black"/>
<path d="M78.5579 394.216C78.5579 393.231 79.3573 392.432 80.3434 392.432C81.3294 392.432 82.1288 393.231 82.1288 394.216C82.1288 395.201 81.3294 396 80.3434 396C79.3573 396 78.5579 395.201 78.5579 394.216Z" fill="black"/>
<path d="M137.476 374.595C137.476 373.609 138.276 372.811 139.262 372.811C140.248 372.811 141.047 373.609 141.047 374.595C141.047 375.58 140.248 376.378 139.262 376.378C138.276 376.378 137.476 375.58 137.476 374.595Z" fill="black"/>
<path d="M117.837 394.216C117.837 393.231 118.636 392.432 119.622 392.432C120.608 392.432 121.408 393.231 121.408 394.216C121.408 395.201 120.608 396 119.622 396C118.636 396 117.837 395.201 117.837 394.216Z" fill="black"/>
<path d="M176.755 374.595C176.755 373.609 177.555 372.811 178.541 372.811C179.527 372.811 180.326 373.609 180.326 374.595C180.326 375.58 179.527 376.378 178.541 376.378C177.555 376.378 176.755 375.58 176.755 374.595Z" fill="black"/>
<path d="M157.116 394.216C157.116 393.231 157.915 392.432 158.901 392.432C159.887 392.432 160.687 393.231 160.687 394.216C160.687 395.201 159.887 396 158.901 396C157.915 396 157.116 395.201 157.116 394.216Z" fill="black"/>
<path d="M216.034 374.595C216.034 373.609 216.834 372.811 217.82 372.811C218.806 372.811 219.605 373.609 219.605 374.595C219.605 375.58 218.806 376.378 217.82 376.378C216.834 376.378 216.034 375.58 216.034 374.595Z" fill="black"/>
<path d="M196.395 394.216C196.395 393.231 197.194 392.432 198.18 392.432C199.166 392.432 199.966 393.231 199.966 394.216C199.966 395.201 199.166 396 198.18 396C197.194 396 196.395 395.201 196.395 394.216Z" fill="black"/>
<path d="M255.313 374.595C255.313 373.609 256.113 372.811 257.099 372.811C258.085 372.811 258.884 373.609 258.884 374.595C258.884 375.58 258.085 376.378 257.099 376.378C256.113 376.378 255.313 375.58 255.313 374.595Z" fill="black"/>
<path d="M235.674 394.216C235.674 393.231 236.473 392.432 237.459 392.432C238.445 392.432 239.245 393.231 239.245 394.216C239.245 395.201 238.445 396 237.459 396C236.473 396 235.674 395.201 235.674 394.216Z" fill="black"/>
<path d="M294.592 374.595C294.592 373.609 295.392 372.811 296.378 372.811C297.364 372.811 298.163 373.609 298.163 374.595C298.163 375.58 297.364 376.378 296.378 376.378C295.392 376.378 294.592 375.58 294.592 374.595Z" fill="black"/>
<path d="M274.953 394.216C274.953 393.231 275.752 392.432 276.738 392.432C277.724 392.432 278.524 393.231 278.524 394.216C278.524 395.201 277.724 396 276.738 396C275.752 396 274.953 395.201 274.953 394.216Z" fill="black"/>
<path d="M333.871 374.595C333.871 373.609 334.671 372.811 335.657 372.811C336.643 372.811 337.442 373.609 337.442 374.595C337.442 375.58 336.643 376.378 335.657 376.378C334.671 376.378 333.871 375.58 333.871 374.595Z" fill="black"/>
<path d="M314.232 394.216C314.232 393.231 315.031 392.432 316.017 392.432C317.003 392.432 317.803 393.231 317.803 394.216C317.803 395.201 317.003 396 316.017 396C315.031 396 314.232 395.201 314.232 394.216Z" fill="black"/>
<path d="M373.15 374.595C373.15 373.609 373.95 372.811 374.936 372.811C375.922 372.811 376.721 373.609 376.721 374.595C376.721 375.58 375.922 376.378 374.936 376.378C373.95 376.378 373.15 375.58 373.15 374.595Z" fill="black"/>
<path d="M353.511 394.216C353.511 393.231 354.31 392.432 355.296 392.432C356.282 392.432 357.082 393.231 357.082 394.216C357.082 395.201 356.282 396 355.296 396C354.31 396 353.511 395.201 353.511 394.216Z" fill="black"/>
<path d="M412.429 374.595C412.429 373.609 413.229 372.811 414.215 372.811C415.201 372.811 416 373.609 416 374.595C416 375.58 415.201 376.378 414.215 376.378C413.229 376.378 412.429 375.58 412.429 374.595Z" fill="black"/>
<path d="M392.79 394.216C392.79 393.231 393.589 392.432 394.575 392.432C395.561 392.432 396.361 393.231 396.361 394.216C396.361 395.201 395.561 396 394.575 396C393.589 396 392.79 395.201 392.79 394.216Z" fill="black"/>
</mask>
<g mask="url(#mask0)">
<circle cx="216" cy="193" r="200" fill="#C7C7C7"/>
</g>
</svg>
