<svg width="121" height="120" viewBox="0 0 121 120" fill="none" xmlns="http://www.w3.org/2000/svg">
<g clip-path="url(#clip0)">
<path d="M45.4999 21.5627C42.3286 21.5627 39.4849 23.5723 38.4284 26.5624C38.0822 27.5384 38.5932 28.6104 39.571 28.9556C40.2115 29.1858 40.8821 29.0121 41.3745 28.6038L49.2499 38.0611V40.3127C49.2499 41.3482 50.0885 42.1877 51.125 42.1877C52.1614 42.1877 53 41.3482 53 40.3127V29.0627C53 24.9272 49.6362 21.5627 45.4999 21.5627Z" fill="#C7C7C7"/>
<path d="M39.875 25.3127C36.4381 25.3127 33.1899 26.632 30.6575 29.104L6.61768 55.3484L9.3826 57.8808L10.0321 57.1713L49.25 67.9235V68.4377C49.25 69.4732 50.0886 70.3127 51.125 70.3127C52.1614 70.3127 53 69.4732 53 68.4377V38.4377C53 31.2005 47.1113 25.3127 39.875 25.3127Z" fill="#F7931E"/>
<path d="M75.5 21.5627C78.6713 21.5627 81.515 23.5723 82.5716 26.5624C82.9177 27.5384 82.4068 28.6104 81.429 28.9556C80.7884 29.1858 80.1179 29.0121 79.6255 28.6038L71.75 38.0611V40.3127C71.75 41.3482 70.9114 42.1877 69.875 42.1877C68.8386 42.1877 68 41.3482 68 40.3127V29.0627C68 24.9272 71.3635 21.5627 75.5 21.5627Z" fill="#C7C7C7"/>
<path d="M81.125 25.3127C84.5619 25.3127 87.8101 26.632 90.3425 29.104L114.382 55.3486L111.617 57.881L110.968 57.1716L71.75 67.9235V68.4377C71.75 69.4732 70.9114 70.3127 69.875 70.3127C68.8386 70.3127 68 69.4732 68 68.4377V38.4377C68 31.2005 73.8887 25.3127 81.125 25.3127Z" fill="#F7931E"/>
<path d="M26.75 92.8127C38.1409 92.8127 47.375 83.5786 47.375 72.1877C47.375 60.7969 38.1409 51.5627 26.75 51.5627C15.3591 51.5627 6.125 60.7969 6.125 72.1877C6.125 83.5786 15.3591 92.8127 26.75 92.8127Z" fill="#754C29"/>
<path d="M30.5 75.9377C34.6421 75.9377 38 72.5799 38 68.4377C38 64.2956 34.6421 60.9377 30.5 60.9377C26.3579 60.9377 23 64.2956 23 68.4377C23 72.5799 26.3579 75.9377 30.5 75.9377Z" fill="white"/>
<path d="M45.5 47.8128H75.4999L75.7882 47.8088C72.1392 51.3824 69.8749 56.3645 69.8749 61.8753V68.4378H51.1249V61.8753C51.1249 56.3645 48.8607 51.3824 45.2117 47.8088" fill="url(#paint0_linear)"/>
<path d="M26.75 45.9377C12.2755 45.9377 0.5 57.7132 0.5 72.1877C0.5 86.6623 12.2755 98.4377 26.75 98.4377C41.2245 98.4377 53 86.6623 53 72.1877C53 57.7132 41.2245 45.9377 26.75 45.9377ZM26.75 90.9377C16.4115 90.9377 8 82.5263 8 72.1877C8 61.8492 16.4115 53.4377 26.75 53.4377C37.0885 53.4377 45.5 61.8492 45.5 72.1877C45.5 82.5263 37.0885 90.9377 26.75 90.9377Z" fill="url(#paint1_linear)"/>
<path d="M94.25 92.8127C105.641 92.8127 114.875 83.5786 114.875 72.1877C114.875 60.7969 105.641 51.5627 94.25 51.5627C82.8591 51.5627 73.625 60.7969 73.625 72.1877C73.625 83.5786 82.8591 92.8127 94.25 92.8127Z" fill="#754C29"/>
<path d="M94.25 45.9377C79.7755 45.9377 68 57.7132 68 72.1877C68 86.6623 79.7755 98.4377 94.25 98.4377C108.725 98.4377 120.5 86.6623 120.5 72.1877C120.5 57.7132 108.725 45.9377 94.25 45.9377ZM94.25 90.9377C83.9115 90.9377 75.5 82.5263 75.5 72.1877C75.5 61.8492 83.9115 53.4377 94.25 53.4377C104.589 53.4377 113 61.8492 113 72.1877C113 82.5263 104.589 90.9377 94.25 90.9377Z" fill="url(#paint2_linear)"/>
<path d="M98 75.9377C102.142 75.9377 105.5 72.5799 105.5 68.4377C105.5 64.2956 102.142 60.9377 98 60.9377C93.8579 60.9377 90.5 64.2956 90.5 68.4377C90.5 72.5799 93.8579 75.9377 98 75.9377Z" fill="white"/>
<path d="M75.5 44.0627H45.5V47.8127H75.5V44.0627Z" fill="#F7931E"/>
</g>
<defs>
<linearGradient id="paint0_linear" x1="60.5001" y1="47.8128" x2="60.5001" y2="84.2582" gradientUnits="userSpaceOnUse">
<stop stop-color="#EF4223"/>
<stop offset="0.0001" stop-color="#EF4323"/>
<stop offset="1" stop-color="#F7931E"/>
</linearGradient>
<linearGradient id="paint1_linear" x1="24.5234" y1="45.9377" x2="25.6953" y2="97.1487" gradientUnits="userSpaceOnUse">
<stop stop-color="#EF4223"/>
<stop offset="0.0001" stop-color="#EF4323"/>
<stop offset="1" stop-color="#F7931E"/>
</linearGradient>
<linearGradient id="paint2_linear" x1="94.25" y1="45.9377" x2="94.25" y2="100.313" gradientUnits="userSpaceOnUse">
<stop stop-color="#EF4223"/>
<stop offset="0.0001" stop-color="#EF4323"/>
<stop offset="1" stop-color="#F7931E"/>
</linearGradient>
<clipPath id="clip0">
<rect width="120" height="120" fill="white" transform="translate(0.5 0.000244141)"/>
</clipPath>
</defs>
</svg>
