<svg width="121" height="120" viewBox="0 0 121 120" fill="none" xmlns="http://www.w3.org/2000/svg">
<path d="M11.3915 117.723L23.5554 81.5847C24.9913 77.319 28.2946 73.9363 32.5324 72.3927L56.2343 63.759L57.4569 63.3137C60.5405 62.1903 63.5309 63.7547 64.6859 66.8197C65.8343 69.8667 64.323 73.0575 61.2888 74.2566L54.6707 76.828C52.1535 77.8227 50.4922 81.0846 51.4809 83.5986C51.7252 84.2199 52.5077 84.7639 52.9461 85.2157C53.1483 85.4242 53.3678 85.6133 53.6013 85.7813C54.8853 86.7055 56.5915 86.9937 58.1846 86.4065L90.2354 74.5931L99.0845 58.3449C99.4047 57.757 99.8201 57.2494 100.303 56.8324C101.751 55.5816 103.804 55.5723 105.698 56.2473L105.486 56.0354C108.358 57.0583 109.827 60.2345 108.743 63.0774L100.318 84.4089C99.6516 86.1577 98.3449 87.5894 96.6615 88.4148L91.5521 91.1289L49.875 111.568C48.6896 112.149 47.9387 113.352 47.9387 114.669V118.272C47.9387 119.227 47.163 120 46.2062 120H13.0339C11.8498 120.001 11.0146 118.842 11.3915 117.723Z" fill="#FED2A4"/>
<path d="M105.864 55.6546C104.148 55.0416 102.303 55.3426 100.895 56.3364C102.872 57.733 103.743 60.3396 102.84 62.7153L92.9712 88.7118C92.6125 89.6552 92.0671 90.5051 91.3789 91.2194L91.7176 91.0528L97.2519 88.3317C98.9354 87.5039 100.242 86.0686 100.909 84.3153L109.121 62.7153C110.205 59.8647 108.736 56.6804 105.864 55.6546Z" fill="#FFBD86"/>
<path d="M59.1723 66.8111C60.3315 69.8117 58.806 73.1627 55.7435 74.3434L48.6346 77.0844C46.0939 78.064 44.8459 80.8588 45.8438 83.3345C46.8301 85.7816 49.6475 87.011 52.1813 86.0997L53.8957 85.4832C53.1496 84.9592 52.544 84.2285 52.1837 83.3345C51.1858 80.8588 52.4338 78.064 54.9745 77.0844L62.0834 74.3434C65.1459 73.1627 66.6714 69.8117 65.5122 66.8111C64.3462 63.7928 60.8992 62.2522 57.7867 63.3585L56.5527 63.797C57.7163 64.4539 58.6625 65.4911 59.1723 66.8111Z" fill="#FFBD86"/>
<path d="M51.269 18.9934C45.1769 25.1178 45.1769 35.0471 51.269 41.1715L73.6189 63.6397L76.3479 66.1235C76.9801 66.7591 78.005 66.7591 78.6373 66.1235L103.2 41.1715C109.292 35.0473 109.55 25.637 103.458 19.5126C99.4183 15.4516 93.9722 13.5641 88.8111 14.8892C86.1889 15.5622 83.7071 16.9303 81.6549 18.9936L77.4926 23.1779L73.3303 18.9936C67.2383 12.8691 57.361 12.8691 51.269 18.9934Z" fill="url(#paint0_linear)"/>
<path d="M103.913 18.9684C99.858 14.9272 94.1325 13.5688 88.9514 14.8871C91.5837 15.5569 94.0757 16.9153 96.136 18.9682C102.252 25.0627 102.252 34.9433 96.136 41.0376L73.7 63.3959L76.4394 66.1259C77.0741 66.7583 78.103 66.7583 78.7376 66.1259L103.913 41.0378C110.029 34.9436 110.029 25.0627 103.913 18.9684Z" fill="#EF4323"/>
<defs>
<linearGradient id="paint0_linear" x1="56.2106" y1="40.4594" x2="91.6993" y2="40.4594" gradientUnits="userSpaceOnUse">
<stop stop-color="#EF4223"/>
<stop offset="0.0001" stop-color="#EF4323"/>
<stop offset="1" stop-color="#F7931E"/>
</linearGradient>
</defs>
</svg>
