<svg width="121" height="120" viewBox="0 0 121 120" fill="none" xmlns="http://www.w3.org/2000/svg">
<g clip-path="url(#clip0)">
<path d="M100.087 115.837H58.7806L46.5629 94.5779L32.7183 94.4379C31.3642 94.426 30.272 93.3228 30.272 91.9678V73.9584H21.8363C20.5079 73.9584 19.4166 72.9111 19.3662 71.5808C19.1511 65.7882 19.3278 50.6536 26.0642 40.0692C26.1704 39.9072 26.2739 39.7451 26.3801 39.5831C28.3576 36.6067 31.7405 33.8464 33.5468 31.6519H83.8643C84.9437 34.3252 85.6678 37.1716 85.9745 40.1434C86.262 42.8863 86.1943 45.7336 85.7191 48.6377L79.6125 84.3478C79.5137 84.9255 79.6418 85.517 79.9678 86.0022L100.087 115.837Z" fill="#FED2A4"/>
<path d="M85.7209 48.6367L79.9064 82.6312C79.6711 84.0054 78.2648 84.8467 76.9428 84.4036L60.3681 78.8464C59.3619 78.5076 58.6817 77.5637 58.6817 76.5026V45.2932H50.3788C49.7855 45.2932 49.2399 45.0835 48.8151 44.7338C48.2603 44.2815 47.9087 43.593 47.9087 42.8222V31.021H83.6024C85.8775 36.3173 86.7463 42.347 85.7209 48.6367Z" fill="#91633C"/>
<path d="M95.1243 103.524C90.0569 105.275 68.3057 112.527 53.5282 113.268C52.2162 113.333 51.1899 114.421 51.1899 115.735V117.529C51.1899 118.894 52.2959 120 53.661 120H104.163C105.61 120 106.741 118.764 106.626 117.321C106.366 114.077 104.725 108.465 97.2593 103.777C96.6203 103.376 95.8366 103.278 95.1243 103.524Z" fill="#F7931E"/>
<path d="M85.3464 37.4536H27.9511C20.5563 37.4536 14.5624 31.4587 14.5624 24.0649V11.7126C14.5624 10.3485 15.6683 9.24158 17.0334 9.24158H66.8033C78.4095 9.24158 87.8175 18.6505 87.8175 30.2557V34.9826C87.8175 36.3467 86.7115 37.4536 85.3464 37.4536Z" fill="#754C29"/>
<path d="M48.6466 74.8933C48.6466 77.8074 47.6203 80.2318 45.5896 82.0949C41.7801 85.5986 35.3549 86.082 32.1094 86.082C31.2167 86.082 30.5649 86.0454 30.2719 86.0234V82.397C30.3204 82.397 30.3708 82.3997 30.4221 82.4043C30.434 82.4043 31.084 82.4547 32.1048 82.4547C32.9984 82.4547 34.1711 82.4162 35.4538 82.2688C38.8925 81.8761 41.5531 80.8909 43.1442 79.4252C44.4113 78.2588 45.0247 76.7766 45.0247 74.8924C45.0247 73.8936 45.8359 73.0824 46.8357 73.0824C47.8382 73.0824 48.6466 73.8936 48.6466 74.8933Z" fill="#FFBD86"/>
<path d="M102.061 35.9155C102.061 53.2886 87.9787 67.3712 70.6065 67.3712C53.2335 67.3712 39.1508 53.2886 39.1508 35.9155C39.1508 18.5433 53.2335 4.46069 70.6065 4.46069C87.9787 4.46069 102.061 18.5433 102.061 35.9155Z" fill="url(#paint0_linear)"/>
<path d="M102.061 35.9146C102.061 53.2877 87.9796 67.3722 70.6065 67.3722C53.2335 67.3722 39.1517 53.2877 39.1517 35.9146C39.1517 35.0092 39.1902 34.1129 39.2662 33.2257C40.6312 49.3372 54.1398 61.9898 70.6065 61.9898C87.0741 61.9898 100.582 49.3372 101.948 33.2257C102.024 34.1129 102.061 35.0092 102.061 35.9146Z" fill="#EF4323"/>
<path d="M35.4191 58.9338C33.6503 58.9338 32.0655 57.9477 31.2836 56.3593C30.8423 55.4621 31.2113 54.3763 32.1085 53.935C33.0057 53.4928 34.0915 53.8626 34.5328 54.7599C34.6647 55.0272 34.9668 55.3128 35.4191 55.3128C35.8722 55.3128 36.1735 55.0272 36.3053 54.7599C36.7466 53.8626 37.8324 53.4928 38.7296 53.935C39.6268 54.3763 39.9967 55.4621 39.5545 56.3593C38.7726 57.9477 37.1888 58.9338 35.4191 58.9338Z" fill="#754C29"/>
<path d="M63.9982 40.3695H77.2139C77.8575 35.0146 79.9989 29.9325 83.3012 25.5975C85.3419 22.9196 86.5541 19.5751 86.5541 15.9478C86.5541 6.885 78.9937 -0.412672 69.8356 0.0185417C61.6179 0.404895 54.9794 7.11114 54.6699 15.3326C54.5234 19.2382 55.7823 22.8445 57.9805 25.6881C61.2901 29.9682 63.3693 35.043 63.9982 40.3695Z" fill="#F7931E"/>
<path d="M73.0565 22.5543C72.0559 22.5543 71.2456 23.3646 71.2456 24.3652V25.5106C71.2456 25.7001 70.9664 25.9198 70.6066 25.9198C70.2459 25.9198 69.9675 25.7001 69.9675 25.5106V24.3652C69.9675 23.3646 69.1564 22.5543 68.1566 22.5543C67.1559 22.5543 66.3457 23.3646 66.3457 24.3652V39.303C66.3457 40.3027 67.1559 41.113 68.1566 41.113C69.1564 41.113 69.9675 40.3027 69.9675 39.303V34.3921C70.1763 34.4214 70.3887 34.4425 70.6066 34.4425C70.8245 34.4425 71.0369 34.4214 71.2456 34.3921V39.303C71.2456 40.3027 72.0568 41.113 73.0565 41.113C74.0563 41.113 74.8674 40.3027 74.8674 39.303V24.3652C74.8674 23.3655 74.0563 22.5543 73.0565 22.5543ZM70.6057 30.8206C70.2459 30.8206 69.9666 30.6009 69.9666 30.4114V29.4922C70.1763 29.5224 70.3887 29.5425 70.6057 29.5425C70.8236 29.5425 71.036 29.5224 71.2456 29.4922V30.4114C71.2456 30.6009 70.9664 30.8206 70.6057 30.8206Z" fill="url(#paint1_linear)"/>
<path d="M78.7868 43.9836H62.6634C61.6627 43.9836 60.8525 43.1733 60.8525 42.1736C60.8525 41.1729 61.6627 40.3627 62.6634 40.3627H78.7868C79.7865 40.3627 80.5968 41.1729 80.5968 42.1736C80.5968 43.1733 79.7865 43.9836 78.7868 43.9836Z" fill="#F9F9F9"/>
<path d="M78.7868 48.7261H62.6634C61.6627 48.7261 60.8525 47.9158 60.8525 46.9152C60.8525 45.9154 61.6627 45.1042 62.6634 45.1042H78.7868C79.7865 45.1042 80.5968 45.9154 80.5968 46.9152C80.5968 47.9158 79.7865 48.7261 78.7868 48.7261Z" fill="#F9F9F9"/>
<path d="M78.7868 53.522H62.6634C61.6627 53.522 60.8525 52.7117 60.8525 51.7111C60.8525 50.7113 61.6627 49.9001 62.6634 49.9001H78.7868C79.7865 49.9001 80.5968 50.7113 80.5968 51.7111C80.5968 52.7117 79.7865 53.522 78.7868 53.522Z" fill="#F9F9F9"/>
</g>
<defs>
<linearGradient id="paint0_linear" x1="39.1508" y1="35.9159" x2="102.061" y2="35.9159" gradientUnits="userSpaceOnUse">
<stop stop-color="#EF4223"/>
<stop offset="0.0001" stop-color="#EF4323"/>
<stop offset="1" stop-color="#F7931E"/>
</linearGradient>
<linearGradient id="paint1_linear" x1="70.7154" y1="22.5443" x2="70.7154" y2="47.9064" gradientUnits="userSpaceOnUse">
<stop stop-color="#EF4223"/>
<stop offset="0.0001" stop-color="#EF4323"/>
<stop offset="1" stop-color="#F7931E"/>
</linearGradient>
<clipPath id="clip0">
<rect width="120" height="120" fill="white" transform="translate(0.5 0.000244141)"/>
</clipPath>
</defs>
</svg>
