<svg width="121" height="120" viewBox="0 0 121 120" fill="none" xmlns="http://www.w3.org/2000/svg">
<path fill-rule="evenodd" clip-rule="evenodd" d="M15.3281 60.0002C15.3281 84.9095 35.5908 105.172 60.5 105.172C85.4092 105.172 105.672 84.9095 105.672 60.0002C105.672 58.249 104.251 56.8284 102.5 56.8284C100.749 56.8284 99.3281 58.249 99.3281 60.0002C99.3281 81.409 81.9088 98.8284 60.5 98.8284C39.0912 98.8284 21.6719 81.409 21.6719 60.0002C21.6719 38.5915 39.0912 21.1721 60.5 21.1721C62.2512 21.1721 63.6719 19.7515 63.6719 18.0002C63.6719 16.249 62.2512 14.8284 60.5 14.8284C35.5908 14.8284 15.3281 35.091 15.3281 60.0002Z" fill="#EF4323"/>
<path fill-rule="evenodd" clip-rule="evenodd" d="M31.3281 60.0002C31.3281 76.0875 44.4128 89.1721 60.5 89.1721C76.5872 89.1721 89.6719 76.0875 89.6719 60.0002C89.6719 58.249 88.2512 56.8284 86.5 56.8284C84.7488 56.8284 83.3281 58.249 83.3281 60.0002C83.3281 72.587 73.0868 82.8284 60.5 82.8284C47.9132 82.8284 37.6719 72.587 37.6719 60.0002C37.6719 47.4135 47.9132 37.1721 60.5 37.1721C62.2512 37.1721 63.6719 35.7515 63.6719 34.0002C63.6719 32.249 62.2512 30.8284 60.5 30.8284C44.4128 30.8284 31.3281 43.913 31.3281 60.0002Z" fill="#F7931E"/>
<path d="M60.4999 70.0002C66.0227 70.0002 70.4999 65.5231 70.4999 60.0002C70.4999 54.4774 66.0227 50.0002 60.4999 50.0002C54.977 50.0002 50.4999 54.4774 50.4999 60.0002C50.4999 65.5231 54.977 70.0002 60.4999 70.0002Z" fill="#EF4323"/>
<path fill-rule="evenodd" clip-rule="evenodd" d="M59.5769 60.9554C59.8283 61.2067 60.1653 61.4483 60.4997 61.6299C60.8017 61.794 61.2796 62.0082 61.7866 62.0082C62.5006 62.0082 63.2175 61.7341 63.7619 61.1898L101.064 23.887C101.72 23.2314 101.843 22.3468 101.757 21.6506C101.67 20.9484 101.352 20.2242 100.83 19.7021C100.308 19.1799 99.5835 18.8618 98.8814 18.7749C98.1852 18.6887 97.3005 18.8121 96.6449 19.4677L59.3425 56.7704C58.687 57.426 58.5636 58.3107 58.6498 59.0069C58.7367 59.709 59.0547 60.4332 59.5769 60.9554Z" fill="#C7C7C7"/>
<path d="M90.5 29.6487L89.3281 21.9573C89.3281 21.4273 89.5381 20.9173 89.9141 20.5433L97.9141 12.5433C99.1741 11.2833 101.328 12.1753 101.328 13.9573V19.1293L90.5 29.6487Z" fill="url(#paint0_linear)"/>
<path d="M90.5 29.6487L98.5001 31.1294C99.0301 31.1294 99.5401 30.9194 99.9141 30.5434L107.914 22.5434C109.174 21.2834 108.282 19.1294 106.5 19.1294L101.328 19.1293L90.5 29.6487Z" fill="url(#paint1_linear)"/>
<defs>
<linearGradient id="paint0_linear" x1="89.3281" y1="21.5414" x2="108.504" y2="21.5414" gradientUnits="userSpaceOnUse">
<stop stop-color="#EF4223"/>
<stop offset="0.0001" stop-color="#EF4323"/>
<stop offset="1" stop-color="#F7931E"/>
</linearGradient>
<linearGradient id="paint1_linear" x1="89.3281" y1="21.5414" x2="108.504" y2="21.5414" gradientUnits="userSpaceOnUse">
<stop stop-color="#EF4223"/>
<stop offset="0.0001" stop-color="#EF4323"/>
<stop offset="1" stop-color="#F7931E"/>
</linearGradient>
</defs>
</svg>
