<svg width="121" height="120" viewBox="0 0 121 120" fill="none" xmlns="http://www.w3.org/2000/svg">
<path fill-rule="evenodd" clip-rule="evenodd" d="M31.0841 118.904H35.1518C36.6623 118.904 37.8892 117.678 37.8892 116.166C37.8892 114.655 36.6621 113.43 35.1518 113.43H31.0841C29.5738 113.43 28.3467 114.655 28.3467 116.166C28.3467 117.678 29.5736 118.904 31.0841 118.904Z" fill="#F7931E"/>
<path d="M77.9822 116.372L77.9825 116.374C78.1968 117.723 79.3591 118.686 80.6847 118.686C80.8253 118.686 80.9652 118.674 81.1027 118.655L81.1069 118.654L81.1112 118.653C84.1352 118.18 86.9689 117.07 89.527 115.358C90.7837 114.517 91.1166 112.814 90.2769 111.561C89.4374 110.306 87.7386 109.965 86.4808 110.808C84.5858 112.076 82.4957 112.895 80.2626 113.245L80.2621 113.245C78.7707 113.48 77.7494 114.878 77.9822 116.372Z" fill="#F7931E"/>
<path d="M93.2257 108.155L93.2267 108.156C93.6051 108.336 94.007 108.421 94.4011 108.421C95.4201 108.421 96.4035 107.848 96.8728 106.86C98.194 104.091 98.8762 101.126 98.9055 98.0554L98.9055 98.055C98.9191 96.5436 97.7047 95.3066 96.1936 95.293L96.1886 95.2929L96.1835 95.293C94.6403 95.3015 93.4453 96.4914 93.4316 98.0056C93.4106 100.275 92.9065 102.461 91.9317 104.506L91.9311 104.508C91.2837 105.873 91.861 107.504 93.2257 108.155Z" fill="#F7931E"/>
<path d="M79.2336 76.8632L79.2315 76.863C78.7781 76.8336 78.3216 76.8195 77.864 76.8195H71.1312C69.6204 76.8195 68.3947 78.0452 68.3947 79.556C68.3947 81.0674 69.6202 82.2934 71.1312 82.2934H77.864C78.2006 82.2934 78.5366 82.3047 78.8674 82.3265C78.9406 82.3319 79.006 82.3319 79.0475 82.3318H79.0532C80.4858 82.3318 81.6864 81.2205 81.7827 79.7742C81.8839 78.2658 80.739 76.9653 79.2336 76.8632Z" fill="#F7931E"/>
<path d="M50.855 77.5701C50.345 78.9931 51.0844 80.5589 52.5069 81.07C54.771 81.8832 57.1431 82.2934 59.5589 82.2934H61.2307C62.7416 82.2934 63.9672 81.0674 63.9672 79.556C63.9672 78.0452 62.7414 76.8195 61.2307 76.8195H59.5589C57.7736 76.8195 56.0238 76.5156 54.3554 75.9169C52.9312 75.4053 51.3659 76.1482 50.8552 77.5696L50.855 77.5701Z" fill="#F7931E"/>
<path d="M43.3223 74.6033L43.3227 74.6038C43.8642 75.2598 44.6475 75.6 45.4351 75.6C46.0489 75.6 46.6657 75.3937 47.1752 74.974C48.3453 74.0123 48.5083 72.2849 47.5477 71.1198C46.0946 69.3571 45.0683 67.3595 44.4966 65.1754L44.4965 65.1748C44.1135 63.7166 42.6176 62.8375 41.1539 63.2232C39.6903 63.6067 38.8175 65.1038 39.2005 66.5654C39.9654 69.482 41.3915 72.2596 43.3223 74.6033Z" fill="#F7931E"/>
<path d="M41.2218 58.7183L41.2223 58.7184C41.4768 58.7932 41.7366 58.8321 41.9982 58.8321C43.1791 58.8321 44.2703 58.0621 44.6209 56.8674C45.251 54.733 46.3683 52.7075 47.8515 51.0166L47.8517 51.0164C48.8469 49.8808 48.7353 48.1514 47.5972 47.1544C46.4588 46.1552 44.7306 46.2711 43.7351 47.4091C41.7343 49.694 40.2259 52.4252 39.371 55.3187C38.9435 56.7664 39.77 58.2906 41.2218 58.7183Z" fill="#F7931E"/>
<path d="M51.3543 44.6722L51.3544 44.6726C51.7292 45.8278 52.8023 46.5659 53.9568 46.5659C54.2439 46.5659 54.5255 46.5177 54.7975 46.431L54.7991 46.4305L54.8007 46.43C56.3321 45.9338 57.9308 45.6833 59.5508 45.6833H61.7837C63.2942 45.6833 64.5211 44.4577 64.5211 42.9459C64.5211 41.4347 63.294 40.2094 61.7837 40.2094H59.5488C57.3583 40.2094 55.1922 40.5503 53.1156 41.226C51.6768 41.6909 50.8886 43.2346 51.3543 44.6722Z" fill="#F7931E"/>
<path d="M62.8759 118.904H70.7979C72.3085 118.904 73.5354 117.678 73.5354 116.166C73.5354 114.655 72.3083 113.43 70.7979 113.43H62.8759C61.3655 113.43 60.1384 114.655 60.1384 116.166C60.1384 117.678 61.3653 118.904 62.8759 118.904Z" fill="#F7931E"/>
<path d="M45.0524 118.904H52.9744C54.4861 118.904 55.7119 117.678 55.7119 116.166C55.7119 114.655 54.4859 113.43 52.9744 113.43H45.0524C43.5416 113.43 42.3159 114.655 42.3159 116.166C42.3159 117.678 43.5414 118.904 45.0524 118.904Z" fill="#F7931E"/>
<path d="M86.0319 81.2656C86.8946 80.0258 88.6016 79.7194 89.8421 80.5817L89.8427 80.5821C92.3229 82.3094 94.4466 84.5949 95.9848 87.191L95.985 87.1915C96.7539 88.4915 96.3237 90.1681 95.026 90.9401C94.5858 91.2039 94.1021 91.3242 93.6303 91.3242C92.6964 91.3242 92.0235 90.8957 91.2733 89.9794C90.0543 87.7741 87.4532 85.6223 86.5157 84.9191C85.5782 84.216 84.9922 82.6926 86.0319 81.2656Z" fill="#F7931E"/>
<path d="M72.4991 46.0002C70.2916 46.0002 68.5 44.5446 68.5 42.7496V10.2509C68.5 8.45585 70.2916 7.00024 72.4991 7.00024C74.7066 7.00024 76.5 8.45585 76.5 10.2509V42.7496C76.5 44.5446 74.7066 46.0002 72.4991 46.0002Z" fill="#C7C7C7"/>
<path d="M16.7882 118.2C14.654 118.2 12.9219 116.652 12.9219 114.743V80.1736C12.9219 78.2642 14.654 76.7159 16.7882 76.7159C18.9224 76.7159 20.6562 78.2642 20.6562 80.1736V114.743C20.6562 116.652 18.9224 118.2 16.7882 118.2Z" fill="#C7C7C7"/>
<path d="M68.9375 3.82526H105.266L98.2344 15.7784L105.266 28.2003H68.9375V3.82526Z" fill="url(#paint0_linear)"/>
<path d="M31.0841 80.4778C31.0841 88.3413 24.7093 94.7152 16.8467 94.7152C8.98328 94.7152 2.60938 88.3413 2.60938 80.4778C2.60938 72.6144 8.98328 66.2405 16.8467 66.2405C24.7093 66.2405 31.0841 72.6144 31.0841 80.4778Z" fill="#754C29"/>
<path d="M10.7447 82.5121C9.62225 82.5121 8.7113 81.6003 8.7113 80.4778C8.7113 75.9908 12.3597 72.3425 16.8467 72.3425C17.9691 72.3425 18.8801 73.2534 18.8801 74.3759C18.8801 75.4992 17.9691 76.4102 16.8467 76.4102C14.6036 76.4102 12.779 78.2348 12.779 80.4778C12.779 81.6003 11.868 82.5121 10.7447 82.5121Z" fill="white"/>
<defs>
<linearGradient id="paint0_linear" x1="68.9375" y1="16.0128" x2="105.266" y2="16.0128" gradientUnits="userSpaceOnUse">
<stop stop-color="#EF4223"/>
<stop offset="0.0001" stop-color="#EF4323"/>
<stop offset="1" stop-color="#F7931E"/>
</linearGradient>
</defs>
</svg>
