<svg width="121" height="120" viewBox="0 0 121 120" fill="none" xmlns="http://www.w3.org/2000/svg">
<g clip-path="url(#clip0)">
<path d="M116.62 114.069H92.1344L84.8935 101.465L76.6867 101.383C75.8847 101.376 75.2383 100.721 75.2383 99.92V89.2459H70.2377C69.4504 89.2459 68.8031 88.6224 68.7747 87.8351C68.6465 84.4018 68.75 75.4324 72.7435 69.1574C72.8067 69.0603 72.8671 68.9642 72.9321 68.8699C74.1031 67.1047 76.1072 65.4696 77.1793 64.1659H107.003C107.643 65.7525 108.073 67.4398 108.253 69.2004C108.425 70.8273 108.384 72.5155 108.101 74.2349L104.482 95.4019C104.424 95.7452 104.501 96.095 104.695 96.3824L116.62 114.069Z" fill="#FED2A4"/>
<path d="M116.621 114.068H112.807L100.881 96.3824C100.687 96.0968 100.612 95.7452 100.67 95.4028L104.29 74.234C104.572 72.5146 104.611 70.8264 104.443 69.1995C104.26 67.4407 103.83 65.7525 103.19 64.1668H107.004C107.643 65.7525 108.074 67.4407 108.255 69.1995C108.425 70.8264 108.384 72.5146 108.104 74.234L104.484 95.4028C104.424 95.7452 104.501 96.0959 104.695 96.3824L116.621 114.068Z" fill="#FFBD86"/>
<path d="M108.104 74.235L104.658 94.3849C104.518 95.1997 103.685 95.6977 102.902 95.4359L93.0775 92.1418C92.4805 91.9413 92.0777 91.3819 92.0777 90.753V72.2538H87.1558C86.8043 72.2538 86.4811 72.1293 86.2293 71.9224C85.9006 71.6541 85.6919 71.2458 85.6919 70.789V63.7943H106.849C108.197 66.9337 108.712 70.5079 108.104 74.235Z" fill="#90633C"/>
<path d="M113.678 106.769C110.675 107.806 97.7824 112.105 89.0226 112.544C88.2453 112.584 87.6365 113.227 87.6365 114.006V115.07C87.6365 115.879 88.2929 116.535 89.1013 116.535H119.035C119.893 116.535 120.563 115.802 120.496 114.948C120.341 113.024 119.369 109.697 114.943 106.918C114.565 106.681 114.101 106.623 113.678 106.769Z" fill="url(#paint0_linear)"/>
<path d="M107.882 67.6065H73.8623C69.4797 67.6065 65.9265 64.0534 65.9265 59.6707V52.3502C65.9265 51.5408 66.582 50.8853 67.3914 50.8853H96.8915C103.771 50.8853 109.347 56.4618 109.347 63.3411V66.1426C109.347 66.951 108.691 67.6065 107.882 67.6065Z" fill="#754C29"/>
<path d="M86.8664 89.798C86.8664 91.7133 86.1587 93.3768 84.8165 94.61C83.392 95.9192 81.2982 96.7377 78.5891 97.0416C77.7249 97.1387 76.9357 97.1652 76.325 97.1652C75.8206 97.1652 75.4388 97.146 75.2383 97.1359V93.5068C75.2868 93.5068 75.3372 93.5086 75.3884 93.5141C76.7379 93.6231 80.6198 93.5553 82.3712 91.9394C82.9672 91.3892 83.2446 90.708 83.2446 89.798C83.2446 88.7982 84.0557 87.9871 85.0555 87.9871C86.0571 87.9871 86.8664 88.7991 86.8664 89.798Z" fill="#FFBD86"/>
<path d="M52.2256 87.8351C52.1963 88.6224 51.549 89.245 50.7625 89.245H45.7619V99.92C45.7619 100.721 45.1146 101.376 44.3136 101.383L36.1068 101.465L28.8658 114.069H4.38L16.3048 96.3824C16.4979 96.095 16.5758 95.7443 16.5181 95.4019L12.8981 74.2349C12.6161 72.5155 12.5749 70.8273 12.7461 69.2004C12.9274 67.4398 13.3568 65.7525 13.9967 64.1659H43.821C44.8931 65.4696 46.8963 67.1047 48.0681 68.8699C48.1331 68.9642 48.1936 69.0603 48.2558 69.1574C52.2494 75.4324 52.3537 84.4018 52.2256 87.8351Z" fill="#FED2A4"/>
<path d="M4.37909 114.068H8.19318L20.1189 96.3824C20.313 96.0968 20.388 95.7452 20.3294 95.4028L16.7104 74.234C16.4284 72.5146 16.389 70.8264 16.5565 69.1995C16.7406 67.4407 17.1699 65.7525 17.8099 64.1668H13.9958C13.3568 65.7525 12.9265 67.4407 12.7452 69.1995C12.5749 70.8264 12.6161 72.5146 12.8963 74.234L16.5163 95.4028C16.5758 95.7452 16.4989 96.0959 16.3048 96.3824L4.37909 114.068Z" fill="#FFBD86"/>
<path d="M12.8954 74.235L16.3424 94.3849C16.4815 95.1997 17.3147 95.6977 18.0984 95.4359L27.9229 92.1418C28.5198 91.9413 28.9227 91.3819 28.9227 90.753V72.2538H33.8436C34.1952 72.2538 34.5193 72.1293 34.7711 71.9224C35.0997 71.6541 35.3085 71.2458 35.3085 70.789V63.7943H14.1515C12.8029 66.9337 12.2884 70.5079 12.8954 74.235Z" fill="#F7931E"/>
<path d="M7.32248 106.769C10.3254 107.806 23.2179 112.105 31.9768 112.544C32.755 112.584 33.3629 113.227 33.3629 114.006V115.07C33.3629 115.879 32.7074 116.535 31.8989 116.535H1.96481C1.10695 116.535 0.436788 115.802 0.504537 114.948C0.658345 113.024 1.63155 109.697 6.0563 106.918C6.43533 106.681 6.89951 106.623 7.32248 106.769Z" fill="#754C29"/>
<path d="M13.1178 67.6065H47.1379C51.5206 67.6065 55.0738 64.0534 55.0738 59.6707V52.3502C55.0738 51.5408 54.4173 50.8853 53.6089 50.8853H24.1087C17.2294 50.8853 11.653 56.4618 11.653 63.3411V66.1426C11.653 66.951 12.3085 67.6065 13.1178 67.6065Z" fill="url(#paint1_linear)"/>
<path d="M45.7619 93.5095V97.1359C45.5614 97.145 45.1796 97.1652 44.6751 97.1652C44.0645 97.1652 43.2753 97.1386 42.411 97.0416C39.7011 96.7376 37.6082 95.9191 36.1836 94.6099C34.8414 93.3767 34.1337 91.7132 34.1337 89.7979C34.1337 88.7991 34.9431 87.9879 35.9446 87.9879C36.9444 87.9879 37.7556 88.7991 37.7556 89.7979C37.7556 90.7089 38.033 91.3891 38.629 91.9403C40.3804 93.5552 44.265 93.6257 45.6126 93.514C45.663 93.5095 45.7133 93.5095 45.7619 93.5095Z" fill="#FFBD86"/>
<path d="M39.8704 79.9569C38.8698 79.9569 38.0494 79.1457 38.0494 78.1459C38.0494 77.1462 38.8514 76.335 39.8512 76.335H39.8704C40.8702 76.335 41.6804 77.1462 41.6804 78.1459C41.6804 79.1457 40.8702 79.9569 39.8704 79.9569Z" fill="#754C29"/>
<path d="M81.148 79.9569C80.1483 79.9569 79.3279 79.1457 79.3279 78.1459C79.3279 77.1462 80.129 76.335 81.1297 76.335H81.148C82.1487 76.335 82.959 77.1462 82.959 78.1459C82.959 79.1457 82.1487 79.9569 81.148 79.9569Z" fill="#754C29"/>
<path d="M7.98456 5.93006V34.6575C7.98456 35.9905 9.0658 37.0718 10.3997 37.0718H41.3428L51.3394 43.5519C52.9462 44.5928 55.0675 43.4393 55.0675 41.5249V5.93006C55.0675 4.59705 53.9862 3.51581 52.6532 3.51581H10.3997C9.0658 3.51581 7.98456 4.59705 7.98456 5.93006Z" fill="#754C29"/>
<path d="M113.009 5.93006V34.6575C113.009 35.9905 111.928 37.0718 110.594 37.0718H79.6512L69.6545 43.5519C68.0478 44.5928 65.9265 43.4393 65.9265 41.5249V5.93006C65.9265 4.59705 67.0078 3.51581 68.3408 3.51581H110.595C111.928 3.51581 113.009 4.59705 113.009 5.93006Z" fill="#F7931E"/>
<path d="M20.0721 16.4155H16.4081C15.4075 16.4155 14.5972 15.6044 14.5972 14.6046C14.5972 13.6049 15.4075 12.7937 16.4081 12.7937H20.0721C21.0718 12.7937 21.883 13.6049 21.883 14.6046C21.883 15.6044 21.0718 16.4155 20.0721 16.4155Z" fill="#F9F9F9"/>
<path d="M46.6526 16.4155H25.8701C24.8703 16.4155 24.0591 15.6044 24.0591 14.6046C24.0591 13.6049 24.8703 12.7937 25.8701 12.7937H46.6526C47.6523 12.7937 48.4635 13.6049 48.4635 14.6046C48.4635 15.6044 47.6523 16.4155 46.6526 16.4155Z" fill="#F9F9F9"/>
<path d="M46.6527 22.4517H16.4081C15.4075 22.4517 14.5972 21.6405 14.5972 20.6408C14.5972 19.6401 15.4075 18.8298 16.4081 18.8298H46.6527C47.6524 18.8298 48.4636 19.641 48.4636 20.6408C48.4636 21.6405 47.6524 22.4517 46.6527 22.4517Z" fill="#F9F9F9"/>
<path d="M46.6527 28.4877H16.4081C15.4075 28.4877 14.5972 27.6775 14.5972 26.6768C14.5972 25.6771 15.4075 24.8659 16.4081 24.8659H46.6527C47.6524 24.8659 48.4636 25.6771 48.4636 26.6768C48.4636 27.6775 47.6524 28.4877 46.6527 28.4877Z" fill="#F9F9F9"/>
<path d="M78.0114 16.4155H74.3474C73.3477 16.4155 72.5365 15.6044 72.5365 14.6046C72.5365 13.6049 73.3477 12.7937 74.3474 12.7937H78.0114C79.0111 12.7937 79.8223 13.6049 79.8223 14.6046C79.8223 15.6044 79.0111 16.4155 78.0114 16.4155Z" fill="#F9F9F9"/>
<path d="M104.592 16.4155H83.8093C82.8096 16.4155 81.9984 15.6044 81.9984 14.6046C81.9984 13.6049 82.8096 12.7937 83.8093 12.7937H104.592C105.592 12.7937 106.403 13.6049 106.403 14.6046C106.403 15.6044 105.592 16.4155 104.592 16.4155Z" fill="#F9F9F9"/>
<path d="M104.592 22.4517H74.3474C73.3467 22.4517 72.5365 21.6405 72.5365 20.6408C72.5365 19.6401 73.3467 18.8298 74.3474 18.8298H104.592C105.592 18.8298 106.403 19.641 106.403 20.6408C106.403 21.6405 105.592 22.4517 104.592 22.4517Z" fill="#F9F9F9"/>
<path d="M104.592 28.4877H74.3474C73.3467 28.4877 72.5365 27.6775 72.5365 26.6768C72.5365 25.6771 73.3467 24.8659 74.3474 24.8659H104.592C105.592 24.8659 106.403 25.6771 106.403 26.6768C106.403 27.6775 105.592 28.4877 104.592 28.4877Z" fill="#F9F9F9"/>
</g>
<defs>
<linearGradient id="paint0_linear" x1="87.6365" y1="111.612" x2="120.5" y2="111.612" gradientUnits="userSpaceOnUse">
<stop stop-color="#EF4223"/>
<stop offset="0.0001" stop-color="#EF4323"/>
<stop offset="1" stop-color="#F7931E"/>
</linearGradient>
<linearGradient id="paint1_linear" x1="11.653" y1="59.2459" x2="55.0737" y2="59.2459" gradientUnits="userSpaceOnUse">
<stop stop-color="#EF4223"/>
<stop offset="0.0001" stop-color="#EF4323"/>
<stop offset="1" stop-color="#F7931E"/>
</linearGradient>
<clipPath id="clip0">
<rect width="120" height="120" fill="white" transform="translate(0.5 0.000244141)"/>
</clipPath>
</defs>
</svg>
